<?xml version="1.0" encoding="utf-8"?>
<!-- Generator: Adobe Illustrator 22.0.1, SVG Export Plug-In . SVG Version: 6.00 Build 0)  -->
<svg version="1.1" id="Layer_5" xmlns="http://www.w3.org/2000/svg" xmlns:xlink="http://www.w3.org/1999/xlink" x="0px" y="0px"
	 viewBox="0 0 512 512" style="enable-background:new 0 0 512 512;" xml:space="preserve">
<style type="text/css">
	.st0{fill:#E6E9ED;}
	.st1{fill:#B27946;}
	.st2{fill:#69D6F4;}
	.st3{fill:#4FC1E9;}
	.st4{fill:#FCD770;}
	.st5{fill:#FFC729;}
	.st6{fill:#F0D0B4;}
	.st7{fill:#CCD1D9;}
	.st8{fill:#AAB2BD;}
	.st9{stroke:#FFFFFF;stroke-width:5;stroke-miterlimit:10;}
	.st10{font-family:'DINCondensed-Bold';}
	.st11{font-size:120.7568px;}
</style>
<g>
	<g>
		<g>
			<path class="st0" d="M221.7,130.3l3.1-3.1c4.6-4.6,7.2-10.9,7.2-17.4c0-6.9-3-13.4-8-18V48c0-17.7,14.3-32,32-32h208
				c17.7,0,32,14.3,32,32v128c0,17.7-14.3,32-32,32h-88h-32h-88c-11,0-20.6-5.5-26.2-13.9c1.4-3,2.2-6.5,2.2-10.1
				c0-7.1-3-13.5-8-17.8V136C224,133.8,223.1,131.8,221.7,130.3z"/>
		</g>
		<g>
			<path class="st1" d="M376,328v24c0,4.4-1.8,8.4-4.7,11.3c-2.9,3-6.9,4.7-11.3,4.7c-8.8,0-16-7.2-16-16v-24v-48v-72h32v72V328z"/>
		</g>
		<g>
			<path class="st2" d="M144,464h80v32h-80V464z"/>
		</g>
		<g>
			<path class="st2" d="M64,464h80v32H64V464z"/>
		</g>
		<g>
			<path class="st2" d="M144,400h80v32h-80V400z"/>
		</g>
		<g>
			<path class="st2" d="M64,400h80v32H64V400z"/>
		</g>
		<g>
			<path class="st3" d="M64,432h80v32H64V432z"/>
		</g>
		<g>
			<path class="st3" d="M144,432h80v32h-80V432z"/>
		</g>
		<g>
			<path class="st3" d="M224,328v72h-80v-16l19.2-38.4L196,280h28V328z"/>
		</g>
		<g>
			<path class="st3" d="M144,384v16H64v-16v-94.1c5.2-2.2,10.7-3.8,16.3-4.6l13.2-2.2l31.3,62.6L144,384z"/>
		</g>
		<g>
			<path class="st4" d="M64,289.9V384H16v-22.8c0-12.9,3.2-25.4,9.1-36.3c5.9-11,14.4-20.6,25.1-27.8
				C54.6,294.2,59.2,291.8,64,289.9L64,289.9z"/>
		</g>
		<g>
			<path class="st4" d="M224,280h48v48h-48V280z"/>
		</g>
		<g>
			<path class="st4" d="M144,312l19.2,33.6L144,384l-19.2-38.4L144,312z"/>
		</g>
		<g>
			<path class="st5" d="M196,280l-32.8,65.6L144,312l32-32H196z"/>
		</g>
		<g>
			<path class="st5" d="M144,312l-19.2,33.6L93.5,283l18.5-3L144,312z"/>
		</g>
		<g>
			<path class="st6" d="M64,400v32v32v32H16V384h48V400z"/>
		</g>
		<g>
			<path class="st6" d="M384,280c13.3,0,24,10.7,24,24c0,6.6-2.7,12.6-7,17s-10.3,7-17,7h-8v-48H384z"/>
		</g>
		<g>
			<path class="st6" d="M272,280h72v48h-72V280z"/>
		</g>
		<g>
			<path class="st6" d="M224,166.2c5,4.3,8,10.7,8,17.8c0,3.6-0.8,7-2.2,10.1c-1.2,2.6-2.8,4.9-4.8,6.9c-4.3,4.3-10.3,7-17,7h-8.6
				h-0.1c0.5-2.6,0.6-5.3,0.6-8v-27.3c14.1-6.2,24-20.3,24-36.7V166.2z"/>
		</g>
		<g>
			<path class="st6" d="M168.1,250.6L176,280l-32,32l-32-32l7.9-29.4c7.3,3.5,15.4,5.4,24.1,5.4S160.8,254.1,168.1,250.6z"/>
		</g>
		<g>
			<path class="st6" d="M104,176h80c5.7,0,11.1-1.2,16-3.3V200c0,2.7-0.2,5.4-0.6,8c-2.6,18.9-14.7,34.6-31.3,42.6
				c-7.3,3.5-15.4,5.4-24.1,5.4s-16.8-1.9-24.1-5.4c-5.8-2.7-11-6.5-15.5-11c-8.4-8.4-14.1-19.3-15.8-31.6c-0.5-2.6-0.6-5.3-0.6-8
				v-27.3C92.9,174.8,98.3,176,104,176L104,176z"/>
		</g>
		<g>
			<path class="st6" d="M88,200c0,2.7,0.2,5.4,0.6,8h-0.1H80c-6.6,0-12.6-2.7-17-7s-7-10.3-7-17c0-10.5,6.6-19.4,16-22.6l0.6-0.5
				c1,1.2,2,2.4,3,3.4c3.5,3.5,7.7,6.3,12.3,8.4V200z"/>
		</g>
		<g>
			<path class="st7" d="M224,91.8c-1.2-1.1-2.5-2.1-3.9-3l-61.2-36.8c-4.5-2.6-9.7-4.1-14.9-4.1s-10.4,1.4-14.9,4.1L67.9,88.9
				c-7.4,4.4-11.9,12.4-11.9,21c0,6.5,2.6,12.7,7.2,17.4l3.1,3.1c1.5-1.4,3.4-2.3,5.7-2.3h72h72c2.2,0,4.2,0.9,5.7,2.3l3.1-3.1
				c4.6-4.6,7.2-10.9,7.2-17.4C232,103,229,96.4,224,91.8L224,91.8z"/>
		</g>
		<g>
			<path class="st8" d="M221.7,130.3c1.4,1.5,2.3,3.4,2.3,5.7c0,16.4-9.9,30.5-24,36.7c-4.9,2.1-10.3,3.3-16,3.3h-80
				c-5.7,0-11.1-1.2-16-3.3c-4.6-2.1-8.8-4.9-12.3-8.4c-1-1-2.1-2.2-3-3.4c-5.4-6.8-8.6-15.4-8.6-24.9c0-2.2,0.9-4.2,2.3-5.7
				c1.5-1.4,3.4-2.3,5.7-2.3h72h72C218.2,128,220.2,128.9,221.7,130.3z"/>
		</g>
		<g>
			<circle class="st4" cx="144" cy="104" r="24"/>
		</g>
	</g>
	<g>
		<path d="M174.3,213.3l0.8-1.7l-14.3-7.2l-0.8,1.7c-3,6.1-9.2,9.9-16,9.9s-13-3.8-16-9.9l-0.8-1.7l-14.3,7.2l0.8,1.7
			c5.8,11.6,17.4,18.7,30.3,18.7S168.5,224.8,174.3,213.3z"/>
		<path class="st9" d="M464,8H256c-22.1,0-40,17.9-40,40v29.1l-53-31.8c-11.5-6.9-26.5-6.9-38,0L63.8,82C54,87.8,48,98.5,48,109.9
			c0,8.2,3.1,15.9,8.6,21.9c-0.4,1.4-0.6,2.8-0.6,4.2c0,7.9,2,15.4,5.4,22c-8.2,5.9-13.4,15.5-13.4,26c0,17.6,14.4,32,32,32h2.1
			c4.2,16.2,14.6,29.9,28.5,38.5l-5,18.5L79,277.4c-11.9,2-23.1,6.4-33.2,13.1C22.1,306.3,8,332.7,8,361.2V504h224V336h104v16
			c0,13.2,10.8,24,24,24s24-10.8,24-24v-16c17.6,0,32-14.4,32-32s-14.4-32-32-32v-56h80c22.1,0,40-17.9,40-40V48
			C504,25.9,486.1,8,464,8z M182.1,272l-4.7-17.5c13.9-8.6,24.3-22.3,28.5-38.5h2.1c8.8,0,16.7-3.6,22.5-9.3
			c7.1,5.9,16.1,9.3,25.5,9.3h80v56H182.1z M72,408h64v16H72V408z M72,472h64v16H72V472z M72,456v-16h64v16H72z M152,440h64v16h-64
			V440z M152,424v-16h64v16H152z M152,392v-6.1l48.9-97.9H216v104H152z M144,328.1l10.1,17.7L144,366.1l-10.1-20.3L144,328.1z
			 M179.3,288h3.7l-20.3,40.6l-8.8-15.3L179.3,288z M72,136h144c0,17.6-14.4,32-32,32h-80C86.4,168,72,153.6,72,136z M128,104
			c0-8.8,7.2-16,16-16s16,7.2,16,16s-7.2,16-16,16S128,112.8,128,104z M216.9,170.8c4.3,2.9,7.1,7.8,7.1,13.2c0,8.8-7.2,16-16,16
			v-22.5C211.2,175.6,214.2,173.4,216.9,170.8z M72,95.7L133.3,59c6.5-3.9,15-3.9,21.5,0L216,95.7c4.9,3,8,8.4,8,14.1
			c0,4-1.5,7.7-4,10.7c-1.3-0.3-2.6-0.6-4-0.6h-44.4c2.8-4.7,4.4-10.1,4.4-16c0-17.6-14.4-32-32-32s-32,14.4-32,32
			c0,5.9,1.7,11.3,4.4,16H72c-1.4,0-2.7,0.2-4,0.6c-2.6-3-4-6.7-4-10.7C64,104.1,67.1,98.7,72,95.7L72,95.7z M64,184
			c0-5.4,2.8-10.2,7.1-13.2c2.7,2.6,5.7,4.8,8.9,6.7V200C71.2,200,64,192.8,64,184z M96,200v-16.7c2.6,0.4,5.3,0.7,8,0.7h80
			c2.7,0,5.4-0.3,8-0.7V200c0,26.5-21.5,48-48,48S96,226.5,96,200z M144,264c6.5,0,12.7-1,18.6-2.8l4.4,16.4L144,300.7l-23.1-23.1
			l4.4-16.4C131.3,263,137.5,264,144,264L144,264z M109.3,288.6l24.8,24.8l-8.8,15.3l-19.7-39.5L109.3,288.6z M81.6,293.2l7.4-1.2
			l47,94v6.1H72v-96.4C75.1,294.6,78.3,293.7,81.6,293.2z M54.7,303.8c0.4-0.3,0.9-0.5,1.3-0.8v73H24v-14.8
			C24,338.1,35.5,316.6,54.7,303.8z M24,392h32v96H24V392z M152,488v-16h64v16H152z M232,288h32v32h-32L232,288z M280,320v-32h56v32
			H280z M400,304c0,8.8-7.2,16-16,16v-32C392.8,288,400,295.2,400,304z M368,352c0,4.4-3.6,8-8,8s-8-3.6-8-8V216h16V352z M488,176
			c0,13.2-10.8,24-24,24H256c-6.6,0-12.8-2.8-17.3-7.5c0.8-2.7,1.3-5.6,1.3-8.5c0-7.9-3-15.3-8-21v-32c5.1-5.9,8-13.3,8-21.1
			s-3-15.4-8-21.2V48c0-13.2,10.8-24,24-24h208c13.2,0,24,10.8,24,24V176z"/>
		<text transform="matrix(1.2501 0 0 1 299.1895 151.582)" class="st10 st11">GO</text>
	</g>
</g>
</svg>
