<svg id="color" enable-background="new 0 0 24 24" height="512" viewBox="0 0 24 24" width="512" xmlns="http://www.w3.org/2000/svg"><path d="m15.75 19.51v3.24h-1.5v-3.24c0-.42.34-.75.75-.75s.75.33.75.75z" fill="#ffcc80"/><path d="m15 20c-1.103 0-2-.897-2-2s.897-2 2-2 2 .897 2 2-.897 2-2 2z" fill="#4caf50"/><path d="m14.25 19.854v2.896h.75v-2.75c-.265 0-.518-.052-.75-.146z" fill="#deb26f"/><path d="m15 16c-1.103 0-2 .897-2 2 0 .838.518 1.557 1.25 1.854.232.094.485.146.75.146z" fill="#429846"/><path d="m6 3.75c-.552 0-1-.448-1-1v-1.75c0-.552.448-1 1-1s1 .448 1 1v1.75c0 .552-.448 1-1 1z" fill="#607d8b"/><path d="m9.25 7h-6.5c-.414 0-.75-.336-.75-.75v-2.5c0-.965.785-1.75 1.75-1.75h4.5c.965 0 1.75.785 1.75 1.75v2.5c0 .414-.336.75-.75.75z" fill="#90a4ae"/><path d="m10.25 5h-8.5c-.96 0-1.75.79-1.75 1.75v16h12v-16c0-.96-.79-1.75-1.75-1.75z" fill="#607d8b"/><g fill="#f5f5f5"><path d="m8 23h-4v-5.25c0-.414.336-.75.75-.75h2.5c.414 0 .75.336.75.75z"/><path d="m7 14h-2c-.55 0-1-.45-1-1s.45-1 1-1h2c.55 0 1 .45 1 1s-.45 1-1 1z"/><path d="m7 10h-2c-.55 0-1-.45-1-1s.45-1 1-1h2c.55 0 1 .45 1 1s-.45 1-1 1z"/></g><path d="m18 24h-17c-.552 0-1-.448-1-1s.448-1 1-1h17c.552 0 1 .448 1 1s-.448 1-1 1z" fill="#90a4ae"/><path d="m23.491 2.826-5.25-1.786c-.156-.054-.326-.054-.482 0l-5.25 1.786c-.305.103-.509.389-.509.71v4.018c0 4.904 5.474 7.288 5.707 7.387.188.079.398.079.586 0 .233-.099 5.707-2.483 5.707-7.387v-4.018c0-.321-.204-.607-.509-.71z" fill="#2196f3"/><path d="m21.286 6.618-2.75 3.5c-.168.214-.417.351-.688.377-.032.003-.065.005-.098.005-.237 0-.469-.084-.65-.241l-1.75-1.5c-.42-.359-.469-.991-.108-1.41.359-.419.991-.467 1.409-.108l.958.821 2.105-2.679c.341-.434.969-.511 1.404-.168.434.34.51.969.168 1.403z" fill="#fff"/><path d="m18 1c-.082 0-.163.013-.241.04l-5.25 1.786c-.305.103-.509.388-.509.71v4.018c0 4.904 5.474 7.288 5.707 7.387.094.039.194.059.293.059v-4.532c-.05.013-.101.022-.152.027l-.098.005c-.237 0-.469-.084-.65-.241l-1.75-1.5c-.42-.359-.469-.991-.108-1.41.197-.23.477-.349.759-.349.23 0 .461.079.649.24l.958.821.392-.498z" fill="#1d83d4"/><path d="m16.001 7c-.282 0-.562.118-.76.349-.36.419-.312 1.051.108 1.41l1.75 1.5c.182.156.413.241.65.241l.098-.005c.052-.005.103-.014.152-.027v-2.905l-.392.498-.957-.82c-.188-.162-.419-.241-.649-.241z" fill="#dedede"/><path d="m6 0c-.552 0-1 .448-1 1v1h1z" fill="#546d79"/><path d="m6 2h-1-1.25c-.965 0-1.75.785-1.75 1.75v1.25h4z" fill="#7d8f97"/><path d="m6 5h-4-.25c-.96 0-1.75.79-1.75 1.75v16h.032c.111-.431.502-.75.968-.75h3v-4.25c0-.414.336-.75.75-.75h1.25v-3h-1c-.55 0-1-.45-1-1s.45-1 1-1h1v-2h-1c-.55 0-1-.45-1-1s.45-1 1-1h1z" fill="#546d79"/><path d="m6 17h-1.25c-.414 0-.75.336-.75.75v4.25h2z" fill="#d5d5d5"/><path d="m6 12h-1c-.55 0-1 .45-1 1s.45 1 1 1h1z" fill="#d5d5d5"/><path d="m6 8h-1c-.55 0-1 .45-1 1s.45 1 1 1h1z" fill="#d5d5d5"/><path d="m6 22h-2-3c-.466 0-.857.319-.969.75-.02.08-.031.164-.031.25 0 .552.448 1 1 1h5z" fill="#7d8f97"/></svg>