<svg height="512" viewBox="0 0 512 512" width="512" xmlns="http://www.w3.org/2000/svg"><g><g><path d="m240 272h32v160h-32z" fill="#787680"/><path d="m240 248h32v24h-32z" fill="#e0e0e2"/><path d="m240 432h32v24h-32z" fill="#e0e0e2"/><path d="m48 32h96v24h-96z" fill="#787680"/><path d="m56 56a40 40 0 0 0 80 0" fill="#ffda44"/><path d="m367 32h96v24h-96z" fill="#787680" transform="matrix(-1 0 0 -1 830 88)"/><path d="m375 56a40 40 0 0 0 80 0" fill="#ffda44"/><path d="m312 480h-112l8-24h96z" fill="#57565c"/></g><path d="m496 472h-178.23l-6.18-18.53a8 8 0 0 0 -7.59-5.47h-24v-344a56.062 56.062 0 0 1 56-56h23v8a8 8 0 0 0 8 8h.68a47.99 47.99 0 0 0 94.64 0h.68a8 8 0 0 0 8-8v-24a8 8 0 0 0 -8-8h-96a8 8 0 0 0 -8 8h-23a72.083 72.083 0 0 0 -72 72v136h-16v-136a72.083 72.083 0 0 0 -72-72h-24a8 8 0 0 0 -8-8h-96a8 8 0 0 0 -8 8v24a8 8 0 0 0 8 8h.68a47.99 47.99 0 0 0 94.64 0h.68a8 8 0 0 0 8-8v-8h24a56.062 56.062 0 0 1 56 56v344h-24a8 8 0 0 0 -7.59 5.47l-6.18 18.53h-178.23a8 8 0 0 0 0 16h480a8 8 0 0 0 0-16zm-81-384a32.058 32.058 0 0 1 -30.99-24h61.98a32.058 32.058 0 0 1 -30.99 24zm-40-48h80v8h-80zm-279 48a32.058 32.058 0 0 1 -30.99-24h61.98a32.058 32.058 0 0 1 -30.99 24zm40-40h-80v-8h80zm112 208h16v8h-16zm0 24h16v144h-16zm0 160h16v8h-16zm-36.9 32 2.67-8h84.46l2.67 8z"/></g></svg>