<svg id="Layer_5" enable-background="new 0 0 64 64" height="512" viewBox="0 0 64 64" width="512" xmlns="http://www.w3.org/2000/svg"><g><path d="m14 17h-4v12h2v-4h2c2.206 0 4-1.794 4-4s-1.794-4-4-4zm0 6h-2v-4h2c1.103 0 2 .897 2 2s-.897 2-2 2z"/><path d="m49 21h-2v-2h6v-2h-8v6h4c1.103 0 2 .897 2 2s-.897 2-2 2-2-.897-2-2h-2c0 2.206 1.794 4 4 4s4-1.794 4-4-1.794-4-4-4z"/><path d="m28.818 7.165c.622.115 1.233.289 1.817.517l.729-1.862c-.702-.275-1.437-.483-2.183-.621z"/><path d="m15.198 14.819 1.967.361c.871-4.74 5.007-8.18 9.835-8.18v-2c-5.793 0-10.757 4.129-11.802 9.819z"/><path d="m63 23c0-5.514-4.486-10-10-10-.7 0-1.405.077-2.104.229-1.704-2.034-4.233-3.229-6.896-3.229-.837 0-1.662.116-2.462.344-2.601-5.707-8.208-9.344-14.538-9.344-7.321 0-13.696 5-15.494 12.016-.173-.011-.341-.016-.506-.016-5.514 0-10 4.486-10 10s4.486 10 10 10h5.537c-2.218 3.108-3.537 6.899-3.537 11 0 10.477 8.523 19 19 19s19-8.523 19-19c0-4.101-1.319-7.892-3.537-11h5.537c5.514 0 10-4.486 10-10zm-31 38c-9.374 0-17-7.626-17-17s7.626-17 17-17 17 7.626 17 17-7.626 17-17 17zm-4-35.568c-2.162.465-4.179 1.309-6 2.443v-7.182l1.323 3.307h3.354l1.323-3.308zm15.619 3.568h.381v-2h-3.566c-1.141-.568-2.345-1.022-3.602-1.353l1.386-.924c1.116-.744 1.782-1.988 1.782-3.328v-.395c0-2.206-1.794-4-4-4s-4 1.794-4 4v1h2v-1c0-1.103.897-2 2-2s2 .897 2 2v.395c0 .67-.333 1.292-.891 1.664l-3.08 2.053c-.667-.071-1.343-.112-2.029-.112-.676 0-1.342.038-2 .107v-8.107h-2.677l-2 5h-.646l-2-5h-2.677v12.285c-.646.528-1.247 1.107-1.818 1.715h-7.182c-4.411 0-8-3.589-8-8s3.589-8 8-8c.341 0 .704.029 1.144.092l.94.134.183-.932c1.282-6.544 7.058-11.294 13.733-11.294 5.82 0 10.941 3.515 13.047 8.955l.367.95.943-.385c.846-.345 1.736-.52 2.643-.52 2.249 0 4.378 1.099 5.693 2.939l.411.575.679-.195c.736-.212 1.481-.319 2.217-.319 4.411 0 8 3.589 8 8s-3.589 8-8 8h-7.182c-.68-.723-1.414-1.391-2.199-2z"/><path d="m33 44c0 3.86 3.141 7 7 7s7-3.14 7-7-3.141-7-7-7-7 3.14-7 7zm12 0c0 2.757-2.243 5-5 5s-5-2.243-5-5 2.243-5 5-5 5 2.243 5 5z"/><path d="m29 37h-8c-1.103 0-2 .897-2 2v2c0 1.103.897 2 2 2h8c1.103 0 2-.897 2-2v-2c0-1.103-.897-2-2-2zm-8 4v-2h8l.001 2z"/><path d="m19 45h12v2h-12z"/><path d="m19 49h12v2h-12z"/><path d="m54.949 39.05-1.414 1.414c.944.945 1.465 2.201 1.465 3.536s-.521 2.591-1.465 3.536l1.414 1.414c1.322-1.323 2.051-3.08 2.051-4.95s-.729-3.627-2.051-4.95z"/><path d="m56.364 37.636c3.509 3.509 3.509 9.219 0 12.729l1.414 1.414c4.289-4.289 4.289-11.268 0-15.557z"/><path d="m9.051 39.05c-1.322 1.323-2.051 3.08-2.051 4.95s.729 3.627 2.051 4.95l1.414-1.414c-.944-.945-1.465-2.201-1.465-3.536s.521-2.591 1.465-3.536z"/><path d="m7.636 37.636-1.414-1.414c-4.289 4.289-4.289 11.268 0 15.557l1.414-1.414c-3.509-3.51-3.509-9.22 0-12.729z"/></g></svg>