<?xml version="1.0" encoding="utf-8"?>
<!-- Generator: Adobe Illustrator 22.0.1, SVG Export Plug-In . SVG Version: 6.00 Build 0)  -->
<svg version="1.1" id="Layer_1" xmlns="http://www.w3.org/2000/svg" xmlns:xlink="http://www.w3.org/1999/xlink" x="0px" y="0px"
	 viewBox="0 0 500 500" style="enable-background:new 0 0 500 500;" xml:space="preserve">
<style type="text/css">
	.st0{stroke:#000000;stroke-width:5;stroke-miterlimit:10;}
</style>
<g>
	<path class="st0" d="M250,489.3c-63.9,0-124-24.9-169.2-70.1C35.6,374,10.7,313.9,10.7,250c0-63.9,24.9-124,70.1-169.2
		C126,35.6,186.1,10.7,250,10.7c63.9,0,124,24.9,169.2,70.1c45.2,45.2,70.1,105.3,70.1,169.2c0,63.9-24.9,124-70.1,169.2
		S313.9,489.3,250,489.3z M250,22.7c-60.7,0-117.8,23.6-160.7,66.6c-42.9,42.9-66.6,100-66.6,160.7s23.6,117.8,66.6,160.7
		s100,66.6,160.7,66.6s117.8-23.6,160.7-66.6s66.6-100,66.6-160.7s-23.6-117.8-66.6-160.7S310.7,22.7,250,22.7z"/>
</g>
<g>
	<g>
		<circle cx="250.2" cy="129.1" r="12.7"/>
	</g>
	<g>
		<circle cx="250.2" cy="170.2" r="12.7"/>
	</g>
	<g>
		<circle cx="250.2" cy="211.2" r="12.7"/>
	</g>
</g>
<g>
	<circle cx="286" cy="148.7" r="12.7"/>
</g>
<g>
	<circle cx="321.6" cy="170.2" r="12.7"/>
</g>
<g>
	<circle cx="172" cy="170.2" r="12.7"/>
</g>
<g>
	<circle cx="286" cy="189.7" r="12.7"/>
</g>
<g>
	<circle cx="210.4" cy="148.7" r="12.7"/>
</g>
<g>
	<circle cx="210.4" cy="189.7" r="12.7"/>
</g>
<g>
	<path d="M168.5,273.1c4.5-0.8,10.4-1.4,17.9-1.4c9.2,0,16,2.1,20.3,6c4,3.4,6.3,8.7,6.3,15.1c0,6.5-1.9,11.7-5.6,15.4
		c-4.9,5.3-13,7.9-22.1,7.9c-2.8,0-5.4-0.1-7.5-0.6v29h-9.3V273.1z M177.8,308c2,0.5,4.6,0.8,7.7,0.8c11.3,0,18.1-5.5,18.1-15.4
		c0-9.5-6.8-14.2-17.1-14.2c-4.1,0-7.2,0.3-8.8,0.8V308z"/>
	<path d="M285.2,312.8c-0.5-10.1-1.2-22.2-1.1-31.2h-0.3c-2.5,8.5-5.5,17.5-9.1,27.5l-12.8,35.1h-7.1l-11.7-34.4
		c-3.4-10.2-6.3-19.5-8.4-28.1h-0.2c-0.2,9-0.8,21.1-1.4,32l-1.9,31h-8.9l5-72.3h11.9l12.3,35c3,8.9,5.5,16.8,7.3,24.4h0.3
		c1.8-7.3,4.4-15.2,7.6-24.4l12.9-35h11.9l4.5,72.3H287L285.2,312.8z"/>
</g>
<g>
	<path d="M318.6,330.7L318.6,330.7l-5.5,2.9l-0.8-3.2l6.8-3.6h3.6v31h-4.1V330.7z"/>
	<path d="M354.5,341.9c0,10.5-3.9,16.4-10.8,16.4c-6.1,0-10.2-5.7-10.3-15.9c0-10.4,4.5-16.1,10.8-16.1
		C350.8,326.2,354.5,332,354.5,341.9z M337.7,342.4c0,8.1,2.5,12.6,6.3,12.6c4.3,0,6.3-5,6.3-12.9c0-7.6-2-12.6-6.3-12.6
		C340.4,329.5,337.7,334,337.7,342.4z"/>
</g>
</svg>
