<svg id="Capa_1" enable-background="new 0 0 510 510" height="512" viewBox="0 0 510 510" width="512" xmlns="http://www.w3.org/2000/svg"><g><path d="m482.075 201.423c-13.452-13.696-30.285-22.942-48.647-26.942 1.046-5.667 1.572-11.434 1.572-17.269 0-52.383-42.617-95-95-95-16.584 0-32.565 4.25-46.666 12.23-15.547-42.469-56.466-72.229-103.334-72.229-60.654 0-110 49.346-110 110 0 8.56.972 16.984 2.899 25.191-20.846 6.425-39.662 18.617-54.156 35.312-18.535 21.349-28.743 48.694-28.743 76.997 0 44.72 26.901 86.466 68.535 106.353 11.682 5.58 23.898 9.175 36.465 10.768v5.068c0 26.198 19.659 47.891 45 51.101v40.201c0 24.583 20 44.584 44.584 44.584h120.832c24.584 0 44.584-20 44.584-44.584v-40.201c25.341-3.21 45-24.903 45-51.101v-4.659s6.808-.03 7.5-.03c53.762 0 97.5-43.738 97.5-97.5 0-25.703-9.917-49.956-27.925-68.29zm-128.586 191.989h-23.489v69.791c0 8.042-6.542 14.584-14.584 14.584h-15.416v-60h-30v60h-30v-60h-30v60h-15.416c-8.042 0-14.584-6.542-14.584-14.584v-69.791h-23.489c-11.861 0-21.511-9.65-21.511-21.511v-49.114c0-66.168 53.832-120 120-120s120 53.832 120 120l-.287 15.003.287 34.111c0 11.861-9.649 21.511-21.511 21.511zm59.011-56.199c-.982 0-7.5-.003-7.5-.003v-14.423c0-82.71-67.29-150-150-150s-150 67.29-150 150v13.727c-8.077-1.385-15.951-3.896-23.535-7.519-31.264-14.933-51.465-46.053-51.465-79.282 0-42.947 31.967-80.143 74.357-86.519l18.927-2.847-7.288-17.698c-3.979-9.662-5.996-19.902-5.996-30.437 0-44.112 35.888-80 80-80 40.092 0 74.197 29.928 79.331 69.616l3.849 29.749 21.491-20.926c12.212-11.89 28.311-18.438 45.329-18.438 35.841 0 65 29.159 65 65 0 8.416-1.6 16.626-4.754 24.404l-8.194 20.206 21.8.428c36.475.717 66.148 30.98 66.148 67.461 0 37.221-30.28 67.501-67.5 67.501z"/><path d="m180 297.787h30v30h-30z"/><path d="m300 297.787h30v30h-30z"/><path d="m240 342.787h30v45h-30z"/></g></svg>