<?xml version="1.0" encoding="utf-8"?>
<!-- Generator: Adobe Illustrator 22.0.1, SVG Export Plug-In . SVG Version: 6.00 Build 0)  -->
<svg version="1.1" id="Layer_1" xmlns="http://www.w3.org/2000/svg" xmlns:xlink="http://www.w3.org/1999/xlink" x="0px" y="0px"
	 viewBox="0 0 512 512" style="enable-background:new 0 0 512 512;" xml:space="preserve">
<style type="text/css">
	.st0{stroke:#FFFFFF;stroke-width:5;stroke-miterlimit:10;}
</style>
<g id="Outline">
	<g>
		<path class="st0" d="M176,104c4.4,0,8.8-0.9,12.8-2.7c16,15,41.2,14.2,56.2-1.8c0.3-0.3,0.6-0.7,1-1.1c14.5,10,34.4,6.3,44.4-8.2
			c3.7-5.3,5.6-11.7,5.6-18.2c0-4.4-3.6-8-8-8s-8,3.6-8,8c0,8.8-7.2,16-16,16c-5.1,0-9.9-2.5-12.9-6.7c-2.6-3.6-7.6-4.4-11.2-1.8
			c-1.1,0.8-1.9,1.8-2.5,2.9c-5.7,11.8-19.9,16.8-31.7,11.1c-3.5-1.7-6.6-4.2-8.9-7.4c-1.3-1.7-3.2-2.8-5.3-3.1
			c-2.1-0.3-4.2,0.3-6,1.5c-2.7,2.1-6.1,3.3-9.6,3.3c-8.8,0-16-7.2-16-16c0-4.4-3.6-8-8-8s-8,3.6-8,8C144,89.7,158.3,104,176,104z"
			/>
		<path class="st0" d="M40,80c5.2,0,10.3-1.7,14.4-4.8c10.6,14.1,30.7,17,44.8,6.4c8.1-6,12.8-15.5,12.8-25.6c0-4.4-3.6-8-8-8
			s-8,3.6-8,8c0,8.8-7.2,16-16,16s-16-7.2-16-16c0-4.4-3.6-8-8-8s-8,3.6-8,8s-3.6,8-8,8s-8-3.6-8-8s-3.6-8-8-8s-8,3.6-8,8
			C16,69.3,26.7,80,40,80z"/>
		<path class="st0" d="M448,152c0-4.4-3.6-8-8-8s-8,3.6-8,8c0,8.8-7.2,16-16,16s-16-7.2-16-16c0-4.4-3.6-8-8-8s-8,3.6-8,8
			s-3.6,8-8,8s-8-3.6-8-8s-3.6-8-8-8s-8,3.6-8,8c0,13.3,10.7,24,24,24c5.2,0,10.2-1.7,14.4-4.8c10.6,14.1,30.7,17,44.8,6.4
			C443.3,171.6,448,162.1,448,152z"/>
		<path class="st0" d="M392,104c0,13.3,10.8,24,24,24c5.9,0,11.6-2.2,16-6.1c4.4,4,10.1,6.1,16,6.1c4.4,0,8-3.6,8-8s-3.6-8-8-8
			s-8-3.6-8-8s-3.6-8-8-8s-8,3.6-8,8s-3.6,8-8,8s-8-3.6-8-8s-3.6-8-8-8S392,99.6,392,104z"/>
		<path class="st0" d="M336,120c13.3,0,24-10.7,24-24c0-4.4-3.6-8-8-8s-8,3.6-8,8s-3.6,8-8,8s-8-3.6-8-8s-3.6-8-8-8s-8,3.6-8,8
			C312,109.3,322.7,120,336,120z"/>
		<path class="st0" d="M376,80c13.3,0,24-10.7,24-24c0-4.4-3.6-8-8-8s-8,3.6-8,8s-3.6,8-8,8s-8-3.6-8-8s-3.6-8-8-8s-8,3.6-8,8
			C352,69.3,362.7,80,376,80z"/>
		<path class="st0" d="M432,232c13.3,0,24-10.7,24-24c0-4.4-3.6-8-8-8s-8,3.6-8,8s-3.6,8-8,8s-8-3.6-8-8s-3.6-8-8-8s-8,3.6-8,8
			C408,221.3,418.7,232,432,232z"/>
		<path class="st0" d="M240,440h-72.7c-4.4-26.1-29.2-43.7-55.3-39.3S68.2,429.9,72.6,456c4.4,26.1,29.2,43.7,55.3,39.3
			c20.1-3.4,35.9-19.2,39.3-39.3H240c4.4,0,8-3.6,8-8S244.4,440,240,440z M120,480c-17.7,0-32-14.3-32-32s14.3-32,32-32
			s32,14.3,32,32S137.7,480,120,480z"/>
		<path class="st0" d="M216,392v16c0,4.4,3.6,8,8,8s8-3.6,8-8v-16c0-4.4-3.6-8-8-8S216,387.6,216,392z"/>
		<circle class="st0" cx="120" cy="448" r="8"/>
		<circle class="st0" cx="312" cy="448" r="8"/>
		<path class="st0" d="M298.8,375.4c0.2-0.1,0.5-0.2,0.7-0.3c0.2-0.1,0.5-0.2,0.7-0.3l40-24c3.8-2.3,5-7.2,2.7-11
			c-0.1-0.1-0.1-0.2-0.2-0.3l-16-24c-1.5-2.2-4-3.6-6.7-3.6H184c-2.7,0-5.2,1.3-6.7,3.6l-32,48c-2.5,3.7-1.5,8.6,2.2,11.1
			c1.3,0.9,2.9,1.3,4.4,1.3h144C296.9,376,297.9,375.8,298.8,375.4z M288,360h-56v-32h56V360z M324.7,341.5L304,353.9V328h11.7
			L324.7,341.5z M188.3,328H216v32h-49L188.3,328z"/>
		<path class="st0" d="M168,152c5.3,0,10.5-1.3,15.2-3.9c5.2,6.4,12.7,10.5,20.9,11.6c15.7,18.1,42.5,21.6,62.3,8.2
			c8.2-0.6,15.8-4.4,21.3-10.5c2.4,2.8,5.3,5.2,8.5,7.1c-1.2,11.6,3.1,23,11.6,30.9c7.1,8.2,17.4,13,28.2,13.3h0.4
			c7-0.1,13.9-2.1,19.9-5.8c3.8-2.3,5-7.2,2.8-11c-2.3-3.8-7.2-5-11-2.8c-3.6,2.2-7.7,3.4-11.9,3.5c-6.5-0.2-12.5-3.2-16.7-8.2
			c-6.7-5.4-9.3-14.4-6.5-22.6c1.2-4.2-1.2-8.7-5.4-9.9c0,0,0,0,0,0c-5.4-1.6-9.6-5.8-11-11.3c-0.7-2.7-2.7-4.8-5.3-5.6l-1.2-0.3
			c-2.1-0.9-4.5-0.8-6.6,0.3c-2,1-3.6,2.9-4.2,5.1c-1.8,6.9-8,11.7-15.1,11.9c-1.9-0.1-3.7,0.5-5.2,1.6c-13.9,10.5-33.6,7.8-44.2-6
			c-0.1-0.1-0.2-0.3-0.3-0.4c-1.6-2.1-4.1-3.3-6.8-3.2c-6.6-0.1-12.4-4.3-14.7-10.5c-1.5-4.1-6.1-6.3-10.3-4.7
			c-1.2,0.4-2.2,1.1-3.1,2.1c-3,3.3-7.2,5.2-11.7,5.2c-8.7,0-15.9-7-16-15.7c0-0.2,0-0.3,0-0.4c-0.1-2.7-1.5-5.1-3.6-6.7l-0.5-0.4
			c-3.3-2.7-8.2-2.2-10.9,1.1c0,0-0.1,0.1-0.1,0.1c-2.1,2.6-2.4,6.1-0.8,9C137.6,139.4,151.5,152,168,152z"/>
		<path class="st0" d="M40,120c4.2,0,8.4-1.1,12-3.3c6.4,3.7,14.2,4.2,21.1,1.5c12.2,12.7,32.3,13.1,45,1c1.7-1.7,3.3-3.5,4.6-5.5
			c2.4-3.7,1.4-8.7-2.2-11.1s-8.7-1.4-11.1,2.2l0,0c-4.8,7.3-14.6,9.4-22,4.6c-2.2-1.4-4-3.4-5.3-5.7c-1.2-2.2-3.3-3.7-5.8-4
			c-2.5-0.4-4.9,0.4-6.7,2.1c-3.1,3-8.1,3-11.1-0.1c-0.1-0.1-0.3-0.3-0.4-0.4c-3.1-3.3-8.3-3.5-11.7-0.4c-0.1,0.1-0.3,0.2-0.4,0.4
			c-1.5,1.8-3.7,2.8-6,2.8c-4.4,0-8-3.6-8-8s-3.6-8-8-8s-8,3.6-8,8C16,109.3,26.7,120,40,120z"/>
		<path class="st0" d="M487.9,211.5c0.1-1,0.1-1.9,0.1-2.8c0-10.1-3.8-19.8-10.8-27.2c2.5-5.6,3.3-11.9,2.3-17.9
			c-1.1-6.6-4.2-12.7-8.9-17.4c0.3-1,0.5-2,0.7-3.1c14.4-3.4,24.6-16.3,24.6-31.2c0-4.4-3.6-8-8-8s-8,3.6-8,8c0,8.8-7.2,16-16,16
			c-4.4,0-8,3.6-8,8c0,3.3-0.7,6.6-2,9.6c-1.5,3.5-0.3,7.7,2.8,9.8c3.7,2.5,6.2,6.3,7,10.7c0.7,4.3-0.4,8.7-3.1,12.2
			c-2.7,3.5-2,8.5,1.6,11.2c0,0,0,0,0,0c6.1,4.5,9.7,11.6,9.7,19.2c0,1.5-0.2,2.9-0.5,4.3c-0.5,2.8,0.5,5.7,2.7,7.5
			c6.7,5.5,7.7,15.4,2.2,22.1c-0.2,0.3-0.5,0.5-0.7,0.8c-2.1,2.3-2.7,5.5-1.6,8.3c3.5,8.8,5.4,18.1,5.8,27.6c-0.7,1.6-0.8,3.3-0.4,5
			c1.7,6.6-1.2,13.6-7,17.1c-3.6,2.3-4.8,7-2.7,10.7c1.4,2.4,2.1,5.1,2.2,7.8c0,4-1.5,7.8-4.3,10.8c-3,3.3-2.8,8.3,0.5,11.3
			c1.3,1.2,2.9,1.9,4.6,2.1c4.3,0.4,7.5,4.2,7.2,8.5c-0.2,2.1-1.2,4-2.8,5.3c-3.3,2.9-3.6,8-0.7,11.3c0.2,0.3,0.5,0.5,0.7,0.7
			c3.3,2.8,3.7,7.7,0.9,11.1c-0.7,0.8-1.5,1.4-2.4,1.9c-3.9,2.1-5.3,7-3.2,10.8c0.5,0.9,1.2,1.8,2.1,2.5c2.5,2,3.8,5.2,3.3,8.4
			l-0.8,4.6c-1.2,7.9-4.9,15.2-10.7,20.8c-7.2,6.5-16.7,9.8-26.4,9v-17.4l3-1.5c2.3-1.2,4.5-2.8,6.3-4.7c2.8-2.9,3-7.4,0.5-10.5
			c-2.7-3.3-2.3-8.2,1.1-11c0.4-0.3,0.8-0.6,1.2-0.8c2.5-1.4,4-4.1,4-6.9V384c0-4.4-3.6-8-8-8c-4.4,0-7.9-3.5-8-7.8l0.1-0.9
			c0.3-3.6-1.9-7-5.3-8.2c-8.3-2.8-12.7-11.8-10-20.1c1.6-4.7,5.3-8.4,10-10c3.4-1.2,5.6-4.5,5.4-8.1c0-0.2-0.1-0.7-0.1-0.9
			c0-1.1,0.1-2.1,0.3-3.2c0.2-1.2,0.2-2.4-0.1-3.6c-0.1-0.4-0.2-0.8-0.2-1.2c0-3,1.8-5.8,4.5-7.1c4-2,5.6-6.8,3.6-10.7
			c-0.4-0.8-0.9-1.5-1.5-2.1l-10.1-10.1c-2-1.9-2.8-4.7-2-7.3c3.5-10-0.1-21.2-8.8-27.3c-2.3-1.6-5.3-1.9-7.9-0.7
			c-2.8,1.3-5.8,2-8.8,2.1c-6.1,0-11.9-2.5-16-7c-10.4-10.4-9.7-17.1-8.1-23.1c1.3-4.2-1.2-8.7-5.4-9.9c-4.2-1.3-8.7,1.2-9.9,5.4
			c0,0.1-0.1,0.3-0.1,0.5c-2.6,9.7-3.4,22.8,12.3,38.5c7.3,7.7,17.5,11.9,28.1,11.6c3.1-0.1,6.2-0.7,9.2-1.5c1,1.9,1.1,4,0.4,6
			c-2.8,8.4-0.6,17.8,5.8,24l4,4c-3.3,4.2-5.2,9.4-5.1,14.8c0,1.1,0.1,2.3,0.3,3.4c0,0.3-0.1,0.6-0.1,0.9
			c-15.3,8.6-20.7,28-12.1,43.3c2.9,5.1,7.1,9.3,12.2,12.2c1.1,6.8,5,12.8,10.8,16.5c-3.3,5.8-4,12.6-2,19l-1.6,0.8H408v-17.6
			c0-16.3-5.6-32.2-15.8-45L347,289c-4.5-5.7-11.4-9-18.7-9H176c-7.6,0-14.7,3.6-19.2,9.6L116,344H54.6c-6.4,0-12.5,2.5-17,7
			L23,365.7c-4.5,4.5-7.1,10.6-7,17V448c0,4.4,3.6,8,8,8h24c4.4,0,8-3.6,8-8s-3.6-8-8-8H32v-40h24c13.3,0,24-10.7,24-24v-16h40
			c2.5,0,4.9-1.2,6.4-3.2l43.2-57.6c1.5-2,3.9-3.2,6.4-3.2h152.3c2.4,0,4.7,1.1,6.2,3l45.2,56.5c6.5,8.2,10.6,18.1,11.7,28.5H376
			c-4.4,0-8,3.6-8,8s3.6,8,8,8h16v40h-32.7c-4.4-26.1-29.2-43.7-55.3-39.3s-43.7,29.2-39.3,55.3s29.2,43.7,55.3,39.3
			c20.1-3.4,35.9-19.2,39.3-39.3H432c1.4,0,2.8-0.5,4-1.3c14.9,2.1,30-2.6,41.1-12.8c8.5-7.9,14-18.5,15.7-30l0.8-4.6
			c0.9-5.6-0.1-11.4-2.9-16.4c6.2-7.7,7-18.4,2-26.9c6.3-10.8,3.2-24.7-7.2-31.8c1.6-3.9,2.4-8,2.4-12.2c0-3.2-0.5-6.3-1.5-9.4
			c6.1-6,9.5-14.1,9.5-22.6c0-1.3-0.1-2.5-0.2-3.8c0.2-0.6,0.2-1.3,0.2-2c0-10.9-1.8-21.7-5.3-32
			C498.7,238.2,497.6,222.3,487.9,211.5L487.9,211.5z M64,376c0,4.4-3.6,8-8,8H32v-1.4c0-2.1,0.8-4.2,2.3-5.7L49,362.3
			c1.5-1.5,3.5-2.3,5.7-2.3H64V376z M312,480c-17.7,0-32-14.3-32-32s14.3-32,32-32s32,14.3,32,32S329.7,480,312,480z M424,440h-16
			v-16h16V440z"/>
	</g>
</g>
</svg>
