<?xml version="1.0" encoding="utf-8"?>
<!-- Generator: Adobe Illustrator 16.0.0, SVG Export Plug-In . SVG Version: 6.00 Build 0)  -->
<!DOCTYPE svg PUBLIC "-//W3C//DTD SVG 1.1//EN" "http://www.w3.org/Graphics/SVG/1.1/DTD/svg11.dtd">
<svg version="1.1" id="Layer_1" xmlns="http://www.w3.org/2000/svg" xmlns:xlink="http://www.w3.org/1999/xlink" x="0px" y="0px"
	 width="400px" height="400px" viewBox="-46.02 -18.118 400 400" enable-background="new -46.02 -18.118 400 400"
	 xml:space="preserve">
<g>
	<path fill="#F4284F" d="M44.339,296.897c-19.779,0-36.123-17.441-38.271-36.656h20.96c1.937,7.756,8.96,15.973,17.312,15.973
		c8.353,0,15.377-8.213,17.313-15.973h20.965C80.468,279.461,64.124,296.897,44.339,296.897z"/>
	<g>
		<path fill="#F4284F" d="M278.672,297.897c-21.24,0-38.521-17.279-38.521-38.523s17.28-38.52,38.521-38.52
			c21.248,0,38.523,17.279,38.523,38.52S299.92,297.897,278.672,297.897z"/>
		<path d="M273.672,238.534c-9.836,0-17.84,8.004-17.84,17.84s8.004,17.84,17.84,17.84c9.84,0,17.84-8,17.84-17.84
			S283.512,238.534,273.672,238.534z M273.672,265.59c-5.084,0-9.216-4.132-9.216-9.212s4.132-9.212,9.216-9.212
			s9.216,4.136,9.216,9.212C282.888,261.458,278.756,265.59,273.672,265.59z"/>
		<path d="M296.216,214.978c8.116-0.035,15.64,0.301,19.983,0.612c1.492,0.108,2.929-0.567,3.805-1.776
			c0.876-1.211,1.063-2.787,0.491-4.168c-5.231-12.691-20.1-27.592-24.756-32.063v-13.356c0-2.384-1.928-4.315-4.312-4.315h-34.584
			v-38.084c9.7,5.36,25.268,12.819,33.248,10.5c2.384-0.696,4.184-2.164,5.212-4.244c0.288-0.597,0.436-1.248,0.436-1.908V64.546
			c0-2.38-1.928-4.313-4.312-4.313c-0.868,0-21.04,0.332-41.101,28.584l-24.243-0.771c-1.608-0.057-3.124,0.805-3.912,2.212
			l-5.532,9.933c-0.956,1.715-0.632,3.863,0.784,5.22l3.516,3.352l-20.823,4.168c-2.013,0.404-3.465,2.173-3.465,4.232v16.911
			c0,1.385,0.664,2.685,1.78,3.492c0.752,0.541,1.632,0.82,2.532,0.82c0.451,0,0.916-0.076,1.352-0.22l19.952-6.601
			c-0.437,14.313-2.484,32.608-8.964,47.996c-8.456,20.076-22.568,30.252-41.932,30.252c-17.192,0-28.772-4.487-34.42-13.332
			c-10.549-16.523,1.852-43.688,1.976-43.959c0.016-0.033,0.024-0.064,0.04-0.097c0.039-0.092,0.08-0.184,0.111-0.28
			c0.021-0.063,0.045-0.127,0.061-0.188c0.016-0.04,0.031-0.08,0.044-0.12l5.916-21.7c0.353-1.296,0.084-2.684-0.735-3.752
			c-0.813-1.072-2.084-1.695-3.429-1.695h-22.456v-8.141h24.996c1.148,0,2.244-0.456,3.052-1.264
			c0.808-0.809,1.261-1.908,1.261-3.053c-0.008-8.043-5.345-20.063-20.213-19.668c-18.728,0.488-29.14-4.996-35.256-9.071
			c-1.32-0.884-3.023-0.964-4.424-0.212s-2.275,2.212-2.275,3.804v25.151c0,2.385,1.928,4.316,4.312,4.316h19.92v8.141h-50.84
			v-8.141h15.696c2.384,0,4.312-1.932,4.312-4.316V92.51c0-2.38-1.928-4.312-4.312-4.312H34.691c-2.384,0-4.315,1.932-4.315,4.312
			v19.728c0,2.385,1.932,4.316,4.315,4.316h15.696v8.141H23.419c-2.383,0-4.312,1.928-4.312,4.315v35.9
			c-3.735,2.36-7.248,4.916-10.504,7.655c-22.765,19.152-34.308,47.356-34.308,83.813c0,2.384,1.932,4.316,4.312,4.316h13.788
			c2.188,23.983,22.4,42.832,46.943,42.832c24.545,0,44.757-18.853,46.945-42.832h113.063c1.853,0,3.491-1.176,4.084-2.924
			c0.036-0.097,1.78-5.137,5.408-12.517l18.68,1.487c-0.648,3.113-0.996,6.337-0.996,9.637c0,26,21.152,47.152,47.148,47.152
			s47.151-21.148,47.151-47.152C320.823,238.542,310.863,222.985,296.216,214.978z M94.239,107.914V94.582
			c6.676,3.296,17.6,7.016,33.568,6.596c6.691-0.196,9.464,3.5,10.588,6.732h-23.156c-0.344-0.089-0.703-0.14-1.08-0.14
			c-0.367,0-0.728,0.051-1.072,0.14H94.239V107.914z M39.003,107.914V96.813h31.393v11.101h-14.62
			c-0.344-0.088-0.708-0.14-1.075-0.14c-0.373,0-0.729,0.052-1.076,0.14H39.003z M205.279,128.098v-7.403l28.008-5.601v3.74
			L205.279,128.098z M27.731,133.31H54.7h59.459h21.125l-3.42,12.561c-6.992-0.916-22.673-2.492-41.717-1.385
			c-24.027,1.396-45.191,6.688-62.416,15.492V133.31z M39.339,294.897c-19.779,0-36.123-14.992-38.271-34.207h20.96
			c1.937,7.756,8.96,13.523,17.312,13.523c8.353,0,15.377-5.764,17.313-13.523h20.965C75.468,279.91,59.124,294.897,39.339,294.897z
			 M31.204,260.694h16.268c-1.549,2.908-4.607,4.896-8.133,4.896C35.815,265.59,32.755,263.603,31.204,260.694z M196.355,252.065
			H82.176H52.868H25.812H-3.497h-13.523c0.859-31.688,11.332-56.191,31.152-72.892c36.992-31.168,96.764-27.048,114.824-24.948
			c-3.553,9.864-9.252,31.232,0.707,46.868c7.332,11.504,21.364,17.345,41.709,17.345c22.844,0,40.088-12.289,49.884-35.533
			c7.468-17.739,9.46-38.739,9.72-54.219l7.984-2.641c1.764-0.584,2.956-2.236,2.956-4.096v-12.12c0-1.292-0.585-2.517-1.58-3.332
			c-1.004-0.824-2.316-1.147-3.584-0.896l-6.564,1.315c-0.147-0.937-0.584-1.8-1.271-2.46l-3.112-2.98l2.628-4.724l23.964,0.76
			c1.444,0.04,2.876-0.668,3.704-1.888c12.416-18.292,24.724-24.092,31.016-25.924v54.432c-1.556,0.152-6.1-0.172-17.084-5.324
			c-8.012-3.76-15.184-8.111-15.256-8.156c-1.332-0.808-2.996-0.84-4.355-0.075c-1.36,0.76-2.204,2.2-2.204,3.756v49.884
			c0,2.381,1.928,4.313,4.312,4.313h34.584v6.699c-26.64,1.34-50.724,15.116-69.876,40.049
			C205.443,230.634,198.808,245.83,196.355,252.065z M213.239,236.946c2.952-5.196,6.601-10.916,10.988-16.604
			c18.316-23.748,40.348-36.036,65.508-36.563c3.448,3.32,13.38,13.228,19.408,22.783c-12.604-0.516-36.684-0.731-47.924,4.344
			c-14.072,3.861-25.536,14.089-31.08,27.385L213.239,236.946z M273.672,294.897c-21.24,0-38.521-17.279-38.521-38.523
			s17.28-38.52,38.521-38.52c21.248,0,38.523,17.279,38.523,38.52S294.92,294.897,273.672,294.897z"/>
	</g>
</g>
</svg>
