<?xml version="1.0" encoding="utf-8"?>
<!-- Generator: Adobe Illustrator 16.0.0, SVG Export Plug-In . SVG Version: 6.00 Build 0)  -->
<!DOCTYPE svg PUBLIC "-//W3C//DTD SVG 1.1//EN" "http://www.w3.org/Graphics/SVG/1.1/DTD/svg11.dtd">
<svg version="1.1" id="Layer_1" xmlns="http://www.w3.org/2000/svg" xmlns:xlink="http://www.w3.org/1999/xlink" x="0px" y="0px"
	 width="400px" height="400px" viewBox="-46.02 -18.118 400 400" enable-background="new -46.02 -18.118 400 400"
	 xml:space="preserve">
<g>
	<path fill="#F4284F" d="M282.387,237.515v13.319c0,8.385-6.906,15.291-15.293,15.291H35.247c-8.386,0-15.292-6.906-15.292-15.291
		v-13.319H282.387z"/>
	<path stroke="#000000" stroke-miterlimit="10" d="M26.711,268.275h79.914v35.023h-9.373c-0.986,0-1.973,0.492-2.961,1.479
		l-21.211,25.157c-0.986,0.987-0.986,2.468-0.493,3.948c0.493,1.479,1.974,1.973,3.453,1.973h137.628
		c1.481,0,2.96-0.987,3.454-1.973c0.492-1.48,0.492-2.961-0.494-3.948l-21.211-25.65c-0.493-0.986-1.974-1.479-2.96-1.479h-9.372
		v-35.024h79.913c11.346,0,20.719-9.372,20.719-20.719c0-76.953,0-58.208,0-61.167h-7.4v38.477H13.393V88.716
		c0-8.385,6.906-15.292,15.292-15.292h93.231v-7.399H28.685c-12.332,0-22.692,10.359-22.692,22.691c0,23.186,0-69.554,0,158.84
		C5.993,258.902,15.365,268.275,26.711,268.275z M205.776,328.456H83.44l15.293-18.251c23.184,0,68.567,0,91.751,0L205.776,328.456z
		 M175.193,302.806h-61.169v-35.024h61.169V302.806z M275.824,232.265v13.319c0,8.385-6.906,15.291-15.293,15.291H28.685
		c-8.386,0-15.292-6.906-15.292-15.291v-13.319H275.824z"/>
	<rect x="117.97" y="242.13" width="53.769" height="7.399"/>
	<path stroke="#000000" stroke-miterlimit="10" d="M212.682,22.615c-49.329,0-89.285,40.45-89.285,89.286
		c0,48.837,39.956,89.285,89.285,89.285c49.822,0,89.287-40.448,89.287-89.285C301.969,62.079,261.52,22.615,212.682,22.615z
		 M263.984,48.76c-5.426,4.439-10.852,7.893-16.771,10.359c-3.947-10.854-8.879-20.226-14.798-26.144
		C244.254,35.44,254.613,40.373,263.984,48.76z M232.415,191.814c5.919-6.413,10.851-15.292,14.798-26.145
		c5.92,2.96,11.838,6.413,17.266,10.359C254.613,182.936,244.254,188.361,232.415,191.814z M160.887,175.536
		c5.426-4.439,10.852-7.893,17.265-10.358c3.947,10.852,8.879,20.224,14.799,26.144
		C181.113,188.361,170.752,183.429,160.887,175.536z M192.951,32.48c-5.92,6.413-10.852,15.293-14.799,26.145
		c-5.92-2.959-11.839-6.412-16.772-10.359C170.259,40.373,181.113,35.44,192.951,32.48z M208.736,66.517
		c-7.893-0.492-16.278-1.972-23.679-4.438c5.921-16.771,14.307-28.611,23.679-31.078V66.517z M216.135,30.015
		c9.373,2.466,18.252,14.306,23.679,31.077c-7.399,2.96-15.785,4.439-23.679,4.439V30.015z M183.085,68.984
		c8.386,2.96,16.771,4.439,26.144,4.933v34.531H177.66C177.66,94.143,179.631,79.837,183.085,68.984z M208.736,115.848v34.53
		c-8.879,0.493-17.758,1.973-26.144,4.933c-3.453-11.839-5.428-25.157-5.428-39.463H208.736z M216.135,158.271
		c7.894,0.493,16.279,1.973,23.679,4.439c-5.92,16.771-14.306,28.611-23.679,31.077V158.271z M208.736,193.294
		c-9.372-2.466-18.252-14.305-23.679-31.076c7.4-2.961,15.786-4.44,23.679-4.44V193.294z M242.279,155.804
		c-8.385-2.959-17.264-4.439-26.144-4.933v-34.53h31.572C247.707,130.646,245.732,143.472,242.279,155.804z M216.135,108.448V73.917
		c8.88-0.493,17.759-1.973,26.144-4.933c3.453,11.839,5.428,25.158,5.428,39.464H216.135z M155.46,53.693
		c6.413,4.932,13.319,9.371,20.719,12.331c-3.454,12.332-5.427,26.638-5.92,42.424h-39.464
		C131.782,87.237,140.662,67.505,155.46,53.693z M130.795,115.848h39.464c0.493,15.785,2.466,30.091,5.92,42.423
		c-7.399,3.453-14.306,7.399-20.226,12.826C140.662,156.297,131.782,136.566,130.795,115.848z M269.41,170.603
		c-6.412-4.933-12.824-9.372-20.225-12.825c3.453-12.332,5.428-26.638,5.92-42.424h39.463
		C293.582,136.566,284.703,156.297,269.41,170.603z M294.568,108.448h-39.463c0-15.292-2.467-30.092-5.92-42.424
		c7.4-2.96,14.307-7.399,20.227-12.331C284.703,67.505,293.582,87.237,294.568,108.448z"/>
</g>
</svg>
