<?xml version="1.0" encoding="utf-8"?>
<!-- Generator: Adobe Illustrator 16.0.0, SVG Export Plug-In . SVG Version: 6.00 Build 0)  -->
<!DOCTYPE svg PUBLIC "-//W3C//DTD SVG 1.1//EN" "http://www.w3.org/Graphics/SVG/1.1/DTD/svg11.dtd">
<svg version="1.1" id="Layer_1" xmlns="http://www.w3.org/2000/svg" xmlns:xlink="http://www.w3.org/1999/xlink" x="0px" y="0px"
	 width="400px" height="400px" viewBox="-46.02 -18.118 400 400" enable-background="new -46.02 -18.118 400 400"
	 xml:space="preserve">
<g>
	<path fill="#F4284F" d="M98.585,178.365c0-24.474,19.923-44.396,44.396-44.396s44.397,19.923,44.397,44.396
		c0,24.474-19.923,44.398-44.397,44.398S98.585,202.839,98.585,178.365z"/>
	<path d="M273.819,137.182c-8.646,0-15.72,7.073-15.72,15.72s7.074,15.72,15.72,15.72c8.646,0,15.721-7.073,15.721-15.72
		S282.466,137.182,273.819,137.182z M273.819,160.468c-4.161,0-7.565-3.404-7.565-7.566s3.404-7.566,7.565-7.566
		c4.162,0,7.566,3.404,7.566,7.566S277.981,160.468,273.819,160.468z"/>
	<path d="M273.819,179.102c-8.646,0-15.72,7.074-15.72,15.721c0,8.646,7.074,15.72,15.72,15.72c8.646,0,15.721-7.074,15.721-15.72
		C289.54,186.176,282.466,179.102,273.819,179.102z M273.819,202.69c-4.326,0-7.866-3.541-7.866-7.867
		c0-4.328,3.54-7.867,7.866-7.867c4.327,0,7.867,3.539,7.867,7.867C281.687,199.149,278.146,202.69,273.819,202.69z"/>
	<path d="M284.3,221.022h-20.96c-2.882,0-5.24,2.359-5.24,5.24c0,2.882,2.358,5.24,5.24,5.24h20.96c2.882,0,5.24-2.358,5.24-5.24
		C289.54,223.381,287.182,221.022,284.3,221.022z"/>
	<path d="M284.3,241.982h-20.96c-2.882,0-5.24,2.358-5.24,5.24s2.358,5.24,5.24,5.24h20.96c2.882,0,5.24-2.358,5.24-5.24
		S287.182,241.982,284.3,241.982z"/>
	<path d="M284.3,262.943h-20.96c-2.882,0-5.24,2.357-5.24,5.24c0,2.881,2.358,5.24,5.24,5.24h20.96c2.882,0,5.24-2.359,5.24-5.24
		C289.54,265.301,287.182,262.943,284.3,262.943z"/>
	<path d="M189.979,173.862c0-28.873-23.527-52.4-52.4-52.4s-52.4,23.527-52.4,52.4s23.527,52.4,52.4,52.4
		S189.979,202.735,189.979,173.862z M93.182,173.862c0-24.474,19.923-44.396,44.396-44.396s44.396,19.923,44.396,44.396
		s-19.923,44.397-44.396,44.397S93.182,198.335,93.182,173.862z"/>
	<path d="M163.779,173.862c0-1.729-0.892-3.405-2.359-4.349l-31.439-20.96c-1.625-1.048-3.668-1.153-5.398-0.262
		c-1.677,0.891-2.726,2.672-2.726,4.611v41.921c0,1.938,1.048,3.72,2.778,4.61c0.786,0.419,1.625,0.63,2.462,0.63
		c0.996,0,2.044-0.315,2.883-0.892l31.439-20.96C162.887,177.268,163.779,175.591,163.779,173.862z M130.249,190.202v-32.68
		l24.549,16.34L130.249,190.202z"/>
	<path d="M5.948,286.314c-3.982,3.982-6.131,9.221-6.131,14.828s2.202,10.848,6.131,14.83c3.982,3.982,9.223,6.131,14.829,6.131
		c5.608,0,10.848-2.201,14.83-6.131c3.982-3.982,6.131-9.223,6.131-14.83s-2.2-10.846-6.131-14.828
		C27.694,278.4,13.86,278.4,5.948,286.314z M31.609,312.027c-5.825,5.826-15.867,5.826-21.693,0
		c-2.913-2.912-4.522-6.744-4.522-10.809c0-4.061,1.61-7.971,4.522-10.809c2.913-2.912,6.746-4.52,10.809-4.52
		c4.062,0,7.972,1.607,10.809,4.52c2.913,2.914,4.521,6.748,4.521,10.809C36.055,305.283,34.522,309.115,31.609,312.027z"/>
	<circle cx="65.212" cy="227.048" r="3.93"/>
	<path d="M82.82,244.654c1.52-1.52,1.52-4.033,0-5.554c-1.52-1.52-4.035-1.52-5.554,0c-1.52,1.521-1.52,4.034,0,5.554
		C78.785,246.175,81.3,246.175,82.82,244.654z"/>
	<path d="M97.649,259.484c1.52-1.52,1.52-4.034,0-5.555c-1.52-1.52-4.035-1.52-5.555,0c-1.52,1.521-1.52,4.035,0,5.555
		C93.614,261.004,96.129,261.004,97.649,259.484z"/>
	<circle cx="50.384" cy="241.878" r="3.93"/>
	<circle cx="65.212" cy="256.707" r="3.93"/>
	<path d="M82.82,274.314c1.52-1.52,1.52-4.035,0-5.555c-1.52-1.52-4.035-1.52-5.554,0c-1.52,1.52-1.52,4.035,0,5.555
		C78.785,275.834,81.3,275.834,82.82,274.314z"/>
	<circle cx="35.607" cy="256.707" r="3.93"/>
	<path d="M47.606,268.76c-1.52,1.52-1.52,4.035,0,5.555c1.52,1.52,4.036,1.52,5.555,0c1.52-1.52,1.52-4.035,0-5.555
		C51.642,267.188,49.179,267.188,47.606,268.76z"/>
	<path d="M62.436,283.537c-1.519,1.52-1.519,4.035,0,5.553c1.52,1.52,4.034,1.52,5.554,0c1.52-1.518,1.52-4.033,0-5.553
		C66.47,282.018,64.007,282.018,62.436,283.537z"/>
	<path d="M284.3,74.301H171.167l32.959-32.96c0,0,0-0.052,0.053-0.052c2.044,0.996,4.35,1.572,6.76,1.572
		c8.646,0,15.72-7.074,15.72-15.721c0-8.646-7.074-15.72-15.72-15.72c-8.646,0-15.721,7.074-15.721,15.72
		c0,2.411,0.577,4.717,1.573,6.76c0,0-0.053,0-0.053,0.052l-38.2,38.2l-38.201-38.2c0,0-0.052,0-0.052-0.052
		c0.996-2.043,1.571-4.35,1.571-6.76c0-8.646-7.073-15.72-15.719-15.72c-8.646,0-15.721,7.074-15.721,15.72
		c0,8.646,7.074,15.721,15.721,15.721c2.41,0,4.716-0.576,6.759-1.572c0,0,0,0.052,0.052,0.052l32.96,32.96H32.777
		c-14.463,0-26.201,11.737-26.201,26.2v155.577l-19.178,19.18c-7.912,7.859-12.261,18.393-12.261,29.605
		c0,11.215,4.349,21.746,12.261,29.658c7.914,7.912,18.445,12.262,29.659,12.262s21.747-4.35,29.659-12.262l40.086-40.139h14.096
		v20.961H85.178c-2.882,0-5.24,2.357-5.24,5.24c0,2.881,2.358,5.24,5.24,5.24h146.722c2.882,0,5.24-2.359,5.24-5.24
		c0-2.883-2.358-5.24-5.24-5.24h-15.721v-20.961H284.3c14.463,0,26.2-11.738,26.2-26.199V100.501
		C310.5,86.039,298.763,74.301,284.3,74.301z M210.939,18.899c4.532,0,8.241,3.708,8.241,8.241c0,4.533-3.709,8.242-8.241,8.242
		c-4.533,0-8.242-3.709-8.242-8.242C202.697,22.606,206.406,18.899,210.939,18.899z M106.129,18.899
		c4.532,0,8.241,3.708,8.241,8.241c0,4.533-3.709,8.242-8.241,8.242c-4.533,0-8.242-3.709-8.242-8.242
		C97.887,22.606,101.596,18.899,106.129,18.899z M42.666,329.613c-6.726,6.783-15.712,10.475-25.235,10.475
		c-9.521,0-18.507-3.691-25.232-10.475c-6.784-6.725-10.474-15.711-10.474-25.232c0-9.523,3.69-18.508,10.474-25.234l74.648-74.858
		l50.526,50.526l-3.529,3.74l0,0L42.666,329.613z M124.007,253.154l-53.958-54.983c-2.071-2.111-5.669-2.111-7.686,0l-28.341,28.88
		V101.035h207.113v166.614H117.466l6.487-6.607C126.133,258.875,126.133,255.32,124.007,253.154z M208.712,316.658H108.365v-22.275
		h100.348V316.658z M302.404,270.377c0,8.857-7.194,16.104-15.985,16.104H96.25l10.656-10.734h136.887
		c2.93,0,5.326-2.416,5.326-5.369V98.598c0-2.953-2.396-5.369-5.326-5.369H30.659c-2.931,0-5.328,2.416-5.328,5.369v137.906
		L14.673,247.24V98.598c0-8.858,7.194-16.105,15.985-16.105h255.76c8.791,0,15.985,7.247,15.985,16.105V270.377z"/>
</g>
</svg>
