<?xml version="1.0" encoding="utf-8"?>
<!-- Generator: Adobe Illustrator 16.0.0, SVG Export Plug-In . SVG Version: 6.00 Build 0)  -->
<!DOCTYPE svg PUBLIC "-//W3C//DTD SVG 1.1//EN" "http://www.w3.org/Graphics/SVG/1.1/DTD/svg11.dtd">
<svg version="1.1" id="Layer_1" xmlns="http://www.w3.org/2000/svg" xmlns:xlink="http://www.w3.org/1999/xlink" x="0px" y="0px"
	 width="400px" height="400px" viewBox="-46.02 -18.118 400 400" enable-background="new -46.02 -18.118 400 400"
	 xml:space="preserve">
<g>
	<path fill="#F4284F" d="M155.798,122.136l-8.169,17.073c-0.447,0.935-0.384,2.035,0.169,2.913c0.553,0.875,1.518,1.409,2.554,1.409
		h22.045l-30.394,27.228l11.019-18c0.57-0.932,0.592-2.098,0.059-3.054c-0.535-0.951-1.541-1.542-2.633-1.542h-19.85
		L155.798,122.136z"/>
	<path d="M211.599,165.201c6.6-10.8,10.199-24,10.8-36.6c-0.601-39.601-32.4-72-72-73.801c-21-1.199-41.4,6.601-56.4,21
		c-14.399,13.2-22.2,32.4-22.8,51.601c1.2,17.399,6.6,34.2,15,49.8l15,60c-1.2,0-2.4,0.6-3,1.2c-1.2,1.2-2.4,3-2.4,4.8v50.4
		c0.601,13.799,12,24,25.801,24h50.399c13.8,0.6,25.2-10.201,25.8-24v-50.4c0-1.801-0.6-3.6-2.399-4.8c-0.601-0.601-1.8-1.2-3-1.2
		l13.8-62.4L211.599,165.201z M189.126,286.219l0.66-0.422l-10.475,1.006c-19.667,1.582-34.32,2.301-53.5-1.668l-9.834-2.082
		c-3.306-0.662-6.877-1.748-7.538,1.559c-0.661,2.645,0.661,5.953,3.307,7.275l6.613,1.982c12.566,2.646,25.131,3.969,37.698,3.969
		c9.259,0,18.518-0.66,27.777-1.982l5.951-1.322v0.662c-0.66,7.934-7.936,13.227-15.211,13.227h-55.554
		c-7.937,0.66-14.551-5.293-15.212-13.227v-25.133c11.243,5.291,23.809,7.936,36.375,8.598c11.905-0.662,23.81-2.646,35.053-6.613
		l7.274-2.646c3.307-1.322,5.29-4.629,3.968-8.598c-1.322-3.307-3.949-1.322-7.918,0l-7.75,2c-31.746,9.92-44.988,6.775-64.167-0.5
		l-3.333-1.25l-0.163-13.479l31.745,5.293c7.275,1.32,13.889,1.32,21.164,0l33.068-5.293V286.219L189.126,286.219z M203.42,161.2
		l-5.658,10.688c0,0.629-0.629,1.258-0.629,1.258l-13.867,66.24l-8.804,1.887c-18.861,4.4-37.723,4.4-56.584,0l-7.546-1.887
		l-15.051-63.726c0-0.629-0.63-1.258-0.63-1.887c-8.173-14.46-13.203-30.179-15.088-46.524c0-16.976,6.915-33.321,19.489-45.269
		c13.203-13.203,31.437-19.49,49.669-18.861c35.208,1.258,62.873,29.55,63.501,64.758C213.48,139.823,209.708,151.141,203.42,161.2
		L203.42,161.2z"/>
	<path d="M242.818,34.282l-30.782,24.726c-1.693,1.271-2.116,4.231-0.847,5.924c0.847,0.847,2.115,1.693,3.385,1.693
		c0.847,0,1.692-0.424,2.539-0.847l30.781-24.727c1.693-1.27,2.116-4.23,0.847-5.924C247.049,33.012,244.51,33.012,242.818,34.282
		L242.818,34.282z"/>
	<path d="M150.746,39.102V19.071c0-2.369-1.58-3.948-3.948-3.948s-3.948,1.579-3.948,3.948v20.031c0,2.369,1.58,3.948,3.948,3.948
		S150.746,41.471,150.746,39.102L150.746,39.102z"/>
	<path d="M235.116,126.8c0,2.448,1.633,4.081,4.081,4.081h17.948c2.449,0,4.081-1.633,4.081-4.081s-1.632-4.081-4.081-4.081h-17.948
		C237.156,122.719,235.116,124.352,235.116,126.8z"/>
	<path d="M224.778,177.449c-1.691-1.27-4.23-1.27-5.923,0.846c-1.27,1.693-0.847,4.654,0.847,5.924l30.781,24.727
		c0.847,0.423,1.692,0.847,2.539,0.847c1.27,0,2.538-0.847,3.385-1.693c1.27-1.692,0.847-4.653-0.847-5.924L224.778,177.449
		L224.778,177.449z"/>
	<path d="M242.818,34.282l-30.782,24.726c-1.693,1.271-2.116,4.231-0.847,5.924c0.847,0.847,2.115,1.693,3.385,1.693
		c0.847,0,1.692-0.424,2.539-0.847l30.781-24.727c1.693-1.27,2.116-4.23,0.847-5.924C247.049,33.012,244.51,33.012,242.818,34.282
		L242.818,34.282z"/>
	<path d="M235.116,126.8c0,2.448,1.633,4.081,4.081,4.081h17.948c2.449,0,4.081-1.633,4.081-4.081s-1.632-4.081-4.081-4.081h-17.948
		C237.156,122.719,235.116,124.352,235.116,126.8z"/>
	<path d="M224.778,177.449c-1.691-1.27-4.23-1.27-5.923,0.846c-1.27,1.693-0.847,4.654,0.847,5.924l30.781,24.727
		c0.847,0.423,1.692,0.847,2.539,0.847c1.27,0,2.538-0.847,3.385-1.693c1.27-1.692,0.847-4.653-0.847-5.924L224.778,177.449
		L224.778,177.449z"/>
	<path d="M51.525,34.282c-1.691-1.27-4.23-1.27-5.923,0.846c-1.27,1.693-0.847,4.654,0.847,5.924L77.23,65.778
		c0.847,0.423,1.692,0.847,2.539,0.847c1.27,0,2.538-0.847,3.385-1.693c1.27-1.692,0.847-4.653-0.847-5.924L51.525,34.282
		L51.525,34.282z"/>
	<path d="M55.146,122.719H37.198c-2.449,0-4.081,1.633-4.081,4.081s1.632,4.081,4.081,4.081h17.948c2.448,0,4.081-1.633,4.081-4.081
		S57.188,122.719,55.146,122.719z"/>
	<path d="M69.565,177.449l-30.782,24.726c-1.693,1.271-2.116,4.231-0.847,5.924c0.847,0.847,2.115,1.693,3.385,1.693
		c0.847,0,1.692-0.424,2.539-0.847l30.781-24.727c1.693-1.27,2.116-4.23,0.847-5.924C73.796,176.179,71.257,176.179,69.565,177.449
		L69.565,177.449z"/>
	<path d="M118.39,154.286h21.587l-18.96,30.972c-0.78,1.279-0.508,2.936,0.643,3.896c0.562,0.465,1.248,0.698,1.933,0.698
		c0.72,0,1.441-0.256,2.014-0.77l51.615-46.236c0.931-0.833,1.251-2.157,0.805-3.327c-0.446-1.168-1.568-1.94-2.82-1.94h-25.148
		l14.098-29.465c0.64-1.335,0.217-2.936-0.999-3.781c-1.213-0.843-2.862-0.684-3.891,0.38l-43.043,44.456
		c-0.843,0.87-1.085,2.16-0.61,3.275C116.084,153.56,117.179,154.286,118.39,154.286z M150.714,122.221l-8.169,17.073
		c-0.447,0.935-0.384,2.035,0.169,2.913c0.553,0.875,1.518,1.409,2.554,1.409h22.045l-30.394,27.228l11.019-18
		c0.57-0.932,0.592-2.098,0.059-3.054c-0.535-0.951-1.541-1.542-2.633-1.542h-19.85L150.714,122.221z"/>
</g>
</svg>
