<?xml version="1.0" encoding="utf-8"?>
<!-- Generator: Adobe Illustrator 16.0.0, SVG Export Plug-In . SVG Version: 6.00 Build 0)  -->
<!DOCTYPE svg PUBLIC "-//W3C//DTD SVG 1.1//EN" "http://www.w3.org/Graphics/SVG/1.1/DTD/svg11.dtd">
<svg version="1.1" id="Layer_1" xmlns="http://www.w3.org/2000/svg" xmlns:xlink="http://www.w3.org/1999/xlink" x="0px" y="0px"
	 width="400px" height="400px" viewBox="-46.02 -18.118 400 400" enable-background="new -46.02 -18.118 400 400"
	 xml:space="preserve">
<g>
	<path fill="#F4284F" d="M161.868,282.696c-12.808,0-23.233-10.42-23.233-23.234c0-12.813,10.426-23.233,23.233-23.233
		c12.808,0,23.233,10.42,23.233,23.233C185.101,272.276,174.676,282.696,161.868,282.696z"/>
	<path d="M157.511,44.552c-38.435,0-69.701,31.265-69.701,69.701v168.444c0,16.013,13.023,29.042,29.042,29.042h81.317
		c16.019,0,29.042-13.029,29.042-29.042V114.252C227.212,75.817,195.947,44.552,157.511,44.552z M215.595,282.696
		c0,9.608-7.816,17.425-17.425,17.425h-81.317c-9.608,0-17.425-7.816-17.425-17.425V114.252c0-32.025,26.059-58.084,58.084-58.084
		c32.026,0,58.084,26.059,58.084,58.084V282.696z"/>
	<path d="M281.017,101.565l-31.623-8.087c-1.944-0.498-3.498-2.119-4.157-4.32c-4.326-14.515-12.284-27.862-23.015-38.592
		c-17.326-17.321-40.297-26.861-64.71-26.861c-40.319,0-76.446,27.04-87.848,65.744c-0.659,2.241-2.236,3.872-4.203,4.359
		l-31.332,7.797c-8.227,2.039-13.793,9.947-12.944,18.393l16.969,167.2c0.134,1.403,0.793,2.705,1.834,3.655l12.128,11.049
		c15.347,13.983,27.363,24.938,44.891,40.815c1.05,0.958,2.424,1.482,3.843,1.482h113.323c1.419,0,2.794-0.53,3.845-1.48
		c17.27-15.654,29.185-26.514,44.22-40.213l12.787-11.653c1.04-0.95,1.699-2.253,1.833-3.655l16.981-167.268
		C294.71,111.408,289.311,103.684,281.017,101.565z M255.97,295.686c-14.759,13.454-26.556,24.209-43.188,39.286H102.241
		c-16.892-15.304-28.792-26.155-43.87-39.899l-10.664-9.716l-3.218-31.702c0,0,25.78,0,25.896,0c7.474,0,7.506-11.617,0-11.617
		H43.309L42.13,230.42c0,0,28.108,0,28.255,0c7.5,0,7.517-11.617,0-11.617H40.95l-1.18-11.617c0,0,30.456,0,30.615,0
		c7.502,0,7.514-11.617,0.001-11.617H38.591l-1.18-11.617c0,0,32.8,0,32.973,0c7.482,0,7.528-11.617,0.001-11.617H36.231
		l-1.179-11.617c0,0,35.14,0,35.333,0c7.482,0,7.528-11.617,0.001-11.617H33.873l-1.18-11.617c0,0,37.512,0,37.692,0
		c7.499,0,7.52-11.617,0.001-11.617H31.513l-0.811-7.986c-0.283-2.865,1.6-5.537,4.391-6.228l31.81-7.913
		c6.035-1.509,10.743-6.143,12.592-12.412c10.131-34.379,42.213-58.396,78.016-58.396c21.668,0,42.077,8.475,57.46,23.858
		c9.53,9.535,16.597,21.384,20.432,34.271c1.85,6.188,6.512,10.794,12.479,12.32l32.093,8.208c2.769,0.703,4.629,3.38,4.346,6.217
		l-0.823,8.104c0,0-38.688-0.01-38.86-0.01c-7.519-0.002-7.498,11.617,0,11.617l37.681,0.01l-1.18,11.617
		c0,0-36.323-0.01-36.501-0.01c-7.485-0.002-7.524,11.617,0,11.617l35.319,0.011l-1.18,11.617c0,0-33.972-0.009-34.15-0.01
		c-7.483-0.002-7.529,11.617-0.002,11.617l32.973,0.009l-1.18,11.618c0,0-31.647-0.01-31.805-0.01
		c-7.473-0.002-7.526,11.617,0,11.617l30.624,0.009l-1.18,11.618c0,0-29.317-0.011-29.454-0.011c-7.486-0.002-7.521,11.617,0,11.617
		l28.274,0.01l-1.18,11.617c0,0-27.013-0.009-27.095-0.009c-7.332-0.003-7.564,11.616,0,11.616l25.915,0.01l-3.215,31.659
		L255.97,295.686z"/>
	<path d="M157.511,218.804c-19.217,0-34.85,15.632-34.85,34.851c0,19.217,15.633,34.85,34.85,34.85
		c19.218,0,34.851-15.633,34.851-34.85C192.362,234.436,176.729,218.804,157.511,218.804z M157.511,276.888
		c-12.807,0-23.233-10.42-23.233-23.233c0-12.814,10.426-23.234,23.233-23.234c12.808,0,23.234,10.419,23.234,23.234
		C180.745,266.468,170.319,276.888,157.511,276.888z"/>
</g>
</svg>
