<?xml version="1.0" encoding="utf-8"?>
<!-- Generator: Adobe Illustrator 16.0.0, SVG Export Plug-In . SVG Version: 6.00 Build 0)  -->
<!DOCTYPE svg PUBLIC "-//W3C//DTD SVG 1.1//EN" "http://www.w3.org/Graphics/SVG/1.1/DTD/svg11.dtd">
<svg version="1.1" id="Layer_1" xmlns="http://www.w3.org/2000/svg" xmlns:xlink="http://www.w3.org/1999/xlink" x="0px" y="0px"
	 width="400px" height="400px" viewBox="-46.02 -18.118 400 400" enable-background="new -46.02 -18.118 400 400"
	 xml:space="preserve">
<g>
	<path fill="#F4284F" d="M210.121,61.282c2,0,4,2,4,4s-2,4-4,4s-4-2-4-4S208.121,61.282,210.121,61.282z M98.121,69.282
		c-2,0-4-2-4-4s2-4,4-4s4,2,4,4S100.121,69.282,98.121,69.282z M146.121,65.282c0-4.4,3.6-8,8-8s8,3.6,8,8s-3.6,8-8,8
		S146.121,69.683,146.121,65.282z"/>
	<path d="M195.121,166.282c0,24.4-19.6,44-44,44c-2,0-4-2-4-4s2-4,4-4c20,0,36-16,36-36c0-2,2-4,4-4
		S195.121,164.282,195.121,166.282z"/>
	<rect x="287.121" y="142.282" width="8" height="80"/>
	<path d="M27.121,288.683c6.4,10.399,12,21.199,12,25.6c0,6.8-5.2,12-12,12s-12-5.2-12-12
		C15.121,309.882,20.72,299.082,27.121,288.683 M27.121,274.282c0,0-20,28-20,40c0,11.2,8.8,20,20,20s20-8.8,20-20
		C47.121,302.282,27.121,274.282,27.121,274.282L27.121,274.282z"/>
	<path d="M207.121,162.282c-1.2-19.2-12-35.6-28-44.4v-19.6h-24v-20.4c5.6-1.6,10-6,11.6-11.6h29.2c1.601,4.8,6,8,11.2,8
		c6.8,0,12-5.2,12-12s-5.2-12-12-12c-5.2,0-9.6,3.2-11.2,8h-29.2c-1.6-6.8-8-12-15.6-12s-13.6,5.2-15.6,12h-29.2
		c-1.601-4.8-6-8-11.2-8c-6.8,0-12,5.2-12,12s5.2,12,12,12c5.2,0,9.6-3.2,11.2-8h29.2c1.6,5.6,6,10,11.6,11.6v20.4h-24v19.6
		c-15.6,9.2-26.4,25.2-28,44.4h-20c-37.6,0-68,30.4-68,68v16h40v-16c0-15.6,12.4-28,28-28h33.2c10.399,12,25.6,20,42.8,20
		s32.8-8,42.8-20h85.201v-40H207.121z M207.121,58.282c2,0,4,2,4,4s-2,4-4,4s-4-2-4-4S205.121,58.282,207.121,58.282z
		 M95.121,66.282c-2,0-4-2-4-4s2-4,4-4s4,2,4,4S97.121,66.282,95.121,66.282z M143.121,62.282c0-4.4,3.6-8,8-8s8,3.6,8,8s-3.6,8-8,8
		S143.121,66.683,143.121,62.282z M271.121,194.282h-80.8l-2.4,2.8c-9.2,10.801-22.8,17.2-36.8,17.2s-27.2-6.4-36.8-17.2l-2.4-2.8
		h-36.8c-20,0-36,16-36,36v8h-24v-8c0-33.2,26.8-60,60-60h27.2l0.399-7.2c1.2-16,10-30,24-38l4-2.399v-16h40v16.399l4,2.4
		c14,7.6,22.801,22,24,38l0.4,7.6h72V194.282L271.121,194.282z"/>
</g>
</svg>
