<?xml version="1.0" encoding="utf-8"?>
<!-- Generator: Adobe Illustrator 16.0.0, SVG Export Plug-In . SVG Version: 6.00 Build 0)  -->
<!DOCTYPE svg PUBLIC "-//W3C//DTD SVG 1.1//EN" "http://www.w3.org/Graphics/SVG/1.1/DTD/svg11.dtd">
<svg version="1.1" id="Layer_1" xmlns="http://www.w3.org/2000/svg" xmlns:xlink="http://www.w3.org/1999/xlink" x="0px" y="0px"
	 width="400px" height="400px" viewBox="-46.02 -18.118 400 400" enable-background="new -46.02 -18.118 400 400"
	 xml:space="preserve">
<g>
	<path fill="#F4284F" d="M179.021,72.105l-3.172,0.819c-0.495-0.986-1.553-0.881-2.541-1.375c-1.48-0.494-1.693-5.37-3.175-4.876
		L41.975,140.757l-4.938-8.395l128.156-74.083c2.471-1.48,2.965-4.444,1.977-6.913l-3.487-6.171l23.834,5.104L179.021,72.105z"/>
	<path d="M140.754,230.83c1.48-0.988,2.962-2.47,2.962-4.444v-24.688c0-9.877-5.926-18.271-14.319-22.221
		c2.469-3.456,4.443-7.408,4.443-12.345c0-10.863-8.888-19.752-19.75-19.752c-10.864,0-19.752,8.889-19.752,19.752
		c0,4.443,1.48,8.889,4.443,12.345c-8.395,3.949-14.32,12.344-14.32,22.221v24.688c0,1.975,0.989,3.456,2.963,4.444l6.914,3.457
		v31.602h-4.938c-2.962,0-4.938,1.975-4.938,4.939v54.315c0,2.963,1.977,4.938,4.938,4.938h49.379c2.963,0,4.938-1.976,4.938-4.938
		v-54.315c0-2.965-1.975-4.939-4.938-4.939h-4.938v-31.602L140.754,230.83z M114.09,155.755c6.257,0,11.375,5.12,11.375,11.377
		s-5.118,11.376-11.375,11.376s-11.377-5.119-11.377-11.376S107.833,155.755,114.09,155.755z M136.35,322.487H91.828v-49.271h44.521
		V322.487z M128.845,228.822c-1.701,1.172-3.405,2.93-3.405,5.27v32.467h-22.704v-32.467c0-2.34-1.133-4.098-3.404-5.27
		l-7.946-4.098v-22.433c0-9.953,7.378-17.566,17.028-17.566h11.352c9.647,0,17.028,7.613,17.028,17.566v22.433L128.845,228.822z"/>
	<path d="M209.884,186.389c1.481-0.986,2.963-2.468,2.963-4.443v-24.69c0-9.875-5.926-18.27-14.32-22.22
		c2.469-3.457,4.444-7.406,4.444-12.345c0-10.863-8.888-19.75-19.752-19.75c-10.863,0-19.751,8.887-19.751,19.75
		c0,4.444,1.481,8.888,4.444,12.345c-8.395,3.95-14.32,12.345-14.32,22.22v24.69c0,1.976,0.988,3.457,2.963,4.443l6.913,3.459v31.6
		h-4.938c-2.961,0-4.938,1.976-4.938,4.938v98.758c0,2.963,1.977,4.938,4.938,4.938h49.38c2.962,0,4.938-1.976,4.938-4.938v-98.758
		c0-2.963-1.976-4.938-4.938-4.938h-4.938v-31.6L209.884,186.389z M183.219,111.647c6.072,0,11.043,4.97,11.043,11.043
		s-4.971,11.043-11.043,11.043s-11.042-4.97-11.042-11.043S177.146,111.647,183.219,111.647z M205.183,322.487h-43.927v-93.443
		h43.927V322.487z M198.034,183.814c-1.708,1.172-3.419,2.93-3.419,5.27v32.467h-22.794v-32.467c0-2.34-1.138-4.098-3.418-5.27
		l-7.978-4.098v-22.433c0-9.953,7.407-17.566,17.096-17.566h11.396c9.686,0,17.096,7.613,17.096,17.566v22.433L198.034,183.814z"/>
	<path d="M71.624,265.395c1.479-0.987,2.963-2.469,2.963-4.443v-24.688c0-9.877-5.926-18.271-14.321-22.221
		c2.469-3.457,4.445-7.408,4.445-12.345c0-10.863-8.889-19.752-19.752-19.752s-19.752,8.889-19.752,19.752
		c0,4.443,1.48,8.888,4.445,12.345c-8.396,3.949-14.321,12.344-14.321,22.221v24.688c0,1.975,0.988,3.456,2.963,4.443l6.913,3.458
		v31.602H20.27c-2.963,0-4.938,1.974-4.938,4.938v19.751c0,2.963,1.976,4.938,4.938,4.938h49.378c2.963,0,4.939-1.976,4.939-4.938
		v-19.751c0-2.965-1.977-4.938-4.939-4.938h-4.937v-31.602L71.624,265.395z M44.959,190.064c6.397,0,11.631,5.234,11.631,11.633
		c0,6.397-5.233,11.631-11.631,11.631c-6.396,0-11.633-5.233-11.633-11.631C33.326,195.299,38.563,190.064,44.959,190.064z
		 M66.517,322.487H23.401V308.05h43.115V322.487z M59.518,262.813c-1.679,1.172-3.36,2.93-3.36,5.27v32.467H33.758v-32.467
		c0-2.34-1.118-4.098-3.359-5.27l-7.839-4.098v-22.433c0-9.953,7.279-17.566,16.8-17.566h11.199c9.518,0,16.8,7.613,16.8,17.566
		v22.433L59.518,262.813z"/>
	<path d="M279.015,141.947c1.481-0.986,2.963-2.469,2.963-4.443v-24.689c0-9.874-5.927-18.27-14.32-22.22
		c2.468-3.457,4.443-7.407,4.443-12.345c0-10.864-8.888-19.752-19.752-19.752c-10.862,0-19.751,8.888-19.751,19.752
		c0,4.443,1.482,8.888,4.444,12.345c-8.394,3.95-14.319,12.346-14.319,22.22v24.689c0,1.975,0.988,3.457,2.962,4.443l6.913,3.458
		v31.603h-4.938c-2.963,0-4.938,1.974-4.938,4.938v143.198c0,2.963,1.975,4.938,4.938,4.938h49.379c2.962,0,4.938-1.976,4.938-4.938
		V181.945c0-2.964-1.977-4.938-4.938-4.938h-4.938v-31.603L279.015,141.947z M252.349,66.875c6.257,0,11.377,5.118,11.377,11.375
		c0,6.258-5.12,11.375-11.377,11.375c-6.256,0-11.375-5.117-11.375-11.375C240.974,71.993,246.093,66.875,252.349,66.875z
		 M275.017,322.487h-45.335V184.604h45.335V322.487z M267.165,139.73c-1.708,1.172-3.419,2.93-3.419,5.27v32.467h-22.794V145
		c0-2.34-1.138-4.098-3.418-5.27l-7.978-4.098V113.2c0-9.953,7.407-17.566,17.096-17.566h11.396c9.686,0,17.096,7.613,17.096,17.566
		v22.433L267.165,139.73z"/>
	<path d="M189.146,40.228l-38.022-6.418c-1.976-0.494-3.95,0.492-4.938,1.974c-0.988,1.483-0.988,3.457,0,5.432l4.938,8.395
		l-123.94,71.6c-0.987,0.494-1.976,1.977-2.469,2.963c-0.494,1.481,0,2.469,0.493,3.95l9.875,17.283
		c0.988,1.481,2.471,2.469,4.445,2.469c0.986,0,1.48,0,2.469-0.494l123.939-71.6l4.939,8.395c0.988,1.482,2.962,2.469,4.938,2.469
		s3.456-1.479,4.445-3.456l13.331-36.047c0.494-1.48,0.494-2.963-0.494-3.949C191.613,41.709,190.626,40.723,189.146,40.228z
		 M173.837,69.855l-1.974-3.457c-0.495-0.986-1.977-1.975-2.965-2.469c-1.48-0.494-2.468,0-3.949,0.494l-123.941,71.6l-4.938-8.395
		l123.939-71.6c2.471-1.48,2.965-4.444,1.977-6.913l-1.977-3.456l21.729,3.949L173.837,69.855z"/>
	<polygon points="0.517,58.498 15.331,58.498 15.331,73.312 25.207,73.312 25.207,58.498 40.021,58.498 40.021,48.622 
		25.207,48.622 25.207,33.81 15.331,33.81 15.331,48.622 0.517,48.622 	"/>
</g>
</svg>
