<?xml version="1.0" encoding="utf-8"?>
<!-- Generator: Adobe Illustrator 16.0.0, SVG Export Plug-In . SVG Version: 6.00 Build 0)  -->
<!DOCTYPE svg PUBLIC "-//W3C//DTD SVG 1.1//EN" "http://www.w3.org/Graphics/SVG/1.1/DTD/svg11.dtd">
<svg version="1.1" id="Layer_1" xmlns="http://www.w3.org/2000/svg" xmlns:xlink="http://www.w3.org/1999/xlink" x="0px" y="0px"
	 width="400px" height="400px" viewBox="-46.02 -18.118 400 400" enable-background="new -46.02 -18.118 400 400"
	 xml:space="preserve">
<g>
	<path fill="#F4284F" d="M205.59,54.85c13.047,0,23.552,10.503,23.552,23.548c0,13.046-10.505,23.549-23.552,23.549
		s-23.552-10.503-23.552-23.549C182.039,65.353,192.543,54.85,205.59,54.85z"/>
	<path fill="#F4284F" d="M178.497,114.788h53.459L277.175,255.3h-38.922c-2.023,0-3.663,1.7-3.663,3.799v75.951l-25.012-0.234
		v-60.524c0.079-2.096-2.127-3.861-4.149-3.944c-0.201-0.007-0.402,0.001-0.603,0.027c-1.888,0.245-4.197,1.947-4.123,3.917v60.524
		l-24.725,0.234v-75.951c-0.001-2.099-1.641-3.799-3.664-3.799H143.01v-35.839l23.81-14.123c1.344-0.828,2.034-2.448,1.717-4.036
		l-7.555-35.483c0.048-0.155,0.087-0.314,0.115-0.475L178.497,114.788L178.497,114.788z"/>
	<g transform="translate(0,-952.36218)">
		<path d="M92.512,961.12c-19.045,0-34.566,15.519-34.566,34.56c0,10.865,5.085,20.538,12.963,26.881h-1.44
			c-6.792-0.001-12.366,2.446-16.083,6.6s-5.608,9.559-6.842,15.6L23.5,1148.44c-0.332,1.604,0.391,3.243,1.8,4.079l24.964,14.281
			v120.72c0.001,2.12,1.721,3.84,2.773,3.84l39.358-0.119l39.475,0.119c1.169,0,2.89-1.72,2.89-3.84v-76.8h26.885v76.8
			c0,2.12,1.719,3.84,3.84,3.84l34.279-0.237l35.485,0.237c1.49,0,3.21-1.72,3.21-3.84v-76.8h42.247
			c2.122-0.004,3.839-1.727,3.835-3.847c-0.001-0.448-0.08-0.894-0.234-1.313L234.377,1055.8c-0.554-1.511-1.99-2.517-3.601-2.52
			h-9.121c7.877-6.343,12.962-16.016,12.962-26.88c0-19.042-15.521-34.561-34.566-34.561s-34.566,15.519-34.566,34.561
			c0,10.864,5.085,20.537,12.963,26.88h-9.121c-0.24-0.022-0.481-0.022-0.721,0c-1.34,0.268-2.438,1.228-2.881,2.52l-15.242,42.841
			l-12.002-53.881c-1.233-6.041-3.125-11.446-6.842-15.6s-9.291-6.601-16.083-6.6h-1.44c7.878-6.343,12.963-16.016,12.963-26.881
			C127.078,976.639,111.557,961.12,92.512,961.12L92.512,961.12z M92.512,972.132c13.047,0,23.552,10.503,23.552,23.548
			c0,13.046-10.504,23.549-23.552,23.549S68.96,1008.725,68.96,995.68C68.96,982.635,79.464,972.132,92.512,972.132z
			 M200.59,1002.212c13.047,0,23.552,10.503,23.552,23.548c0,13.046-10.505,23.549-23.552,23.549s-23.552-10.503-23.552-23.549
			C177.039,1012.715,187.543,1002.212,200.59,1002.212z M70.824,1030.704h21.688h21.688c4.804,0,7.521,1.342,9.714,3.926
			c2.194,2.583,3.835,6.739,4.857,12.016c-0.001,0.039-0.001,0.08,0,0.118l21.122,100.054l-23.043,13.8
			c-1.128,0.687-1.819,1.96-1.807,3.332v118.017l-27.965-0.118v-60.793c0.078-2.102-2.428-3.871-4.423-3.953
			c-0.198-0.007-0.397,0.001-0.595,0.027c-1.862,0.245-4.304,1.951-4.231,3.926v60.793l-27.848,0.118v-118.017
			c0.012-1.372-0.679-2.646-1.807-3.332l-23.043-13.8l21.122-100.054c0.001-0.038,0.001-0.079,0-0.118
			c1.023-5.277,2.664-9.433,4.858-12.016C63.304,1032.046,66.021,1030.704,70.824,1030.704L70.824,1030.704z M173.497,1062.15
			h53.459l45.219,140.512h-38.922c-2.023,0-3.663,1.7-3.663,3.799v75.951l-25.012-0.234v-60.524
			c0.079-2.096-2.127-3.861-4.149-3.944c-0.201-0.007-0.402,0.001-0.603,0.027c-1.888,0.245-4.197,1.947-4.123,3.917v60.524
			l-24.725,0.234v-75.951c-0.001-2.099-1.641-3.799-3.664-3.799H138.01v-35.839l23.81-14.123c1.344-0.828,2.034-2.448,1.717-4.036
			l-7.555-35.483c0.048-0.155,0.087-0.314,0.115-0.475L173.497,1062.15L173.497,1062.15z"/>
	</g>
</g>
</svg>
