<?xml version="1.0" encoding="utf-8"?>
<!-- Generator: Adobe Illustrator 16.0.0, SVG Export Plug-In . SVG Version: 6.00 Build 0)  -->
<!DOCTYPE svg PUBLIC "-//W3C//DTD SVG 1.1//EN" "http://www.w3.org/Graphics/SVG/1.1/DTD/svg11.dtd">
<svg version="1.1" id="Layer_1" xmlns="http://www.w3.org/2000/svg" xmlns:xlink="http://www.w3.org/1999/xlink" x="0px" y="0px"
	 width="400px" height="400px" viewBox="-46.02 -18.118 400 400" enable-background="new -46.02 -18.118 400 400"
	 xml:space="preserve">
<g>
	<polygon fill="#F4284F" points="190.583,212.38 192.759,200.929 275.516,283.344 273.34,294.796 204.63,226.086 204.63,226.086 
		190.545,212.38 	"/>
	<polygon fill="#F4284F" points="266.506,299.914 257.002,309.457 179.286,231.933 188.944,222.275 	"/>
	<polygon fill="#F4284F" points="240.551,318.386 164.587,242.501 176.04,240.324 176.04,240.324 252.002,316.211 	"/>
	<polyline fill="#F4284F" points="240.551,318.386 162.406,240.324 173.858,238.147 173.858,238.147 252.002,316.211 	"/>
	<g>
		<g>
			<path d="M72.121,34.539c-17.747-0.049-34.777,7.002-47.296,19.583l5.803,5.802c10.978-11.048,25.919-17.247,41.493-17.216l0,0
				c15.587-0.037,30.541,6.162,41.531,17.216l5.802-5.802C106.93,41.521,89.886,34.456,72.121,34.5V34.539z M24.825,72.405
				l5.803,5.803c22.957-22.888,60.105-22.888,83.063,0l5.764-5.803C93.305,46.319,50.974,46.319,24.825,72.405z M72.121,71.222
				c-17.769-0.009-34.803,7.099-47.296,19.735l5.803,5.802c10.987-11.058,25.943-17.257,41.531-17.216l0,0
				c15.587-0.037,30.542,6.162,41.531,17.216l5.802-5.802c-12.523-12.602-29.567-19.666-47.333-19.621L72.121,71.222z
				 M72.121,89.622c-17.769-0.009-34.803,7.098-47.296,19.735l5.764,5.802c10.988-11.058,25.943-17.257,41.532-17.215l0,0
				c15.587-0.038,30.541,6.161,41.531,17.215l5.802-5.802C106.93,96.756,89.886,89.69,72.121,89.736V89.622z M24.825,127.755
				l5.764,5.726c22.958-22.887,60.106-22.887,83.063,0l5.802-5.802C93.284,101.612,50.954,101.647,24.825,127.755z M72.121,126.572
				c-17.747-0.05-34.777,7.001-47.296,19.582l5.803,5.803c10.987-11.058,25.943-17.257,41.531-17.215l0,0
				c15.587-0.039,30.542,6.161,41.531,17.215l5.802-5.803c-12.523-12.6-29.567-19.665-47.333-19.62L72.121,126.572z M191.56,34.539
				c-17.76-0.059-34.806,6.993-47.333,19.583l5.803,5.802c10.986-11.058,25.943-17.257,41.53-17.216l0,0
				c15.588-0.037,30.542,6.162,41.532,17.216l5.802-5.802C226.365,41.535,209.321,34.483,191.56,34.539z M144.227,72.405
				l5.803,5.803c22.957-22.888,60.104-22.888,83.063,0l5.764-5.803C212.708,46.319,170.376,46.319,144.227,72.405z M191.56,71.337
				c-17.766-0.05-34.812,7.016-47.333,19.621l5.803,5.802c10.986-11.058,25.943-17.257,41.53-17.216l0,0
				c15.588-0.037,30.542,6.162,41.532,17.216l5.802-5.802C226.371,78.356,209.326,71.292,191.56,71.337z M191.56,89.736
				c-17.766-0.05-34.812,7.015-47.333,19.62l5.803,5.802c10.986-11.058,25.943-17.257,41.53-17.215l0,0
				c15.575-0.028,30.514,6.17,41.494,17.215l5.802-5.802c-12.521-12.577-29.549-19.627-47.296-19.582V89.736z M144.227,127.755
				l5.765,5.726c22.956-22.887,60.104-22.887,83.063,0l5.802-5.802C212.685,101.612,170.356,101.647,144.227,127.755z
				 M191.56,126.572c-17.76-0.06-34.806,6.992-47.333,19.582l5.803,5.803c10.986-11.058,25.943-17.257,41.53-17.215l0,0
				c15.588-0.039,30.542,6.161,41.532,17.215l5.802-5.803C226.365,133.567,209.321,126.517,191.56,126.572z M248.361,182.417
				l6.984,6.986V38.394l-1.184-1.183c-33.48-33.316-87.204-34.525-122.15-2.749C97.067,2.686,43.342,3.895,9.862,37.211
				l-1.526,1.183v151.009l6.985-6.986c31.396-31.339,82.24-31.339,113.638,0l2.901,2.901l3.016-3.016
				C166.287,151.096,217.013,151.148,248.361,182.417z M127.737,170.355c-32.468-26.147-78.765-26.147-111.232,0V41.868
				c31.101-29.772,80.132-29.772,111.232,0V170.355z M135.906,170.355V41.868c31.101-29.772,80.132-29.772,111.233,0v128.487
				C214.67,144.208,168.374,144.208,135.906,170.355L135.906,170.355z M171.177,212.116l-8.627,8.664l5.764,5.765l8.627-8.627
				L171.177,212.116z M299.588,344.229l-22.904-63.633l-0.953-1.526l-82.643-82.719l0,0l-1.832-1.794l-24.773,4.581l-17.254,17.254
				l-4.619,24.697l1.68,1.68l1.526,1.526l0,0l81.384,81.383l1.526,0.954l48.974,17.56H148.197v8.169h151.428v-8.131H299.588z
				 M190.454,219.063l2.176-11.451l75.886,75.732l-2.176,11.452l-68.709-68.71l0,0l-7.215-7.023H190.454z M262.98,303.347
				l-9.504,9.543l-77.185-76.993l9.658-9.657L262.98,303.347z M156.824,220.36l13.666-13.665l14.468-2.71l-2.711,14.467
				l-13.588,13.627l-14.469,2.711L156.824,220.36z M233.55,318.386l-75.963-75.885l11.452-2.177l0,0l75.962,75.887L233.55,318.386z
				 M261.148,328.846l-13.475-4.81l6.527-1.222l2.137-1.146l15.27-15.269l1.145-2.138l1.414-6.642l4.809,13.398
				c0.441,4.939-1.035,9.86-4.123,13.741c-3.898,3.079-8.832,4.542-13.779,4.085H261.148z M275.539,334.037
				c3.762-1.796,6.793-4.828,8.588-8.589l4.811,13.398L275.539,334.037z"/>
		</g>
	</g>
</g>
</svg>
