<?xml version="1.0" encoding="utf-8"?>
<!-- Generator: Adobe Illustrator 16.0.0, SVG Export Plug-In . SVG Version: 6.00 Build 0)  -->
<!DOCTYPE svg PUBLIC "-//W3C//DTD SVG 1.1//EN" "http://www.w3.org/Graphics/SVG/1.1/DTD/svg11.dtd">
<svg version="1.1" id="Layer_1" xmlns:sketch="http://www.bohemiancoding.com/sketch/ns"
	 xmlns="http://www.w3.org/2000/svg" xmlns:xlink="http://www.w3.org/1999/xlink" x="0px" y="0px" width="400px" height="400px"
	 viewBox="0 40 400 400" enable-background="new 0 40 400 400" xml:space="preserve">
<rect x="115.785" y="146.121" fill="#EE2D50" width="75.04" height="8.337"/>
<rect x="174.148" y="162.796" fill="#EE2D50" width="16.676" height="41.689"/>
<rect x="140.798" y="162.796" fill="#EE2D50" width="25.013" height="41.689"/>
<rect x="115.785" y="162.796" fill="#EE2D50" width="16.675" height="41.689"/>
<rect x="282.541" y="262.85" fill="#EE2D50" width="25.012" height="16.676"/>
<g sketch:type="MSPage">
	<g sketch:type="MSArtboardGroup">
		<path sketch:type="MSShapeGroup" d="M111.618,150.958h75.04v-8.337h-75.04V150.958z M186.657,159.296h-16.676v41.689h16.676
			V159.296z M136.631,200.985h25.013v-41.689h-25.013V200.985z M111.618,200.985h16.675v-41.689h-16.675V200.985z M107.448,209.323
			c-2.3,0-4.168-1.868-4.168-4.168v-66.702c0-2.302,1.868-4.169,4.168-4.169h83.378c2.302,0,4.169,1.867,4.169,4.169v66.702
			c0,2.3-1.868,4.168-4.169,4.168H107.448z M278.374,276.025h25.012V259.35h-25.012V276.025z M274.204,284.363
			c-2.301,0-4.168-1.867-4.168-4.168V255.18c0-2.301,1.867-4.168,4.168-4.168h33.351c2.302,0,4.171,1.867,4.171,4.168v25.016
			c0,2.301-1.869,4.168-4.171,4.168H274.204z M257.528,251.012h-25.013c-2.301,0-4.168,1.867-4.168,4.168s1.867,4.17,4.168,4.17
			h20.844v25.014h-4.168c-2.303,0-4.17,1.867-4.17,4.168s1.867,4.17,4.17,4.17h4.168v20.844c0,2.303,1.868,4.168,4.169,4.168
			s4.168-1.865,4.168-4.168V255.18C261.696,252.879,259.829,251.012,257.528,251.012L257.528,251.012z M240.853,342.729H215.84
			c-2.302,0-4.17,1.867-4.17,4.168c0,2.303,1.868,4.17,4.17,4.17h25.013c2.303,0,4.169-1.867,4.169-4.17
			C245.021,344.596,243.155,342.729,240.853,342.729L240.853,342.729z M320.063,338.559c0-3.098-3.715-5.24-6.43-3.49
			c-1.143,0.738-2.571,0.867-3.825,0.363c-1.26-0.514-2.189-1.604-2.494-2.926c-0.88-3.799-4.211-6.455-8.096-6.455
			c-3.886,0-7.216,2.656-8.097,6.455c-0.304,1.322-1.233,2.412-2.492,2.926c-1.26,0.504-2.685,0.375-3.827-0.363
			c-0.7-0.449-1.459-0.678-2.26-0.678c-2.297,0-4.168,1.871-4.168,4.168c0,2.299,1.871,4.17,4.168,4.17h33.352
			C318.191,342.729,320.063,340.857,320.063,338.559L320.063,338.559z M236.685,217.661h16.675v-25.014h-16.675V217.661z
			 M278.374,192.647h-16.678v25.014h16.678V192.647z M303.386,192.647h-16.675v25.014h16.675V192.647z M328.4,221.83v116.729
			c0,6.895-5.612,12.508-12.507,12.508h-33.352c-6.896,0-12.506-5.613-12.506-12.508s5.61-12.508,12.506-12.508
			c0.721,0,1.438,0.064,2.143,0.189c2.877-5.182,8.351-8.527,14.533-8.527c6.182,0,11.656,3.346,14.532,8.527
			c0.705-0.125,1.422-0.189,2.144-0.189c1.472,0,2.86,0.301,4.169,0.768v-100.82h-87.547c-2.301,0-4.168-1.868-4.168-4.168v-83.378
			c0-2.302,1.867-4.169,4.168-4.169h54.195v-8.338h-54.195c-2.301,0-4.168-1.867-4.168-4.168s1.867-4.169,4.168-4.169h58.364
			c2.302,0,4.168,1.868,4.168,4.169v16.676c0,2.3-1.866,4.168-4.168,4.168h-54.195v41.689h87.546c2.303,0,4.17,1.868,4.17,4.168
			c0,2.302-1.867,4.169-4.17,4.169h-12.505v25.014h12.505C326.533,217.661,328.4,219.528,328.4,221.83L328.4,221.83z
			 M194.995,267.688h-91.716v75.041h91.716V267.688z M203.333,263.518v83.379c0,2.303-1.868,4.17-4.169,4.17H99.111
			c-2.301,0-4.169-1.867-4.169-4.17v-83.379c0-2.301,1.868-4.168,4.169-4.168h100.053
			C201.465,259.35,203.333,261.217,203.333,263.518L203.333,263.518z M115.787,334.391h66.702c2.301,0,4.168-1.869,4.168-4.17
			s-1.868-4.17-4.168-4.17h-66.702c-2.302,0-4.169,1.869-4.169,4.17S113.485,334.391,115.787,334.391L115.787,334.391z
			 M115.787,317.713h66.702c2.301,0,4.168-1.865,4.168-4.168c0-2.301-1.868-4.168-4.168-4.168h-66.702
			c-2.302,0-4.169,1.867-4.169,4.168C111.618,315.848,113.485,317.713,115.787,317.713L115.787,317.713z M115.787,284.363h66.702
			c2.301,0,4.168-1.867,4.168-4.168c0-2.303-1.868-4.17-4.168-4.17h-66.702c-2.302,0-4.169,1.867-4.169,4.17
			C111.618,282.496,113.485,284.363,115.787,284.363L115.787,284.363z M115.787,301.039h66.702c2.301,0,4.168-1.867,4.168-4.17
			c0-2.301-1.868-4.168-4.168-4.168h-66.702c-2.302,0-4.169,1.867-4.169,4.168C111.618,299.172,113.485,301.039,115.787,301.039
			L115.787,301.039z M261.696,330.221v16.676c0,2.303-1.867,4.17-4.168,4.17s-4.169-1.867-4.169-4.17v-12.506h-37.52
			c-2.302,0-4.17-1.869-4.17-4.17V109.269H86.604v237.627c0,2.303-1.867,4.17-4.169,4.17c-2.3,0-4.168-1.867-4.168-4.17V105.1
			c0-2.3,1.868-4.168,4.168-4.168H215.84c2.301,0,4.168,1.868,4.168,4.168v220.951h37.521
			C259.829,326.051,261.696,327.92,261.696,330.221L261.696,330.221z"/>
	</g>
</g>
<line fill="none" stroke="#000000" stroke-width="7" stroke-miterlimit="10" x1="66.5" y1="349.066" x2="340.167" y2="349.066"/>
</svg>
