<?xml version="1.0" encoding="utf-8"?>
<!-- Generator: Adobe Illustrator 16.0.0, SVG Export Plug-In . SVG Version: 6.00 Build 0)  -->
<!DOCTYPE svg PUBLIC "-//W3C//DTD SVG 1.1//EN" "http://www.w3.org/Graphics/SVG/1.1/DTD/svg11.dtd">
<svg version="1.1" id="Layer_1" xmlns="http://www.w3.org/2000/svg" xmlns:xlink="http://www.w3.org/1999/xlink" x="0px" y="0px"
	 width="400px" height="400px" viewBox="-46.02 -18.118 400 400" enable-background="new -46.02 -18.118 400 400"
	 xml:space="preserve">
<g>
	<g>
		<polygon fill="#F4284F" points="73.656,59.204 88.291,63.406 85.491,69.45 71.434,65.419 		"/>
		<polygon fill="#F4284F" points="129.516,34.781 135.227,48.02 121.423,59.785 114.436,46.754 		"/>
		<polygon fill="#F4284F" points="90.031,93.706 107.416,93.656 89.277,101.464 		"/>
		<polygon fill="#F4284F" points="36.674,93.122 81.317,93.759 79.662,110.787 33.858,110.156 		"/>
		<polygon fill="#F4284F" points="32.428,118.808 77.916,119.427 71.138,138.581 29.246,138.061 		"/>
		<path fill="#F4284F" d="M27.832,146.604l35.938,0.531l-25.867,12.412c-1.064,0.514-1.879,1.445-2.244,2.567l-2.057,6.315
			l-9.295-0.498L27.832,146.604z"/>
		<polygon fill="#F4284F" points="23.336,176.563 30.822,176.966 23.861,198.343 22.32,198.36 		"/>
		<polygon fill="#F4284F" points="16.725,231.337 9.728,225.905 13.904,221.036 21.256,226.742 		"/>
	</g>
	<path fill="none" d="M143.914,189.506"/>
	<g>
		<path d="M292.442,86.382c-0.36-2.074-2.159-3.583-4.266-3.583c-0.011,0-0.021,0-0.032,0l-99.282,0.574
			c-0.066-0.002-0.127-0.035-0.193-0.034c-0.054,0.002-0.097,0.032-0.148,0.037l-39.501,0.228c-0.069,0.001-0.126,0.036-0.193,0.04
			c-0.446,0.025-0.862,0.109-1.271,0.266c-0.147,0.055-0.283,0.113-0.423,0.183c-0.329,0.169-0.62,0.367-0.897,0.613
			c-0.169,0.147-0.316,0.297-0.461,0.468c-0.188,0.228-0.344,0.464-0.484,0.729c-0.146,0.269-0.254,0.542-0.34,0.842
			c-0.036,0.125-0.119,0.223-0.145,0.354l-2.339,12.607l-38.077,21.929c-0.958,0.551-1.668,1.45-1.99,2.509l-9.416,31.36
			l-37.035,15.694c-0.763,0.322-1.419,0.862-1.89,1.545l-19.436,28.492c-0.793,1.162-0.874,2.55-0.464,3.788l0.272,107.057h-3.34
			c-2.392,0-4.335,1.948-4.335,4.341v26.252c0,2.393,1.943,4.341,4.335,4.341h269.755c2.393,0,4.34-1.948,4.34-4.341v-26.252
			c0-2.393-1.947-4.341-4.34-4.341h-5.147l-0.576-105.253l13.516-0.108c1.281-0.011,2.487-0.582,3.303-1.567
			c0.815-0.984,1.153-2.275,0.932-3.535L292.442,86.382z M297.738,165.952l-46.337,0.248l-2.28-21.043l44.891-0.232L297.738,165.952
			z M289.107,117.243l3.371,19.02l-44.295,0.229l-2.06-19.008L289.107,117.243z M246.177,198.444l-48.591,0.262l-0.935-23.542
			l46.978-0.252L246.177,198.444z M284.545,91.495l3.028,17.087l-42.388,0.235l-1.851-17.086L284.545,91.495z M242.689,166.247
			l-46.383,0.25l-0.837-21.063l44.939-0.232L242.689,166.247z M239.471,136.536l-44.345,0.229l-0.756-18.996l43.041-0.238
			L239.471,136.536z M234.622,91.781l1.851,17.085l-42.448,0.234l-0.678-17.082L234.622,91.781z M148.526,106.22
			c1.102-0.635,1.869-1.721,2.097-2.964l2.042-11.003l32.012-0.185l0.678,17.081l-42.321,0.235L148.526,106.22z M142.682,118.056
			l43.018-0.238l0.755,18.992l-44.332,0.229L142.682,118.056z M141.866,145.71l44.932-0.231l0.837,21.064l-46.39,0.249
			L141.866,145.71z M140.989,175.464l46.99-0.252l0.936,23.541l-48.621,0.26L140.989,175.464z M110.211,128.286l17.62-10.147
			l6.17-0.034l-0.559,18.979l-25.912,0.134L110.211,128.286z M98.244,162.69c1.186-0.503,2.085-1.509,2.462-2.742l4.217-14.049
			l28.264-0.145l-0.621,21.084l-44.677,0.238L98.244,162.69z M85.325,175.763l46.984-0.253l-0.693,23.55l-48.58,0.262
			L85.325,175.763z M60.505,178.681l6.656-2.821l9.451-0.051l-2.293,23.56l-28.025,0.15L60.505,178.681z M286.442,206.909
			l0.58,105.169H264.59l-0.401-79.881c-0.011-1.153-0.477-2.255-1.292-3.06c-0.825-0.814-1.969-1.461-3.069-1.26l-58.244,0.317
			c-2.393,0.021-4.318,1.969-4.318,4.36l0.301,79.521h-39.199H43.102l-0.264-103.859L286.442,206.909z M235.28,277.003
			l-0.193-40.314l20.441-0.109l0.381,75.499h-20.462l-0.12-25.021c1.429-1.237,2.379-3.005,2.368-5.042
			C237.686,279.979,236.72,278.224,235.28,277.003z M226.647,287.056l0.12,25.022h-20.521l-0.29-75.233l20.451-0.11l0.193,40.354
			c-1.395,1.234-2.313,2.988-2.303,4.998C224.309,284.095,225.243,285.835,226.647,287.056z M296.507,320.759v17.572H35.427v-17.572
			h3.351h119.589h43.556h0.021h29.186h0.021h29.122h0.021h31.091H296.507z M291.215,198.132c-0.4-0.068-0.851-0.019-1.261,0.078
			l-35.064,0.188l-2.549-23.532l46.934-0.252l4.156,23.454L291.215,198.132z"/>
		<path d="M76.522,286.386l96.733,0.572c0,0,0.011,0,0.021,0c1.154,0,2.256-0.467,3.07-1.271c0.815-0.825,1.271-1.937,1.271-3.09
			l-0.148-27.488c0-0.002,0.001-0.002,0.001-0.004l-0.001-0.002l-0.138-25.266c-0.01-1.154-0.476-2.254-1.291-3.06
			c-0.826-0.815-2.233-1.407-3.07-1.26l-96.611,0.529c-2.393,0.021-4.324,1.958-4.314,4.351l0.17,51.66
			C72.218,284.438,74.146,286.365,76.522,286.386z M80.872,277.737l-0.059-17.765l31.36-0.172l0.064,18.122L80.872,277.737z
			 M168.683,234.22l0.088,16.59l-31.309,0.172l-0.09-16.594L168.683,234.22z M133.151,259.688c0.005,0,0.016,0,0.021,0
			s0.01-0.003,0.016-0.003l35.627-0.195l0.1,18.767l-48.006-0.283l-0.064-18.221l12.291-0.067
			C133.141,259.686,133.146,259.688,133.151,259.688z M128.702,234.435l0.09,16.594l-12.283,0.068c-0.004,0-0.01-0.004-0.014-0.004
			c-0.006,0-0.012,0-0.017,0c-0.006,0-0.01,0.004-0.016,0.004l-35.677,0.195l-0.055-16.597L128.702,234.435z"/>
		<path d="M13.657,203.753c0.016,0,0.031,0,0.049,0l9.016-0.104c0.057,0.004,0.115,0.029,0.172,0.029
			c0.036,0,0.063-0.031,0.099-0.031h0.019c0.82-0.012,1.539-0.309,2.188-0.71c0.12-0.077,0.224-0.144,0.338-0.233
			c0.701-0.533,1.23-1.234,1.504-2.092l9.436-28.982c0.187-0.348,0.281-0.732,0.367-1.131l2.369-7.274l31.032-14.894
			c1.037-0.498,1.831-1.387,2.212-2.467l13.709-38.734l26.01-11.194c1.535-0.661,2.557-2.148,2.619-3.821l0.223-6.049
			c0.084-2.393-1.783-4.404-4.176-4.494c-0.092,0.001-0.175,0.046-0.265,0.053l-28.636,0.08c-0.301,0-0.592,0.031-0.879,0.095
			l-52.109-0.741c-1.969,0.026-3.996,1.508-4.34,3.626l-8.723,52.864c-0.014,0.043-0.047,0.073-0.059,0.117
			c-0.042,0.148-0.008,0.295-0.033,0.444l-4.994,30.272c-0.002,0.017-0.012,0.029-0.012,0.047c0,0.004,0.002,0.009,0.002,0.014
			l-0.002,0.013l-1.467,30.747c-0.059,1.196,0.381,2.361,1.207,3.219C11.354,203.266,12.482,203.753,13.657,203.753z M85.915,90.364
			l17.385-0.05l-18.139,7.808L85.915,90.364z M32.558,89.78l44.644,0.637l-1.655,17.028l-45.804-0.631L32.558,89.78z
			 M28.312,115.466l45.488,0.619l-6.778,19.154l-41.892-0.521L28.312,115.466z M23.716,143.263l35.938,0.531l-25.867,12.412
			c-1.064,0.514-1.879,1.445-2.244,2.567l-2.057,6.315l-9.295-0.498L23.716,143.263z M19.22,173.222l7.486,0.402l-6.961,21.377
			l-1.541,0.018L19.22,173.222z"/>
		<path d="M111.339,68.206c0.619,1.153,1.73,1.969,3.018,2.213c0.27,0.053,0.535,0.074,0.805,0.074c1.021,0,2.021-0.36,2.811-1.038
			l20.335-17.335c1.45-1.232,1.927-3.266,1.17-5.018l-9.227-21.378c-0.534-1.238-1.614-2.154-2.922-2.488
			c-1.297-0.322-2.699-0.031-3.753,0.81l-22.348,17.748c-1.646,1.307-2.117,3.6-1.127,5.446L111.339,68.206z M124.534,34.362
			l5.711,13.238l-13.804,11.766l-6.987-13.031L124.534,34.362z"/>
		<path d="M60.479,69.132l22.077,6.336c0.396,0.117,0.799,0.17,1.196,0.17c1.651,0,3.213-0.947,3.933-2.514l6.484-14.012
			c0.534-1.147,0.534-2.472,0.01-3.625c-0.523-1.148-1.529-2.012-2.747-2.361l-23.405-6.717c-2.181-0.635-4.51,0.551-5.277,2.705
			l-5.154,14.392c-0.408,1.127-0.323,2.371,0.221,3.44C58.361,68.011,59.325,68.804,60.479,69.132z M69.54,55.862l14.635,4.202
			l-2.8,6.044l-14.058-4.031L69.54,55.862z"/>
		<path d="M26.308,219.536l-14.465-11.23c-1.826-1.398-4.441-1.154-5.949,0.604l-9.828,11.465c-0.773,0.899-1.144,2.085-1.021,3.26
			c0.121,1.186,0.719,2.266,1.656,2.995l13.641,10.587c0.782,0.604,1.72,0.91,2.656,0.91c1.127,0,2.244-0.445,3.092-1.303
			l10.654-10.818c0.867-0.879,1.317-2.086,1.232-3.324C27.896,221.442,27.286,220.298,26.308,219.536z M12.608,227.995l-6.997-5.432
			l4.177-4.869l7.352,5.706L12.608,227.995z"/>
		<path d="M149.411,73.806c0.83,0,1.672-0.238,2.413-0.736l7.955-5.346c1.984-1.334,2.515-4.028,1.181-6.018
			c-1.339-1.991-4.039-2.52-6.018-1.182l-7.956,5.347c-1.984,1.333-2.514,4.028-1.181,6.019
			C146.644,73.134,148.013,73.806,149.411,73.806z"/>
		<path d="M84.212,31.468c0.836,1.242,2.207,1.916,3.605,1.916c0.83,0,1.672-0.238,2.413-0.736c1.984-1.334,2.514-4.028,1.181-6.018
			l-5.346-7.955c-1.34-1.991-4.045-2.525-6.019-1.182c-1.985,1.334-2.515,4.029-1.181,6.019L84.212,31.468z"/>
	</g>
</g>
</svg>
