<?xml version="1.0" encoding="utf-8"?>
<!-- Generator: Adobe Illustrator 16.0.0, SVG Export Plug-In . SVG Version: 6.00 Build 0)  -->
<!DOCTYPE svg PUBLIC "-//W3C//DTD SVG 1.1//EN" "http://www.w3.org/Graphics/SVG/1.1/DTD/svg11.dtd">
<svg version="1.1" id="Layer_1" xmlns="http://www.w3.org/2000/svg" xmlns:xlink="http://www.w3.org/1999/xlink" x="0px" y="0px"
	 width="400px" height="400px" viewBox="-46.02 -18.118 400 400" enable-background="new -46.02 -18.118 400 400"
	 xml:space="preserve">
<g>
	<g>
		<g>
			<path fill="#F4284F" d="M104.475,72.428h24.377c4.434,0,6.648,2.134,6.648,6.4v57.6H97.825v-57.6
				C97.825,74.562,100.042,72.428,104.475,72.428"/>
			<path fill="#F4284F" d="M58.154,221.549c0-4.268,2.217-6.4,6.649-6.4H88.96c4.58,0,6.871,2.133,6.871,6.4v82.773H58.154V221.549"
				/>
			<polyline fill="#F4284F" points="8.068,228.802 31.339,228.802 31.339,257.176 8.068,257.176 8.068,228.802 			"/>
			<polyline fill="#F4284F" points="295.954,241.602 302.159,241.602 302.159,259.948 295.954,259.948 295.954,241.602 			"/>
			<path fill="#F4284F" d="M247.198,244.588h24.377c4.434,0,6.649,2.134,6.649,6.4v80H240.55v-80
				C240.55,246.722,242.766,244.588,247.198,244.588"/>
			<path fill="#F4284F" d="M203.761,244.588c4.284,0.143,6.426,2.276,6.426,6.4v32c0,4.125-2.142,6.258-6.426,6.4h-33.466
				c-4.433,0-6.648-2.134-6.648-6.4v-32c0-4.267,2.216-6.4,6.648-6.4H203.761"/>
		</g>
		<g transform="matrix( 1, 0, 0, 1, 0,0) ">
			<g>
				<g id="a">
					<path d="M231.339,54.629V43.322c0-2.275-0.296-4.196-0.887-5.761v-0.213l-0.222-0.427c-0.147-0.143-0.222-0.285-0.222-0.427
						c-0.592-1.138-1.33-2.134-2.216-2.987h-0.222v-0.213h-0.222c-0.295-0.284-0.665-0.568-1.109-0.854v-0.213
						c-2.215-1.422-5.022-2.133-8.421-2.133H87.063c-9.161,0-13.74,4.408-13.74,13.227v110.72H30.107v-40.747l19.724,6.4
						c1.033,0.143,1.92,0.07,2.659-0.213c0.887-0.428,1.478-1.139,1.773-2.134c0.295-0.854,0.221-1.707-0.223-2.56
						c-0.443-0.854-1.107-1.352-1.994-1.494l-21.939-7.04v-7.04l19.724,6.4c1.033,0.284,1.92,0.213,2.659-0.213
						c0.887-0.428,1.478-1.067,1.773-1.92c0.295-0.996,0.221-1.85-0.223-2.561c-0.443-0.854-1.107-1.422-1.994-1.707l-21.939-7.039
						v-6.827l19.724,6.187c0.886,0.284,1.773,0.213,2.659-0.213c0.887-0.428,1.478-1.067,1.773-1.92
						c0.295-0.854,0.221-1.707-0.223-2.561s-1.107-1.422-1.994-1.707l-23.935-7.467c-0.295-0.142-0.518-0.213-0.666-0.213
						L0.632,68.922c-0.887-0.285-1.774-0.213-2.661,0.213c-0.886,0.427-1.477,1.066-1.772,1.92s-0.222,1.707,0.222,2.561
						s1.107,1.422,1.995,1.707l24.6,7.68v7.04L0.632,82.789c-0.887-0.285-1.774-0.214-2.661,0.213
						c-0.886,0.426-1.477,1.138-1.772,2.133c-0.296,0.854-0.222,1.636,0.222,2.348c0.443,0.853,1.107,1.422,1.995,1.706l24.6,7.894
						v6.826l-22.383-7.04c-0.887-0.284-1.774-0.213-2.661,0.214c-0.886,0.426-1.477,1.066-1.772,1.92s-0.222,1.707,0.222,2.56
						c0.443,0.854,1.107,1.423,1.995,1.707l24.6,7.894v42.88H9.717c-9.16,0-13.74,4.409-13.74,13.227v125.653
						c0,8.818,4.58,13.227,13.74,13.227h34.352c11.7-2.338,26.513-3.213,34.825-3.088c17-0.25,33.625-1.688,48.75-1.375
						c18.208,17.479-17,31.313,39.875,28c9.313,2.25,9.563-0.063,16.688-0.438c6.313,0.938,8.563,0.813,14.375,0
						c2.548,1.998,6.625,1.563,15.096,1.74c-0.443,0.426,3.342,2.822,5.154-0.49c-0.295,0.711,1.58,0.181,1.875,0.75
						c0.296,0.711,1.159,0.841,1.75,1.125c0.591,0.427,0.324-0.875,1.063-0.875l2.25,2.063c11.563-1.5,11.261-1.307,12-1.875
						c13.688,0.063,11.188-3.647,29.438-1.188c14.5,3.75,25.125,0.49,32.17-0.456c3.103-2.276,4.654-6.116,4.654-11.521v-139.52
						c0-7.254-2.881-11.662-8.644-13.227c1.182-2.134,1.772-4.693,1.772-7.68v-32c0-8.676-4.58-13.014-13.74-13.014h-33.465
						c-8.863,0.143-13.297,4.479-13.297,13.014v32c0,2.701,0.443,4.977,1.33,6.826h-6.648V87.269 M231.339,75.535v-6.4
						 M221.809,37.775c0.147,0.143,0.369,0.284,0.665,0.426v0.214l0.222,0.214c0.442,0.426,0.887,0.924,1.33,1.492
						c0.295,0.854,0.442,1.921,0.442,3.201v32.64c-0.147,0.284-0.147,0.497,0,0.64v88.32h-31.913v-5.334
						c0.296-3.555-1.699-5.333-5.983-5.333h-5.098v-5.76c0.296-3.698-1.699-5.547-5.984-5.547h-6.87v-5.974
						c0.148-3.697-1.847-5.547-5.983-5.547h-25.265v-57.6c0-8.817-4.506-13.227-13.52-13.227H99.475
						c-9.014,0-13.52,4.409-13.52,13.227v80.214h-5.54V43.322c0-4.268,2.215-6.4,6.648-6.4h130.756
						C219.445,36.922,220.774,37.206,221.809,37.775 M161.749,138.255v4.267H92.825v-4.267H161.749 M153.993,164.922
						c-0.147-1.564-0.443-2.916-0.887-4.054h32.578v4.054H153.993 M174.604,149.775v4.267h-32.8c-0.148,0-0.296,0-0.443,0
						c-0.296,0-0.592,0-0.888,0h-0.442c-0.147,0-0.295,0-0.443,0c-1.329,0-2.733,0-4.21,0c-0.443-0.143-0.888-0.214-1.33-0.214
						c-0.591,0-1.108,0.071-1.552,0.214c-13.298,0-26.521,0-39.67,0v-4.267H174.604 M186.571,171.962
						c0.886,0,1.625-0.071,2.216-0.214h100.615c5.172,0,7.757,2.418,7.757,7.254v50.986h-8.643c-3.103,0-4.58,1.422-4.432,4.267
						v23.04c-0.148,2.845,1.329,4.267,4.432,4.267h8.643v56.96c0,4.268-1.846,6.685-5.54,7.254
						c-0.738,0.143-1.477,0.213-2.217,0.213h-9.307v-80c0-8.676-4.507-13.014-13.521-13.014h-24.377
						c-9.161,0-13.741,4.338-13.741,13.014v80h-83.994c-5.171,0-7.757-2.488-7.757-7.467V178.789
						c0.147-3.841,1.848-6.116,5.098-6.827H186.571 M290.068,126.096v32c0,4.266-2.217,6.399-6.649,6.399h-33.465
						c-4.285-0.142-6.426-2.275-6.426-6.399v-32c0-4.125,2.141-6.258,6.426-6.4h33.465
						C287.852,119.695,290.068,121.828,290.068,126.096 M99.475,67.428h24.377c4.434,0,6.648,2.134,6.648,6.4v57.6H92.825v-57.6
						C92.825,69.562,95.042,67.428,99.475,67.428 M3.068,167.269c0-4.267,2.217-6.4,6.648-6.4h79.784c14.775,0,29.55,0,44.323,0
						h0.223c1.773,0,3.62,0,5.54,0c0.148,0,0.296,0,0.443,0h0.442c0.148,0,0.296,0,0.444,0h0.443
						c2.955,0.143,4.801,1.493,5.54,4.054h-2.438c-1.182,0-2.29,0.07-3.323,0.213c-0.148,0-0.296,0-0.444,0
						c-7.239,1.28-10.858,5.832-10.858,13.654v82.133h-5.319c-4.285,0-6.428,2.133-6.428,6.4v3.412c0,4.268,2.143,6.4,6.428,6.4
						h5.319v22.188H97.7v-82.773c0-8.818-4.579-13.227-13.74-13.227H59.804c-9.16,0-13.74,4.408-13.74,13.227v82.773H9.717
						c-4.432,0-6.648-2.134-6.648-6.4h8.199c2.956,0,4.434-1.494,4.434-4.48v-21.76c0-2.844-1.478-4.267-4.434-4.267H3.068v-3.413
						h25.709c3.103,0,4.653-1.494,4.653-4.48v-33.279c0-2.845-1.551-4.268-4.653-4.268H3.068V167.269 M53.154,216.549
						c0-4.268,2.217-6.4,6.649-6.4H83.96c4.58,0,6.871,2.133,6.871,6.4v82.773H53.154V216.549 M3.068,223.802h23.271v28.374H3.068
						V223.802 M124.96,270.309v-2.773h4.877v2.773H124.96 M3.068,269.028h5.763v17.067H3.068V269.028 M290.954,236.602h6.205v18.347
						h-6.205V236.602 M242.198,239.588h24.377c4.434,0,6.649,2.134,6.649,6.4v80H235.55v-80
						C235.55,241.722,237.766,239.588,242.198,239.588 M101.469,286.309v3.413c-0.147,4.267,2.068,6.399,6.648,6.399h13.298
						c4.432,0,6.648-2.133,6.648-6.399v-3.413c0-4.267-2.217-6.4-6.648-6.4h-13.298
						C103.685,279.908,101.469,282.042,101.469,286.309 M121.193,286.521v2.773h-12.854v-2.773H121.193 M151.776,245.988v32
						c0,8.818,4.507,13.227,13.519,13.227h33.687c8.717-0.284,13.075-4.693,13.075-13.227v-32c0-8.676-4.432-13.014-13.296-13.014
						h-33.466C156.283,232.975,151.776,237.313,151.776,245.988 M198.761,239.588c4.284,0.143,6.426,2.276,6.426,6.4v32
						c0,4.125-2.142,6.258-6.426,6.4h-33.466c-4.433,0-6.648-2.134-6.648-6.4v-32c0-4.267,2.216-6.4,6.648-6.4H198.761
						 M188.344,204.389c-4.284,0-6.427,2.133-6.427,6.4v3.626c0,4.124,2.143,6.187,6.427,6.187h13.52
						c4.433,0,6.648-2.063,6.648-6.187v-3.626c0-4.268-2.216-6.4-6.648-6.4H188.344 M188.787,213.988v-2.773h12.854v2.773H188.787
						 M171.944,203.962h-13.519c-4.433,0-6.649,2.134-6.649,6.399v3.414c0,4.267,2.217,6.4,6.649,6.4h13.519
						c4.285,0,6.427-2.134,6.427-6.4v-3.414C178.371,206.096,176.229,203.962,171.944,203.962 M158.646,210.789h12.854v2.772
						h-12.854V210.789 M194.992,192.868c0.147-4.267-2.068-6.399-6.648-6.399h-13.298c-4.431,0-6.648,2.133-6.648,6.399v3.413
						c0,4.268,2.218,6.4,6.648,6.4h13.298c4.58,0,6.796-2.133,6.648-6.4V192.868 M188.122,193.295v2.773h-12.633v-2.773H188.122
						 M174.604,61.028c-0.296,0-0.518,0-0.665,0h-7.534c-9.162,0-13.741,4.409-13.741,13.227v32c0,8.676,4.579,13.014,13.741,13.014
						h33.243c9.012,0,13.518-4.338,13.518-13.014v-32c0-8.817-4.506-13.227-13.518-13.227H174.604 M178.593,67.855h8.421
						c-0.296,1.706-0.442,3.484-0.442,5.333c0,6.969,1.847,12.871,5.541,17.706c0.59,0.854,1.254,1.637,1.993,2.348
						c-0.739,0.711-1.478,1.493-2.215,2.346c-3.251,4.409-4.877,9.672-4.877,15.787c0,0.427,0,0.854,0,1.28h-8.643
						c0-0.427,0-0.854,0-1.28c0-6.115-1.625-11.378-4.875-15.787c-0.591-0.853-1.257-1.635-1.995-2.346
						c0.591-0.711,1.182-1.494,1.772-2.348c3.842-4.835,5.763-10.737,5.763-17.706C179.036,71.34,178.888,69.562,178.593,67.855
						 M193.441,73.188c0-1.849,0.221-3.627,0.664-5.333h5.542c4.431,0,6.648,2.133,6.648,6.399v14.294c-0.443,0-0.887,0-1.331,0
						c-1.773,0-3.397,0.284-4.874,0.854c-0.888-0.712-1.626-1.494-2.218-2.348v-0.213C194.918,83.145,193.441,78.593,193.441,73.188
						 M159.755,74.255c0-4.267,2.216-6.399,6.649-6.399h5.097c0.295,1.706,0.443,3.484,0.443,5.333
						c0,5.404-1.404,10.026-4.211,13.866c-0.739,0.854-1.477,1.636-2.217,2.348c-1.625-0.569-3.324-0.854-5.098-0.854
						c-0.295,0-0.517,0-0.664,0V74.255 M167.733,99.642v-0.214c2.511,3.414,3.768,7.396,3.768,11.947c0,0.427,0,0.854,0,1.28h-5.097
						c-4.434,0-6.649-2.134-6.649-6.4v-10.88c0.147-0.143,0.369-0.213,0.664-0.213c1.33,0,2.586,0.355,3.768,1.066l0.223,0.213
						C165.738,97.152,166.847,98.22,167.733,99.642 M194.105,112.655c0-0.427,0-0.854,0-1.28c0-4.551,1.183-8.533,3.547-11.947
						v0.214c1.034-1.422,2.216-2.489,3.546-3.2c0-0.143,0.074-0.213,0.222-0.213c1.182-0.711,2.363-1.066,3.545-1.066
						c0.444,0,0.888,0.07,1.331,0.213v10.88c0,4.267-2.218,6.4-6.648,6.4H194.105z"/>
				</g>
			</g>
		</g>
	</g>
	<polyline fill="none" stroke="#000000" stroke-width="6.8" stroke-miterlimit="10" points="-0.69,288.915 -0.69,303.123 
		133.311,303.123 133.311,330.988 300.561,330.988 300.561,313.915 	"/>
</g>
</svg>
