<?xml version="1.0" encoding="utf-8"?>
<!-- Generator: Adobe Illustrator 16.0.0, SVG Export Plug-In . SVG Version: 6.00 Build 0)  -->
<!DOCTYPE svg PUBLIC "-//W3C//DTD SVG 1.1//EN" "http://www.w3.org/Graphics/SVG/1.1/DTD/svg11.dtd">
<svg version="1.1" id="Layer_1" xmlns="http://www.w3.org/2000/svg" xmlns:xlink="http://www.w3.org/1999/xlink" x="0px" y="0px"
	 width="480px" height="400px" viewBox="-86.02 -18.118 480 400" enable-background="new -86.02 -18.118 480 400"
	 xml:space="preserve">
<g>
	<path fill="#F4284F" d="M124.72,229.052c-9.284,39.324-44.651,67.596-85.328,67.596c-39.909,0-74.826-26.895-87.076-71.332
		c3.641-3.161,7.24-4.637,11.438-7.063c6.797,34.01,39.657,64.953,75.639,64.953c36.702,0,67.192-26.775,73.167-61.8
		C116.863,223.576,120.93,226.136,124.72,229.052z"/>
	<path fill="#F4284F" d="M-46.891,102.575c0.157-2.093,3.24-37.759,32.102-58.03c-13.052,13.686-21.119,32.16-21.119,52.524v18.439
		v10v84.396c0,1.44,0.134,2.845,0.215,4.263c-3.913,2.02-7.653,4.327-11.186,6.904L-46.891,102.575z"/>
	<g>
		<path d="M3.702,113.088c6.728,0,19.58,2.557,24.042,4.923v28.401h17.161v-9.601h-7.561v-23.032l-1.268-1.378
			c-6.06-6.585-27.456-8.913-32.375-8.913c-7.372,0-14.3,2.868-19.511,8.079l6.793,6.789
			C-5.621,114.958-1.105,113.088,3.702,113.088z"/>
		<path d="M46.799,118.901c2.361-2.565,17.729-5.813,25.313-5.813c4.813,0,9.324,1.87,12.715,5.265l6.797-6.786
			c-5.199-5.211-12.131-8.079-19.508-8.079c-4.918,0-26.311,2.327-32.379,8.913L46.799,118.901z"/>
		<path d="M8.057,120.718H0.008c-2.649,0-4.8,2.15-4.8,4.8c0,2.649,2.15,4.8,4.8,4.8h8.049c2.65,0,4.801-2.15,4.801-4.8
			C12.857,122.868,10.707,120.718,8.057,120.718z"/>
		<path d="M73.797,120.718h-8.052c-2.649,0-4.8,2.15-4.8,4.8c0,2.649,2.15,4.8,4.8,4.8h8.052c2.65,0,4.801-2.15,4.801-4.8
			C78.598,122.868,76.451,120.718,73.797,120.718z"/>
		<rect x="20.383" y="152.236" width="31.854" height="9.601"/>
		<rect x="26.758" y="164.306" width="19.445" height="9.6"/>
		<path d="M108.58,209.203c0.023-0.768,0.115-1.521,0.115-2.3v-60.622c2.47-7.488,3.848-15.468,3.848-23.77V94.068
			c0-42.033-34.195-76.228-76.228-76.228c-2.158,0-4.278,0.146-6.39,0.323v-0.027c-83.72,0-90.336,79.949-90.405,81.093V226.21
			c-15.752,15.482-25.54,37.009-25.54,60.783v71.174h245v-71.174C158.98,252.396,138.252,222.566,108.58,209.203z M119.72,227.051
			c-9.284,39.325-44.651,67.596-85.328,67.596c-39.909,0-74.266-26.508-84.626-64.774c3.641-3.16,7.58-5.972,11.777-8.397
			c6.797,34.009,36.867,59.73,72.849,59.73c36.702,0,67.192-26.775,73.167-61.8C111.863,221.576,115.93,224.136,119.72,227.051z
			 M-30.309,206.903v-47.454c6.9,12.398,17.157,22.667,29.541,29.594v12.672c-10.379,0.004-20.329,1.875-29.533,5.292
			C-30.305,206.972-30.309,206.937-30.309,206.903z M102.632,87.955C70.964,93.154,45.77,60.157,41.115,53.602v-6.808
			c10.376,11.681,29.845,27.698,59.197,28.923C101.445,79.665,102.248,83.746,102.632,87.955z M31.516,30.95
			c-3.426,5.491-21.362,31.507-55.461,34.882c10.003-21.266,30.885-36.384,55.461-38.15V30.95z M-27.682,75.717
			C1.683,74.48,21.151,58.441,31.516,46.759v7.012C11.125,88.673-19.1,90.436-30.094,89.787
			C-29.783,84.937-28.977,80.229-27.682,75.717z M-30.309,112.508V99.298c0.826,0.031,1.701,0.058,2.676,0.058
			c14.154,0,43.347-4.224,64.29-35.658c9.665,12.265,34.406,38.492,66.286,33.934v24.875c0,36.733-29.887,66.62-66.628,66.62
			s-66.628-29.887-66.628-66.62v-10H-30.309z M8.832,193.521c8.541,3.316,17.787,5.207,27.487,5.207
			c10.138,0,19.799-2.028,28.657-5.642v30.336c-25.305,18.854-49.509,4.608-56.145-0.05V193.521z M-0.768,211.315v16.724
			l1.743,1.439c0.238,0.195,16.048,12.96,37.183,12.96c10.633,0,22.614-3.234,34.633-12.925l1.79-1.44v-16.716
			c8.359,0.092,16.37,1.586,23.873,4.197c-4.247,31.591-31.315,56.052-64.055,56.052c-32.237,0-58.96-23.719-63.833-54.605
			C-20.59,213.358-10.916,211.319-0.768,211.315z M99.096,205.578c-7.761-2.427-15.994-3.756-24.522-3.84v-13.409
			c9.742-5.687,18.141-13.425,24.522-22.683V205.578z M96.58,65.836C62.555,62.48,44.609,36.583,41.119,31v-3.314
			C65.695,29.449,86.573,44.567,96.58,65.836z M-50.891,99.575c0.157-2.093,3.24-37.759,32.102-58.03
			c-13.052,13.686-21.119,32.16-21.119,52.524v18.439v10v84.396c0,1.44,0.134,2.845,0.215,4.263
			c-3.913,2.02-7.653,4.327-11.186,6.904L-50.891,99.575z M-76.42,286.993c0-18.861,6.981-36.092,18.44-49.359
			c12.46,37.682,46.395,63.867,86.181,66.352v44.582h-54.988v-48.012h-9.6v48.012H-76.42V286.993z M149.38,348.567h-36.837v-48.012
			h-9.6v48.012H37.801v-44.471c41.976-1.482,78.348-29.93,90.025-69.885c13.313,13.648,21.551,32.256,21.551,52.781v61.574H149.38z"
			/>
		<rect x="32.104" y="89.445" width="9.6" height="9.784"/>
		<path d="M-55.457,297.642v-4.051h4.051v-9.6h-4.051v-4.053h-9.6v4.053h-4.051v9.6h4.051v4.051H-55.457z M-62.926,291.464v-5.342
			h5.342v5.342H-62.926z"/>
		<path d="M-0.768,255.401h9.6v-4.051h4.052v-9.6H8.832V237.7h-9.6v4.051h-4.051v9.6h4.051V255.401z M1.359,249.224v-5.342h5.342
			v5.342H1.359z"/>
		<path d="M50.254,261.161h9.601v-4.051h4.052v-9.6h-4.052v-4.051h-9.601v4.051h-4.051v9.6h4.051V261.161z M52.386,254.983v-5.342
			h5.341v5.342H52.386z"/>
		<path d="M-9.619,331.979h9.601v-4.051h4.052v-9.602h-4.052v-4.051h-9.601v4.051h-4.051v9.602h4.051V331.979z M-7.487,325.796
			v-5.34h5.341v5.34H-7.487z"/>
		<path d="M83.42,305.429h-9.6v4.051H69.77v9.602h4.051v4.047h9.6v-4.051h4.052v-9.6H83.42V305.429z M81.289,311.608v5.342h-5.341
			v-5.342H81.289z"/>
		<path d="M134.354,323.128h-9.601v4.051h-4.051v9.6h4.051v4.053h9.601v-4.053h4.051v-9.6h-4.051V323.128z M132.224,329.306v5.342
			h-5.342v-5.342H132.224z"/>
		<path d="M137.023,265.331h-9.601v4.053h-4.051v9.6h4.051v4.051h9.601v-4.051h4.051v-9.6h-4.051V265.331z M134.892,271.515v5.342
			h-5.337v-5.342H134.892z"/>
		<path d="M59.854,325.796h-9.601v4.053h-4.051v9.6h4.051v4.051h9.601v-4.051h4.052v-9.6h-4.052V325.796z M57.727,331.979v5.342
			h-5.341v-5.342H57.727z"/>
		<path d="M-42.559,324.507h-4.051v-4.051h-9.6v4.051h-4.048v9.6h4.052v4.051h9.6v-4.051h4.051v-9.6H-42.559z M-48.736,326.638
			v5.342h-5.342v-5.342H-48.736z"/>
	</g>
</g>
<g>
	<path fill="#F4284F" d="M319.645,210.507v25.477c-8.063,6.144-21.12,14.592-28.032,14.592h-4.992v101.376h-6.912V245.967
		c9.601-0.768,20.353-4.224,31.104-12.672l1.92-1.536v-21.636C315.421,210.123,317.725,210.123,319.645,210.507z"/>
	<path fill="#F4284F" d="M239.111,235.79c0.384,0,10.084,9,31.382,11.084v107.077h-6.912V252.575h-4.992
		c-6.912,0-19.969-8.448-28.032-14.592v-27.477c2.304-0.384,4.608-0.384,6.912-0.384v24.417L239.111,235.79z"/>
	<g>
		<path d="M225.405,111.255c3.455-3.456,8.063-5.376,12.672-5.376c6.912,0,19.584,2.688,24.191,4.992v28.416h17.28v-9.601h-7.681
			v-23.039l-1.151-1.536c-6.144-6.528-27.647-8.832-32.256-8.832c-7.296,0-14.208,2.688-19.585,8.063L225.405,111.255z"/>
		<path d="M306.429,105.879c4.992,0,9.216,1.92,12.672,5.376l6.912-6.912c-5.376-5.376-12.288-8.063-19.584-8.063
			c-4.992,0-26.496,2.304-32.256,8.832l6.912,6.527C283.389,108.951,298.749,105.879,306.429,105.879z"/>
		<path d="M242.301,113.559h-8.063c-2.688,0-4.992,2.305-4.992,4.992c0,2.688,2.304,4.992,4.992,4.992h8.063
			c2.688,0,4.991-2.304,4.991-4.992C247.292,115.863,244.989,113.559,242.301,113.559z"/>
		<path d="M308.349,113.559h-8.064c-2.688,0-4.992,2.305-4.992,4.992c0,2.688,2.305,4.992,4.992,4.992h8.064
			c2.688,0,4.992-2.304,4.992-4.992C313.341,115.863,311.036,113.559,308.349,113.559z"/>
		<rect x="258.429" y="158.487" width="24.96" height="9.6"/>
		<rect x="264.573" y="170.007" width="13.055" height="9.601"/>
		<path d="M309.116,202.263v-4.991c19.584-14.977,33.793-39.553,37.248-63.36c0.385,0,0.769,0,1.152,0
			c9.984,0,18.048-8.064,18.048-18.048c0-9.984-8.063-18.048-18.048-18.048h-0.384v-2.688c2.688-6.912,15.743-43.775,5.76-62.592
			c-3.072-5.76-7.681-9.6-14.208-10.752h-0.384H205.053H203.9c-6.528,1.535-11.136,4.992-14.208,10.752
			c-9.984,19.199,3.072,56.448,5.376,62.592v2.688l0,0c-9.983,0-18.048,8.063-18.048,18.048c0,9.983,8.064,18.048,18.048,18.048
			c0.384,0,0.384,0,0.769,0c3.455,25.729,17.664,51.456,38.399,66.048v1.92c-46.848,0-85.247,38.4-85.247,85.248v71.04H393.98
			v-71.04C393.213,240.663,355.581,202.647,309.116,202.263z M315.645,212.247v20.736c-8.063,6.144-21.12,14.592-28.032,14.592
			h-4.992v101.376h-6.912V242.967c9.601-0.768,20.353-4.224,31.104-12.672l1.92-1.536v-16.896
			C311.421,211.863,313.725,211.863,315.645,212.247z M299.517,223.767c-25.344,18.816-49.536,4.608-56.064,0v-18.048
			c8.064,3.84,16.896,6.145,26.112,6.145c10.752,0,20.736-3.072,30.336-8.064L299.517,223.767L299.517,223.767z M195.068,54.423
			l51.072-23.04h12.672l-62.208,34.176C195.837,61.719,195.068,57.879,195.068,54.423z M344.829,68.247l-54.528-26.112l3.456-2.304
			l52.607,17.664C345.98,60.951,345.597,64.791,344.829,68.247z M281.085,47.895l61.439,29.953c-1.152,3.455-1.92,6.911-3.072,9.6
			l-62.976-36.48L281.085,47.895z M267.261,56.727l69.12,40.32c-13.056,47.232-25.728,56.064-32.257,57.601
			c-7.295,1.151-12.672-6.145-12.672-6.145l-1.535-1.92h-37.633l-1.535,1.92c0,0-6.912,8.064-15.36,6.528
			c-6.912-1.536-19.584-11.136-31.104-57.601L267.261,56.727z M347.133,107.799c4.608,0,8.448,3.84,8.448,8.448
			s-3.84,8.448-8.448,8.448h-0.384c0-0.384,0-1.152,0-1.536L347.133,107.799L347.133,107.799z M336.765,31.383
			c3.456,0.769,5.76,2.688,7.296,5.76c1.536,2.688,2.304,6.145,2.304,10.369l-42.623-14.209l2.688-1.92H336.765z M201.98,87.063
			c-1.151-3.456-2.304-7.681-3.456-11.904l80.256-44.16h10.752L201.98,87.063z M205.053,31.383h17.664l-27.265,12.288
			c0.385-2.304,1.152-4.608,1.92-6.144C199.292,34.071,201.597,32.151,205.053,31.383z M194.301,124.695
			c-4.608,0-8.448-3.84-8.448-8.448s3.84-8.448,8.448-8.448l0,0v15.36C194.301,123.543,194.685,123.927,194.301,124.695
			C194.685,124.695,194.301,124.695,194.301,124.695z M204.284,127.767c8.064,21.12,18.049,33.024,29.568,35.713
			c1.536,0.384,3.072,0.384,4.607,0.384c8.832,0,15.361-5.376,18.433-8.448h28.416c3.072,3.456,10.368,9.6,20.353,8.064
			c11.903-2.305,22.271-14.977,31.487-38.4c-1.151,35.328-31.104,76.8-67.968,76.8C234.237,202.263,206.589,163.479,204.284,127.767
			z M235.389,229.911c0.384,0,13.056,10.368,31.104,12.672v106.368h-6.912V247.575h-4.992c-6.912,0-19.969-8.448-28.032-14.592
			v-20.736c2.304-0.384,4.608-0.384,6.912-0.384v16.896L235.389,229.911z M157.821,287.511c0-36.096,25.344-66.432,59.135-73.728
			v23.808l1.92,1.536c1.921,1.536,18.049,14.976,31.104,17.664v92.16h-42.239v-48h-9.601v48h-40.319V287.511z M383.612,348.951
			h-39.936v-48h-9.6v48h-41.473v-92.16c13.057-3.072,29.184-16.128,31.104-17.664l1.921-1.536v-23.808
			c33.407,7.68,58.368,38.016,58.368,73.728C383.612,287.511,383.612,348.951,383.612,348.951z"/>
		<rect x="227.708" y="258.327" width="16.513" height="9.6"/>
		<rect x="227.708" y="273.687" width="16.513" height="9.601"/>
		<rect x="231.165" y="285.591" width="9.6" height="16.512"/>
		<rect x="299.9" y="258.327" width="16.513" height="9.6"/>
		<rect x="299.9" y="273.687" width="16.513" height="9.601"/>
		<rect x="303.356" y="285.591" width="9.6" height="16.512"/>
	</g>
	<line fill="none" x1="259.581" y1="348.951" x2="259.581" y2="247.959"/>
</g>
</svg>
