<?xml version="1.0" encoding="utf-8"?>
<!-- Generator: Adobe Illustrator 16.0.0, SVG Export Plug-In . SVG Version: 6.00 Build 0)  -->
<!DOCTYPE svg PUBLIC "-//W3C//DTD SVG 1.1//EN" "http://www.w3.org/Graphics/SVG/1.1/DTD/svg11.dtd">
<svg version="1.1" id="Layer_1" xmlns="http://www.w3.org/2000/svg" xmlns:xlink="http://www.w3.org/1999/xlink" x="0px" y="0px"
	 width="480px" height="400px" viewBox="-86.02 -18.118 480 400" enable-background="new -86.02 -18.118 480 400"
	 xml:space="preserve">
<g>
	<path fill="#F4284F" d="M155.42,277.084v22.342l-48.368,39.232H17.464l86.72-68.391l-5.948-7.537L1.958,338.658h-22.709h-3.512
		l151.198-120.635C144.269,231.903,155.42,253.199,155.42,277.084z"/>
	<path fill="#F4284F" d="M111.706,208.587c2.403,1.125,4.727,2.369,6.98,3.732L-28.575,329.955v-11.336L111.706,208.587z"/>
	<g>
		<path d="M3.702,102.209c6.728,0,19.58,2.557,24.042,4.923v28.4h17.161v-9.6h-7.561V102.9l-1.268-1.378
			c-6.06-6.585-27.456-8.913-32.375-8.913c-7.372,0-14.3,2.868-19.511,8.079l6.793,6.789
			C-5.621,104.079-1.105,102.209,3.702,102.209z"/>
		<path d="M46.799,108.023c2.361-2.565,17.729-5.813,25.313-5.813c4.813,0,9.324,1.87,12.715,5.265l6.797-6.786
			c-5.199-5.211-12.131-8.079-19.508-8.079c-4.918,0-26.311,2.327-32.379,8.913L46.799,108.023z"/>
		<path d="M8.057,109.839H0.008c-2.649,0-4.8,2.15-4.8,4.8c0,2.649,2.15,4.8,4.8,4.8h8.049c2.65,0,4.801-2.15,4.801-4.8
			C12.857,111.99,10.707,109.839,8.057,109.839z"/>
		<path d="M73.797,109.839h-8.052c-2.649,0-4.8,2.15-4.8,4.8c0,2.649,2.15,4.8,4.8,4.8h8.052c2.65,0,4.801-2.15,4.801-4.8
			C78.598,111.99,76.451,109.839,73.797,109.839z"/>
		<rect x="20.383" y="141.358" width="31.854" height="9.6"/>
		<rect x="26.758" y="153.427" width="19.445" height="9.6"/>
		<path d="M136.604,218.596L112.378,79.891C110.635,39.395,77.234,6.962,36.315,6.962c-41.837,0-75.878,33.88-76.197,75.644
			l-23.755,135.986c-13.893,15.176-22.383,35.373-22.383,57.52v71.174h245v-71.17C158.98,253.969,150.49,233.775,136.604,218.596z
			 M149.38,298.455l-48.368,39.234H11.424l86.72-68.391l-5.948-7.537l-96.277,75.928h-22.709v-2.949l147.687-117.688
			c17.333,13.881,28.481,35.178,28.481,59.063v22.34H149.38z M-39.475,171.986l-4.961,30.931c-2.635,1.575-5.177,3.287-7.611,5.13
			l12.139-69.489v22.533c0,2.649,2.15,4.8,4.8,4.8s4.8-2.15,4.8-4.8v-12.526c2.838,5.096,6.278,9.792,10.16,14.085l-2.898,31.162
			c-3.706,1.006-7.315,2.239-10.803,3.713l3.852-24.02L-39.475,171.986z M114.721,201.377l-6.129-29.603l-9.396,1.947l4.692,22.656
			c-3.641-1.382-7.399-2.515-11.255-3.395l-2.799-27.156c5.146-5.081,9.562-10.89,13.105-17.257v12.526c0,2.649,2.15,4.8,4.8,4.8
			s4.8-2.15,4.8-4.8v-24.449l12.473,71.413C121.756,205.594,118.318,203.362,114.721,201.377z M-0.768,190.836
			c-4.228,0.004-8.383,0.323-12.445,0.922l1.924-20.698c3.295,2.646,6.809,5.026,10.521,7.1V190.836z M-30.309,88.412
			c12.775,0.503,44.563-1.974,66.966-35.593c9.661,12.261,34.368,38.442,66.286,33.907v14.365v10.541
			c0,36.733-29.887,66.62-66.628,66.62s-66.628-29.887-66.628-66.62V88.412H-30.309z M8.832,182.642
			c8.541,3.317,17.787,5.207,27.487,5.207c10.138,0,19.799-2.028,28.657-5.641v30.336c-25.305,18.854-49.509,4.608-56.145-0.05
			V182.642z M74.573,177.45c2.2-1.283,4.327-2.676,6.382-4.167l1.859,18.044c-2.711-0.288-5.465-0.442-8.241-0.469V177.45z
			 M102.632,77.077C70.964,82.276,45.77,49.279,41.115,42.724v-6.808c10.376,11.681,29.845,27.698,59.197,28.923
			C101.445,68.786,102.248,72.868,102.632,77.077z M31.516,42.889C11.117,77.802-19.115,79.553-30.094,78.904
			c0.311-4.846,1.117-9.554,2.412-14.07c29.364-1.236,48.833-17.276,59.197-28.958V42.889L31.516,42.889z M-0.768,200.437v16.723
			l1.743,1.44c0.238,0.196,16.048,12.96,37.183,12.96c10.633,0,22.614-3.233,34.633-12.925l1.79-1.44v-16.716
			c7.161,0.081,14.085,1.167,20.644,3.118l-60.529,47.298c-40.754-0.902-51.648-35.809-54.202-48.008
			C-13.505,201.347-7.246,200.44-0.768,200.437z M105.666,207.617c2.403,1.125,4.727,2.369,6.98,3.732L-26.787,322.467v-11.334
			L105.666,207.617z M96.58,54.958c-34.025-3.356-51.971-29.253-55.461-34.836v-3.314C65.695,18.57,86.573,33.688,96.58,54.958z
			 M31.516,16.808v3.268c-3.426,5.491-21.362,31.507-55.461,34.882C-13.938,33.688,6.943,18.57,31.516,16.808z M-28.611,205.82
			c3.26,13.813,14.987,47.404,52.309,53.672l-50.484,39.451v-9.266h-9.6v28.896H-76.42v-42.459
			C-76.42,244.23-56.574,216.952-28.611,205.82z M-76.42,328.174h40.033v9.516H-76.42V328.174z M116.249,337.689l33.131-26.873
			v26.873H116.249z"/>
		<rect x="32.104" y="78.566" width="9.6" height="9.784"/>
		<rect x="32.104" y="71.29" width="9.6" height="4.8"/>
		<rect x="-74.656" y="304.008" width="9.6" height="9.682"/>
		<rect x="-61.697" y="304.008" width="9.601" height="9.682"/>
		<rect x="-48.736" y="304.008" width="9.6" height="9.682"/>
	</g>
</g>
<g>
	<path fill="#F4284F" d="M330.359,347.235H225.732V206.691c4.85-1.152,6.502-0.582,11.752,1.168
		c4.504,3.456,9.727,9.2,13.539,14.191c6.582,9.217,14.57,5.415,20.461,6.184c10.738,1.536,27.467-0.007,31.625-10.375
		c2.078-5.376-1.146-7.38,1.625-11.604c3.875-0.875,17.656,0.567,25.625,2.104C330.359,255.208,330.359,300.388,330.359,347.235z"/>
	<g>
		<path d="M263.035,107.619v28.416h17.281v-9.6h-7.682v-23.04l-1.15-1.536c-6.145-6.528-27.648-8.832-32.258-8.832
			c-7.295,0-14.207,2.688-19.584,8.064l6.912,6.911c3.457-3.455,8.064-5.375,12.672-5.375
			C245.756,102.627,258.428,105.315,263.035,107.619z"/>
		<path d="M307.195,102.627c4.992,0,9.217,1.921,12.672,5.376l6.912-6.911c-5.375-5.376-12.287-8.064-19.584-8.064
			c-4.992,0-26.496,2.304-32.256,8.832l6.912,6.528C284.156,105.699,299.516,102.627,307.195,102.627z"/>
		<path d="M243.068,119.907c2.688,0,4.99-2.304,4.99-4.992c0-2.688-2.303-4.991-4.99-4.991h-8.064c-2.688,0-4.992,2.304-4.992,4.991
			c0,2.688,2.305,4.992,4.992,4.992H243.068z"/>
		<path d="M309.115,110.308h-8.064c-2.688,0-4.992,2.304-4.992,4.992c0,2.688,2.305,4.991,4.992,4.991h8.064
			c2.688,0,4.992-2.304,4.992-4.991C314.107,112.611,311.803,110.308,309.115,110.308z"/>
		<path d="M310.268,158.308l-3.072-9.216c-8.832,3.071-14.207-4.608-14.592-5.376l-1.535-2.305H255.74h-2.689l-1.535,2.305
			c-0.768,0.768-6.145,8.447-14.592,5.376l-3.072,9.216c2.688,0.768,4.992,1.151,7.297,1.151c7.68,0,13.822-4.607,17.279-8.448
			h28.031C290.299,156.388,299.131,162.531,310.268,158.308z"/>
		<rect x="261.883" y="153.699" width="19.584" height="9.601"/>
		<path d="M309.883,191.331v-13.439c19.584-11.521,33.793-31.488,37.248-54.912c0.385,0,0.77,0,1.152,0
			c9.984,0,18.049-8.064,18.049-18.048c0-9.984-8.064-18.048-18.049-18.048H347.9v-3.456c0-41.856-34.178-76.416-76.416-76.416
			c-42.24,0-76.416,34.176-76.416,76.416v3.456l0,0c-9.984,0-18.049,8.063-18.049,18.048c0,9.983,8.064,18.048,18.049,18.048
			c0.383,0,0.768,0,0.768,0c3.455,23.808,18.047,44.16,38.4,55.296v12.672c-46.85,0-85.248,38.4-85.248,85.249v71.039H393.98
			v-71.039C393.98,229.731,356.348,191.716,309.883,191.331z M287.996,48.1c-33.408,36.864-71.041,33.792-82.945,31.488
			c0.385-4.608,1.152-9.217,2.305-13.824c2.688,0.768,6.145,1.152,10.367,1.152c14.594,0,39.168-6.145,72.193-35.328
			C289.531,38.115,288.379,44.26,287.996,48.1z M297.98,45.795c11.902,11.521,30.719,18.433,37.631,20.353
			c0.768,3.071,1.537,6.528,1.92,9.984c-20.352-2.688-36.096-21.505-40.32-26.88C297.596,48.483,297.596,47.332,297.98,45.795z
			 M347.9,96.867c4.607,0,8.447,3.84,8.447,8.448s-3.84,8.448-8.447,8.448h-0.385c0-0.384,0-1.152,0-1.536L347.9,96.867
			L347.9,96.867z M331.387,54.627c-11.135-4.224-26.496-11.903-31.871-22.271c0.385-3.072,0.385-5.76,0.385-8.832
			C313.723,30.051,324.859,41.188,331.387,54.627z M271.484,16.996c6.143,0,12.287,0.768,17.664,2.303
			c-42.24,39.553-69.121,39.169-78.721,37.248C220.795,33.508,244.219,16.996,271.484,16.996z M195.068,113.764
			c-4.609,0-8.449-3.84-8.449-8.448s3.84-8.448,8.449-8.448l0,0v15.36C195.068,112.611,195.451,112.995,195.068,113.764
			C195.451,113.764,195.068,113.764,195.068,113.764z M204.668,112.228V89.571c3.455,0.384,8.064,1.152,13.439,1.152
			c18.432,0,47.232-5.376,73.729-32.64c6.912,8.447,23.807,26.111,46.08,28.031v26.112c0,36.863-29.953,66.432-66.816,66.432
			S204.668,148.707,204.668,112.228z M271.484,188.26c9.982,0,19.967-1.92,28.799-5.761v30.336
			c-25.344,18.816-49.535,4.608-56.064,0v-29.951C252.668,186.34,261.883,188.26,271.484,188.26z M234.236,200.932v16.896
			l1.92,1.536c0.383,0,13.055,10.368,31.104,12.672v92.161h9.6v-92.161c9.6-0.768,20.352-4.224,31.104-12.672l1.92-1.536v-16.896
			c41.473,0.384,74.881,34.176,74.881,75.647v42.625h-39.936v-28.801h-9.6v48H208.508v-48h-9.6v28.801h-40.32v-42.625
			C158.588,234.723,192.764,200.932,234.236,200.932z M158.588,328.419h39.936v9.602h-39.936V328.419z M344.443,338.021v-9.602
			h39.936v9.602H344.443z"/>
		<rect x="281.467" y="244.708" width="9.602" height="7.295"/>
		<rect x="281.467" y="260.067" width="9.602" height="7.297"/>
		<rect x="281.467" y="275.429" width="9.602" height="7.295"/>
		<rect x="281.467" y="290.788" width="9.602" height="7.295"/>
		<rect x="281.467" y="306.147" width="9.602" height="7.297"/>
		<polygon points="248.443,323.812 258.043,323.812 258.043,304.612 239.996,304.612 239.996,294.243 230.395,294.243 
			230.395,304.612 218.107,304.612 218.107,314.212 248.443,314.212 		"/>
	</g>
	<line fill="none" stroke="#020202" stroke-width="8" stroke-miterlimit="10" x1="216.42" y1="198.476" x2="216.42" y2="342.526"/>
	
		<line fill="none" stroke="#020202" stroke-width="8" stroke-miterlimit="10" x1="327.672" y1="198.476" x2="327.672" y2="342.526"/>
</g>
</svg>
