<?xml version="1.0" encoding="utf-8"?>
<!-- Generator: Adobe Illustrator 16.0.0, SVG Export Plug-In . SVG Version: 6.00 Build 0)  -->
<!DOCTYPE svg PUBLIC "-//W3C//DTD SVG 1.1//EN" "http://www.w3.org/Graphics/SVG/1.1/DTD/svg11.dtd">
<svg version="1.1" id="Layer_1" xmlns="http://www.w3.org/2000/svg" xmlns:xlink="http://www.w3.org/1999/xlink" x="0px" y="0px"
	 width="480px" height="400px" viewBox="-86.02 -18.118 480 400" enable-background="new -86.02 -18.118 480 400"
	 xml:space="preserve">
<g>
	<path fill="#F4284F" d="M155.38,279.91v22.342l-48.368,39.232H17.424l86.72-68.391l-5.948-7.537L1.918,341.484h-22.709h-3.512
		l151.198-120.636C144.229,234.729,155.38,256.025,155.38,279.91z"/>
	<path fill="#F4284F" d="M111.666,211.413c2.403,1.125,4.727,2.369,6.98,3.732L-28.615,332.781v-11.336L111.666,211.413z"/>
	<g>
		<path d="M36.315,95.912c7.384,0,13.386-6.006,13.386-13.39c0-7.385-6.002-13.391-13.386-13.391s-13.394,6.006-13.394,13.391
			C22.922,89.906,28.932,95.912,36.315,95.912z M36.315,78.728c2.089,0,3.786,1.701,3.786,3.791c0,2.088-1.697,3.789-3.786,3.789
			c-2.093,0-3.794-1.701-3.794-3.789C32.521,80.429,34.223,78.728,36.315,78.728z"/>
		<path d="M27.744,109.929v28.4h17.161v-9.601h-7.561v-23.032l-1.268-1.379c-6.06-6.585-27.456-8.912-32.375-8.912
			c-7.372,0-14.3,2.868-19.511,8.079l6.793,6.789c3.395-3.395,7.91-5.269,12.718-5.269C10.43,105.005,23.278,107.559,27.744,109.929
			z"/>
		<path d="M46.799,110.819c2.361-2.565,17.729-5.814,25.313-5.814c4.813,0,9.324,1.87,12.715,5.266l6.797-6.786
			c-5.199-5.211-12.131-8.079-19.508-8.079c-4.918,0-26.311,2.327-32.379,8.912L46.799,110.819z"/>
		<path d="M8.057,112.636H0.008c-2.649,0-4.8,2.15-4.8,4.8s2.15,4.8,4.8,4.8h8.049c2.65,0,4.801-2.15,4.801-4.8
			S10.707,112.636,8.057,112.636z"/>
		<path d="M73.797,112.636h-8.052c-2.649,0-4.8,2.15-4.8,4.8s2.15,4.8,4.8,4.8h8.052c2.65,0,4.801-2.15,4.801-4.8
			S76.451,112.636,73.797,112.636z"/>
		<rect x="20.383" y="144.153" width="31.854" height="9.601"/>
		<rect x="26.758" y="156.224" width="19.445" height="9.6"/>
		<rect x="-50.638" y="133.524" width="9.601" height="10.061"/>
		<rect x="113.672" y="133.524" width="9.601" height="10.061"/>
		<path d="M74.573,193.655v-13.409c19.63-11.454,33.661-31.396,37.075-54.781c0.399,0.026,0.779,0.119,1.183,0.119
			c9.935,0,18.014-8.079,18.014-18.014c0-9.931-8.079-18.01-18.014-18.01c-0.096,0-0.192,0.023-0.288,0.026v-3.598
			c0-42.032-34.195-76.228-76.228-76.228s-76.228,34.195-76.228,76.228v3.575c-0.016,0-0.031-0.004-0.047-0.004
			c-9.93,0-18.014,8.079-18.014,18.01c0,9.935,8.08,18.014,18.014,18.014c0.319,0,0.627-0.077,0.941-0.093
			c3.49,23.847,17.998,44.141,38.242,55.469v12.672c-47.002,0.016-85.244,38.265-85.244,85.278v71.174h245V278.91
			C158.98,232.182,121.194,194.128,74.573,193.655z M149.38,278.91v22.342l-48.368,39.232H11.424l86.72-68.391l-5.948-7.537
			l-96.277,75.928h-22.709v-2.949l147.687-117.687C138.229,233.729,149.38,255.025,149.38,278.91z M105.666,210.413
			c2.403,1.125,4.727,2.369,6.98,3.732L-26.787,325.264v-11.336L105.666,210.413z M31.516,45.685
			C11.125,80.587-19.1,82.349-30.094,81.7c0.311-4.846,1.117-9.554,2.412-14.07c29.364-1.236,48.833-17.275,59.197-28.957V45.685
			L31.516,45.685z M41.115,38.711c10.376,11.681,29.845,27.698,59.197,28.922c1.133,3.948,1.936,8.029,2.319,12.238
			C70.964,85.071,45.77,52.075,41.115,45.52V38.711z M112.831,99.157c4.639,0,8.413,3.771,8.413,8.409s-3.774,8.413-8.413,8.413
			c-0.123,0-0.242-0.03-0.368-0.034c0.011-0.511,0.08-1.006,0.08-1.521V99.18C112.64,99.18,112.735,99.157,112.831,99.157z
			 M96.58,57.754c-34.025-3.356-51.971-29.253-55.461-34.836v-3.314C65.695,21.366,86.573,36.484,96.58,57.754z M31.516,19.604
			v3.268c-3.426,5.491-21.362,31.507-55.461,34.882C-13.938,36.484,6.943,21.366,31.516,19.604z M-39.955,115.983
			c-4.639,0-8.413-3.774-8.413-8.413s3.774-8.409,8.413-8.409c0.016,0,0.031,0.004,0.047,0.004v15.268
			c0,0.521,0.068,1.025,0.08,1.543C-39.87,115.972-39.912,115.983-39.955,115.983z M-30.309,114.425V91.216
			c0.826,0.031,1.701,0.058,2.676,0.058c14.154,0,43.347-4.224,64.29-35.658c9.665,12.265,34.406,38.492,66.286,33.935v24.875
			c0,36.733-29.887,66.62-66.628,66.62S-30.309,151.162-30.309,114.425z M36.315,190.646c10.138,0,19.799-2.028,28.657-5.642v30.336
			c-25.305,18.854-49.508,4.608-56.145-0.05v-29.855C17.373,188.755,26.619,190.646,36.315,190.646z M0.973,221.396
			c0.237,0.195,16.047,12.96,37.182,12.96c10.633,0,22.614-3.234,34.633-12.925l1.79-1.44v-16.716
			c7.161,0.081,14.085,1.168,20.644,3.118l-60.525,47.297c-40.754-0.902-51.648-35.808-54.202-48.007
			c6.002-1.54,12.261-2.45,18.739-2.454v16.724L0.973,221.396z M-28.611,208.616c3.26,13.813,14.987,47.403,52.309,53.671
			l-50.484,39.451v-9.266h-9.6v28.896H-76.42V278.91C-76.42,247.027-56.574,219.748-28.611,208.616z M-76.42,330.969h40.033v9.516
			H-76.42V330.969z M116.249,340.484l33.131-26.871v26.871H116.249z"/>
	</g>
</g>
<g>
	<path fill="#F4284F" d="M361.095,256.388h-31.488c0-17.279,0.384-34.176,0.384-51.456c4.608,0.769,9.983,2.305,16.513,5.377
		c5.76,2.688,9.983,5.375,13.439,8.063C360.71,231.044,361.095,243.716,361.095,256.388z"/>
	<rect x="329.606" y="265.988" fill="#F4284F" width="30.336" height="5.76"/>
	<g>
		<path d="M263.036,110.468v28.416h17.28v-9.6h-7.681v-23.04l-1.151-1.536c-6.144-6.528-27.648-8.832-32.257-8.832
			c-7.295,0-14.207,2.688-19.584,8.064l6.912,6.911c3.457-3.455,8.064-5.375,12.672-5.375
			C245.757,105.476,258.429,108.164,263.036,110.468z"/>
		<path d="M307.196,105.476c4.992,0,9.216,1.921,12.672,5.376l6.912-6.911c-5.376-5.376-12.288-8.064-19.584-8.064
			c-4.992,0-26.496,2.304-32.256,8.832l6.912,6.528C284.156,108.548,299.517,105.476,307.196,105.476z"/>
		<path d="M243.068,122.756c2.688,0,4.991-2.304,4.991-4.992c0-2.688-2.303-4.991-4.991-4.991h-8.063
			c-2.688,0-4.992,2.304-4.992,4.991c0,2.688,2.304,4.992,4.992,4.992H243.068z"/>
		<path d="M309.116,113.156h-8.064c-2.688,0-4.992,2.304-4.992,4.992c0,2.688,2.305,4.991,4.992,4.991h8.064
			c2.688,0,4.992-2.304,4.992-4.991C314.108,115.46,311.804,113.156,309.116,113.156z"/>
		<path d="M310.269,161.156l-3.072-9.216c-8.832,3.071-14.208-4.608-14.592-5.376l-1.536-2.305H255.74h-2.688l-1.535,2.305
			c-0.769,0.768-6.145,8.447-14.592,5.376l-3.072,9.216c2.688,0.768,4.992,1.151,7.296,1.151c7.68,0,13.823-4.607,17.28-8.448
			h28.031C290.3,159.236,299.132,165.38,310.269,161.156z"/>
		<rect x="261.884" y="156.548" width="19.584" height="9.601"/>
		<path d="M309.884,194.18V180.74c19.584-11.521,33.793-31.488,37.248-54.912c0.385,0,0.769,0,1.152,0
			c9.984,0,18.048-8.064,18.048-18.048c0-9.984-8.063-18.048-18.048-18.048H347.9v-3.456c0-41.856-34.177-76.416-76.416-76.416
			c-42.24,0-76.416,34.176-76.416,76.416v3.456l0,0c-9.984,0-18.048,8.063-18.048,18.048c0,9.983,8.063,18.048,18.048,18.048
			c0.384,0,0.768,0,0.768,0c3.456,23.808,18.048,44.16,38.4,55.296v12.672c-46.849,0-85.248,38.4-85.248,85.248v71.04H393.98v-71.04
			C393.98,232.58,356.349,194.564,309.884,194.18z M323.708,265.988h29.568v5.76h-29.568V265.988z M353.276,256.388h-29.568v-51.456
			c10.752,2.305,21.12,6.912,29.568,13.057V256.388z M347.9,99.716c4.608,0,8.448,3.84,8.448,8.448s-3.84,8.448-8.448,8.448h-0.384
			c0-0.384,0-1.152,0-1.536L347.9,99.716L347.9,99.716z M337.532,78.98c-20.352-2.688-36.096-21.505-40.32-26.88
			c0.769-4.608,2.688-16.129,2.688-25.729C320.636,36.356,335.228,55.94,337.532,78.98z M271.484,19.845
			c6.528,0,13.056,1.151,19.2,2.688c0.384,8.447-1.536,21.888-2.688,28.416c-33.407,36.864-71.04,33.792-82.944,31.488
			C206.972,47.492,236.156,19.845,271.484,19.845z M195.068,116.612c-4.608,0-8.448-3.84-8.448-8.448s3.84-8.448,8.448-8.448l0,0
			v15.36C195.068,115.46,195.452,115.844,195.068,116.612C195.452,116.612,195.068,116.612,195.068,116.612z M204.668,115.076V92.42
			c3.456,0.384,8.064,1.152,13.44,1.152c18.432,0,47.232-5.376,73.728-32.64c6.912,8.447,23.808,26.111,46.08,28.031v26.112
			c0,36.863-29.952,66.432-66.815,66.432C234.236,181.508,204.668,151.556,204.668,115.076z M271.484,191.108
			c9.983,0,19.968-1.92,28.8-5.761v30.336c-25.344,18.816-49.536,4.608-56.064,0v-29.951
			C252.668,189.188,261.884,191.108,271.484,191.108z M234.236,203.78v16.896l1.92,1.536c0.384,0.384,16.128,13.056,37.248,13.056
			c10.752,0,22.655-3.071,34.56-13.056l1.92-1.536V203.78c1.536,0,3.072,0,4.608,0.384v77.568h48.769V226.82
			c13.439,13.824,21.504,32.256,21.504,52.607v42.625h-39.937v-28.801h-9.601v48H208.509v-48h-9.601v28.801h-40.319v-42.625
			C158.589,237.572,192.765,203.78,234.236,203.78z M158.589,331.268h39.936v9.601h-39.936V331.268z M344.444,340.868v-9.601h39.936
			v9.601H344.444z"/>
	</g>
	<line fill="none" x1="353.276" y1="256.388" x2="323.708" y2="256.388"/>
	<line fill="none" x1="353.276" y1="256.388" x2="323.708" y2="256.388"/>
</g>
</svg>
