<?xml version="1.0" encoding="utf-8"?>
<!-- Generator: Adobe Illustrator 25.4.1, SVG Export Plug-In . SVG Version: 6.00 Build 0)  -->
<svg version="1.1" id="Layer_1" xmlns="http://www.w3.org/2000/svg" xmlns:xlink="http://www.w3.org/1999/xlink" x="0px" y="0px"
	 viewBox="0 0 500 500" style="enable-background:new 0 0 500 500;" xml:space="preserve">
<style type="text/css">
	.st0{fill:#EE3150;}
	.st1{fill:#EE3350;}
	.st2{fill:#FFFFFF;}
	.st3{fill:#F7ACC0;}
</style>
<g>
	<g>
		<g>
			<g>
				<circle class="st1" cx="208.37" cy="70.87" r="7.95"/>
			</g>
			<g>
				<path class="st1" d="M222.45,105.54l-1.66-16.39c-0.5-4.39-4.14-7.78-8.61-7.78h-7.53c-4.39,0-8.11,3.31-8.61,7.78l-1.74,16.39
					c-0.17,1.32,0.58,2.48,1.82,2.98l4.05,1.66c0.5,0.16,0.83,0.66,0.91,1.24l2.15,27.56c0.08,1.49,1.41,2.65,2.9,2.65h4.55
					c1.49,0,2.73-1.16,2.9-2.65l2.07-27.64c0.08-0.58,0.42-1,0.91-1.24l4.05-1.66C221.87,108.03,222.61,106.79,222.45,105.54z"/>
			</g>
		</g>
		<g>
			<g>
				<circle class="st1" cx="164.03" cy="70.87" r="7.95"/>
			</g>
			<g>
				<path class="st1" d="M178.09,105.54l-1.66-16.39c-0.5-4.39-4.14-7.78-8.61-7.78h-7.53c-4.39,0-8.11,3.31-8.61,7.78l-1.74,16.39
					c-0.16,1.32,0.58,2.48,1.82,2.98l4.05,1.66c0.5,0.16,0.83,0.66,0.91,1.24l2.15,27.56c0.08,1.49,1.41,2.65,2.9,2.65h4.55
					c1.49,0,2.73-1.16,2.9-2.65l2.07-27.64c0.08-0.58,0.41-1,0.91-1.24l4.05-1.66C177.51,108.03,178.26,106.79,178.09,105.54z"/>
			</g>
		</g>
		<g>
			<g>
				<circle class="st1" cx="186.07" cy="56.59" r="9.55"/>
				<path class="st2" d="M186.07,66.39c-5.4,0-9.8-4.4-9.8-9.8c0-5.4,4.4-9.8,9.8-9.8c5.4,0,9.8,4.4,9.8,9.8
					C195.87,62,191.47,66.39,186.07,66.39z M186.07,47.29c-5.13,0-9.3,4.17-9.3,9.3s4.17,9.3,9.3,9.3s9.3-4.17,9.3-9.3
					S191.2,47.29,186.07,47.29z"/>
			</g>
			<g>
				<path class="st1" d="M202.98,98.27l-1.99-19.69c-0.6-5.27-4.97-9.35-10.34-9.35h-9.05c-5.27,0-9.75,3.98-10.34,9.35l-2.09,19.69
					c-0.2,1.59,0.7,2.98,2.19,3.58l4.87,1.99c0.6,0.2,1,0.79,1.09,1.49l2.59,33.12c0.1,1.79,1.69,3.18,3.48,3.18h5.47
					c1.79,0,3.28-1.39,3.48-3.18l2.48-33.22c0.1-0.7,0.5-1.19,1.1-1.49l4.87-1.99C202.28,101.25,203.18,99.76,202.98,98.27z"/>
				<path class="st2" d="M188.86,141.88h-5.47c-1.95,0-3.62-1.53-3.73-3.42l-2.58-33.12c-0.09-0.62-0.44-1.11-0.92-1.27l-4.89-2
					c-1.63-0.65-2.55-2.16-2.34-3.84L171,78.55c0.61-5.46,5.16-9.57,10.59-9.57h9.05c5.42,0,9.97,4.11,10.59,9.57l1.99,19.69
					c0.22,1.64-0.77,3.22-2.36,3.75l-4.86,1.98c-0.53,0.27-0.86,0.7-0.94,1.3l-2.48,33.2C192.37,140.42,190.77,141.88,188.86,141.88
					z M181.6,69.48c-5.18,0-9.52,3.92-10.1,9.13l-2.09,19.69c-0.18,1.45,0.62,2.75,2.03,3.32l4.88,1.99
					c0.65,0.22,1.13,0.87,1.25,1.69l2.59,33.14c0.09,1.63,1.54,2.95,3.23,2.95h5.47c1.66,0,3.04-1.27,3.23-2.96l2.48-33.21
					c0.11-0.77,0.54-1.35,1.23-1.7l4.89-2c1.37-0.46,2.22-1.81,2.03-3.22l0-0.01l-1.99-19.69c-0.59-5.2-4.93-9.12-10.09-9.12H181.6z
					"/>
			</g>
		</g>
		<g>
			<g>
				<g>
					<path class="st0" d="M173.27,170c1.7,1.42,2.55,3.32,2.55,5.71c0,1.54-0.39,2.94-1.16,4.21c-0.77,1.27-1.94,2.28-3.52,3.03
						c-1.58,0.76-3.52,1.14-5.83,1.14c-1.78,0-3.53-0.23-5.25-0.7c-1.72-0.47-3.18-1.14-4.39-2l2.31-4.48
						c0.96,0.72,2.07,1.28,3.32,1.68c1.25,0.4,2.54,0.6,3.86,0.6c1.47,0,2.62-0.29,3.47-0.87c0.84-0.58,1.26-1.38,1.26-2.42
						c0-1.08-0.44-1.9-1.32-2.46c-0.88-0.55-2.4-0.83-4.57-0.83h-6.46l1.3-14.23h15.42v4.69h-10.55l-0.4,4.8h2.06
						C168.95,167.87,171.58,168.58,173.27,170z"/>
				</g>
				<g>
					<path class="st0" d="M190.81,173.72l-3.39,3.54v6.39h-5.81v-25.28h5.81v11.81l11.2-11.81h6.5l-10.47,11.27l11.09,14.01h-6.83
						L190.81,173.72z"/>
				</g>
				<g>
					<path class="st0" d="M225.26,173.22h-6.29v6.14h-4.66v-6.14h-6.25v-4.41h6.25v-6.14h4.66v6.14h6.28L225.26,173.22
						L225.26,173.22z"/>
				</g>
			</g>
		</g>
	</g>
	<g>
		<path class="st0" d="M185.81,239.55L68.07,121.81L185.81,4.08l117.74,117.74L185.81,239.55z M77.97,121.81l107.84,107.84
			l107.84-107.84L185.81,13.98L77.97,121.81z"/>
	</g>
	<g>
		<path class="st0" d="M314.2,367.94L196.46,250.2L314.2,132.47L431.93,250.2L314.2,367.94z M206.36,250.2L314.2,358.04
			L422.03,250.2L314.2,142.37L206.36,250.2z"/>
	</g>
	<g>
		<path class="st0" d="M186.21,495.92L68.48,378.19l117.74-117.74l117.74,117.74L186.21,495.92z M78.38,378.19l107.84,107.84
			l107.84-107.84L186.21,270.35L78.38,378.19z"/>
	</g>
	<g>
		<path class="st0" d="M243.9,407.13H127.61l28.2-24.67h61.57l0.14,0.13L243.9,407.13z M130.27,406.13h111.09l-24.37-22.67h-60.81
			L130.27,406.13z"/>
	</g>
	<g>
		<g>
			<g>
				<circle class="st3" cx="259.12" cy="219.23" r="7.85"/>
			</g>
			<g>
				<path class="st3" d="M273.02,253.5l-1.64-16.19c-0.49-4.34-4.09-7.69-8.51-7.69h-7.44c-4.34,0-8.02,3.27-8.51,7.69l-1.72,16.19
					c-0.16,1.31,0.57,2.45,1.8,2.94l4.01,1.64c0.49,0.16,0.82,0.65,0.9,1.22l2.13,27.24c0.08,1.47,1.39,2.62,2.86,2.62h4.5
					c1.47,0,2.7-1.15,2.86-2.62l2.04-27.32c0.08-0.57,0.41-0.98,0.9-1.23l4.01-1.64C272.45,255.95,273.19,254.73,273.02,253.5z"/>
			</g>
		</g>
		<g>
			<g>
				<circle class="st1" cx="369.25" cy="219.23" r="7.85"/>
				<path class="st2" d="M369.25,227.33c-4.47,0-8.1-3.63-8.1-8.1s3.63-8.1,8.1-8.1c4.47,0,8.1,3.63,8.1,8.1
					S373.71,227.33,369.25,227.33z M369.25,211.63c-4.19,0-7.6,3.41-7.6,7.6s3.41,7.6,7.6,7.6s7.6-3.41,7.6-7.6
					S373.44,211.63,369.25,211.63z"/>
			</g>
			<g>
				<path class="st1" d="M383.15,253.5l-1.64-16.19c-0.49-4.34-4.09-7.69-8.51-7.69h-7.44c-4.34,0-8.02,3.27-8.51,7.69l-1.72,16.19
					c-0.16,1.31,0.57,2.45,1.8,2.94l4.01,1.64c0.49,0.16,0.82,0.65,0.9,1.22l2.13,27.24c0.08,1.47,1.39,2.62,2.86,2.62h4.5
					c1.47,0,2.7-1.15,2.86-2.62l2.04-27.32c0.08-0.57,0.41-0.98,0.9-1.23l4.01-1.64C382.58,255.95,383.31,254.73,383.15,253.5z"/>
				<path class="st2" d="M371.54,289.41h-4.5c-1.63,0-3.02-1.28-3.11-2.85l-2.13-27.23c-0.07-0.49-0.35-0.88-0.73-1.01l-4.02-1.64
					c-1.36-0.54-2.13-1.8-1.95-3.21l1.71-16.19c0.5-4.51,4.27-7.91,8.76-7.91h7.44c4.48,0,8.24,3.4,8.75,7.91l1.63,16.19
					c0.18,1.37-0.64,2.69-1.96,3.13l-3.99,1.63c-0.42,0.21-0.68,0.56-0.75,1.03l-2.04,27.3
					C374.47,288.19,373.13,289.41,371.54,289.41z M365.57,229.87c-4.23,0-7.79,3.21-8.26,7.47l-1.71,16.19
					c-0.15,1.18,0.5,2.23,1.64,2.68l4.01,1.64c0.54,0.18,0.95,0.73,1.05,1.42l2.13,27.25c0.07,1.32,1.25,2.39,2.61,2.39h4.5
					c1.34,0,2.46-1.03,2.62-2.4l2.04-27.31c0.09-0.65,0.45-1.14,1.04-1.43l4.03-1.64c1.11-0.37,1.79-1.46,1.64-2.6l0-0.01
					l-1.63-16.19c-0.48-4.25-4.03-7.46-8.26-7.46H365.57z"/>
			</g>
		</g>
		<g>
			<path class="st3" d="M277.08,283.56c-9.73,0.84-20.62,0.8-20.62,2.82v-0.69c0,1.85,1.51,3.35,3.35,3.35h36.12
				c1.84,0,3.35-1.51,3.35-3.35v0.69c0-2.01-6.71-1.81-16.44-2.82v-7.08c1.51-0.17,3.69-0.5,5.2-2.01c1.85-1.85,2.01-4.7,2.01-6.21
				c0-0.51-0.34-0.84-0.84-0.84c-1.34,0-4.36,0.17-6.21,2.01c-0.17,0.17-0.17,0.17-0.17,0.34v-9.56c0-1.01-0.84-1.85-1.85-1.85
				c-1.01,0-1.85,0.84-1.85,1.85v4.19c-0.17-0.16-0.17-0.16-0.17-0.33c-1.85-1.85-4.7-2.01-6.21-2.01c-0.51,0-0.84,0.34-0.84,0.84
				c0,1.34,0.17,4.36,2.01,6.21c1.51,1.51,3.69,1.85,5.2,2.01l0.04,12.48"/>
		</g>
		<g>
			<g>
				<circle class="st1" cx="348.46" cy="219.11" r="7.85"/>
				<path class="st2" d="M348.46,227.21c-4.47,0-8.1-3.63-8.1-8.1s3.63-8.1,8.1-8.1c4.47,0,8.1,3.63,8.1,8.1
					S352.93,227.21,348.46,227.21z M348.46,211.5c-4.19,0-7.6,3.41-7.6,7.6s3.41,7.6,7.6,7.6s7.6-3.41,7.6-7.6
					S352.65,211.5,348.46,211.5z"/>
			</g>
			<g>
				<path class="st1" d="M362.36,253.38l-1.63-16.19c-0.49-4.34-4.09-7.69-8.5-7.69h-7.44c-4.33,0-8.01,3.27-8.51,7.69l-1.72,16.19
					c-0.16,1.31,0.57,2.45,1.8,2.94l4.01,1.64c0.49,0.16,0.82,0.65,0.9,1.22l2.13,27.24c0.08,1.47,1.39,2.62,2.86,2.62h4.5
					c1.47,0,2.7-1.15,2.86-2.62l2.05-27.32c0.08-0.57,0.41-0.98,0.9-1.23l4.01-1.64C361.79,255.83,362.52,254.6,362.36,253.38z"/>
				<path class="st2" d="M350.75,289.29h-4.5c-1.63,0-3.03-1.28-3.11-2.85l-2.13-27.23c-0.07-0.49-0.35-0.88-0.73-1.01l-4.02-1.64
					c-1.36-0.54-2.13-1.8-1.95-3.21l1.72-16.19c0.5-4.51,4.27-7.91,8.75-7.91h7.44c4.48,0,8.24,3.4,8.75,7.91l1.63,16.19
					c0.18,1.37-0.64,2.68-1.96,3.13l-3.99,1.63c-0.42,0.21-0.68,0.56-0.75,1.03l-2.04,27.3
					C353.68,288.06,352.34,289.29,350.75,289.29z M344.78,229.75c-4.23,0-7.78,3.21-8.26,7.47l-1.72,16.19
					c-0.15,1.17,0.5,2.23,1.64,2.68l4.01,1.64c0.54,0.18,0.95,0.73,1.05,1.42l2.13,27.25c0.07,1.32,1.24,2.39,2.61,2.39h4.5
					c1.34,0,2.46-1.03,2.61-2.4l2.04-27.31c0.09-0.65,0.45-1.14,1.04-1.43l4.02-1.64c1.11-0.37,1.79-1.46,1.64-2.6l0-0.01
					l-1.63-16.19c-0.48-4.25-4.03-7.46-8.26-7.46H344.78z"/>
			</g>
		</g>
		<g>
			<g>
				<circle class="st1" cx="327.83" cy="219.23" r="7.85"/>
				<path class="st2" d="M327.83,227.33c-4.47,0-8.1-3.63-8.1-8.1s3.63-8.1,8.1-8.1c4.47,0,8.1,3.63,8.1,8.1
					S332.3,227.33,327.83,227.33z M327.83,211.63c-4.19,0-7.6,3.41-7.6,7.6s3.41,7.6,7.6,7.6s7.6-3.41,7.6-7.6
					S332.02,211.63,327.83,211.63z"/>
			</g>
			<g>
				<path class="st1" d="M341.73,253.5l-1.64-16.19c-0.49-4.34-4.09-7.69-8.5-7.69h-7.44c-4.34,0-8.02,3.27-8.51,7.69l-1.72,16.19
					c-0.16,1.31,0.57,2.45,1.8,2.94l4,1.64c0.49,0.16,0.82,0.65,0.9,1.22l2.13,27.24c0.08,1.47,1.39,2.62,2.86,2.62h4.5
					c1.47,0,2.7-1.15,2.86-2.62l2.05-27.32c0.08-0.57,0.41-0.98,0.9-1.23l4-1.64C341.16,255.95,341.9,254.73,341.73,253.5z"/>
				<path class="st2" d="M330.12,289.41h-4.5c-1.63,0-3.03-1.28-3.11-2.85l-2.13-27.23c-0.07-0.49-0.35-0.88-0.73-1.01l-4.02-1.64
					c-1.36-0.54-2.13-1.8-1.95-3.21l1.72-16.19c0.5-4.51,4.26-7.91,8.75-7.91h7.44c4.48,0,8.24,3.4,8.75,7.91l1.63,16.19
					c0.18,1.37-0.65,2.69-1.97,3.13l-3.99,1.63c-0.42,0.21-0.68,0.56-0.75,1.03l-2.04,27.3
					C333.05,288.19,331.72,289.41,330.12,289.41z M324.15,229.87c-4.24,0-7.79,3.21-8.26,7.47l-1.72,16.19
					c-0.15,1.18,0.5,2.23,1.64,2.68l4.01,1.64c0.54,0.18,0.95,0.72,1.05,1.42l2.13,27.25c0.07,1.32,1.24,2.39,2.61,2.39h4.5
					c1.34,0,2.46-1.03,2.61-2.4l2.05-27.31c0.09-0.65,0.45-1.14,1.04-1.43l4.02-1.64c1.11-0.37,1.79-1.46,1.64-2.6l0-0.01
					l-1.63-16.19c-0.48-4.25-4.03-7.46-8.25-7.46H324.15z"/>
			</g>
		</g>
	</g>
	<g>
		<g>
			<circle class="st1" cx="210.48" cy="319.03" r="7.85"/>
			<path class="st2" d="M210.48,327.13c-4.47,0-8.1-3.63-8.1-8.1s3.63-8.1,8.1-8.1s8.1,3.63,8.1,8.1S214.94,327.13,210.48,327.13z
				 M210.48,311.43c-4.19,0-7.6,3.41-7.6,7.6s3.41,7.6,7.6,7.6s7.6-3.41,7.6-7.6S214.67,311.43,210.48,311.43z"/>
		</g>
		<g>
			<path class="st1" d="M224.38,353.3l-1.64-16.19c-0.49-4.34-4.09-7.69-8.5-7.69h-7.44c-4.34,0-8.02,3.27-8.5,7.69l-1.72,16.19
				c-0.16,1.31,0.57,2.45,1.8,2.94l4,1.64c0.49,0.16,0.82,0.65,0.9,1.22l2.13,27.24c0.08,1.47,1.39,2.62,2.86,2.62h4.5
				c1.47,0,2.7-1.15,2.86-2.62l2.05-27.32c0.08-0.57,0.41-0.98,0.9-1.23l4-1.64C223.81,355.75,224.54,354.52,224.38,353.3z"/>
			<path class="st2" d="M212.77,389.21h-4.5c-1.63,0-3.03-1.28-3.11-2.85l-2.13-27.23c-0.07-0.49-0.35-0.88-0.73-1.01l-4.02-1.64
				c-1.36-0.54-2.13-1.8-1.95-3.21l1.72-16.19c0.5-4.51,4.26-7.91,8.75-7.91h7.44c4.48,0,8.24,3.4,8.75,7.91l1.64,16.19
				c0.18,1.37-0.65,2.69-1.97,3.13l-3.99,1.63c-0.42,0.21-0.68,0.56-0.75,1.03l-2.04,27.3C215.7,387.98,214.36,389.21,212.77,389.21
				z M206.8,329.67c-4.24,0-7.79,3.21-8.26,7.47l-1.72,16.19c-0.15,1.18,0.5,2.23,1.64,2.68l4.01,1.64
				c0.54,0.18,0.95,0.73,1.05,1.42l2.13,27.25c0.07,1.32,1.24,2.39,2.61,2.39h4.5c1.34,0,2.46-1.03,2.61-2.4l2.05-27.31
				c0.09-0.65,0.45-1.14,1.04-1.43l4.02-1.64c1.11-0.37,1.79-1.46,1.64-2.6l0-0.01l-1.64-16.19c-0.48-4.25-4.03-7.46-8.25-7.46
				H206.8z"/>
		</g>
	</g>
	<g>
		<g>
			<circle class="st1" cx="162.53" cy="319.03" r="7.85"/>
			<path class="st2" d="M162.53,327.13c-4.47,0-8.1-3.63-8.1-8.1s3.63-8.1,8.1-8.1c4.47,0,8.1,3.63,8.1,8.1
				S167,327.13,162.53,327.13z M162.53,311.43c-4.19,0-7.6,3.41-7.6,7.6s3.41,7.6,7.6,7.6s7.6-3.41,7.6-7.6
				S166.72,311.43,162.53,311.43z"/>
		</g>
		<g>
			<path class="st1" d="M176.43,353.3l-1.64-16.19c-0.49-4.34-4.09-7.69-8.5-7.69h-7.44c-4.34,0-8.02,3.27-8.5,7.69l-1.72,16.19
				c-0.16,1.31,0.57,2.45,1.8,2.94l4,1.64c0.49,0.16,0.82,0.65,0.9,1.22l2.13,27.24c0.08,1.47,1.39,2.62,2.86,2.62h4.5
				c1.47,0,2.7-1.15,2.86-2.62l2.05-27.32c0.08-0.57,0.41-0.98,0.9-1.23l4-1.64C175.86,355.75,176.6,354.52,176.43,353.3z"/>
			<path class="st2" d="M164.82,389.21h-4.5c-1.63,0-3.03-1.28-3.11-2.85l-2.13-27.23c-0.07-0.49-0.35-0.88-0.73-1.01l-4.02-1.64
				c-1.36-0.54-2.13-1.8-1.95-3.21l1.72-16.19c0.5-4.51,4.26-7.91,8.75-7.91h7.44c4.48,0,8.24,3.4,8.75,7.91l1.63,16.19
				c0.18,1.37-0.65,2.69-1.97,3.13l-3.99,1.63c-0.42,0.21-0.68,0.56-0.75,1.03l-2.04,27.3
				C167.75,387.98,166.42,389.21,164.82,389.21z M158.85,329.67c-4.24,0-7.79,3.21-8.26,7.47l-1.72,16.19
				c-0.15,1.18,0.5,2.23,1.64,2.68l4.01,1.64c0.54,0.18,0.95,0.73,1.05,1.42l2.13,27.25c0.07,1.32,1.24,2.39,2.61,2.39h4.5
				c1.34,0,2.46-1.03,2.61-2.4l2.05-27.31c0.09-0.65,0.45-1.14,1.04-1.43l4.02-1.64c1.11-0.37,1.79-1.46,1.64-2.6l0-0.01
				l-1.63-16.19c-0.48-4.25-4.03-7.46-8.25-7.46H158.85z"/>
		</g>
	</g>
	<g>
		<g>
			<circle class="st1" cx="227.95" cy="333.33" r="7.85"/>
			<path class="st2" d="M227.95,341.43c-4.47,0-8.1-3.63-8.1-8.1c0-4.47,3.63-8.1,8.1-8.1c4.47,0,8.1,3.63,8.1,8.1
				C236.05,337.79,232.41,341.43,227.95,341.43z M227.95,325.72c-4.19,0-7.6,3.41-7.6,7.6s3.41,7.6,7.6,7.6s7.6-3.41,7.6-7.6
				S232.14,325.72,227.95,325.72z"/>
		</g>
		<g>
			<path class="st1" d="M241.85,367.59l-1.64-16.19c-0.49-4.34-4.09-7.69-8.51-7.69h-7.44c-4.34,0-8.02,3.27-8.51,7.69l-1.72,16.19
				c-0.16,1.31,0.57,2.45,1.8,2.94l4.01,1.64c0.49,0.16,0.82,0.65,0.9,1.22l2.13,27.24c0.08,1.47,1.39,2.62,2.86,2.62h4.5
				c1.47,0,2.7-1.15,2.86-2.62l2.04-27.32c0.08-0.57,0.41-0.98,0.9-1.23l4.01-1.64C241.28,370.05,242.02,368.82,241.85,367.59z"/>
			<path class="st2" d="M230.24,403.5h-4.5c-1.63,0-3.02-1.28-3.11-2.86l-2.13-27.23c-0.07-0.49-0.35-0.88-0.73-1.01l-4.02-1.64
				c-1.36-0.54-2.13-1.8-1.95-3.21l1.71-16.19c0.5-4.51,4.27-7.91,8.76-7.91h7.44c4.48,0,8.24,3.4,8.75,7.91l1.64,16.19
				c0.18,1.37-0.64,2.69-1.96,3.13l-3.99,1.63c-0.42,0.21-0.68,0.56-0.75,1.03l-2.04,27.3C233.17,402.28,231.83,403.5,230.24,403.5z
				 M224.27,343.96c-4.23,0-7.79,3.21-8.26,7.47l-1.71,16.19c-0.15,1.17,0.5,2.23,1.64,2.68l4.01,1.64
				c0.54,0.18,0.95,0.73,1.05,1.42l2.13,27.25c0.07,1.32,1.25,2.39,2.61,2.39h4.5c1.34,0,2.46-1.03,2.62-2.4l2.04-27.31
				c0.09-0.65,0.45-1.14,1.04-1.43l4.03-1.64c1.11-0.37,1.79-1.46,1.64-2.6l0-0.01l-1.64-16.19c-0.48-4.25-4.03-7.46-8.26-7.46
				H224.27z"/>
		</g>
	</g>
	<g>
		<g>
			<circle class="st1" cx="144.93" cy="333.33" r="7.85"/>
			<path class="st2" d="M144.93,341.43c-4.47,0-8.1-3.63-8.1-8.1c0-4.47,3.63-8.1,8.1-8.1s8.1,3.63,8.1,8.1
				C153.04,337.79,149.4,341.43,144.93,341.43z M144.93,325.72c-4.19,0-7.6,3.41-7.6,7.6s3.41,7.6,7.6,7.6s7.6-3.41,7.6-7.6
				S149.13,325.72,144.93,325.72z"/>
		</g>
		<g>
			<path class="st1" d="M158.84,367.59l-1.64-16.19c-0.49-4.34-4.09-7.69-8.51-7.69h-7.44c-4.34,0-8.02,3.27-8.51,7.69l-1.72,16.19
				c-0.16,1.31,0.57,2.45,1.8,2.94l4.01,1.64c0.49,0.16,0.82,0.65,0.9,1.22l2.13,27.24c0.08,1.47,1.39,2.62,2.86,2.62h4.5
				c1.47,0,2.7-1.15,2.86-2.62l2.04-27.32c0.08-0.57,0.41-0.98,0.9-1.23l4.01-1.64C158.27,370.05,159,368.82,158.84,367.59z"/>
			<path class="st2" d="M147.23,403.5h-4.5c-1.63,0-3.02-1.28-3.11-2.86l-2.13-27.23c-0.07-0.49-0.35-0.88-0.73-1.01l-4.02-1.64
				c-1.36-0.54-2.13-1.8-1.95-3.21l1.71-16.19c0.5-4.51,4.27-7.91,8.76-7.91h7.44c4.48,0,8.24,3.4,8.75,7.91l1.64,16.19
				c0.18,1.37-0.64,2.69-1.96,3.13l-3.99,1.63c-0.42,0.21-0.68,0.56-0.75,1.03l-2.04,27.3C150.16,402.28,148.82,403.5,147.23,403.5z
				 M141.26,343.96c-4.23,0-7.79,3.21-8.26,7.47l-1.71,16.19c-0.15,1.17,0.5,2.23,1.64,2.68l4.01,1.64
				c0.54,0.18,0.95,0.73,1.05,1.42l2.13,27.25c0.07,1.32,1.25,2.39,2.61,2.39h4.5c1.34,0,2.46-1.03,2.62-2.4l2.04-27.31
				c0.09-0.65,0.45-1.14,1.04-1.43l4.03-1.64c1.11-0.37,1.79-1.46,1.64-2.6l0-0.01l-1.64-16.19c-0.48-4.25-4.03-7.46-8.26-7.46
				H141.26z"/>
		</g>
	</g>
</g>
</svg>
