<?xml version="1.0" encoding="utf-8"?>
<!-- Generator: Adobe Illustrator 25.4.1, SVG Export Plug-In . SVG Version: 6.00 Build 0)  -->
<svg version="1.1" id="Layer_1" xmlns="http://www.w3.org/2000/svg" xmlns:xlink="http://www.w3.org/1999/xlink" x="0px" y="0px"
	 viewBox="0 0 500 500" style="enable-background:new 0 0 500 500;" xml:space="preserve">
<style type="text/css">
	.st0{fill:#EE3150;}
	.st1{fill:#EE3350;}
	.st2{fill:#FFFFFF;}
	.st3{fill:#F7ACC0;}
</style>
<g>
	<g>
		<g>
			<circle class="st1" cx="306.18" cy="191.73" r="9.14"/>
			<path class="st2" d="M306.18,201.12c-5.18,0-9.39-4.21-9.39-9.39c0-5.18,4.21-9.39,9.39-9.39s9.39,4.21,9.39,9.39
				C315.57,196.91,311.35,201.12,306.18,201.12z M306.18,182.84c-4.9,0-8.89,3.99-8.89,8.89s3.99,8.89,8.89,8.89
				s8.89-3.99,8.89-8.89S311.08,182.84,306.18,182.84z"/>
		</g>
		<g>
			<path class="st1" d="M322.36,231.61l-1.9-18.84c-0.57-5.05-4.76-8.95-9.9-8.95h-8.67c-5.04,0-9.33,3.81-9.9,8.95l-2,18.84
				c-0.19,1.52,0.67,2.85,2.09,3.42l4.66,1.9c0.57,0.19,0.96,0.76,1.05,1.43l2.47,31.7c0.1,1.71,1.62,3.05,3.33,3.05h5.24
				c1.71,0,3.14-1.33,3.33-3.05l2.38-31.79c0.09-0.66,0.48-1.14,1.05-1.43l4.66-1.9C321.69,234.46,322.55,233.04,322.36,231.61z"/>
			<path class="st2" d="M308.85,273.36h-5.24c-1.87,0-3.48-1.47-3.58-3.28l-2.47-31.69c-0.08-0.59-0.42-1.06-0.88-1.21l-4.68-1.91
				c-1.56-0.62-2.45-2.07-2.25-3.69l2-18.84c0.58-5.23,4.94-9.18,10.15-9.18h8.67c5.19,0,9.55,3.94,10.14,9.17l1.91,18.84
				c0.21,1.58-0.74,3.09-2.26,3.6l-4.65,1.9c-0.51,0.26-0.82,0.67-0.89,1.23l-2.38,31.77C312.22,271.96,310.68,273.36,308.85,273.36
				z M301.89,204.07c-4.95,0-9.1,3.75-9.65,8.73l-2,18.84c-0.17,1.39,0.59,2.63,1.94,3.17l4.67,1.91c0.63,0.21,1.09,0.84,1.2,1.63
				l2.47,31.71c0.09,1.55,1.47,2.82,3.08,2.82h5.24c1.58,0,2.9-1.21,3.08-2.82l2.38-31.78c0.1-0.73,0.51-1.29,1.18-1.63l4.68-1.91
				c1.31-0.44,2.11-1.73,1.94-3.07l0-0.01l-1.91-18.84c-0.56-4.97-4.71-8.73-9.65-8.73H301.89z"/>
		</g>
	</g>
	<g>
		<g>
			<circle class="st1" cx="193.38" cy="191.73" r="9.14"/>
			<path class="st2" d="M193.38,201.12c-5.18,0-9.39-4.21-9.39-9.39c0-5.18,4.21-9.39,9.39-9.39s9.39,4.21,9.39,9.39
				C202.76,196.91,198.55,201.12,193.38,201.12z M193.38,182.84c-4.9,0-8.89,3.99-8.89,8.89s3.99,8.89,8.89,8.89
				c4.9,0,8.89-3.99,8.89-8.89S198.28,182.84,193.38,182.84z"/>
		</g>
		<g>
			<path class="st1" d="M209.56,231.61l-1.9-18.84c-0.57-5.05-4.76-8.95-9.9-8.95h-8.67c-5.04,0-9.33,3.81-9.9,8.95l-2,18.84
				c-0.19,1.52,0.67,2.85,2.09,3.42l4.66,1.9c0.57,0.19,0.96,0.76,1.05,1.43l2.47,31.7c0.1,1.71,1.62,3.05,3.33,3.05h5.24
				c1.71,0,3.14-1.33,3.33-3.05l2.38-31.79c0.09-0.66,0.48-1.14,1.05-1.43l4.66-1.9C208.89,234.46,209.75,233.04,209.56,231.61z"/>
			<path class="st2" d="M196.05,273.36h-5.24c-1.87,0-3.48-1.47-3.58-3.28l-2.47-31.69c-0.08-0.59-0.42-1.06-0.88-1.21l-4.68-1.91
				c-1.56-0.62-2.45-2.07-2.25-3.69l2-18.84c0.58-5.23,4.94-9.18,10.14-9.18h8.67c5.19,0,9.55,3.94,10.14,9.17l1.9,18.84
				c0.21,1.58-0.74,3.09-2.26,3.6l-4.65,1.9c-0.51,0.26-0.82,0.67-0.89,1.23l-2.38,31.77C199.42,271.96,197.88,273.36,196.05,273.36
				z M189.09,204.07c-4.95,0-9.1,3.75-9.65,8.73l-2,18.84c-0.17,1.39,0.59,2.63,1.94,3.17l4.67,1.91c0.63,0.21,1.09,0.84,1.2,1.63
				l2.47,31.71c0.09,1.55,1.47,2.82,3.08,2.82h5.24c1.58,0,2.9-1.21,3.08-2.82l2.38-31.78c0.1-0.73,0.51-1.29,1.18-1.63l4.68-1.91
				c1.31-0.44,2.11-1.73,1.94-3.07l0-0.01l-1.9-18.84c-0.56-4.97-4.71-8.73-9.65-8.73H189.09z"/>
		</g>
	</g>
	<g>
		<g>
			<circle class="st1" cx="280.36" cy="175.17" r="11"/>
			<path class="st2" d="M280.36,186.42c-6.2,0-11.25-5.05-11.25-11.25s5.05-11.25,11.25-11.25s11.25,5.05,11.25,11.25
				S286.57,186.42,280.36,186.42z M280.36,164.43c-5.93,0-10.75,4.82-10.75,10.75s4.82,10.75,10.75,10.75s10.75-4.82,10.75-10.75
				S286.29,164.43,280.36,164.43z"/>
		</g>
		<g>
			<path class="st1" d="M299.84,223.17l-2.29-22.68c-0.69-6.08-5.73-10.77-11.91-10.77h-10.42c-6.08,0-11.23,4.58-11.91,10.77
				l-2.4,22.68c-0.23,1.84,0.8,3.43,2.52,4.12l5.61,2.29c0.69,0.23,1.15,0.92,1.26,1.72l2.98,38.15c0.11,2.06,1.95,3.66,4.01,3.66
				h6.3c2.06,0,3.78-1.6,4.01-3.66l2.86-38.26c0.11-0.8,0.57-1.37,1.26-1.72l5.61-2.29C299.03,226.6,300.07,224.89,299.84,223.17z"
				/>
			<path class="st2" d="M283.57,273.35h-6.3c-2.23,0-4.14-1.75-4.26-3.9l-2.98-38.14c-0.1-0.73-0.52-1.31-1.09-1.5l-5.62-2.3
				c-1.86-0.74-2.91-2.46-2.67-4.38l2.4-22.67c0.7-6.27,5.93-10.99,12.16-10.99h10.42c6.22,0,11.45,4.73,12.16,10.99l2.29,22.68
				c0.25,1.87-0.88,3.67-2.69,4.28l-5.6,2.28c-0.63,0.32-1.01,0.83-1.11,1.52l-2.86,38.24
				C287.58,271.68,285.75,273.35,283.57,273.35z M275.21,189.97c-5.98,0-11,4.54-11.67,10.55l-2.4,22.68
				c-0.21,1.69,0.72,3.21,2.37,3.86l5.61,2.29c0.74,0.25,1.28,0.98,1.42,1.92l2.98,38.16c0.11,1.89,1.79,3.43,3.76,3.43h6.3
				c1.93,0,3.54-1.48,3.76-3.44l2.86-38.25c0.12-0.86,0.6-1.52,1.39-1.92l5.63-2.3c1.6-0.54,2.59-2.11,2.37-3.75l0-0.01l-2.29-22.68
				c-0.68-6.01-5.7-10.55-11.67-10.55H275.21z"/>
		</g>
	</g>
	<g>
		<g>
			<circle class="st1" cx="218.99" cy="175.17" r="11"/>
			<path class="st2" d="M218.99,186.42c-6.2,0-11.25-5.05-11.25-11.25s5.05-11.25,11.25-11.25s11.25,5.05,11.25,11.25
				S225.19,186.42,218.99,186.42z M218.99,164.43c-5.93,0-10.75,4.82-10.75,10.75s4.82,10.75,10.75,10.75s10.75-4.82,10.75-10.75
				S224.91,164.43,218.99,164.43z"/>
		</g>
		<g>
			<path class="st1" d="M238.46,223.17l-2.29-22.68c-0.69-6.08-5.73-10.77-11.91-10.77h-10.42c-6.08,0-11.23,4.58-11.91,10.77
				l-2.41,22.68c-0.23,1.84,0.8,3.43,2.52,4.12l5.61,2.29c0.69,0.23,1.14,0.92,1.26,1.72l2.98,38.15c0.11,2.06,1.95,3.66,4.01,3.66
				h6.3c2.07,0,3.78-1.6,4.01-3.66l2.86-38.26c0.11-0.8,0.57-1.37,1.26-1.72l5.61-2.29C237.66,226.6,238.69,224.89,238.46,223.17z"
				/>
			<path class="st2" d="M222.19,273.35h-6.3c-2.23,0-4.14-1.75-4.26-3.9l-2.98-38.14c-0.1-0.73-0.52-1.31-1.09-1.5l-5.63-2.3
				c-1.86-0.74-2.91-2.46-2.67-4.38l2.41-22.67c0.7-6.27,5.93-10.99,12.16-10.99h10.42c6.22,0,11.45,4.73,12.16,10.99l2.29,22.68
				c0.25,1.87-0.89,3.67-2.7,4.28l-5.6,2.28c-0.63,0.31-1.01,0.83-1.11,1.52l-2.86,38.24C226.2,271.68,224.37,273.35,222.19,273.35z
				 M213.84,189.97c-5.98,0-11,4.54-11.67,10.55l-2.41,22.68c-0.21,1.69,0.72,3.21,2.37,3.86l5.61,2.29
				c0.73,0.25,1.28,0.98,1.41,1.92l2.98,38.16c0.11,1.89,1.79,3.43,3.76,3.43h6.3c1.92,0,3.54-1.48,3.76-3.44l2.86-38.25
				c0.12-0.87,0.61-1.53,1.4-1.92l5.63-2.3c1.6-0.53,2.59-2.11,2.37-3.75l0-0.01l-2.29-22.68c-0.68-6.01-5.69-10.55-11.66-10.55
				H213.84z"/>
		</g>
	</g>
	<g>
		<g>
			<g>
				<path class="st0" d="M191.19,302.29v34.99h-8.1v-28.49h-7v-6.5C176.1,302.29,191.19,302.29,191.19,302.29z"/>
			</g>
			<g>
				<path class="st0" d="M218.08,300.19h7.8v37.09h-7.8V300.19z"/>
			</g>
			<g>
				<path class="st0" d="M256.07,312.96c2.23,1.98,3.35,4.97,3.35,8.97v15.34h-7.3v-3.35c-1.47,2.5-4.2,3.75-8.2,3.75
					c-2.07,0-3.86-0.35-5.37-1.05s-2.67-1.67-3.47-2.9c-0.8-1.23-1.2-2.63-1.2-4.2c0-2.5,0.94-4.46,2.82-5.9
					c1.88-1.43,4.79-2.15,8.72-2.15h6.19c0-1.7-0.52-3.01-1.55-3.92c-1.04-0.92-2.59-1.37-4.65-1.37c-1.44,0-2.84,0.22-4.22,0.67
					c-1.38,0.45-2.56,1.06-3.53,1.82l-2.8-5.45c1.46-1.03,3.22-1.83,5.27-2.4c2.05-0.57,4.16-0.85,6.32-0.85
					C250.63,309.99,253.83,310.98,256.07,312.96z M249.42,331.51c1.03-0.62,1.77-1.52,2.2-2.72v-2.75h-5.35
					c-3.2,0-4.8,1.05-4.8,3.15c0,1,0.39,1.79,1.17,2.37c0.78,0.58,1.86,0.87,3.22,0.87C247.2,332.43,248.38,332.12,249.42,331.51z"
					/>
			</g>
			<g>
				<path class="st0" d="M274.53,335.9c-2.28-1.18-4.07-2.82-5.35-4.92c-1.29-2.1-1.92-4.48-1.92-7.15c0-2.67,0.64-5.05,1.92-7.15
					c1.28-2.1,3.07-3.74,5.35-4.92c2.28-1.18,4.85-1.77,7.72-1.77c2.83,0,5.3,0.59,7.42,1.77c2.12,1.18,3.66,2.87,4.63,5.07
					l-6.05,3.25c-1.4-2.47-3.42-3.7-6.05-3.7c-2.03,0-3.72,0.67-5.05,2c-1.33,1.33-2,3.15-2,5.45c0,2.3,0.67,4.11,2,5.45
					c1.33,1.33,3.02,2,5.05,2c2.67,0,4.68-1.23,6.05-3.7l6.05,3.3c-0.97,2.13-2.51,3.8-4.63,5c-2.12,1.2-4.59,1.8-7.42,1.8
					C279.39,337.68,276.81,337.09,274.53,335.9z"/>
			</g>
			<g>
				<path class="st0" d="M323.59,322.83h-8.7v8.5h-6.45v-8.5h-8.64v-6.1h8.64v-8.5h6.45v8.5h8.7V322.83z"/>
			</g>
		</g>
	</g>
	<g>
		<path class="st0" d="M250,496.02l-2.47-2.48L3.98,250L250,3.98L496.02,250l-2.48,2.47L250,496.02z M13.88,250L250,486.12
			L486.12,250L250,13.88L13.88,250z"/>
	</g>
	<g>
		<g>
			<circle class="st1" cx="249.68" cy="155.42" r="13.21"/>
			<path class="st2" d="M249.68,168.89c-7.42,0-13.46-6.04-13.46-13.46c0-7.42,6.04-13.46,13.46-13.46s13.46,6.04,13.46,13.46
				C263.14,162.85,257.1,168.89,249.68,168.89z M249.68,142.46c-7.15,0-12.96,5.82-12.96,12.96s5.82,12.96,12.96,12.96
				s12.96-5.82,12.96-12.96S256.83,142.46,249.68,142.46z"/>
		</g>
		<g>
			<path class="st1" d="M273.07,213.09l-2.75-27.25c-0.83-7.3-6.88-12.94-14.32-12.94h-12.52c-7.3,0-13.49,5.5-14.32,12.94
				l-2.89,27.25c-0.28,2.2,0.97,4.13,3.03,4.95l6.75,2.75c0.82,0.28,1.38,1.1,1.51,2.07l3.58,45.84c0.14,2.48,2.34,4.4,4.81,4.4
				h7.57c2.48,0,4.55-1.92,4.82-4.4l3.44-45.97c0.14-0.97,0.69-1.65,1.51-2.07l6.75-2.75C272.11,217.22,273.35,215.16,273.07,213.09
				z"/>
			<path class="st2" d="M253.53,273.35h-7.57c-2.65,0-4.92-2.08-5.07-4.64l-3.58-45.83c-0.13-0.9-0.64-1.61-1.34-1.85l-6.76-2.76
				c-2.22-0.89-3.47-2.93-3.18-5.21l2.89-27.25c0.83-7.5,7.09-13.16,14.57-13.16h12.52c7.45,0,13.71,5.66,14.56,13.16l2.75,27.25
				c0.3,2.23-1.05,4.37-3.19,5.08l-6.73,2.75c-0.77,0.39-1.24,1.02-1.36,1.87l-3.44,45.96
				C258.31,271.37,256.13,273.35,253.53,273.35z M243.49,173.15c-7.22,0-13.26,5.47-14.07,12.72l-2.89,27.25
				c-0.26,2.05,0.87,3.89,2.87,4.69l6.75,2.75c0.87,0.29,1.51,1.16,1.67,2.26l3.58,45.85c0.13,2.3,2.18,4.17,4.57,4.17h7.57
				c2.34,0,4.31-1.8,4.57-4.18l3.44-45.96c0.15-1.03,0.72-1.81,1.65-2.27l6.76-2.76c1.94-0.64,3.14-2.56,2.87-4.55l0-0.01
				l-2.75-27.25c-0.83-7.25-6.87-12.71-14.07-12.71H243.49z"/>
		</g>
	</g>
</g>
</svg>
