<?xml version="1.0" encoding="utf-8"?>
<!-- Generator: Adobe Illustrator 25.4.1, SVG Export Plug-In . SVG Version: 6.00 Build 0)  -->
<svg version="1.1" id="Layer_1" xmlns="http://www.w3.org/2000/svg" xmlns:xlink="http://www.w3.org/1999/xlink" x="0px" y="0px"
	 viewBox="0 0 500 500" style="enable-background:new 0 0 500 500;" xml:space="preserve">
<style type="text/css">
	.st0{fill:#EE3150;}
	.st1{fill:#EE3350;}
	.st2{fill:#FFFFFF;}
	.st3{fill:#F7ACC0;}
</style>
<g>
	<g>
		<g>
			<circle class="st1" cx="327.25" cy="204.59" r="7.68"/>
			<path class="st2" d="M327.25,212.52c-4.37,0-7.93-3.56-7.93-7.93c0-4.37,3.56-7.93,7.93-7.93c4.38,0,7.93,3.56,7.93,7.93
				C335.18,208.96,331.62,212.52,327.25,212.52z M327.25,197.16c-4.1,0-7.43,3.33-7.43,7.43c0,4.1,3.33,7.43,7.43,7.43
				s7.43-3.33,7.43-7.43C334.68,200.49,331.35,197.16,327.25,197.16z"/>
		</g>
		<g>
			<path class="st1" d="M340.85,238.12l-1.6-15.84c-0.48-4.24-4-7.53-8.32-7.53h-7.28c-4.24,0-7.84,3.2-8.32,7.53l-1.68,15.84
				c-0.16,1.28,0.56,2.4,1.76,2.88l3.92,1.6c0.48,0.16,0.8,0.64,0.88,1.2l2.08,26.65c0.08,1.44,1.36,2.56,2.8,2.56h4.4
				c1.44,0,2.64-1.12,2.8-2.56l2-26.73c0.08-0.56,0.4-0.96,0.88-1.2l3.92-1.6C340.29,240.52,341.01,239.32,340.85,238.12z"/>
			<path class="st2" d="M329.49,273.26h-4.4c-1.6,0-2.97-1.25-3.05-2.8l-2.08-26.64c-0.06-0.48-0.34-0.86-0.71-0.98l-3.93-1.61
				c-1.34-0.53-2.09-1.77-1.91-3.14l1.68-15.84c0.49-4.42,4.18-7.75,8.57-7.75h7.28c4.39,0,8.07,3.33,8.57,7.75l1.6,15.84
				c0.18,1.34-0.63,2.63-1.93,3.07l-3.9,1.59c-0.41,0.21-0.66,0.55-0.73,1.01l-2,26.71C332.36,272.06,331.05,273.26,329.49,273.26z
				 M323.65,215c-4.14,0-7.61,3.14-8.08,7.3l-1.68,15.84c-0.15,1.15,0.48,2.17,1.6,2.62l3.92,1.6c0.54,0.18,0.94,0.72,1.03,1.4
				l2.08,26.66c0.07,1.29,1.22,2.33,2.55,2.33h4.4c1.31,0,2.4-1.01,2.55-2.34l2-26.72c0.09-0.64,0.44-1.12,1.01-1.41l3.94-1.61
				c1.09-0.36,1.76-1.43,1.6-2.54l0-0.01l-1.6-15.84c-0.47-4.16-3.94-7.3-8.08-7.3H323.65z"/>
		</g>
	</g>
	<g>
		<g>
			<circle class="st1" cx="172.45" cy="204.59" r="7.68"/>
			<path class="st2" d="M172.45,212.52c-4.38,0-7.93-3.56-7.93-7.93c0-4.37,3.56-7.93,7.93-7.93c4.37,0,7.93,3.56,7.93,7.93
				C180.38,208.96,176.82,212.52,172.45,212.52z M172.45,197.16c-4.1,0-7.43,3.33-7.43,7.43c0,4.1,3.33,7.43,7.43,7.43
				s7.43-3.33,7.43-7.43C179.88,200.49,176.55,197.16,172.45,197.16z"/>
		</g>
		<g>
			<path class="st1" d="M186.05,238.12l-1.6-15.84c-0.48-4.24-4-7.53-8.32-7.53h-7.28c-4.24,0-7.84,3.2-8.32,7.53l-1.68,15.84
				c-0.16,1.28,0.56,2.4,1.76,2.88l3.92,1.6c0.48,0.16,0.8,0.64,0.88,1.2l2.08,26.65c0.08,1.44,1.36,2.56,2.8,2.56h4.41
				c1.44,0,2.64-1.12,2.8-2.56l2-26.73c0.07-0.56,0.4-0.96,0.88-1.2l3.92-1.6C185.49,240.52,186.21,239.32,186.05,238.12z"/>
			<path class="st2" d="M174.69,273.26h-4.41c-1.59,0-2.96-1.25-3.05-2.8l-2.08-26.64c-0.06-0.48-0.34-0.86-0.71-0.98l-3.93-1.61
				c-1.34-0.53-2.09-1.77-1.91-3.14l1.68-15.84c0.49-4.42,4.18-7.75,8.57-7.75h7.28c4.39,0,8.07,3.33,8.57,7.75l1.6,15.84
				c0.18,1.34-0.63,2.63-1.93,3.07l-3.9,1.6c-0.41,0.21-0.67,0.56-0.73,1l-2,26.71C177.56,272.06,176.25,273.26,174.69,273.26z
				 M168.85,215c-4.14,0-7.61,3.14-8.08,7.3l-1.68,15.84c-0.15,1.15,0.48,2.17,1.6,2.62l3.92,1.6c0.54,0.18,0.94,0.72,1.03,1.4
				l2.08,26.66c0.07,1.29,1.21,2.33,2.55,2.33h4.41c1.31,0,2.4-1.01,2.55-2.34l2-26.72c0.08-0.62,0.44-1.12,1.02-1.41l3.94-1.61
				c1.08-0.36,1.75-1.43,1.6-2.54l0-0.01l-1.6-15.84c-0.47-4.16-3.94-7.3-8.08-7.3H168.85z"/>
		</g>
	</g>
	<g>
		<g>
			<circle class="st1" cx="305.91" cy="192.01" r="9.1"/>
			<path class="st2" d="M305.91,201.36c-5.15,0-9.34-4.19-9.34-9.35s4.19-9.35,9.34-9.35s9.34,4.19,9.34,9.35
				S311.07,201.36,305.91,201.36z M305.91,183.17c-4.88,0-8.84,3.97-8.84,8.85s3.97,8.85,8.84,8.85s8.84-3.97,8.84-8.85
				S310.79,183.17,305.91,183.17z"/>
		</g>
		<g>
			<path class="st1" d="M322.02,231.7l-1.9-18.75c-0.57-5.02-4.73-8.91-9.85-8.91h-8.63c-5.02,0-9.28,3.79-9.85,8.91l-1.99,18.75
				c-0.19,1.52,0.66,2.84,2.08,3.41l4.64,1.9c0.57,0.19,0.95,0.76,1.04,1.42l2.46,31.55c0.1,1.71,1.61,3.03,3.31,3.03h5.22
				c1.71,0,3.13-1.32,3.31-3.03l2.37-31.64c0.09-0.66,0.48-1.14,1.04-1.42l4.64-1.9C321.36,234.55,322.21,233.13,322.02,231.7z"/>
			<path class="st2" d="M308.57,273.26h-5.21c-1.86,0-3.46-1.47-3.56-3.27l-2.46-31.54c-0.08-0.58-0.42-1.05-0.87-1.21l-4.66-1.9
				c-1.56-0.62-2.44-2.06-2.24-3.67l1.99-18.75c0.58-5.21,4.92-9.13,10.1-9.13h8.63c5.17,0,9.51,3.93,10.1,9.13l1.9,18.75
				c0.21,1.57-0.74,3.08-2.25,3.58l-4.63,1.89c-0.5,0.25-0.81,0.68-0.89,1.22L312.13,270C311.93,271.86,310.4,273.26,308.57,273.26z
				 M301.65,204.29c-4.92,0-9.05,3.73-9.6,8.69l-1.99,18.75c-0.17,1.38,0.58,2.61,1.93,3.15l4.64,1.9c0.62,0.21,1.09,0.83,1.2,1.62
				l2.46,31.56c0.09,1.55,1.46,2.8,3.06,2.8h5.21c1.57,0,2.89-1.21,3.07-2.81l2.37-31.63c0.1-0.73,0.51-1.29,1.18-1.63l4.66-1.9
				c1.3-0.43,2.1-1.71,1.93-3.05l0-0.01l-1.9-18.75c-0.56-4.95-4.69-8.68-9.6-8.68H301.65z"/>
		</g>
	</g>
	<g>
		<g>
			<circle class="st1" cx="193.64" cy="192.01" r="9.1"/>
			<path class="st2" d="M193.64,201.36c-5.15,0-9.35-4.19-9.35-9.35s4.19-9.35,9.35-9.35c5.15,0,9.34,4.19,9.34,9.35
				S198.79,201.36,193.64,201.36z M193.64,183.17c-4.88,0-8.85,3.97-8.85,8.85s3.97,8.85,8.85,8.85c4.88,0,8.84-3.97,8.84-8.85
				S198.52,183.17,193.64,183.17z"/>
		</g>
		<g>
			<path class="st1" d="M209.75,231.7l-1.9-18.75c-0.57-5.02-4.73-8.91-9.85-8.91h-8.63c-5.02,0-9.28,3.79-9.85,8.91l-1.99,18.75
				c-0.19,1.52,0.66,2.84,2.08,3.41l4.64,1.9c0.57,0.19,0.95,0.76,1.04,1.42l2.46,31.55c0.1,1.71,1.61,3.03,3.31,3.03h5.22
				c1.71,0,3.13-1.32,3.31-3.03l2.37-31.64c0.09-0.66,0.48-1.14,1.04-1.42l4.64-1.9C209.08,234.55,209.93,233.13,209.75,231.7z"/>
			<path class="st2" d="M196.3,273.26h-5.21c-1.86,0-3.46-1.47-3.56-3.27l-2.46-31.54c-0.08-0.58-0.42-1.05-0.87-1.21l-4.66-1.9
				c-1.56-0.62-2.44-2.06-2.24-3.67l1.99-18.75c0.58-5.21,4.92-9.13,10.1-9.13H198c5.17,0,9.51,3.93,10.1,9.13l1.9,18.75
				c0.21,1.57-0.74,3.08-2.25,3.58l-4.63,1.89c-0.51,0.26-0.81,0.67-0.89,1.22L199.86,270C199.66,271.86,198.13,273.26,196.3,273.26
				z M189.38,204.29c-4.93,0-9.05,3.73-9.6,8.69l-1.99,18.75c-0.17,1.38,0.59,2.61,1.93,3.15l4.65,1.9c0.62,0.21,1.09,0.83,1.2,1.62
				l2.46,31.56c0.09,1.55,1.46,2.8,3.06,2.8h5.21c1.57,0,2.89-1.21,3.07-2.81l2.37-31.63c0.1-0.73,0.51-1.29,1.18-1.63l4.66-1.9
				c1.3-0.43,2.1-1.71,1.93-3.05l0-0.01l-1.9-18.75c-0.56-4.95-4.69-8.68-9.6-8.68H189.38z"/>
		</g>
	</g>
	<g>
		<g>
			<circle class="st1" cx="280.22" cy="175.53" r="10.95"/>
			<path class="st2" d="M280.22,186.73c-6.17,0-11.2-5.02-11.2-11.2s5.02-11.2,11.2-11.2s11.2,5.02,11.2,11.2
				S286.39,186.73,280.22,186.73z M280.22,164.84c-5.9,0-10.7,4.8-10.7,10.7s4.8,10.7,10.7,10.7s10.7-4.8,10.7-10.7
				S286.12,164.84,280.22,164.84z"/>
		</g>
		<g>
			<path class="st1" d="M299.6,223.3l-2.28-22.57c-0.69-6.05-5.7-10.72-11.86-10.72h-10.37c-6.05,0-11.17,4.56-11.86,10.72
				l-2.39,22.57c-0.23,1.83,0.8,3.42,2.51,4.1l5.58,2.28c0.69,0.23,1.14,0.91,1.26,1.71l2.96,37.97c0.11,2.05,1.94,3.65,3.99,3.65
				h6.27c2.05,0,3.76-1.59,3.99-3.65l2.85-38.08c0.11-0.8,0.57-1.37,1.25-1.71l5.59-2.28C298.8,226.72,299.83,225.01,299.6,223.3z"
				/>
			<path class="st2" d="M283.41,273.25h-6.27c-2.22,0-4.12-1.74-4.24-3.88l-2.96-37.96c-0.1-0.72-0.52-1.3-1.09-1.49l-5.6-2.29
				c-1.85-0.74-2.9-2.45-2.66-4.36l2.39-22.57c0.69-6.24,5.9-10.94,12.11-10.94h10.38c6.2,0,11.4,4.7,12.11,10.94l2.28,22.57
				c0.25,1.87-0.88,3.66-2.68,4.26l-5.57,2.27c-0.63,0.32-1,0.83-1.1,1.51l-2.85,38.06C287.41,271.59,285.59,273.25,283.41,273.25z
				 M275.09,190.26c-5.95,0-10.94,4.51-11.61,10.5l-2.39,22.57c-0.21,1.68,0.71,3.19,2.35,3.84l5.58,2.28
				c0.73,0.25,1.28,0.98,1.41,1.91l2.96,37.98c0.1,1.89,1.78,3.42,3.74,3.42h6.27c1.92,0,3.52-1.47,3.74-3.42l2.85-38.07
				c0.12-0.86,0.6-1.52,1.39-1.91l5.6-2.29c1.59-0.53,2.58-2.09,2.36-3.73l0-0.01l-2.28-22.57c-0.68-5.98-5.67-10.5-11.61-10.5
				H275.09z"/>
		</g>
	</g>
	<g>
		<g>
			<circle class="st1" cx="219.13" cy="175.53" r="10.95"/>
			<path class="st2" d="M219.13,186.73c-6.17,0-11.2-5.02-11.2-11.2s5.02-11.2,11.2-11.2s11.2,5.02,11.2,11.2
				S225.31,186.73,219.13,186.73z M219.13,164.84c-5.9,0-10.7,4.8-10.7,10.7s4.8,10.7,10.7,10.7s10.7-4.8,10.7-10.7
				S225.03,164.84,219.13,164.84z"/>
		</g>
		<g>
			<path class="st1" d="M238.52,223.3l-2.28-22.57c-0.69-6.05-5.7-10.72-11.85-10.72h-10.37c-6.05,0-11.17,4.56-11.86,10.72
				l-2.4,22.57c-0.23,1.83,0.8,3.42,2.51,4.1l5.59,2.28c0.69,0.23,1.14,0.91,1.25,1.71l2.97,37.97c0.11,2.05,1.94,3.65,3.99,3.65
				h6.27c2.06,0,3.76-1.59,3.99-3.65l2.85-38.08c0.11-0.8,0.57-1.37,1.25-1.71l5.59-2.28C237.72,226.72,238.74,225.01,238.52,223.3z
				"/>
			<path class="st2" d="M222.32,273.25h-6.27c-2.22,0-4.12-1.74-4.24-3.88l-2.97-37.96c-0.1-0.72-0.52-1.3-1.08-1.49l-5.6-2.29
				c-1.85-0.74-2.9-2.45-2.66-4.36l2.39-22.57c0.69-6.24,5.9-10.94,12.11-10.94h10.38c6.19,0,11.39,4.7,12.1,10.94l2.28,22.57
				c0.25,1.87-0.88,3.66-2.68,4.26l-5.57,2.27c-0.63,0.31-1,0.82-1.1,1.51l-2.85,38.06C226.31,271.59,224.49,273.25,222.32,273.25z
				 M214.01,190.26c-5.95,0-10.95,4.51-11.61,10.5L200,223.33c-0.21,1.68,0.71,3.19,2.35,3.84l5.59,2.28
				c0.73,0.25,1.27,0.98,1.4,1.91l2.97,37.98c0.1,1.89,1.78,3.42,3.74,3.42h6.27c1.92,0,3.52-1.47,3.75-3.42l2.85-38.07
				c0.12-0.86,0.6-1.52,1.39-1.91l5.6-2.29c1.59-0.53,2.58-2.09,2.36-3.73l0-0.01l-2.28-22.57c-0.68-5.98-5.67-10.5-11.6-10.5
				H214.01z"/>
		</g>
	</g>
	<g>
		<g>
			<g>
				<path class="st0" d="M174.2,302.05v34.82h-8.06v-28.35h-6.97v-6.47H174.2z"/>
			</g>
			<g>
				<path class="st0" d="M189.96,335.33c-2.26-1.43-4.02-3.49-5.3-6.19c-1.28-2.71-1.92-5.93-1.92-9.68c0-3.74,0.64-6.97,1.92-9.67
					c1.27-2.71,3.04-4.77,5.3-6.2c2.26-1.43,4.83-2.14,7.71-2.14c2.88,0,5.45,0.71,7.71,2.14c2.26,1.43,4.02,3.49,5.3,6.2
					c1.27,2.7,1.91,5.93,1.91,9.67c0,3.75-0.64,6.97-1.91,9.68c-1.28,2.7-3.05,4.77-5.3,6.19c-2.26,1.42-4.83,2.14-7.71,2.14
					C194.79,337.47,192.22,336.76,189.96,335.33z M202.67,327.92c1.21-1.82,1.81-4.64,1.81-8.46c0-3.81-0.61-6.63-1.81-8.46
					c-1.21-1.82-2.88-2.74-5-2.74c-2.09,0-3.74,0.91-4.95,2.74c-1.21,1.82-1.82,4.65-1.82,8.46c0,3.82,0.61,6.63,1.82,8.46
					c1.21,1.82,2.86,2.74,4.95,2.74C199.8,330.66,201.46,329.75,202.67,327.92z"/>
			</g>
			<g>
				<path class="st0" d="M237.22,299.97h7.76v36.91h-7.76V299.97z"/>
			</g>
			<g>
				<path class="st0" d="M275.03,312.67c2.22,1.98,3.33,4.95,3.33,8.93v15.27h-7.27v-3.34c-1.46,2.49-4.18,3.73-8.16,3.73
					c-2.06,0-3.84-0.35-5.35-1.04c-1.51-0.7-2.66-1.66-3.45-2.89c-0.8-1.23-1.2-2.62-1.2-4.18c0-2.48,0.94-4.44,2.81-5.87
					c1.87-1.43,4.77-2.14,8.68-2.14h6.17c0-1.69-0.51-2.99-1.54-3.9c-1.03-0.91-2.57-1.37-4.63-1.37c-1.43,0-2.83,0.22-4.2,0.67
					c-1.38,0.45-2.55,1.05-3.51,1.82l-2.79-5.42c1.46-1.03,3.21-1.82,5.25-2.39c2.04-0.56,4.14-0.85,6.29-0.85
					C269.62,309.72,272.81,310.7,275.03,312.67z M268.41,331.13c1.03-0.61,1.75-1.52,2.19-2.71v-2.74h-5.32
					c-3.18,0-4.78,1.05-4.78,3.14c0,0.99,0.39,1.78,1.17,2.36c0.78,0.58,1.85,0.87,3.21,0.87
					C266.21,332.05,267.38,331.75,268.41,331.13z"/>
			</g>
			<g>
				<path class="st0" d="M293.41,335.51c-2.27-1.18-4.05-2.81-5.32-4.9c-1.28-2.09-1.91-4.46-1.91-7.11c0-2.66,0.64-5.02,1.91-7.11
					c1.28-2.09,3.05-3.73,5.32-4.9c2.27-1.17,4.83-1.77,7.69-1.77c2.82,0,5.28,0.59,7.39,1.77c2.11,1.18,3.64,2.86,4.6,5.05
					l-6.02,3.23c-1.4-2.45-3.4-3.68-6.02-3.68c-2.02,0-3.7,0.66-5.02,1.99c-1.33,1.33-1.99,3.14-1.99,5.43
					c0,2.29,0.66,4.09,1.99,5.42c1.32,1.33,3,1.99,5.02,1.99c2.66,0,4.66-1.23,6.02-3.68l6.02,3.28c-0.96,2.12-2.5,3.78-4.6,4.98
					c-2.11,1.19-4.57,1.79-7.39,1.79C298.24,337.28,295.68,336.69,293.41,335.51z"/>
			</g>
			<g>
				<path class="st0" d="M342.23,322.5h-8.66v8.46h-6.41v-8.46h-8.61v-6.07h8.61v-8.46h6.41v8.46h8.66V322.5z"/>
			</g>
		</g>
	</g>
	<g>
		<path class="st0" d="M250,494.89l-2.47-2.48L5.11,250L250,5.11L494.89,250l-2.48,2.47L250,494.89z M15.01,250L250,484.99
			L484.99,250L250,15.01L15.01,250z"/>
	</g>
	<g>
		<g>
			<circle class="st1" cx="249.68" cy="155.87" r="13.15"/>
			<path class="st2" d="M249.68,169.27c-7.39,0-13.4-6.01-13.4-13.4c0-7.39,6.01-13.4,13.4-13.4c7.39,0,13.4,6.01,13.4,13.4
				C263.08,163.26,257.07,169.27,249.68,169.27z M249.68,142.97c-7.11,0-12.9,5.79-12.9,12.9s5.79,12.9,12.9,12.9
				c7.11,0,12.9-5.79,12.9-12.9S256.79,142.97,249.68,142.97z"/>
		</g>
		<g>
			<path class="st1" d="M272.97,213.27l-2.74-27.12c-0.83-7.27-6.85-12.88-14.25-12.88h-12.46c-7.27,0-13.43,5.48-14.25,12.88
				l-2.88,27.12c-0.28,2.19,0.96,4.11,3.01,4.93l6.72,2.74c0.82,0.28,1.37,1.09,1.51,2.06l3.56,45.62c0.14,2.47,2.33,4.38,4.79,4.38
				h7.54c2.47,0,4.52-1.92,4.8-4.38l3.42-45.76c0.14-0.96,0.69-1.65,1.51-2.06l6.72-2.74C272.01,217.38,273.24,215.33,272.97,213.27
				z"/>
			<path class="st2" d="M253.51,273.25h-7.54c-2.64,0-4.9-2.07-5.04-4.62l-3.56-45.62c-0.13-0.89-0.64-1.6-1.34-1.84l-6.73-2.75
				c-2.21-0.88-3.45-2.92-3.17-5.19l2.88-27.12c0.83-7.47,7.06-13.1,14.5-13.1h12.46c7.42,0,13.65,5.63,14.5,13.1l2.74,27.12
				c0.29,2.22-1.04,4.35-3.18,5.06l-6.7,2.74c-0.77,0.38-1.23,1.01-1.35,1.86l-3.42,45.74C258.27,271.27,256.1,273.25,253.51,273.25
				z M243.52,173.52c-7.18,0-13.2,5.44-14,12.66l-2.88,27.12c-0.26,2.04,0.86,3.87,2.86,4.67l6.72,2.74
				c0.86,0.29,1.5,1.16,1.66,2.25l3.56,45.64c0.13,2.29,2.16,4.15,4.54,4.15h7.54c2.33,0,4.29-1.79,4.55-4.16l3.42-45.75
				c0.15-1.02,0.72-1.8,1.64-2.26l6.73-2.75c1.93-0.64,3.12-2.54,2.86-4.53l0-0.01l-2.74-27.12c-0.82-7.21-6.84-12.65-14-12.65
				H243.52z"/>
		</g>
	</g>
</g>
</svg>
