<?xml version="1.0" encoding="utf-8"?>
<!-- Generator: Adobe Illustrator 22.0.1, SVG Export Plug-In . SVG Version: 6.00 Build 0)  -->
<svg version="1.1" id="Capa_1" xmlns="http://www.w3.org/2000/svg" xmlns:xlink="http://www.w3.org/1999/xlink" x="0px" y="0px"
	 viewBox="0 0 512 363" style="enable-background:new 0 0 512 363;" xml:space="preserve">
<style type="text/css">
	.st0{stroke:#FFFFFF;stroke-width:7;stroke-miterlimit:10;}
</style>
<g>
	<g>
		<g>
			<path class="st0" d="M466.9,242.9c22.6-14.1,33.1-41.5,25.7-67.1c-7.4-25.6-30.8-43.2-57.4-43.2c-0.9,0-1.7,0.1-2.5,0.1
				c-7.6-25.3-30.8-42.7-57.2-42.8c-0.9,0-1.7,0.1-2.5,0.1c-7.6-25.3-30.8-42.6-57.2-42.8c-0.9,0-1.7,0.1-2.5,0.1
				C305.7,22,282.4,4.6,256,4.6S206.3,22,198.8,47.4c-0.8,0-1.7-0.1-2.5-0.1c-26.4,0.1-49.6,17.5-57.2,42.8c-0.8,0-1.7-0.1-2.5-0.1
				c-26.4,0.1-49.6,17.5-57.2,42.8c-0.8,0-1.7-0.1-2.5-0.1c-26.6,0-50.1,17.6-57.4,43.2c-7.4,25.6,3.1,53,25.7,67.1
				c-22.5,11.8-36.5,35-36.6,60.4v42.7c0,9.4,7.6,17.1,17.1,17.1h460.8c9.4,0,17.1-7.6,17.1-17.1v-42.7
				C503.4,277.9,489.4,254.6,466.9,242.9z M419.4,152.8c1.4-0.5,2.9-1,4.4-1.4c1.2-0.3,2.3-0.7,3.5-1c12.5-2.5,25.4,0.8,35.2,8.9
				s15.5,20.2,15.4,32.9c0.1,16.3-9.1,31.2-23.7,38.4c-14.6,7.2-32,5.6-44.9-4.3s-19.1-26.3-15.9-42.2c0.2-0.8,0.4-1.5,0.6-2.3
				c0.4-1.8,1-3.6,1.7-5.4c0.3-0.8,0.7-1.5,1.1-2.3c0.8-1.7,1.6-3.3,2.6-4.8c0.4-0.7,0.9-1.3,1.4-2c1.1-1.5,2.3-2.9,3.5-4.3
				c0.5-0.6,1.1-1.1,1.6-1.7c1.3-1.3,2.8-2.4,4.3-3.5c0.7-0.5,1.3-1,2-1.4c1.5-0.9,3-1.7,4.6-2.5
				C417.6,153.6,418.5,153.1,419.4,152.8z M361.9,109.3c1.2-0.4,2.5-0.7,3.8-1c3.2-0.8,6.5-1.3,9.8-1.3
				c18.2,0.1,34.4,11.6,40.4,28.8c-0.3,0.1-0.6,0.3-0.9,0.4c-2.3,0.8-4.5,1.8-6.7,2.9c-0.5,0.2-1,0.4-1.4,0.7
				c-2.1,1.2-4.2,2.5-6.2,3.9c-0.8,0.6-1.6,1.2-2.4,1.8c-1.6,1.3-3.2,2.6-4.6,4c-0.8,0.8-1.6,1.7-2.4,2.5c-1.2,1.3-2.3,2.6-3.3,3.9
				c-0.6,0.8-1.2,1.6-1.8,2.4c-1.4,1.9-2.6,4-3.7,6.1c-0.4,0.7-0.7,1.4-1.1,2.2c-0.9,1.9-1.7,3.9-2.5,5.9c-0.2,0.5-0.4,1.1-0.6,1.6
				c-0.8,2.5-1.4,5.1-1.9,7.8c-0.1,0.6-0.2,1.3-0.3,1.9c-0.4,2.8-0.6,5.6-0.7,8.5c0-2.8-0.2-5.7-0.7-8.5c-0.1-0.6-0.2-1.3-0.3-1.9
				c-0.5-2.6-1.1-5.2-1.9-7.8c-0.2-0.5-0.4-1.1-0.6-1.6c-0.7-2-1.5-4-2.5-5.9c-0.3-0.7-0.7-1.5-1.1-2.2c-1.1-2.1-2.3-4.1-3.7-6.1
				c-0.6-0.8-1.2-1.6-1.8-2.4c-1.1-1.4-2.2-2.7-3.3-3.9c-0.8-0.9-1.6-1.7-2.4-2.5c-1.5-1.4-3-2.8-4.6-4c-0.8-0.6-1.6-1.2-2.4-1.8
				c-2-1.4-4-2.7-6.2-3.9c-0.5-0.2-1-0.5-1.4-0.7c-2.2-1.1-4.4-2-6.7-2.9c-0.3-0.1-0.5-0.3-0.8-0.3c0.2-0.7,0.5-1.3,0.8-2
				c0.5-1.3,1.1-2.6,1.7-3.9c0.2-0.4,0.5-0.8,0.7-1.1c0.9-1.6,1.8-3.1,2.9-4.6l0.1-0.1c3.9-5.2,8.9-9.4,14.7-12.4
				c0.3-0.2,0.7-0.3,1-0.4C358.6,110.5,360.2,109.8,361.9,109.3z M237.8,149.5c-1.5-1.4-3-2.8-4.6-4c-0.8-0.6-1.6-1.2-2.4-1.8
				c-2-1.4-4-2.7-6.2-3.9c-0.5-0.2-1-0.5-1.4-0.7c-2.2-1.1-4.4-2-6.7-2.9c-0.3-0.1-0.5-0.3-0.8-0.3c0.2-0.7,0.5-1.3,0.8-2
				c0.5-1.3,1.1-2.6,1.7-3.9c0.2-0.4,0.5-0.8,0.7-1.1c0.9-1.6,1.8-3.1,2.9-4.6l0.1-0.1c3.9-5.2,8.9-9.4,14.7-12.4
				c0.3-0.2,0.7-0.3,1-0.4c1.6-0.8,3.2-1.5,4.8-2c1.2-0.4,2.5-0.7,3.8-1c0.9-0.2,1.8-0.5,2.7-0.7c0.3-0.1,0.7-0.1,1-0.1
				c2-0.3,4-0.5,6-0.5l0.2,0c2,0,4,0.2,6,0.5c0.3,0.1,0.7,0.1,1,0.1c0.9,0.2,1.8,0.4,2.7,0.7c1.3,0.3,2.5,0.6,3.8,1
				c1.7,0.6,3.3,1.3,4.8,2c0.3,0.2,0.7,0.3,1,0.4c5.8,3,10.8,7.2,14.7,12.4l0.1,0.1c1.1,1.5,2,3,2.9,4.6c0.2,0.4,0.5,0.8,0.7,1.1
				c0.6,1.3,1.2,2.6,1.7,3.9c0.3,0.7,0.6,1.3,0.8,2c-0.3,0.1-0.5,0.2-0.8,0.3c-2.3,0.8-4.5,1.8-6.7,2.9c-0.5,0.2-1,0.4-1.4,0.7
				c-2.1,1.2-4.2,2.5-6.2,3.9c-0.8,0.6-1.6,1.2-2.4,1.8c-1.6,1.3-3.2,2.6-4.6,4c-0.8,0.8-1.6,1.7-2.4,2.5c-1.2,1.3-2.3,2.6-3.3,3.9
				c-0.6,0.8-1.2,1.6-1.8,2.4c-1.4,1.9-2.6,4-3.7,6.1c-0.4,0.7-0.7,1.4-1.1,2.2c-0.9,1.9-1.7,3.9-2.5,5.9c-0.2,0.5-0.4,1.1-0.6,1.6
				c-0.8,2.5-1.4,5.1-1.9,7.8c-0.1,0.6-0.2,1.3-0.3,1.9c-0.4,2.8-0.6,5.6-0.7,8.5c0-2.8-0.2-5.7-0.7-8.5c-0.1-0.6-0.2-1.3-0.3-1.9
				c-0.4-2.6-1.1-5.2-1.9-7.8c-0.2-0.5-0.4-1.1-0.6-1.6c-0.7-2-1.5-4-2.5-5.9c-0.3-0.7-0.7-1.5-1.1-2.2c-1.1-2.1-2.3-4.1-3.7-6.1
				c-0.6-0.8-1.2-1.6-1.8-2.4c-1.1-1.4-2.2-2.7-3.3-3.9C239.4,151.2,238.7,150.3,237.8,149.5z M222.1,226.2
				c-12.9,9.8-30.3,11.5-44.8,4.3c-14.5-7.2-23.7-22-23.7-38.2c0-2.7,0.3-5.5,0.8-8.1c0.2-0.8,0.4-1.5,0.6-2.3
				c0.4-1.8,1-3.6,1.7-5.4c0.3-0.8,0.7-1.5,1.1-2.3c0.8-1.7,1.6-3.3,2.6-4.8c0.4-0.7,0.9-1.3,1.4-2c1.1-1.5,2.3-2.9,3.5-4.3
				c0.5-0.6,1.1-1.1,1.6-1.7c1.3-1.3,2.8-2.4,4.3-3.5c0.7-0.5,1.3-1,2-1.4c1.5-0.9,3-1.7,4.6-2.5c0.9-0.4,1.7-0.9,2.6-1.2
				c1.4-0.5,2.9-1,4.4-1.4c1.2-0.3,2.3-0.7,3.5-1c2.6-0.5,5.2-0.8,7.9-0.8h0.1c2.6,0,5.3,0.3,7.9,0.8c1.2,0.2,2.4,0.6,3.5,1
				c1.5,0.4,2.9,0.8,4.4,1.4c0.9,0.4,1.8,0.8,2.6,1.2c1.6,0.7,3.1,1.6,4.6,2.5c0.7,0.4,1.4,0.9,2,1.4c1.5,1.1,2.9,2.3,4.3,3.5
				c0.6,0.5,1.1,1.1,1.6,1.7c1.3,1.3,2.4,2.8,3.5,4.3c0.5,0.7,1,1.3,1.4,2c1,1.5,1.8,3.1,2.6,4.8c0.4,0.8,0.8,1.5,1.1,2.3
				c0.7,1.8,1.2,3.6,1.7,5.4c0.2,0.8,0.5,1.5,0.6,2.3C241.2,200.1,235,216.4,222.1,226.2z M273.9,184.2c0.2-0.8,0.4-1.5,0.6-2.3
				c0.4-1.8,1-3.6,1.7-5.4c0.3-0.8,0.7-1.5,1.1-2.3c0.8-1.7,1.6-3.3,2.6-4.8c0.4-0.7,0.9-1.3,1.4-2c1.1-1.5,2.3-2.9,3.5-4.3
				c0.5-0.6,1.1-1.1,1.6-1.7c1.3-1.3,2.8-2.4,4.3-3.5c0.7-0.5,1.3-1,2-1.4c1.5-0.9,3-1.7,4.6-2.5c0.9-0.4,1.7-0.9,2.6-1.2
				c1.4-0.5,2.9-1,4.4-1.4c1.2-0.3,2.3-0.7,3.5-1c2.6-0.5,5.2-0.8,7.8-0.8l0.3,0c2.6,0,5.2,0.3,7.8,0.8c1.2,0.2,2.4,0.6,3.5,1
				c1.5,0.4,2.9,0.8,4.4,1.4c0.9,0.4,1.8,0.8,2.6,1.2c1.6,0.7,3.1,1.6,4.6,2.5c0.7,0.4,1.4,0.9,2,1.4c1.5,1.1,2.9,2.3,4.3,3.5
				c0.6,0.5,1.1,1.1,1.6,1.7c1.3,1.3,2.4,2.8,3.5,4.3c0.5,0.7,1,1.3,1.4,2c1,1.5,1.8,3.1,2.6,4.8c0.4,0.8,0.8,1.5,1.1,2.3
				c0.7,1.8,1.2,3.6,1.7,5.4c0.2,0.8,0.5,1.5,0.6,2.3c3.1,15.9-3.1,32.2-16,42.1c-12.9,9.8-30.3,11.5-44.8,4.3
				c-14.5-7.2-23.7-22-23.7-38.2C273.1,189.6,273.3,186.9,273.9,184.2z M302.1,66.6c1.2-0.4,2.5-0.7,3.8-1c3.2-0.8,6.5-1.3,9.8-1.3
				c18.2,0.1,34.4,11.6,40.4,28.8l0,0c-0.4,0.1-0.7,0.3-1.1,0.4c-0.8,0.3-1.6,0.7-2.5,1c-10.6,4.4-19.7,11.7-26.2,21.1
				c-0.2,0.4-0.5,0.7-0.7,1.1c-0.8,1.2-1.6,2.4-2.3,3.7c-0.9,1.6-1.7,3.2-2.4,4.8c-0.3,0.7-0.6,1.5-0.9,2.2c-0.5,1.3-1,2.7-1.5,4
				c-0.1,0.4-0.3,0.7-0.4,1c-0.5,0-1,0-1.5,0c-0.3,0-0.7,0-1,0s-0.7,0-1,0c-0.5,0-1,0-1.5,0c-0.1-0.4-0.3-0.7-0.4-1
				c-0.4-1.4-0.9-2.7-1.5-4c-0.3-0.7-0.6-1.5-0.9-2.2c-0.7-1.6-1.5-3.2-2.4-4.8c-0.7-1.3-1.5-2.5-2.3-3.7c-0.2-0.4-0.5-0.7-0.7-1.1
				c-6.5-9.4-15.6-16.8-26.1-21.1c-0.8-0.3-1.6-0.7-2.5-1c-0.4-0.1-0.7-0.3-1-0.4c0.2-0.7,0.5-1.3,0.8-1.9c0.5-1.4,1.1-2.7,1.7-4
				c0.2-0.4,0.5-0.7,0.7-1.1c0.9-1.6,1.9-3.1,2.9-4.6l0.1-0.1c3.9-5.2,8.9-9.4,14.7-12.4c0.3-0.2,0.7-0.3,1-0.4
				C298.9,67.8,300.5,67.2,302.1,66.6z M256,21.7c18.2,0,34.4,11.6,40.3,28.8c-0.4,0.1-0.7,0.3-1.1,0.4c-0.8,0.3-1.6,0.7-2.5,1
				c-10.6,4.4-19.7,11.7-26.2,21.1c-0.2,0.4-0.5,0.7-0.7,1.1c-0.8,1.2-1.6,2.4-2.3,3.7c-0.9,1.6-1.7,3.2-2.4,4.8
				c-0.3,0.7-0.6,1.5-0.9,2.2c-0.5,1.3-1,2.7-1.5,4c-0.1,0.4-0.3,0.7-0.4,1c-0.8,0-1.6-0.1-2.5-0.1c-0.8,0-1.7,0-2.5,0.1
				c-0.1-0.4-0.3-0.7-0.4-1c-0.4-1.4-0.9-2.7-1.5-4c-0.3-0.7-0.6-1.5-0.9-2.2c-0.7-1.6-1.6-3.2-2.4-4.8c-0.7-1.3-1.5-2.5-2.3-3.7
				c-0.2-0.4-0.5-0.7-0.7-1.1c-6.5-9.4-15.6-16.8-26.1-21.1c-0.8-0.3-1.6-0.7-2.5-1c-0.4-0.1-0.7-0.3-1.1-0.4
				C221.5,33.2,237.8,21.7,256,21.7z M196.3,64.3c3.3,0,6.6,0.5,9.8,1.3c1.3,0.3,2.6,0.6,3.8,1c1.6,0.6,3.2,1.2,4.8,2
				c0.3,0.2,0.7,0.3,1,0.4c5.8,3,10.8,7.2,14.7,12.4l0.1,0.1c1.1,1.5,2.1,3,2.9,4.6c0.2,0.4,0.5,0.7,0.7,1.1c0.6,1.3,1.2,2.6,1.7,4
				c0.3,0.6,0.6,1.3,0.8,1.9c-0.4,0.1-0.7,0.3-1,0.4c-0.8,0.3-1.6,0.7-2.5,1c-10.6,4.4-19.7,11.7-26.2,21.1
				c-0.2,0.4-0.5,0.7-0.7,1.1c-0.8,1.2-1.6,2.4-2.3,3.7c-0.9,1.6-1.7,3.2-2.4,4.8c-0.3,0.7-0.6,1.5-0.9,2.2c-0.5,1.3-1,2.7-1.5,4
				c-0.1,0.4-0.3,0.7-0.4,1c-0.8,0-1.6,0-2.5,0s-1.7,0-2.5,0c-0.1-0.4-0.3-0.7-0.4-1c-0.4-1.4-0.9-2.7-1.5-4
				c-0.3-0.7-0.6-1.5-0.9-2.2c-0.7-1.6-1.6-3.2-2.4-4.8c-0.7-1.3-1.5-2.5-2.3-3.7c-0.2-0.4-0.5-0.7-0.7-1.1
				c-6.5-9.4-15.6-16.8-26.1-21.1c-0.8-0.3-1.6-0.7-2.5-1c-0.4-0.1-0.7-0.3-1.1-0.4C161.9,76,178.1,64.4,196.3,64.3z M96.2,135.8
				c6-17.2,22.1-28.8,40.4-28.8c3.3,0,6.6,0.5,9.8,1.3c1.3,0.3,2.6,0.6,3.8,1c1.6,0.6,3.2,1.2,4.7,2c0.4,0.2,0.7,0.3,1.1,0.5
				c5.7,3,10.7,7.2,14.6,12.3c0.1,0.1,0.1,0.1,0.2,0.2c1,1.4,2,2.9,2.8,4.5c0.2,0.4,0.5,0.8,0.7,1.2c0.6,1.2,1.1,2.5,1.7,3.8
				c0.3,0.7,0.6,1.3,0.8,2c-0.3,0.1-0.5,0.2-0.8,0.3c-2.3,0.8-4.5,1.8-6.7,2.9c-0.5,0.2-1,0.4-1.4,0.7c-2.1,1.2-4.2,2.5-6.2,3.9
				c-0.8,0.6-1.6,1.2-2.4,1.8c-1.6,1.3-3.2,2.6-4.6,4c-0.8,0.8-1.6,1.7-2.4,2.5c-1.2,1.3-2.3,2.6-3.3,3.9c-0.6,0.8-1.2,1.6-1.8,2.4
				c-1.4,1.9-2.6,4-3.7,6.1c-0.4,0.7-0.7,1.4-1.1,2.2c-0.9,1.9-1.7,3.9-2.5,5.9c-0.2,0.5-0.4,1.1-0.6,1.6c-0.8,2.5-1.4,5.1-1.9,7.8
				c-0.1,0.6-0.2,1.3-0.3,1.9c-0.4,2.8-0.7,5.6-0.7,8.5c0-2.8-0.2-5.7-0.7-8.5c-0.1-0.6-0.2-1.3-0.3-1.9c-0.4-2.6-1.1-5.2-1.9-7.8
				c-0.2-0.5-0.4-1.1-0.6-1.6c-0.7-2-1.5-4-2.5-5.9c-0.3-0.7-0.7-1.5-1.1-2.2c-1.1-2.1-2.3-4.1-3.7-6.1c-0.6-0.8-1.2-1.6-1.8-2.4
				c-1.1-1.4-2.2-2.7-3.3-3.9c-0.8-0.9-1.6-1.7-2.4-2.5c-1.5-1.4-3-2.8-4.6-4c-0.8-0.6-1.6-1.2-2.4-1.8c-2-1.4-4-2.7-6.2-3.9
				c-0.5-0.2-1-0.5-1.4-0.7c-2.2-1.1-4.4-2-6.7-2.9C96.7,136.1,96.5,135.9,96.2,135.8L96.2,135.8z M34.1,192.3
				c-0.1-12.7,5.6-24.8,15.4-32.9s22.7-11.4,35.2-8.9c1.2,0.2,2.3,0.6,3.5,1c1.5,0.4,2.9,0.8,4.4,1.4c0.9,0.4,1.8,0.8,2.6,1.2
				c1.6,0.7,3.1,1.6,4.6,2.5c0.7,0.4,1.4,0.9,2,1.4c1.5,1.1,2.9,2.3,4.3,3.5c0.6,0.5,1.1,1.1,1.6,1.7c1.3,1.3,2.4,2.8,3.5,4.3
				c0.5,0.7,1,1.3,1.4,2c1,1.5,1.8,3.1,2.6,4.8c0.4,0.8,0.8,1.5,1.1,2.3c0.7,1.8,1.2,3.6,1.7,5.4c0.2,0.8,0.5,1.5,0.6,2.3
				c3.1,15.9-3.1,32.2-16,42.1s-30.3,11.5-44.8,4.3S34.1,208.5,34.1,192.3z M128,345.9H25.6v-42.7c0-28.3,22.9-51.2,51.2-51.2
				S128,275,128,303.3V345.9z M108.5,242.9c12.3-7.7,21.4-19.7,25.5-33.6c0.8,0,1.6,0.1,2.5,0.1s1.7-0.1,2.5-0.1
				c4.2,13.9,13.2,25.9,25.5,33.6c-11.8,6.2-21.5,15.8-28,27.4C130,258.6,120.3,249.1,108.5,242.9z M247.5,345.9H145.1v-42.7
				c0-28.3,22.9-51.2,51.2-51.2s51.2,22.9,51.2,51.2L247.5,345.9L247.5,345.9z M228,242.9c12.3-7.7,21.4-19.7,25.5-33.6
				c0.8,0,1.6,0.1,2.5,0.1s1.7-0.1,2.5-0.1c4.2,13.9,13.2,25.9,25.5,33.6c-11.8,6.2-21.5,15.8-28,27.4
				C249.5,258.6,239.8,249.1,228,242.9z M366.9,345.9H264.5v-42.7c0-28.3,22.9-51.2,51.2-51.2s51.2,22.9,51.2,51.2L366.9,345.9
				L366.9,345.9z M347.4,242.9c12.3-7.7,21.4-19.7,25.5-33.6c0.8,0,1.6,0.1,2.5,0.1s1.7-0.1,2.5-0.1c4.2,13.9,13.2,25.9,25.5,33.6
				c-11.8,6.2-21.5,15.8-28,27.4C369,258.6,359.2,249.1,347.4,242.9z M486.4,345.9H384v-42.7c0-28.3,22.9-51.2,51.2-51.2
				s51.2,22.9,51.2,51.2L486.4,345.9L486.4,345.9z"/>
		</g>
	</g>
</g>
</svg>
