<?xml version="1.0" encoding="utf-8"?>
<!-- Generator: Adobe Illustrator 22.0.1, SVG Export Plug-In . SVG Version: 6.00 Build 0)  -->
<svg version="1.1" id="Layer_1" xmlns="http://www.w3.org/2000/svg" xmlns:xlink="http://www.w3.org/1999/xlink" x="0px" y="0px"
	 viewBox="0 0 532.9 277.4" style="enable-background:new 0 0 532.9 277.4;" xml:space="preserve">
<style type="text/css">
	.st0{stroke:#FFFFFF;stroke-width:6;stroke-miterlimit:10;}
</style>
<g id="Social_Distancing">
	<g id="Outline">
		<path class="st0" d="M154.4,140.1V43.7c0-18.2-14.8-33-33-33h-62c-18.2,0-33,14.8-33,33v96.4c-25.4,9-29.7,46.6-2.9,46.6h6.2
			l-1.2,70.4c-0.9,4.3,1.9,8.5,6.3,9.4s8.5-1.9,9.4-6.3l1.8-73.6h85.8l1.4,73.6c0.9,4.3,5.1,7.1,9.4,6.3s7.1-5.1,6.3-9.4l-0.8-70.4
			h6.2C181.2,186.7,179.8,149.1,154.4,140.1z M146.4,170.7c-3.1,0-108.6,0-112,0c-4.4,0-8-3.6-8-8s3.6-8,8-8h24c4.4,0,8-3.6,8-8
			s-3.6-8-8-8h-16v-95c0-9.4,7.6-17,17-17h62c9.4,0,17,7.6,17,17v95h-16c-4.4,0-8,3.6-8,8s3.6,8,8,8h24c4.4,0,8,3.6,8,8
			S150.8,170.7,146.4,170.7z"/>
		<circle class="st0" cx="90.4" cy="146.7" r="8"/>
		<path class="st0" d="M330.4,140.1V43.7c0-18.2-14.8-33-33-33h-62c-18.2,0-33,14.8-33,33v96.4c-25.4,9-29.7,46.6-2.9,46.6h6.2
			l-1.2,70.4c-0.9,4.3,1.9,8.5,6.3,9.4s8.5-1.9,9.4-6.3l1.8-73.6h85.8l1.4,73.6c0.9,4.3,5.1,7.1,9.4,6.3s7.1-5.1,6.3-9.4l-0.8-70.4
			h6.2C357.2,186.7,355.8,149.1,330.4,140.1z M322.4,170.7c-4.4,0-110.1,0-112,0c-4.4,0-8-3.6-8-8s3.6-8,8-8h24c4.4,0,8-3.6,8-8
			s-3.6-8-8-8h-16v-95c0-9.4,7.6-17,17-17h62c9.4,0,17,7.6,17,17v95h-16c-4.4,0-8,3.6-8,8s3.6,8,8,8h24c4.4,0,8,3.6,8,8
			S326.8,170.7,322.4,170.7z"/>
		<circle class="st0" cx="266.4" cy="146.7" r="8"/>
		<path class="st0" d="M506.4,140.1V42.7c0-17.7-14.3-32-32-32h-63c-18.2,0-33,14.8-33,33v96.4c-25.4,9-29.7,46.6-2.9,46.6h6.2
			l-1.2,70.4c-0.9,4.3,1.9,8.5,6.3,9.4s8.5-1.9,9.4-6.3l1.8-73.6h85.8l1.4,73.6c0.9,4.3,5.1,7.1,9.4,6.3s7.1-5.1,6.3-9.4l-0.8-70.4
			h6.2C533.2,186.7,531.8,149.1,506.4,140.1z M386.4,170.7c-4.4,0-8-3.6-8-8s3.6-8,8-8h24c4.4,0,8-3.6,8-8s-3.6-8-8-8h-16v-95
			c0-9.4,7.6-17,17-17h63c8.8,0,16,7.2,16,16v96h-16c-4.4,0-8,3.6-8,8s3.6,8,8,8h24c4.4,0,8,3.6,8,8s-3.6,8-8,8H386.4z"/>
		<circle class="st0" cx="442.4" cy="146.7" r="8"/>
	</g>
</g>
</svg>
