<?xml version="1.0" encoding="utf-8"?>
<!-- Generator: Adobe Illustrator 22.0.1, SVG Export Plug-In . SVG Version: 6.00 Build 0)  -->
<svg version="1.1" id="Capa_1" xmlns="http://www.w3.org/2000/svg" xmlns:xlink="http://www.w3.org/1999/xlink" x="0px" y="0px"
	 viewBox="0 0 512 512" style="enable-background:new 0 0 512 512;" xml:space="preserve">
<style type="text/css">
	.st0{stroke:#FFFFFF;stroke-width:16;stroke-miterlimit:10;}
</style>
<g>
	<g>
		<path class="st0" d="M0,4.7v30h36.9c-5.2,8.9-8.2,19.3-8.2,30.4c0,33.3,27.1,60.4,60.4,60.4s60.4-27.1,60.4-60.4
			c0-11.1-3-21.5-8.2-30.4h62.6c-5.2,8.9-8.2,19.3-8.2,30.4c0,33.3,27.1,60.4,60.4,60.4s60.4-27.1,60.4-60.4c0-11.1-3-21.5-8.2-30.4
			h62.6c-5.2,8.9-8.2,19.3-8.2,30.4c0,33.3,27.1,60.4,60.4,60.4s60.4-27.1,60.4-60.4c0-11.1-3-21.5-8.2-30.4H512v-30L0,4.7L0,4.7z
			 M119.4,65.1c0,16.8-13.6,30.4-30.4,30.4S58.7,81.9,58.7,65.1S72.3,34.7,89,34.7S119.4,48.4,119.4,65.1z M286.4,65.1
			c0,16.8-13.6,30.4-30.4,30.4s-30.4-13.6-30.4-30.4s13.6-30.4,30.4-30.4S286.4,48.4,286.4,65.1z M453.3,65.1
			c0,16.8-13.6,30.4-30.4,30.4s-30.4-13.6-30.4-30.4s13.6-30.4,30.4-30.4S453.3,48.4,453.3,65.1z"/>
	</g>
	<g>
		<path class="st0" d="M488.5,183.5h-465v152.9H0v93h65.8v47.8H0v30h512v-30h-65.8v-47.8H512v-93h-23.5V183.5z M343.5,213.5h115
			v122.9h-115V213.5z M198.5,213.5h115v122.9h-115V213.5z M53.5,213.5h115v122.9h-115V213.5z M95.8,429.5h30.3v47.8H95.8V429.5z
			 M355.9,429.5v47.8h-54.7v-47.8H355.9z M271.2,477.3h-30.3v-47.8h30.3V477.3z M210.8,477.3h-54.7v-47.8h54.7V477.3z M416.2,477.3
			h-30.3v-47.8h30.3V477.3z M482,399.5H30v-33h452V399.5z"/>
	</g>
</g>
</svg>
