<?xml version="1.0" encoding="utf-8"?>
<!-- Generator: Adobe Illustrator 25.4.1, SVG Export Plug-In . SVG Version: 6.00 Build 0)  -->
<svg version="1.1" id="Layer_1" xmlns="http://www.w3.org/2000/svg" xmlns:xlink="http://www.w3.org/1999/xlink" x="0px" y="0px"
	 viewBox="0 0 1012.5 487.5" style="enable-background:new 0 0 1012.5 487.5;" xml:space="preserve">
<style type="text/css">
	.st0{fill:#E1E1E1;}
	.st1{fill:#C3C3C3;}
	.st2{fill:#C4C4C4;}
	.st3{fill:#030203;}
	.st4{fill:#010001;}
	.st5{fill:#010101;}
	.st6{fill:#E90000;}
	.st7{fill:#E80001;}
	.st8{fill:#838383;}
	.st9{fill:#FE0203;}
	.st10{fill:#E80103;}
	.st11{fill:#050203;}
	.st12{fill:#FE0104;}
	.st13{fill:#E90103;}
	.st14{fill:#E20506;}
	.st15{fill:#E80102;}
	.st16{fill:#C5C5C5;}
	.st17{fill:#F5F3F3;}
	.st18{fill:#F6F6F6;}
	.st19{fill:#D5D5D5;}
	.st20{fill:#818182;}
	.st21{fill:#E70001;}
	.st22{fill:#030101;}
	.st23{fill:#C2C2C3;}
	.st24{fill:#020101;}
	.st25{fill:#060000;}
	.st26{fill:#FE5657;}
	.st27{fill:#D2020B;}
	.st28{fill:#050103;}
	.st29{fill:#FA5253;}
	.st30{fill:#E6B8C1;}
	.st31{fill:#040101;}
	.st32{fill:#FD585A;}
	.st33{fill:#E20005;}
	.st34{fill:#FB5252;}
	.st35{fill:#F5F5F6;}
	.st36{fill:#E4CDD2;}
	.st37{fill:#961B45;}
	.st38{fill:#867A7E;}
	.st39{fill:#F4F1F1;}
	.st40{fill:#FE0002;}
	.st41{fill:#060204;}
	.st42{fill:#DD0004;}
	.st43{fill:#110609;}
	.st44{fill:#D60410;}
	.st45{fill:#3D0000;}
	.st46{fill:#C20008;}
	.st47{fill:#DBBEBF;}
	.st48{fill:#F0F0F0;}
	.st49{fill:#1B1A1E;}
	.st50{fill:#EB8A9C;}
	.st51{fill:#767676;}
	.st52{fill:#878485;}
	.st53{fill:#E20007;}
	.st54{fill:#FE0913;}
	.st55{fill:#F1F1F1;}
	.st56{fill:#FE0000;}
	.st57{fill:#979797;}
	.st58{fill:#89737B;}
	.st59{fill:#848484;}
	.st60{fill:#85777C;}
	.st61{fill:#C00515;}
	.st62{fill:#A8939A;}
	.st63{fill:#260506;}
	.st64{fill:#FBECF1;}
	.st65{fill:#FE0514;}
	.st66{fill:#876471;}
	.st67{fill:#FEFEFE;}
	.st68{fill:#000001;}
	.st69{fill:#E90102;}
	.st70{fill:#C6C6C6;}
	.st71{fill:#F85858;}
	.st72{fill:#1D161A;}
	.st73{fill:#FA5F60;}
	.st74{fill:#44272B;}
	.st75{fill:#FDFCFC;}
	.st76{fill:#909090;}
	.st77{fill:#0B0507;}
	.st78{fill:#949494;}
	.st79{fill:#8A8A8A;}
	.st80{fill:#C40106;}
	.st81{fill:#F0F0F1;}
	.st82{fill:#2C0709;}
	.st83{fill:#A4A4A4;}
	.st84{fill:#EB0208;}
	.st85{fill:#FDDCE7;}
	.st86{fill:#A80015;}
	.st87{fill:#895C6D;}
	.st88{fill:#E8C7D3;}
	.st89{fill:#E64649;}
	.st90{fill:#240507;}
	.st91{fill:#260304;}
	.st92{fill:#C7BEBE;}
	.st93{fill:#887078;}
	.st94{fill:#9A9A9A;}
	.st95{fill:#929292;}
	.st96{fill:#707070;}
	.st97{fill:#887077;}
	.st98{opacity:0.29;}
	.st99{fill:#D0D0D0;}
	.st100{fill:#333333;}
	.st101{fill:#464646;}
	.st102{fill:#C2C2C2;}
	.st103{fill:#454545;}
	.st104{fill:#DFDFDF;}
	.st105{fill:#C1C1C1;}
	.st106{fill:#D9D9D9;}
	.st107{fill:#CBCBCB;}
	.st108{fill:#D6D6D6;}
	.st109{fill:#DBDBDB;}
	.st110{fill:#C7C7C7;}
	.st111{fill:#EBEBEB;}
	.st112{fill:#DEDEDE;}
	.st113{fill:#313131;}
	.st114{fill:#BDBDBD;}
	.st115{fill:#B5B5B5;}
	.st116{fill:#B9B9B9;}
	.st117{fill:#B3B3B3;}
	.st118{fill:#B6B6B6;}
	.st119{fill:#AAAAAA;}
	.st120{fill:#A3A3A3;}
	.st121{fill:#BBBBBB;}
	.st122{fill:#ACACAC;}
	.st123{fill:#FAFAFA;}
	.st124{fill:#2E2E2E;}
	.st125{fill:#303030;}
	.st126{fill:#3F3F3F;}
	.st127{fill:#C8C8C8;}
	.st128{fill:#404040;}
	.st129{fill:#4D4D4D;}
	.st130{fill:#363636;}
	.st131{fill:#373737;}
	.st132{fill:#020202;}
	.st133{fill:#070707;}
	.st134{fill:#050505;}
	.st135{fill:#9E9E9E;}
	.st136{fill:#474747;}
	.st137{fill:#444444;}
	.st138{fill:#424242;}
	.st139{fill:#FCFCFC;}
	.st140{fill:#4A4A4A;}
	.st141{fill:#4B4B4B;}
</style>
<g id="Layer_1_00000041995092073823265760000001790955889470338950_">
	<g>
		<path class="st0" d="M367.3,293c0.3-0.5,0.2-0.9-0.1-1.3c-3.7-4.6-2.9-9.7-1.7-14.9c0.9-3.7,2.4-7.3,4.3-10.6
			c1.4-2.6,3.2-4.8,6.1-5.9c1.3-0.5,2.5,0.2,3.7-0.2c5.6,4.1,7.8,10.1,9.1,15.4c-0.2-1.6-0.3-4.3,0-7.1c0.6-0.6,0.4-1.4,0.4-2.1
			c0-27.2,0-54.4,0-81.6c0-2.4-0.6-2.7-3-2.5c-4.1,0.3-8.1,0.4-12.2,1.3c-9,2.2-16.7,6.4-22.9,13.3c-3,3.3-5.2,7-6.7,11.1
			c-0.2,0.5-0.2,1.5-0.9,1.2c-0.7-0.2-0.3-1-0.1-1.5c1.3-4.1,3.5-7.7,6.3-10.9c7.2-8.4,16.5-13,27.2-15c3.7-0.7,7.4-1,11.2-0.6
			c0.9,0.1,1.3-0.2,1.2-1.1c0-0.8,0-1.6,0-2.4c0.1-2.8,1.5-4,4.2-4c3.2,0,6.4-0.1,9.5,0c1.9,0.1,2.7-0.3,2.6-2.5
			c-0.2-3.8-0.1-7.7-0.1-11.5c0-2.8,0.4-3.1,3-3.1c2,0,4.1,0,6.1,0c1.3,0.6,1.4,1.8,1.4,3c0,3.6,0,7.1,0,10.7c0,2.5,1.3,3.3,3.7,2.6
			c1.2-0.3,1-1.3,1-2.1c0-3.4,0-6.8,0-10.1c0-0.9-0.1-1.9,0.6-2.6c0.6,0.7,0.3,1.5,0.3,2.3c0,3.7,0,7.5,0,11.2
			c0,1.1,0.2,1.8,1.5,1.6c1.1-0.2,2.2,0.3,3.3,0.4c1.9,0.4,2.5,1.8,2.6,3.5c0,0.8,0,1.6,0,2.4c0,42.2,0,84.4,0,126.6
			c0,5.6-0.4,5.9-6,5.9c-9.5,0-19.1-0.1-28.6,0c-4.9,0.1-9.8,0.2-14.7,0.1c-0.6,0-1.3,0.3-1.9-0.3c0.5-1.1,1.6-0.8,2.4-0.9
			c2.5-0.1,5-0.1,7.5,0c1.1,0,1.4-0.3,1-1.4c-0.5-1.2-0.4-2.5-0.4-3.7c0-4.2-0.1-8.3,0-12.5c0.1-1.4-0.2-2.9,0.4-4.3
			c-1.5,3.5-3.9,5.9-7.3,6.7c-0.8,0-0.4,0.4-0.5,0.2c0-0.1,0-0.1,0.1-0.1c0.5-0.1,1-0.4,1.1,0.5c-1.4,0.9-2.9,0.7-4.3,0.2
			c-0.6-0.6-0.4-1.4-0.4-2.1c0-3.4,0.1-6.9,0-10.3c-0.1-1.9,0.2-3.5,1.9-4.6c0.6-0.4,1.1-1.1,1.7-1.7c-0.5,0.4-0.8,0.9-1.3,1.3
			c-0.6,0.5-1,1.6-1.8,1.1c-0.7-0.3-0.3-1.3-0.4-1.7c-0.2,9.7,0.2,19.9,0.1,30c0,0.9,0.2,1.9-0.3,2.7c-0.2,0.2-0.4,0.2-0.6,0.1
			c0-4.5,0-8.9,0-13.4c0-0.6,0.3-1.3-0.4-1.6c-1.7-0.6-3.5-1.1-5.2-1.5c-0.1,0-0.2,0.4-0.4,0.6C369.8,294.8,368.8,293.6,367.3,293z"
			/>
		<path class="st0" d="M558.1,262.1c0-5,0-9.9,0-14.9c0-3.4,1.3-4.6,4.6-4.6c1.5,0,3.1-0.1,4.6,0c1.8,0.2,2.5-0.3,2.4-2.3
			c-0.2-1.8-0.1-3.6,0-5.4c0-1.6,0.7-2.4,2.4-2.4c2.2,0.1,4.5,0,6.7,0c1.1,0.5,1.3,1.5,1.4,2.6c0,1.6,0,3.3,0,4.9
			c0,1.8,1.2,1.8,2.4,1.8c1.3,0,2.4-0.1,2.3-1.8c0-1.3,0-2.6,0-4c0-0.7,0-1.5,0.6-2c0.8,2.1,0.3,4.3,0.3,6.4c0,1.4,0.3,2,1.9,2
			c5.2-0.1,10.4,0.2,15.6-0.1c3.5-0.2,7-0.2,10.5-0.3c1.8,0,3.7-0.1,5.5,0.4c1.9,0.4,2.5,1.8,2.6,3.5c0,0.6,0,1.2,0,1.8
			c0,16.8,0,33.7,0,50.5c0,1,0.1,2-0.2,3c-1.7,1.3-1.4-0.7-1.9-1.2c-0.3-1.9-1-3.8-0.8-5.8c0-0.5-0.1-0.9-0.3-1.3
			c-0.2-0.5-0.3-1.2-1.1-1.2c-0.6,0-0.8,0.6-1,1.1c-0.1,0.3-0.2,0.6-0.3,0.9c-0.4,1.1-1.1,1.4-2.1,0.9c-0.3-0.1-0.5-0.3-0.7-0.5
			c-0.3-0.4-0.6-0.9-0.6-1.4c0,0.2,0.1,0.5,0.1,0.7c0,1.1,0.8,1.7,1.6,2.2c1.4,0.8,2.3,1.8,2,3.5c-2.2,3.5-3.2,7.4-3.4,11.4
			c-0.6,0.7-1.3,1.4-2.3,1.5c-15.8,0.1-31.6,0-47.4,0c-3.4,0-6.9,0.3-10.3,0.2c-0.6,0-1.3,0.3-1.8-0.3c0.4-0.9,1.3-0.8,2.1-0.8
			c1.6,0,3.3-0.2,4.7,0.2c-1.3-4.8-0.4-9.8-0.6-14.8c0-0.7,0.2-1.6-1-1c-0.6,0.3-1.4,0.3-2,0.5c0.4,0.2,1.4-0.5,1.2,0.7
			c-1.4,0.7-2.8,0.7-4.3,0.1c-0.6-0.6-0.4-1.4-0.4-2.1c0-3.7,0.1-7.4,0-11.1c0-1.4,0.3-2.5,1.5-3.4c0.9-0.7,1.7-1.6,2.5-2.4
			c-0.8,0.7-1.5,1.5-2.3,2.2c-0.3,0.3-0.7,0.8-1.1,0.7c-0.6-0.2-0.5-0.8-0.5-1.4c0-0.2,0-0.5,0-0.7c-0.2,10.1,0.2,20.2,0.1,30.3
			c0,0.9,0.2,1.9-0.4,2.7c-0.2,0.2-0.4,0.3-0.6,0.2c-0.7-0.7-0.5-1.6-0.5-2.4c0-3.4,0-6.7,0-10.1c0-1.5-0.6-2.2-2.1-2.6
			c-4.6-1.1-7.8-3.9-9.6-8.4c-0.2-0.7-0.8-1.2-0.6-2c0.9-2.2,0.2-4.5,0.7-6.8c1.2-5.6,3.1-10.8,6.3-15.5c2-2.9,4.8-4.5,8.5-3.9
			c1.9,1.5,3.7,3,4.7,5.3C557.7,264.3,557.2,263.1,558.1,262.1z"/>
		<path class="st1" d="M376.8,311.8c0.1,0,0.3,0,0.4,0c0.2-0.2,0.4-0.3,0.7-0.2c0.1,0,0.1,0.1,0.2,0.1c0.2,0.3,0.5,0.4,0.8,0.4
			c4.3-0.2,8.6,0.4,12.9-0.3c0.6-0.1,1.2,0,1.8,0c10.4,0,20.8,0,31.2,0c3,0,3.7-0.7,3.7-3.8c0-43.4,0-86.7,0-130.1
			c0-1.8-0.5-3.2-2-4.2c5.9,0,11.8,0,17.8,0c2.4,0,3.2,0.8,3.7,3.2c0.3,0.7,0.1,1.4,0.2,2.2c0.1,7.9,0.2,15.9,0.1,23.8
			c-0.2,20.6,0,41.2,0,61.8c0,2.6-0.3,4.9-1.3,7.3c-1.2,2.9-2,5.9-2.5,9c-0.6,4,0.1,7.7,2.8,10.8c1,1.1,1.4,2.3,1.3,3.8
			c-0.1,4.4,0,8.8,0,13.1c0,1.1-0.3,2-1.3,2.6c2.6-0.1,5.3-0.1,8,0c0.2,0,0.4,0,0.6,0.1c0.4,0.1,0.8,0.3,1.3,0.4c2.6,0,5.3,0,7.9,0
			c0.8,0,1.5-0.1,2-0.9c1.1,0.8,2.2,0.7,3.4,0.5c0.3,0,0.5,0.1,0.8,0.1c0.5,0.1,0.9,0.1,1.4,0.2c0.3,0.1,0.5,0.3,0.4,0.7
			c-5.7,0-11.4,0.1-17.1,0.1c-27.3,0-54.6,0-81.9,0c-0.6,0-0.7-0.3-0.4-0.8C374.7,311.8,375.8,311.8,376.8,311.8z"/>
		<path class="st2" d="M550.1,311.8c0.1,0,0.3,0,0.4,0c0.2-0.2,0.4-0.3,0.7-0.2c0.1,0,0.1,0.1,0.2,0.1c2.6,0.9,5.3,0.4,8,0.3
			c0.9,0,1.8-0.2,2.7-0.2c16.4,0,32.8,0,49.3,0c1-0.4,2.2-0.1,3.2-0.6c1.1,0.1,2.2,0,3.3,0.1c1.5,0.1,2.5-0.4,3.1-1.8
			c0.8-0.5,1.2,0.2,1.8,0.5c0.4,0.6-0.2,0.9-0.4,1.4c0.7-0.6,0.7-0.6,0.6-1.6c-0.4-1.9-1.1-3.7-1.7-5.6c-0.2-0.7-0.7-1.5-0.1-2.2
			c0-18.7,0-37.3,0.1-56c0-1.6-0.9-2.6-2-3.4c6,0,11.9,0,17.9,0c2.5,0,3.6,1.2,3.6,3.7c0,20.9,0,41.7,0,62.6c0,1-0.3,1.8-1,3
			c6.6,0,12.9,0,19.2,0c0.1-0.1,0.2-0.2,0.4-0.2c0.3,0,0.6,0.2,0.8,0.2c3.2,0,6.4,0,9.5,0c1.2-0.9,2.6-0.4,3.8-0.5
			c0.9-0.1,1.7,0,2.6-0.1c0.1,0,0.2,0,0.3-0.1c0.1,0,0.2,0,0.3,0s0.2,0,0.3,0c1.4,0.2,2.8,0.1,4.3,0.1c0.8,0,1.6,0,2.2,0.6
			c2.4,0,4.8,0,7.2,0c1.2-0.9,2.7-0.4,4-0.5c0.8-0.1,1.6,0,2.4-0.1c0.1,0,0.2,0,0.3-0.1c0.1,0,0.2,0,0.3,0s0.2,0,0.3,0
			c1.3,0.2,2.6,0.1,3.9,0.1c0.8,0,1.6,0,2.2,0.5c6.2,0,12.5,0,18.7,0c0,0.2,0,0.4,0,0.6c-0.7,0.4-1.4,0.2-2.1,0.2
			c-37.5,0-75.1,0-112.6,0c-43.6,0-87.1,0-130.7,0c-0.8,0-1.6-0.1-2.4-0.1c-0.3-0.4-0.7-0.8-0.9-1.3c-0.1-0.3,0-0.6,0.1-0.8
			c0.5-0.6,0.7-1.4,0.8-2.1c0.1-0.5,0-1.2,0.9-1.3c0,1.2,0.1,2.4,0,3.6c-0.1,0.9,0,1.3,1,1.3c2.2-0.1,4.5-0.1,6.7,0
			c1,0,1.4-0.3,1.4-1.4c-0.1-1.4,0-2.8,0-4.2c1.1-0.1,0.8,0.8,0.9,1.3c0.1,0.8,0.1,1.7,0.1,2.5s0.2,1.3,1.1,1.1c6-0.1,12,0,18-0.1
			c3,0,3,0,3.1-2.9c0-0.6,0-1.2,0.3-1.7c0.8-0.9,1,0,1.1,0.5c0.3,0.9,0.1,1.9,0.2,2.9c0,0.7-0.2,1.5,0.6,1.9c3.5,0,7,0,10.5,0.1
			c1.4,0,1.8-0.4,1.8-1.8c-0.1-7.2,0-14.4,0-21.7c1.4,0.2,0.8,1.3,0.8,2c0.1,6.4,0,12.7,0,19.1c0,0.8-0.2,1.6,0.4,2.3
			c2.1,0,4.2,0,6.3,0c2.1-0.5,4.2,0.2,6.3-0.5c3.8-0.3,7.6-0.1,11.4-0.1C549,311.2,549.6,311.3,550.1,311.8z"/>
		<path class="st0" d="M456.3,311.8c-0.1,0-0.2,0-0.4,0c-0.7-0.8-0.6-1.7-0.6-2.6c0-3.2,0-6.5,0-9.7c0-1.5-0.5-2.4-2-2.7
			c-1-0.2-2-0.6-3-1.1c-1-0.6-1.4-0.2-1.4,0.9c0,3.4,0.1,6.7,0,10.1c0,0.8,0.3,1.9-0.9,2.3c0-4.6,0-9.3,0-13.9
			c0-0.9-0.2-1.7-0.9-2.5c-3.6-3.9-4.1-8.5-3-13.5c0.8-3.5,1.8-6.9,3.4-10.1c0.5-0.9,0.5-1.9,0.5-2.9c0-28.9,0-57.8,0-86.7
			c0-0.9,0-1.7,0-2.6c0.6,0.6,0.3,1.4,0.3,2.1c0,7.2,0,14.3,0,21.5c0,1.2,0.3,1.9,1.5,2.5c18.3,9.2,37.4,15.8,57.5,19.7
			c7,1.4,14.1,2.4,21.3,2.9c5.3,0.4,10.7,0.8,16,0.7c4.1,0,8.2,0.2,12.2,0c15.6-0.8,30.8-3.7,44.6-11.4c8.4-4.7,15.5-11,21.4-18.5
			c9.4-11.8,15-25.4,18.6-39.9c0.2-0.7,0.2-2,0.9-1.9c1.3,0.3,0.4,1.4,0.2,2.1c-2.9,12.2-7.5,23.7-14.3,34.2
			c-8.3,12.7-19.2,22.5-33.4,28.5c-8.4,3.5-17.1,5.7-26.1,6.9c-5.8,0.8-11.7,1.1-17.5,1.2c-4.9,0.1-9.9,0.1-14.8-0.2
			c-8.6-0.4-17.2-1.4-25.7-2.9c-11.7-2.1-23.2-5-34.4-8.9c-9.1-3.1-17.9-6.9-26.4-11.3c-1.1-0.6-1.7-0.8-1.7,0.9
			c0,20.4,0,40.8,0,61.8c2.6-4.1,5.2-7.5,10.4-6.8c6.2,4.7,8.3,11.6,10.1,18.7c0.9,3.5,1,6.9-0.5,10.3c-1.5,3.2-3.6,5.7-7,6.8
			c-0.1,0-0.1,0,0.2,0.4c-1.4,0.8-2.9,0.2-4.4,0.4c-0.6-0.6-0.4-1.4-0.4-2.1c0-3.6,0.1-7.2,0-10.7c0-1.6,0.3-2.8,1.6-3.8
			c0.8-0.6,1.4-1.3,2.1-2.1c-0.5,0.6-1,1.1-1.6,1.6c-0.5,0.4-0.8,1.3-1.6,1c-0.7-0.3-0.4-1.2-0.5-1.7c0,10,0,20.2,0,30.3
			C456.7,310.1,457,311.1,456.3,311.8z"/>
		<path class="st0" d="M659.4,311.8c-0.1,0-0.2,0-0.4,0c0-4.4-0.1-8.7,0-13.1c0-1.5-0.5-2.1-1.9-2.4c-7.5-1.5-11.7-8.1-10.3-15.6
			c1-5.1,2.6-9.8,5-14.3c1.1-2,2.6-3.7,4.3-5.2c1.6-1.4,3.7-1,5.7-1.1c6.2,4.7,8.3,11.6,10.1,18.7c0.9,3.5,1,6.9-0.5,10.3
			c-1.5,3.2-3.6,5.7-7,6.8c-0.1,0-0.1,0,0.2,0.4c-1.4,0.8-2.9,0.2-4.4,0.4c-0.6-0.6-0.4-1.4-0.4-2.1c0-3.6,0.1-7.2,0-10.7
			c0-1.6,0.3-2.8,1.6-3.8c0.8-0.6,1.4-1.3,2.1-2.1c-0.5,0.6-1,1.1-1.6,1.6c-0.5,0.4-0.8,1.3-1.6,1c-0.7-0.3-0.4-1.2-0.5-1.6
			c0,10,0,20.1,0,30.3C659.8,310.1,660.1,311.1,659.4,311.8z"/>
		<path class="st0" d="M618.9,180.8c-7.4,0-13-5.6-13.1-12.9c-0.1-7.9,6.1-13.3,12.9-13.2c7.9,0,13.2,5.5,13.2,13.1
			C632,175.8,625.4,181.1,618.9,180.8z"/>
		<path class="st3" d="M510.8,311.8c-1,0.6-1.2,0.2-1.3-0.8c-0.1-1.6,0.5-3.2-0.3-4.7c-0.9,0.7-1.9,0.5-2.9,0.5
			c-5.3,0-10.6,0-15.8,0c-2.8,0-2.8,0-2.9,2.7c0,0.8,0,1.6-0.6,2.2c-1,0.6-1.2,0.2-1.3-0.8c-0.1-1.6,0.5-3.2-0.3-4.7
			c-0.7,0-1.3-0.1-2-0.1s-1.6,0.1-1.6-1s1-0.9,1.7-0.9c0.5,0,1.1,0,1.6,0s0.7-0.1,0.8-0.7c0-0.5-0.2-0.7-0.7-0.7c-0.8,0-1.6,0-2.4,0
			c-0.4,0-0.9,0.1-0.9-0.5c0-0.5,0.5-0.6,0.9-0.6c0.7,0,1.5,0,2.2,0c0.5,0,0.9,0,0.9-0.7s-0.5-0.6-1-0.6c-0.8,0-1.6,0-2.4,0
			c-0.2,0-0.5,0-0.6-0.3c-0.1-0.4,0.2-0.6,0.5-0.7c0.9-0.1,1.7-0.1,2.6-0.1c0.5,0,0.9-0.1,0.8-0.8c0-0.6-0.4-0.6-0.8-0.6
			c-0.8,0-1.6,0-2.4,0c-0.3,0-0.7,0.1-0.8-0.4c-0.1-0.5,0.4-0.6,0.8-0.6s0.8,0,1.2,0c9.7,0,19.3,0,29,0c0.7,0,1.5-0.3,2,0.6
			c-1,0.9-2.1,0.3-3.2,0.5c-0.4,0.1-1-0.1-1,0.6s0.5,0.7,0.9,0.7c1.1,0.1,2.2-0.4,3.3,0.5c-1,1-2.2,0.3-3.2,0.5
			c-0.4,0.1-1-0.1-1,0.6s0.5,0.7,0.9,0.7c1.1,0.1,2.2-0.4,3.3,0.5c-1,1-2.2,0.3-3.2,0.5c-0.4,0.1-1-0.1-1,0.6s0.5,0.7,0.9,0.7
			c0.7,0,1.5,0,2.2,0.1c0.5,0.1,1.1,0.3,1,1c-0.1,0.5-0.5,0.7-1,0.8c-1,0.1-2.4-0.5-2.8,0.3c-0.5,1-0.2,2.3-0.2,3.5
			C510.8,310.6,510.8,311.2,510.8,311.8z"/>
		<path d="M524.3,311.8c-1.3,0.5-0.8-0.6-0.8-1.1c0-2.6,0-5.3,0-7.9c0-4.2,0-8.5,0-12.7c0-0.6,0.4-1.3-0.4-1.8c-0.3,0-0.7-0.1-1-0.1
			c-4.1,0-3.8,0.4-3.8-3.9c0-1.4,0-2.8,0-4.2c0-2.8,0-2.8,2.7-2.8c1.2,0,2.5,0.3,2.9-1.8c0.1,2.3,1.6,1.7,2.7,1.8
			c2.7,0,2.7,0,2.7,2.6c0,2,0,4,0,6c0.1,1.6-0.4,2.4-2.3,2.3c-2.7-0.1-2.7,0-2.7,2.8C524.3,298,524.3,304.9,524.3,311.8z"/>
		<path class="st1" d="M664.6,296.3c-0.5,0-1,0-1.6-0.1c2.7-1,5-2.6,6.6-5c2.3-3.3,3-7.1,2.1-11.1c-1.3-6.1-3.2-11.9-7.1-17
			c-0.6-0.8-1.4-1.4-2.2-2c-0.4-0.3-1.1-0.4-0.6-1.1c2.7-0.1,4.7,1.3,6.2,3.3c4.3,5.8,6.5,12.5,7.2,19.6
			C675.8,289.4,671.1,295.1,664.6,296.3z"/>
		<path class="st1" d="M461.5,296.3c-0.5,0-1,0-1.6-0.1c2.7-1,5-2.6,6.6-5c2.3-3.3,3-7.1,2.1-11.1c-1.3-6.1-3.2-11.9-7.1-17
			c-0.6-0.8-1.4-1.4-2.2-2c-0.4-0.3-1.1-0.4-0.6-1.1c2.7-0.1,4.7,1.3,6.2,3.3c4.3,5.8,6.5,12.5,7.2,19.6
			C472.8,289.4,468,295.1,461.5,296.3z"/>
		<path class="st0" d="M349.8,326.1c-3.3,0.2-6.6-0.1-9.9-1.2c-0.7-0.2-1.7-0.4-1.6-1.5c0.1-0.8,0.8-1.1,1.5-1.3
			c4.4-1.3,8.8-1.8,13.4-1.3c2.1,0.3,4.3,0.2,6.4,1c0.9,0.3,2.3,0.5,2.2,1.6c-0.1,1.1-1.3,1.4-2.3,1.7
			C356.5,326,353.2,326.3,349.8,326.1z"/>
		<path class="st1" d="M421.4,158.1c0,4.6-0.1,9.1,0,13.7c0,1.5-0.4,1.9-1.9,1.9c-4.1,0-4.1,0-4.1-4.1c0-3.5,0-7,0-10.5
			c0-1-0.2-1.8-0.8-2.6c1.6,0,3.1,0,4.7,0C420.4,156.5,421.2,157,421.4,158.1z"/>
		<path d="M370.5,316.2c0,3.6-0.1,7.1-0.1,10.7c0,0.7-0.4,0.9-1,0.9c-0.9,0-1.7,0-2.6,0c-0.4-0.3-0.5-0.8-0.2-1
			c1.9-1.4,0.9-3.2,0.7-4.8c0-0.3-0.1-0.5-0.1-0.7c-0.5,2.1-0.3,4.4-1.2,6.6c-0.7,0-1.3,0-2,0c-0.5,0-1.2,0.3-1.3-0.4
			c-0.1-0.6,0.4-1.1,1.1-1.1c1,0,0.8-0.6,0.7-1.1c-0.7-3.8-0.9-7.7-0.8-11.5c0.2-0.4,0.1-0.8,0-1.2c0-0.2,0.1-0.3,0.2-0.5
			c0.1-0.1,0.1-0.2,0-0.4c0.1-1.1,0.9-0.6,1.5-0.6c1.4-0.2,2.9,0.6,4.3-0.2c0.1-0.4,0.1-0.7,0.1-1.1c0-0.2,0-0.4,0.1-0.6
			c0.1-0.3,0.2-0.6,0.4-0.8c0.2-0.1,0.4,0,0.5,0.2c0.4,1.4-0.3,2.9,0.4,4.2c0.2,0.4,0.2,0.8,0.1,1.2
			C371.1,314.5,371.1,315.4,370.5,316.2z"/>
		<path class="st4" d="M334.2,318.2c-0.4-1.9,0.4-3.7,0-5.6c-0.1-0.1-0.1-0.3-0.2-0.4c0-0.2,0.1-0.3,0.2-0.4
			c0.4-2.1,0.5-4.1,0.5-6.2c0.6-0.6,1.5,0.4,2-0.4c0.3-0.4,0.3-1,0.6-1.4c0.5-0.4,1-0.8,1.7-0.8c0.1,0.1,0.3,0.3,0.3,0.4
			c0.2,0.5,0.2,1,0.4,1.5c0.1,0.9,1.1,0.5,1.5,1c0.2,0.3,0.3,0.7,0.4,1.1c0.4,1.5,0.3,3,0.4,4.4c0.1,0.2,0.1,0.4,0.1,0.6
			s-0.1,0.4-0.2,0.6c0,2.4-0.2,4.8,1.3,6.9c-0.3,0.4-0.7,0.2-1.1,0.2c-1.2,0.1-2,0.2-2-1.6c0-1.7-0.8-3.4-1.2-5.1
			c-1.1-0.8-0.9-2-1-2.9c-0.2,0.8-0.1,2-0.9,2.9c-0.9,1.6-0.6,3.6-1.5,5.2C335.2,318.6,334.7,318.5,334.2,318.2z"/>
		<path class="st5" d="M536.6,311.8c-2,0.6-4,0.6-5.9,0c0.3-0.8,0-1.6,0-2.4c-0.1-4,0.2-7.9,1.1-11.8c1.4-1.2,3.4-0.7,4.9-1.5
			c0.2,0,0.4,0.1,0.5,0.2c0.3,1.1,1.9,2.2,0,3.3c-0.2,0.1-0.6-0.6-0.6,0.1c0,0.6,0,1.3,0.1,1.9c0,1.8,0.1,3.6-0.3,5.3
			C535.9,308.7,535.8,310.2,536.6,311.8z"/>
		<path class="st0" d="M690.8,311.4c0.5-5.9,6.8-8.6,11.1-5.1c1.7,1.3,2.5,3,2.3,5.2c-2.1,0.3-4.2,0.3-6.3,0h-0.2
			c-0.2-0.8-0.3-1.6-0.2-2.3c-0.5,0.7,0.3,1.5-0.1,2.3h-0.2C695.3,311.7,693,311.7,690.8,311.4z"/>
		<path class="st0" d="M670.1,310.2c0.6-3.8,4.1-5.6,6.7-5.5c2.7,0.1,5.9,1.8,6.5,5.5c0.4,0.9,0.2,1.4-0.9,1.4
			c-1.8-0.1-3.6,0.2-5.4-0.2h-0.2c-0.2-0.6-0.2-1.2-0.2-1.8c0-0.1,0.1-0.2,0-0.2c-0.2-0.2-0.1,0.1-0.1,0.1c-1,0.4,0.6,0.5,0.1,0.8
			c0,0.4,0.1,0.7-0.1,1.1h-0.2c-1.8,0.4-3.6,0.1-5.4,0.2C669.9,311.6,669.8,311.1,670.1,310.2z"/>
		<path class="st0" d="M318.8,310.2c0.6-3.8,4.1-5.6,6.7-5.5c2.7,0.1,5.9,1.8,6.5,5.5c0.5,1.2-0.1,1.6-1.2,1.7c-1.5,0.1-3,0.1-4.5,0
			c-0.2,0-0.4-0.1-0.6-0.2c-0.4-0.6-0.3-1.4-0.3-2.1c0-0.2,0.1-0.2-0.1-0.3c0,0.3,0-0.1,0,0.2c-0.5,0.4,0.1,0.6,0.1,0.9
			c0,0.4,0.1,0.8-0.2,1.2c-0.2,0.1-0.4,0.2-0.6,0.3c-1.5,0.2-3,0.1-4.5,0.1C319.1,311.8,318.3,311.5,318.8,310.2z"/>
		<path class="st0" d="M341.8,311.8c-0.7-1.5-0.1-3.3-0.7-4.8c0.3-0.9,1-1.4,1.9-1.6c1.9-0.5,3.8-1,5.7-0.2c2.6,1,4.1,3.2,4.2,6.3
			c-1.9,1-3.8,0.4-5.8,0.4c-0.2-0.1-0.4-0.1-0.6-0.3c-0.1-0.2-0.2-0.3-0.2-0.5c-0.1-0.8-0.2-1.5,0-2.3c-0.4,0.8,0,1.7-0.1,2.5
			c-0.1,0.2-0.2,0.3-0.4,0.4c-1.3,0.4-2.6,0.2-3.9,0.2C342,311.9,341.9,311.8,341.8,311.8z"/>
		<path class="st6" d="M469.1,293.4c0.7-1.4,1.9-2.3,3.1-3.2c2.2-1.7,5.3-0.4,6.4,2.1c1.4,3.1,0.3,5.2-2,7.1
			c-0.2,0.2-0.5,0.3-0.8,0.2c-0.3-0.1-0.5-0.3-0.6-0.5c-0.1-0.6-0.7-1-0.9-1.6c0-0.3,0-0.6,0-0.8c0.1,0.8-0.2,1.4-1.1,1.7
			c-0.6,0.2-1.3,0.3-2,0.3c-0.2,0-0.3-0.1-0.5-0.3c-0.2-0.5,0-0.9,0-1.4c0-1,0.5-1.9,0.2-2.8C470.6,293.7,469.6,294.2,469.1,293.4z"
			/>
		<path class="st1" d="M585.5,234.2c0,2.3-0.1,4.6,0,6.9c0,1.1-0.4,1.4-1.5,1.5c-4.5,0.2-4.4,0.2-4.5-4.2c0-1.9,0.7-4-0.7-5.7
			c1.6,0,3.1,0,4.7,0C584.6,232.5,585.3,233,585.5,234.2z"/>
		<path class="st5" d="M474.6,297.9c0.9-0.1,1.3,0.2,0.8,1.1c0,0.4,0.1,0.5,0.5,0.5c0.3,0,0.5-0.1,0.8-0.1c-0.2,2.5-0.3,5-0.5,7.6
			c-0.4,0.6-0.3,1.4-0.4,2c-0.1,0.8-0.1,1.6-1.2,1.6c-1.3,0.3-1.2-0.7-1.3-1.4c-0.1-1.8-0.1-3.5,0-5.3c-0.2,0.6-0.4,1.2-1,1.6
			c-1,0.3-1.9,0.1-2.5-0.9c0-0.4,0-0.8,0-1.2c0.4-1.3,0.2-2.7,0.7-4c0.1-0.3,0.2-0.6,0.5-0.7c0.6-0.6,1.3-0.3,2-0.5
			C473.5,298,474.1,298.1,474.6,297.9z"/>
		<path class="st2" d="M388.8,268.4c0.8,2.9,0.2,5.8,0.3,8.8c-1.2-3.8-2.5-7.5-4.5-10.8c-1.2-2-2.4-4-4.4-5.2
			c-0.4-0.2-0.9-0.4-0.4-1c2.5-0.2,4.4,1.2,5.9,3C386.8,264.7,388,266.4,388.8,268.4z"/>
		<path class="st7" d="M365.1,301.5c0.9-1.6,2.4-1.7,3.9-1.5c1,0.1,2.2,0.3,2.1,1.8c0.4,1.3,0.1,2.7-0.1,4c-0.1,0.8,0.2,1.6-0.4,2.3
			h-0.1c-2.2,0.9-4.5,1-6.7,0c-0.3-0.8,0.8-1.6,0-2.4c-0.2-0.5,0.2-0.7,0.5-0.9c0.3-0.2,0.6-0.3,0.9-0.3c1.1-0.3,1.7-1.1,1.7-2.1
			C366.9,301.3,365.5,302.1,365.1,301.5z"/>
		<path class="st8" d="M659.4,311.8c0-11.8,0.1-23.6,0.1-35.4c0,0,0.1-0.1,0.2-0.2c1,1.3,0.1,2.8,0.7,4.5c1.6-1.5,3-3,4.4-4.4
			c0,1.3-0.9,2.1-1.7,2.7c-2.5,1.8-3.2,4.2-3,7.2c0.3,3.5,0.1,7,0.1,10.5c0,5,0,10.1,0,15.1C659.9,312.2,659.6,312.2,659.4,311.8z"
			/>
		<path class="st8" d="M456.3,311.8c0-11.8,0-23.7,0-35.5c1.3,1.2,0.5,2.7,1,4.4c1.6-1.5,3-3,4.4-4.4c0,1.3-0.9,2.1-1.7,2.7
			c-2.5,1.8-3.2,4.2-3,7.2c0.3,3.5,0.1,7,0.1,10.5c0,5,0,10.1,0,15.1C456.8,312.2,456.5,312.2,456.3,311.8z"/>
		<path class="st1" d="M634.8,326.3c-12.4,0-24.8,0-37.2,0c0-0.1,0-0.3,0-0.4c12.4,0,24.8,0,37.1,0
			C634.8,326.1,634.8,326.2,634.8,326.3z"/>
		<path class="st1" d="M543,326.4c-12.4,0-24.8,0-37.2,0c0-0.1,0-0.3,0-0.4c12.4,0,24.8,0,37.1,0C543,326.2,543,326.3,543,326.4z"/>
		<path class="st1" d="M451.2,326.4c-12.4,0-24.8,0-37.2,0c0-0.1,0-0.3,0-0.4c12.4,0,24.8,0,37.1,0
			C451.2,326.2,451.2,326.3,451.2,326.4z"/>
		<path class="st9" d="M382,329.4c0.7,0.9,0.6,2.2,1.7,3c0.7,0.5,0.2,0.9-0.5,0.9c-2.5,0-5,0-7.5,0c-0.9,0-1.1-0.5-0.5-1
			c0.8-0.7,0.9-1.7,1.3-2.6C378.2,328.2,380.1,328.4,382,329.4z"/>
		<path class="st10" d="M536.6,296.3c-0.6,1.6-2.2,0.5-3.2,1.1c-0.4,0.3-1.1,0.2-1.7,0.2c0.4-2.8-0.4-6,2.4-8.1c0.4,0,0.8,0,1.1,0.2
			c1.5,1.1,1.9,2.6,1.4,4.3c-0.5,0.4-1.2,0.2-1.8,0.5c0.5,0.2,1,0.1,1.4,0.4C536.6,295.3,536.7,295.8,536.6,296.3z"/>
		<path class="st11" d="M365.1,301.5c0.9,0.1,2-1.3,2.6,0.4c0.4,1-1,3-2.2,3.1c-0.7,0.1-1.2,0.3-1.7,0.8c-1.2,0.1-1.7-1-2.5-1.5
			c-0.9-0.6-1.6-1.4-2.7-1.7c-0.6-0.1-0.9-0.9-0.3-1.5c0.7-0.6,1.2-0.3,1.5,0.4c0.3,0.7,1,0.9,1.6,1.3
			C363.2,304.1,364,303.8,365.1,301.5z"/>
		<path class="st12" d="M382.4,319.8c0.3,0.8,0.3,1.9,1.5,2.1c0.2,0,0.4,0.4,0.4,0.6c0,0.4-0.3,0.5-0.7,0.6c-2.3,0-4.6,0.1-6.9,0
			c-0.8,0-0.9-0.9-0.4-1c1.2-0.4,1.2-1.5,1.7-2.2C379.5,318.9,380.9,318.9,382.4,319.8z"/>
		<path class="st13" d="M367.3,293c2.1-0.2,3.1,1.1,3.5,2.9c-0.1,0.3-0.2,0.6-0.4,0.9c-1.1,0.7-2.3,0.4-3.4,0.4c-0.5,0-1,0-1.5,0.1
			c-1.6-0.7-1.5-2,0.2-3.6C366.2,293.3,366.7,293.1,367.3,293z"/>
		<path class="st5" d="M535,289.9c-0.4,0-0.7,0-0.9-0.4c-1.3-1.3-0.2-3-0.6-4.5c-0.1-0.4,0.6-1,1.2-1.1c0.8-0.1,1.3,0.4,1.4,1
			c0.2,0.8,0.3,1.4,1.3,1.3c0.4,0.5,0.9,0.9,0.8,1.6c0.1,0.6-0.4,0.8-0.8,1c-0.8,0.1-1.7-0.1-2.2,0.8
			C535.2,289.8,535.1,289.9,535,289.9z"/>
		<path class="st14" d="M335.5,295.9c0.3-1,1.2-0.9,1.9-1.1c1.2,0.9,1,2.2,0.8,3.4c-0.1,0.8-0.3,1.7-0.4,2.5c-0.2,0.7,0,1.4-0.2,2.1
			c-0.1,0.3-0.4,0.5-0.7,0.6c-1,0.1-1.9-0.2-2.5-1c-0.3-1.1,0.2-1.9,0.7-2.8C336,298.3,336.3,297.1,335.5,295.9z"/>
		<path class="st15" d="M336.2,292.3c-0.7-1.1-0.4-2,0.5-2.8c0.8-0.7,1.9-0.8,2.8-0.3s1.5,1.5,1.8,2.5c0.2,0.7-0.8,0.4-1.2,0.6
			c-0.7,0.5-1.6,0.5-2.4,0.5C337,292.8,336.6,292.6,336.2,292.3z"/>
		<path class="st16" d="M558.1,262.1c0,1.3,0,2.6,0,4.3c-1.8-2.2-3-4.5-5.3-5.8c0,0,0.1-0.3,0.1-0.5
			C555,259.8,556.5,261,558.1,262.1z"/>
		<path class="st17" d="M366.1,327.7c-0.2-3,0.9-5.8,0.9-8.7c0.8-0.1,0.7,0.5,0.7,0.9c0.2,1.5,0.3,3.1,0.9,4.6
			c0.3,0.8,0.7,1.6-0.8,1.7c-0.8,0-1,0.7-0.8,1.5C366.7,327.7,366.4,327.7,366.1,327.7z"/>
		<path class="st18" d="M370.5,316.2c0.1-0.9-0.6-1.9,0.7-2.4c0.2,0,0.3,0.1,0.5,0.1c0.6,0,1.1-0.3,1.7-0.4c0.4,0,0.7,0.1,1,0.3
			c0.3,0.9,2.1,1.5,0.6,2.6c-1.1,0.7-2.5,2.1-3.8,0.1C371.1,316.3,370.8,316.3,370.5,316.2z"/>
		<path class="st19" d="M334.2,311.8c0,0.1,0,0.3,0,0.4c-0.3,0.3-0.8,0.2-1.1,0.2c-8.3,0-16.7,0-25,0c-0.4,0-0.8,0.1-1.2-0.2
			c0.5-0.7,1.2-0.4,1.8-0.4c3.2,0,6.4,0,9.6,0c2.2-0.5,4.5,0.2,6.7-0.4l0.1-0.1c0.1-0.2,0.2-0.2,0.3,0l0.1,0.1
			c2.2,0.5,4.5-0.2,6.7,0.4C333,311.8,333.6,311.8,334.2,311.8z"/>
		<path class="st1" d="M306.9,312.2c9.1,0,18.2,0,27.3,0c0,0.1,0,0.3,0,0.4c-8.4,0-16.8,0-25.3,0
			C308.3,312.6,307.5,312.9,306.9,312.2z"/>
		<path class="st20" d="M470.6,311.7c-1.3,0.3-2.8,1.2-3.6-0.8c1.6-0.5,1.4-2.1,2-3.2c0.1,0,0.2,0,0.3,0c0.8,0.1,1.6,0.3,2.2,0.8
			c0.1,0.4,0,0.7-0.2,1.1C471,310.3,471.3,311.2,470.6,311.7z"/>
		<path class="st21" d="M339.4,294.8c0.6,0.2,1.4,0.3,1.7,1.1c-0.3,1.3-0.6,2.7,0.1,4c-0.7,2-1.2,2.3-2.7,1.6
			c-0.1-0.2-0.1-0.4-0.1-0.6c0.1-1.2,0-2.3-0.1-3.5C338.2,296.3,338.1,295.2,339.4,294.8z"/>
		<path class="st22" d="M472.9,286.8c-0.4-0.3-0.9-0.6-0.3-1.2c0.7-0.6,1.4-1.2,2.4-0.7c0.8,0.4,1.5,0.8,1.6,1.8
			c0.1,1.2-0.5,2-1.6,2.3C474.6,288,474,287.2,472.9,286.8z"/>
		<path class="st23" d="M341.9,312.6c0-0.1,0-0.3,0-0.4c0.5-0.4,1.1-0.4,1.7-0.4c6.6-0.1,13.3,0.3,19.9,0.2c0.2,0,0.4,0.1,0.6,0.2
			c0.1,0.5,0.1,0.9-0.3,1.3c-0.3-1.1-1.2-0.9-1.9-0.9C355.2,312.6,348.6,312.6,341.9,312.6z"/>
		<path class="st19" d="M364.1,312.2c-7.4,0-14.8,0-22.2,0c-0.1-0.1-0.1-0.2-0.1-0.3c0-0.1,0.1-0.1,0.2-0.2c1.4-0.3,2.8,0.2,4.1-0.2
			h0.1c0.1-0.2,0.2-0.2,0.3,0h0.1c2.1,0.5,4.2-0.1,6.3,0.3c3.7,0,7.4,0,11.1,0C364.1,311.9,364.1,312,364.1,312.2z"/>
		<path class="st24" d="M366.5,296.8c1.3-0.2,2.6-0.2,3.9,0c-0.2,1-0.5,1.9-1.5,2.3c-0.7,0.3-1.4,0.3-2.1,0c-0.3,0-0.6,0-0.7-0.4
			C366,298,366.2,297.3,366.5,296.8z"/>
		<path class="st25" d="M339.4,294.8c-0.9,0.9-0.7,2-0.6,3.1s0.7,2.3-0.2,3.3c-0.4,0.3-0.9,0.2-1.2-0.1c0-2.1,1-4.2,0.1-6.3
			c0.2,0,0.3-0.1,0.5-0.1c0.2-0.2,0.5-0.2,0.7,0C338.9,294.7,339.1,294.7,339.4,294.8z"/>
		<path class="st26" d="M335.5,299.5c-0.2,0.9-0.5,1.9-0.7,2.8c0.2,0.2,0.2,0.4,0.2,0.6c-0.1,0.2-0.1,0.4-0.2,0.7
			c0,0.2-0.1,0.5-0.1,0.7c-0.1,0.4-0.3,0.7-0.7,1c-1.2-0.1-1.4-0.5-0.9-1.7c0.6-1.4,0.9-2.9,1.3-4.3
			C334.8,299.1,335.2,299.1,335.5,299.5z"/>
		<path class="st27" d="M370.3,310.6c0.1,1.1-0.5,1-1.3,1c-1.6-0.1-3.3-0.4-4.9-0.1c-0.7-0.1-1.5-0.2-0.9-1.3c0.9-0.6,1.9-0.5,3-0.3
			C367.5,310.4,369.1,309.6,370.3,310.6z"/>
		<path class="st28" d="M341.1,299.9c-1.2-0.9-1.2-2.8,0-4.1c1.2,1,1.4,2.3,1.2,3.8C342,300.3,341.5,300.1,341.1,299.9z"/>
		<path class="st29" d="M341.1,299.9c0.4-0.1,0.8-0.2,1.2-0.3c0.1,0.5,0.2,1,0.3,1.4c-0.8,0.7-1.7,1.1-2.5,1.8
			c-0.3,0.2-0.6,0.4-1,0.2c-0.5,0.3-0.9,0.9-1.6,0.8c-0.3,0.1-0.5-0.1-0.6-0.4c0-0.2,0.1-0.3,0.2-0.5s0.3-0.3,0.4-0.5
			c0.4-0.4,0.6-0.9,1.2-1.1C340.1,301.8,340.3,300.5,341.1,299.9z"/>
		<path class="st30" d="M382,329.4c-1.8,0.3-3.7-0.3-5.5,0.3c-0.1-0.8,1-0.9,0.9-1.7c1.2-0.8,2.7-0.2,3.9-0.7
			C381.7,327.9,382,328.6,382,329.4z"/>
		<path class="st31" d="M335.5,299.5c-0.4-0.1-0.8-0.1-1.1-0.2c-0.2-1.4,0.5-2.4,1.2-3.5C336.9,296.5,336.9,298.3,335.5,299.5z"/>
		<path class="st32" d="M338.6,294.6c-0.2,0-0.5,0-0.7,0c-0.3-0.4-0.6-0.7-1-1.1c-0.2-0.6,0-1,0.6-1.2c0.8,0,1.6,0,2.4,0.1
			C340.2,293.5,339,293.8,338.6,294.6z"/>
		<path class="st33" d="M341.1,305.9c-0.8,0.2-1.9,0.9-1.6-0.8c0.3-0.4,0.8-0.6,1.2-0.8c0.8-0.4,1.6-0.7,2.5-0.5
			c0.4,0.5,0.5,1-0.1,1.4S342,306.3,341.1,305.9z"/>
		<path class="st30" d="M382.4,319.8c-1.4,0-2.9,0-4.3,0c-0.1-0.5,0.2-0.9,0.4-1.3c1-0.7,2.1-0.5,3.2-0.3
			C382.1,318.6,382.1,319.2,382.4,319.8z"/>
		<path class="st34" d="M472.9,286.8c1.8-0.3,2.6,0.4,2.1,2.3C473.3,289.3,472.6,288.5,472.9,286.8z"/>
		<path class="st35" d="M337.1,313c0-1.4,0.4-2.6,1-3.9c0.3,1.3,0.6,2.6,0.9,3.9C338.4,313,337.7,313,337.1,313z"/>
		<path class="st36" d="M380.4,325.3c0.3,0.6,0.5,1.1,0.8,1.7c-1.2,0.7-2.4,0.8-3.5,0c0-0.6,0.2-1.2,0.7-1.6
			C379,324.8,379.7,324.9,380.4,325.3z"/>
		<path class="st37" d="M370.3,310.6c-1.4-0.1-2.9,0.3-4.3-0.3c1.1-0.5,2.1,0,3-0.2c-1.7-0.1-3.7,0.2-5.7-0.2c0-0.1,0-0.3,0-0.4
			c2.3-0.9,4.7-1,7,0C370.4,309.8,370.4,310.2,370.3,310.6z"/>
		<path class="st38" d="M363.7,308.1c2.2,0,4.5,0,6.7,0c0,0.3,0,0.5,0,0.8c-2.4,0.3-4.7,0.4-7-0.5
			C363.5,308.4,363.6,308.3,363.7,308.1z"/>
		<path class="st39" d="M371.2,314.1c0-0.1,0-0.2,0-0.3c0-0.4,0-0.8-0.1-1.2c-0.2-0.2-0.1-0.4,0.2-0.4c0.8-0.1,1.5-0.3,2.3-0.4
			c0,0.4,0.1,0.6,0.4,0.8c0.1,0.4,0.3,0.8,0.4,1.2c-0.4,0-0.7,0-1.1,0C372.6,313.6,372,314.4,371.2,314.1z"/>
		<path class="st40" d="M377.6,326.9c1.2,0,2.4,0,3.5,0c0,0.1,0,0.2,0.1,0.4c-0.1,1.2-1,0.6-1.6,0.7c-0.8,0.1-1.5,0-2.3,0
			C377.4,327.6,377.5,327.3,377.6,326.9z"/>
		<path class="st41" d="M334.2,318.2c0.5,0,0.9,0,1.4,0c0.2,0.5,0.7,1.3-0.1,1.5c-0.8,0.2-2.3,0.3-2.6-0.1
			C332.3,318.5,333.9,318.7,334.2,318.2z"/>
		<path class="st42" d="M334,305.3c0.1-0.4,0.2-0.7,0.4-1.1c1.1-0.5,2-0.2,2.8,0.7c0.1,0.2,0.1,0.4,0,0.6c-0.8,1.7-1.6-0.3-2.4,0
			C334.5,305.5,334.2,305.4,334,305.3z"/>
		<path class="st43" d="M370.6,305.8c-0.3-1.4,0.3-2.6,0.5-3.9c0.3,1.3,2,2.5,0.2,3.9C371,306,370.8,306,370.6,305.8z"/>
		<path class="st44" d="M363.5,308.5c2.3,0.3,4.6,0.5,7,0.5c0,0.2,0,0.3,0,0.5c-2.3,0-4.7,0-7,0
			C363.4,309.1,363.4,308.8,363.5,308.5z"/>
		<path class="st45" d="M370.6,305.8c0.2,0,0.4,0,0.7,0c0.1,2.1,0.1,4.2,0.2,6.4c-0.1,0.1-0.1,0.3-0.2,0.4c-1-1.4,0.2-3.1-0.7-4.4
			C370.5,307.4,370.5,306.6,370.6,305.8z"/>
		<path class="st46" d="M340.7,304.7c-0.3,0.4-0.8,0.3-1.2,0.4c-0.5-0.5-0.3-1-0.3-1.6c1.2-0.7,2.4-1.2,3.8-0.9c0,0.3,0,0.6,0.1,0.9
			c-0.7,0.6-1.5,0.6-2.3,0.8C339.7,304.4,340.8,304.5,340.7,304.7z"/>
		<path class="st47" d="M471,299.5c-0.3,1.3-0.5,2.7-1.1,4c-0.1-1.3-0.3-2.7-0.4-4C470,298.5,470.5,299,471,299.5z"/>
		<path class="st48" d="M677,311.4c1.6,0,3.3,0,4.9,0c0.9,0,1.4-0.2,1.3-1.2c0.6,0.4,0.3,1,0.4,1.6
			C681.4,311.6,679.2,312.3,677,311.4z"/>
		<path class="st48" d="M670.1,310.2c-0.1,1,0.5,1.2,1.3,1.2c1.6,0,3.3,0,4.9,0c-2.2,0.9-4.5,0.2-6.7,0.4
			C669.8,311.2,669.6,310.6,670.1,310.2z"/>
		<path class="st48" d="M332.3,311.8c-2.2-0.2-4.5,0.4-6.7-0.4c1.6,0,3.3,0,4.9,0c0.9,0,1.4-0.2,1.3-1.2
			C332.5,310.6,332.3,311.2,332.3,311.8z"/>
		<path class="st48" d="M325.1,311.4c-2.2,0.8-4.5,0.2-6.7,0.4c0.1-0.5-0.2-1.2,0.4-1.6c-0.1,1,0.5,1.2,1.3,1.2
			C321.8,311.4,323.4,311.4,325.1,311.4z"/>
		<path class="st49" d="M474.6,311.3c0.9,0,1,0.5,0.7,1.2c-0.7,0-1.5,0-2.2,0c-0.1-0.1-0.3-0.2-0.4-0.4
			C472.8,310.8,473.6,310.9,474.6,311.3z"/>
		<path class="st50" d="M378.8,317.7c0.2-0.6,0.2-1.2,0.7-1.6c0.5-0.1,1,0.1,1.4,0.4c0.2,0.4,0.4,0.9,0.7,1.3
			C380.6,318.2,379.7,318.4,378.8,317.7z"/>
		<path class="st51" d="M469.5,305.8c0-0.3,0.1-0.5,0.1-0.8c1,0.3,2.1,0.4,2.6,1.6c0,0.4-0.1,0.8-0.5,1
			C470.1,307.9,469.4,307.4,469.5,305.8z"/>
		<path class="st52" d="M363.3,309.8c2.1,0,4.3,0,6.4,0c0,0.1,0,0.3,0,0.4c-1.2,0-2.4,0-3.7,0c-1,0-1.9-0.1-2.9-0.1
			C363.2,310,363.3,309.9,363.3,309.8z"/>
		<path class="st53" d="M339.8,302.6c0.8-0.8,1.5-1.6,2.7-1.5c0.1,0.4,0.1,0.8,0.2,1.1C341.8,302.6,340.9,303.2,339.8,302.6z"/>
		<path class="st8" d="M469.5,305.8c0.7,0.5,0.8,1.8,2.1,1.7c0,0.2,0,0.4-0.1,0.5c-0.8,0.6-1.5-0.2-2.3-0.1l-0.1-0.1
			C469,307.1,469.1,306.4,469.5,305.8z"/>
		<path class="st48" d="M690.8,311.4c2.2,0,4.4,0,6.6,0c-2.2,0.9-4.4,0.2-6.7,0.4C690.8,311.7,690.8,311.5,690.8,311.4z"/>
		<path class="st54" d="M380.4,325.3c-0.7,0-1.4,0-2,0c0.3-0.7,0.5-1.3,0.8-2.1C380,323.8,380.1,324.6,380.4,325.3z"/>
		<path class="st55" d="M353,311.8c-2.1-0.1-4.2,0.4-6.3-0.3c2.1,0,4.2,0,6.3,0C353,311.5,353,311.6,353,311.8z"/>
		<path class="st55" d="M698,311.4c2.1,0,4.2,0,6.3,0c0,0.1,0,0.3,0,0.4C702.2,311.6,700.1,312.3,698,311.4z"/>
		<path class="st56" d="M378.8,317.7c0.9,0,1.8,0.1,2.7,0.1c0,0.1,0.1,0.2,0.1,0.3c-1,1-2.1,0.4-3.2,0.3
			C378.5,318.2,378.5,317.9,378.8,317.7z"/>
		<path class="st57" d="M359.7,301.5c-0.5-0.3-1-0.5-1.5-0.4c-0.1-0.4-0.2-0.8-0.3-1.2c0.7-0.3,1.5-0.3,2.2,0
			C360,300.4,359.8,300.9,359.7,301.5z"/>
		<path class="st58" d="M339.8,302.6c1-0.1,1.9-0.3,2.9-0.4c0.1,0.1,0.1,0.2,0.2,0.3c-1.2,0.5-2.4,0.9-3.8,0.9
			c-0.1-0.1-0.1-0.2-0.1-0.4C339.3,302.9,339.6,302.8,339.8,302.6z"/>
		<path class="st59" d="M471.8,306.6c-0.8-0.5-1.5-1.1-2.3-1.6c0.1-0.1,0.2-0.3,0.3-0.4c0.8,0.3,1.5,0.7,2.3,0.8
			C472.6,305.9,472.7,306.4,471.8,306.6z"/>
		<path class="st60" d="M340.7,304.7c-0.3,0-0.6-0.1-1.3-0.1c1.3-0.8,2.4-0.9,3.6-1.1c0.1,0.1,0.1,0.2,0.1,0.3
			C342.3,304.1,341.5,304.4,340.7,304.7z"/>
		<path class="st61" d="M469.5,297.4c-0.1-1.2-0.7-2.3-0.4-3.6c0.2-0.1,0.4-0.1,0.6,0.1c0.7,1.1,0.9,2.2,0.4,3.4
			C469.9,297.5,469.7,297.6,469.5,297.4z"/>
		<path class="st62" d="M469.5,297.4c0.1,0.1,0.2,0.1,0.3,0.2c0.5,0.2,0.8,0.6,1.2,0.9v0.1c0,0.3,0,0.5,0,0.8c-0.5-0.1-1-0.3-1.5,0
			C468.8,298.8,469.7,298.1,469.5,297.4z"/>
		<path class="st63" d="M366.5,296.8c0.2,0.7,0.4,1.4-0.4,1.9c-0.5-0.3-0.5-0.9-0.6-1.4C365.7,296.8,366.1,296.7,366.5,296.8z"/>
		<path class="st64" d="M341.1,305.9c0.7-0.3,1.3-0.5,2-0.8c0,0.1,0,0.2,0,0.2c-0.4,0.9-1.3,1-1.9,1.6
			C341.1,306.6,341.1,306.3,341.1,305.9z"/>
		<path class="st65" d="M380.9,316.6c-0.5,0-1.1,0.2-1.4-0.4c0.1-0.4,0.2-1,0.6-0.9C380.7,315.3,380.8,316,380.9,316.6z"/>
		<path class="st66" d="M469.5,293.9c-0.1,0-0.3,0-0.4-0.1c0-0.1,0-0.3,0-0.4c0.9,0.3,1.9-0.4,2.7,0.5c-0.2,0.2-0.5,0.4-0.8,0.4
			C470.4,294.4,469.9,294.3,469.5,293.9z"/>
		<path d="M337.5,292.3c-0.2,0.4-0.4,0.8-0.6,1.2c-0.5-0.3-0.7-0.7-0.8-1.2C336.6,292.1,337.1,292.1,337.5,292.3z"/>
		<path class="st59" d="M360.1,299.8c-0.7,0-1.5,0-2.2,0C358.6,299.2,359.3,299.2,360.1,299.8z"/>
		<path class="st63" d="M366.8,299.1c0.7,0,1.4,0,2.1,0C368.2,299.6,367.5,299.7,366.8,299.1z"/>
		<path class="st67" d="M389.2,293.1c0,4.4,0,8.7,0,13.1c0,1.9-0.2,3.9,1.7,5.5c-4.6,0-8.7,0-12.7,0h-0.1c-0.4-0.5-0.3-1.1-0.3-1.7
			c0-3.9,0-7.8,0-11.7c0-0.6-0.1-1.2,0.4-1.7c1.5-0.2,3,0.4,4.4-0.4C384.6,295.2,386.8,294,389.2,293.1z"/>
		<path class="st67" d="M421,259.8c0,1.7,0,3.4,0,5.2c0,1.2-0.4,1.9-1.7,1.8c-2,0-4,0-5.9,0c-1.3,0-1.9-0.7-1.9-2c0-3.3,0-6.6,0-9.9
			c0-1.2,0.5-1.7,1.7-1.7c2.2,0,4.4,0,6.5,0c1.1,0,1.4,0.4,1.4,1.4C420.9,256.4,421,258.1,421,259.8z"/>
		<path class="st67" d="M421,239c0,1.7,0,3.3,0,5c0,1.2-0.4,1.9-1.7,1.8c-2,0-4,0-5.9,0c-1.3,0-1.9-0.7-1.9-2c0-3.3,0-6.6,0-9.9
			c0-1.2,0.5-1.7,1.7-1.7c2.2,0,4.4,0,6.5,0c1.1,0,1.4,0.4,1.4,1.4C420.9,235.4,421,237.2,421,239z"/>
		<path class="st67" d="M406.3,196.8c0,1.7,0,3.3,0,5c0,1.2-0.4,1.8-1.7,1.8c-1.9,0-3.8,0-5.7,0c-1.4,0-2.1-0.6-2.1-2
			c0-3.3,0-6.6,0-9.9c0-1.2,0.5-1.6,1.7-1.6c2.1,0,4.2,0.1,6.3,0c1.3,0,1.6,0.5,1.5,1.7C406.2,193.4,406.3,195.1,406.3,196.8z"/>
		<path class="st67" d="M421,281c0,1.7,0,3.4,0,5.2c0,1.1-0.3,1.8-1.6,1.7c-2,0-4.1,0-6.1,0c-1.2,0-1.8-0.7-1.8-1.8
			c0-3.4,0-6.7,0-10.1c0-1.1,0.5-1.6,1.5-1.6c2.2,0,4.5,0,6.7,0c0.9,0,1.3,0.4,1.3,1.3C420.9,277.4,421,279.2,421,281z"/>
		<path class="st67" d="M406.3,238.8c0,1.7,0,3.4,0,5.2c0,1.2-0.4,1.8-1.7,1.8c-1.9,0-3.8,0-5.7,0c-1.4,0-2.1-0.6-2.1-2
			c0-3.3,0-6.6,0-9.9c0-1.2,0.5-1.7,1.7-1.6c2.1,0,4.2,0.1,6.3,0c1.3,0,1.6,0.5,1.5,1.7C406.2,235.5,406.3,237.1,406.3,238.8z"/>
		<path class="st67" d="M406.3,281.2c0,1.7,0,3.3,0,5c0,1.3-0.5,1.8-1.7,1.8c-1.9,0-3.8,0-5.7,0c-1.4,0-2.1-0.6-2.1-2
			c0-3.3,0-6.6,0-9.9c0-1,0.4-1.6,1.5-1.6c2.2,0,4.5,0,6.7,0c1.1,0,1.3,0.5,1.3,1.5C406.2,277.6,406.3,279.4,406.3,281.2z"/>
		<path class="st67" d="M421,196.7c0,1.7,0,3.3,0,5c0,1.2-0.4,1.9-1.7,1.8c-2,0-4,0-5.9,0c-1.3,0-1.9-0.7-1.9-2c0-3.3,0-6.6,0-9.9
			c0-1.2,0.5-1.7,1.7-1.7c2.2,0,4.4,0,6.5,0c1,0,1.4,0.4,1.4,1.4C420.9,193.2,421,195,421,196.7z"/>
		<path class="st67" d="M406.3,260.1c0,1.7,0,3.3,0,5c0,1.3-0.4,1.8-1.7,1.8c-1.9,0-3.8,0-5.7,0c-1.4,0-2.1-0.6-2.1-2
			c0-3.3,0-6.6,0-9.9c0-1,0.4-1.6,1.5-1.6c2.2,0,4.5,0,6.7,0c1.1,0,1.4,0.5,1.3,1.5C406.2,256.5,406.3,258.3,406.3,260.1z"/>
		<path class="st67" d="M421,217.9c0,1.7,0,3.3,0,5c0,1.3-0.4,1.8-1.7,1.8c-1.9,0-3.8,0-5.7,0c-1.4,0-2.1-0.6-2.1-2
			c0-3.3,0-6.6,0-9.9c0-1,0.4-1.6,1.5-1.6c2.2,0,4.5,0,6.7,0c1.1,0,1.4,0.5,1.3,1.5C420.9,214.3,421,216.1,421,217.9z"/>
		<path class="st67" d="M406.3,217.7c0,1.7,0,3.4,0,5.2c0,1.2-0.4,1.8-1.7,1.8c-1.9,0-3.8,0-5.7,0c-1.4,0-2.1-0.6-2.1-2
			c0-3.3,0-6.6,0-9.9c0-1.2,0.5-1.7,1.7-1.6c2.1,0,4.2,0.1,6.3,0c1.3,0,1.6,0.5,1.5,1.7C406.2,214.4,406.3,216,406.3,217.7z"/>
		<path class="st8" d="M378.1,296.7c0,5,0,10.1-0.1,15.1c-0.2,0-0.5,0-0.7,0c0-11.8,0-23.7,0-36c1.3,1.7,0.4,3.2,1,4.8
			c1.5-1.5,2.9-2.9,4.4-4.4c0.1,0.1,0.3,0.3,0.4,0.4c-0.7,0.8-1.3,1.7-2.1,2.3c-2.5,1.8-3.2,4.2-3,7.2
			C378.2,289.6,378,293.2,378.1,296.7z"/>
		<path class="st2" d="M389.2,293.1c-2,1.6-4.1,2.9-6.7,3.2c-0.5,0-1-0.1-2.2-0.1c4.3-1.4,7-3.9,8.9-7.9c0,1.2,0,1.9,0,2.7
			C389.2,291.6,389.2,292.4,389.2,293.1z"/>
		<path class="st67" d="M537.3,288.7c0.3-0.3,0.6-0.5,0.9-0.8c2,4.5,5.2,7.7,10.3,8.4c1.1,0.2,1.6,0.7,1.6,2c-0.1,4.5,0,9,0,13.5
			c-4.5,0-9,0-13.6,0c-2.6-1.2-0.9-3.2-0.7-4.8c0.3-1.8,0.3-3.7,0.4-5.5c0.6-0.6-0.5-1.8,0.8-2.1c1.3,0.1,0.7-0.7,0.6-1.2
			c-0.2-0.6-0.7-1.2-0.7-1.9c-0.3-0.4-0.6-0.8-0.4-1.3c0.5-0.5,1.3-0.3,1.9-0.7c-0.7-0.3-1.5,0.3-1.9-0.5c-0.4-1.3-0.1-2.9-1.5-3.9
			l0,0C535.7,289.2,536.7,289.3,537.3,288.7z"/>
		<path class="st67" d="M601.8,288.1c0,1.6-0.1,3.2,0,4.8c0.1,1.3-0.3,1.9-1.7,1.9c-2-0.1-4-0.1-5.9,0c-1.3,0-1.9-0.4-1.9-1.8
			c0.1-3.2,0-6.3,0-9.5c0-1.5,0.6-2.2,2.1-2.2c1.9,0,3.8,0,5.7,0c1.3,0,1.8,0.6,1.7,1.8C601.8,284.6,601.8,286.4,601.8,288.1z"/>
		<path class="st67" d="M587.1,267c0,1.7,0,3.3,0,5c0,1.2-0.3,1.7-1.6,1.6c-2.1-0.1-4.2,0-6.3,0c-1.2,0-1.7-0.5-1.7-1.6
			c0-3.3,0-6.6,0-9.9c0-1.4,0.7-2,2.1-2c1.9,0,3.8,0,5.7,0c1.3,0,1.7,0.6,1.7,1.8C587,263.6,587.1,265.3,587.1,267z"/>
		<path class="st67" d="M601.8,267.4c-0.2,1.7,0.9,4.4-0.5,5.8c-1.3,1.3-3.9,0.3-5.9,0.4c-3.2,0.1-3.2,0-3.2-3.1
			c0-2.6,0.1-5.3,0-7.9c0-1.7,0.6-2.6,2.4-2.5c1.7,0.1,3.4,0.1,5.1,0c1.6-0.1,2.1,0.6,2,2.1C601.7,263.8,601.8,265.4,601.8,267.4z"
			/>
		<path class="st67" d="M587.1,288.2c0,1.6-0.1,3.2,0,4.8c0.1,1.2-0.3,1.8-1.6,1.8c-2-0.1-4.1-0.1-6.1,0c-1.2,0-1.8-0.4-1.8-1.7
			c0-3.2,0-6.5,0-9.7c0-1.4,0.6-2.1,2-2.1c2,0,4,0,5.9,0c1.2,0,1.7,0.5,1.6,1.7C587.1,284.6,587.1,286.4,587.1,288.2z"/>
		<path class="st67" d="M551.3,296.7c1.5-0.2,3,0.4,4.4-0.4c0.7-0.7,1.5-0.9,2.4-0.5c0.3,5.3-0.7,10.6,0.7,15.9c-2.4,0-4.9,0-7.4,0
			h-0.1c-0.4-0.5-0.3-1.1-0.3-1.7c0-3.9,0-7.8,0-11.7C550.9,297.8,550.8,297.1,551.3,296.7z"/>
		<path class="st68" d="M621.2,301.9c0.6,2,1.2,3.9,1.8,5.9c0.2,0.7,0.6,1.3,0.2,2c-0.1,0.2-0.1,0.4-0.4,0.4c-0.8,0.3-1-0.6-1.4-0.9
			c-1.4-1.3-2-3.1-2.9-4.6c-0.7-1.2-1.1-1-1.8-0.1c-0.9,1.1-1,2.4-1.3,3.7c-0.2,1,0,2.4-1.5,2.7c-0.3,0-0.6-0.1-0.8-0.3
			c-0.7-4.3,0.9-8,3.2-11.6c1.3-0.3,2.5,0,3.7,0.6C620.3,300.4,620.8,301.2,621.2,301.9z"/>
		<path class="st69" d="M619.8,299.7c-1.3,0.2-2.5-0.2-3.7-0.6c0.3-1.7-1-2.3-2.1-3.2c-0.3-0.5-0.5-1.1,0.1-1.6
			c1.3,0.6,1.7-0.1,1.9-1.2s0.8-2.3,1.8-2.3c0.8,0,1.4,1.3,1.5,2.3C619.5,295.3,619.6,297.5,619.8,299.7z"/>
		<path class="st8" d="M551.3,296.7c0,5,0,10.1-0.1,15.1c-0.2,0-0.5,0-0.7,0c0-11.8,0-23.7,0-36c1.3,1.7,0.4,3.2,1,4.8
			c1.5-1.5,2.9-2.9,4.4-4.4c0.1,0.1,0.3,0.3,0.4,0.4c-0.7,0.8-1.3,1.7-2.1,2.3c-2.5,1.8-3.2,4.2-3,7.2
			C551.5,289.6,551.3,293.2,551.3,296.7z"/>
		<path class="st24" d="M615.4,287.9c-0.9-0.9-0.6-1.6,0.5-1.8c1.2-0.2,2.4-0.2,3.6-0.3c1.1,0,1.8,0.8,1.3,1.6
			c-0.8,1.3-1.3,3.2-3.5,2.7C617.1,289,615.9,288.8,615.4,287.9z"/>
		<path class="st70" d="M558.1,295.8c-0.8,0.2-1.6,0.3-2.4,0.5c-0.5,0-1-0.1-2-0.1c1.2-0.5,2.2-0.7,2.9-1.3
			C558,293.9,558.1,294.7,558.1,295.8z"/>
		<path class="st71" d="M615.4,287.9c0.8,0.6,3,0.1,1.9,2.3C615.7,290.3,615.2,289.4,615.4,287.9z"/>
		<path class="st72" d="M613,310.6c0.2,0,0.5,0,0.7,0.1c0.2,0.2,0.9,0,0.7,0.6c-0.8,1.7-2,0.6-3.1,0.5
			C611.6,310.9,612.3,310.7,613,310.6z"/>
		<path class="st73" d="M614.1,294.3c0,0.5,0,1-0.1,1.6c-1.2-0.4-1.7-1.3-1.7-2.5c0.6-0.2,0.9,0.3,1.3,0.5
			C613.8,294,614,294.2,614.1,294.3z"/>
		<path class="st74" d="M613.7,293.9c-0.6,0.2-0.9-0.3-1.3-0.5c-0.1-0.3,0-0.9,0.2-0.9C613.4,292.6,613.6,293.3,613.7,293.9z"/>
		<path class="st67" d="M448,309c0.6-0.6,0.3-1.4,0.4-2.1c0-4.2,0-8.4,0-12.9c2.1,1.1,4.1,2.2,6.3,2.4c1.1,0.1,1.3,0.9,1.3,1.8
			c0,4.5,0,9,0,13.5c-3,0-6,0-9.2,0C447.1,310.8,448.2,310.1,448,309z"/>
		<path class="st75" d="M471.8,306.6c0.4-0.4,0.5-0.8,0.3-1.3c0.4-1.1,0.9-2.3,1.3-3.4c0.1,0,0.2,0,0.3,0c0,2.3,0,4.6,0,6.9
			c0,0.6-0.4,1.5,0.8,1.7c0,0.2,0,0.4,0,0.6c-0.7,0.1-1.6-0.2-1.9,0.9c-0.5,0-1.1,0-1.6,0c-0.3-0.9-0.3-1.9,0-2.8
			c0.1-0.3,0.2-0.5,0.3-0.8c-0.2-0.3-0.1-0.5,0-0.8c0.1-0.1,0.1-0.2,0.2-0.3C471.9,307.3,471.9,307,471.8,306.6z"/>
		<path class="st76" d="M471.1,309.4c0,0.9,0,1.9,0,2.8c-0.1-0.2-0.3-0.3-0.4-0.5C470.8,311,470.3,310.1,471.1,309.4z"/>
		<path class="st67" d="M486.9,311.8c0-1.8-0.6-4.2,0.2-5.2c1-1.2,3.5-0.4,5.3-0.4c5.6,0,11.1,0,16.7,0.1c0,1.3-0.1,2.5,0,3.8
			c0.1,1.4-0.4,1.8-1.8,1.8C500.6,311.8,493.7,311.8,486.9,311.8z"/>
		<path class="st0" d="M614.4,311.3c-0.2-0.2-0.5-0.4-0.7-0.6c1.3-0.4,1.1-1.7,1.1-2.6c0.2-2.2,1.1-4,2.9-5.5
			c1.2,2.3,2.6,4.3,3.5,6.7c-0.1,1.9-1,2.7-2.9,2.5C617.1,311.6,615.7,312.3,614.4,311.3z"/>
		<path class="st77" d="M622.7,310.2c0.1-0.1,0.3-0.2,0.4-0.4c0.2,0.6,1.3,0.9,0.6,1.6c-0.5,0.5-1.4,0.7-2.1,0.7
			c-0.6,0-0.4-0.6-0.1-0.9C621.9,310.9,622.3,310.5,622.7,310.2z"/>
		<path class="st78" d="M697.6,311.4c-0.2-1.1-0.8-2.2,0.3-3.3c0,1.2,0,2.2,0,3.3h-0.1H697.6z"/>
		<path class="st79" d="M676.6,311.4c0-0.4-0.1-0.7-0.1-1.1c-0.2-0.3-0.2-0.6,0-0.9c0-0.4,0-0.8,0.1-1.1c0.1,0,0.2,0,0.3,0
			c0,1.1,0,2.1,0,3.2h-0.1L676.6,311.4z"/>
		<path class="st67" d="M498.1,300.6c3.4,0,6.7,0,10.1,0c0.5,0,1.3-0.4,1.3,0.6s-0.8,0.7-1.3,0.7c-6.7,0-13.4,0-20,0
			c-0.6,0-1.5,0.3-1.4-0.8c0.1-0.9,0.9-0.5,1.4-0.5C491.5,300.6,494.8,300.6,498.1,300.6z"/>
		<path class="st67" d="M498.4,303c3.3,0,6.6,0,9.9,0c0.4,0,1.1-0.3,1.2,0.6c0.1,1-0.7,0.7-1.2,0.7c-6.7,0-13.5,0-20.2,0
			c-0.5,0-1.3,0.3-1.3-0.7s0.9-0.6,1.4-0.6C491.6,303,495,303,498.4,303z"/>
		<path class="st67" d="M498,299.6c-3.3,0-6.6,0-9.9,0c-0.5,0-1.3,0.3-1.4-0.7c0-1,0.8-0.6,1.3-0.6c6.7,0,13.5,0,20.2,0
			c0.5,0,1.3-0.3,1.2,0.7c-0.1,0.9-0.7,0.6-1.2,0.6C504.9,299.6,501.5,299.6,498,299.6z"/>
		<path class="st80" d="M337.1,305.5c0-0.2-0.1-0.3-0.1-0.5c-0.5-1.1-2.1-0.5-2.7-1.5c0.1-0.2,0.2-0.4,0.3-0.6
			c0.9-0.2,1.7,0,2.4,0.6c0.1,0.1,0.3,0.2,0.4,0.3C337.4,304.4,337.5,305,337.1,305.5z"/>
		<path class="st81" d="M533.8,304.4c0,2,0,4,0,6c0,0.9-0.5,0.7-1,0.7c-0.7-0.1-0.6-0.3-0.5-0.9c0.5-1.9,0.8-3.8,1.2-5.7
			C533.6,304.5,533.7,304.4,533.8,304.4z"/>
		<path class="st82" d="M537,299.4c-1.2,0.3-0.2,1.5-0.8,2.1c0-1.1,0-2.2,0-3.3C537.1,298.2,536.9,298.9,537,299.4z"/>
		<path class="st82" d="M536.7,295.1c0.1,0.4,0.2,0.8,0.3,1.2c-0.1,0-0.2,0-0.3,0c-0.4-0.3-0.3-0.8-0.4-1.2
			C536.4,295,536.5,295,536.7,295.1z"/>
		<path class="st83" d="M676.5,309.4c0,0.3,0,0.6,0,0.9c-0.4-0.3-1-0.6-0.9-1C675.7,308.8,676.1,309.4,676.5,309.4z"/>
		<path class="st79" d="M325.5,311.4h-0.2h-0.2c0-0.4-0.1-0.7-0.1-1.1c-0.2-0.3-0.2-0.6,0-0.9c0-0.4,0.1-0.8,0.1-1.2
			c0.1,0,0.2,0,0.3,0C325.5,309.2,325.5,310.3,325.5,311.4z"/>
		<path class="st83" d="M325.1,309.4c0,0.3,0,0.6,0,0.9c-0.4-0.3-1-0.6-0.9-1C324.3,308.8,324.8,309.4,325.1,309.4z"/>
		<path class="st78" d="M346.6,311.4h-0.2h-0.2c-0.1-1.1-0.8-2.2,0.3-3.3C346.6,309.2,346.6,310.3,346.6,311.4z"/>
		<path class="st48" d="M346.1,311.4c-1.3,0.7-2.8,0.3-4.1,0.2C343.3,311.1,344.8,311.5,346.1,311.4z"/>
		<path class="st84" d="M469.5,293.9c0.5,0,1,0,1.6,0c0.7,1.1-0.3,2.4,0.4,3.5c-0.1,0.3-0.3,0.7-0.4,1c-0.8,0.2-1.3,0.1-1.2-0.9
			C470.1,296.4,469.5,295.2,469.5,293.9z"/>
		<path class="st85" d="M471.4,297.5c-0.7-1.1-0.6-2.3-0.4-3.5c0.3,0,0.5,0,0.8,0C471.7,295.1,471.5,296.3,471.4,297.5z"/>
		<path class="st86" d="M474.6,297.9c-0.5,0.5-1,0.3-1.6,0.3c1.1-0.3,1.3-1.2,1.6-2.2C474.6,296.6,474.6,297.2,474.6,297.9z"/>
		<path class="st87" d="M476.6,294.7c-0.8,0-1.6,0-2.5,0C475,294.2,475.8,293.9,476.6,294.7L476.6,294.7z"/>
		<path class="st88" d="M476.6,294.7c0.7,0.5,0.9,1.1,0.2,1.9C476.4,295.9,476.6,295.3,476.6,294.7L476.6,294.7z"/>
		<path class="st89" d="M475.9,299.5c-0.2,0.4-0.6,0.8-1,0.3c-0.5-0.5,0.2-0.7,0.5-0.9C475.5,299.2,475.7,299.3,475.9,299.5z"/>
		<path class="st90" d="M536.7,295.1c-0.1,0-0.3,0-0.4,0c-0.9-0.4-2.6,0.8-2.6-0.7c0-1.1,1.7-0.4,2.6-0.5c0.1,0,0.3,0,0.4,0
			c0.5,0.1,1,0.1,1.5-0.1c0.3-0.1,0.4-0.7,0.8-0.2c0.2,0.3,0.7,0.5,0.4,1c-0.2,0.3-0.5,0.6-0.9,0.6
			C537.8,295,537.2,295.1,536.7,295.1z"/>
		<path class="st91" d="M537.3,288.7c-0.4,1.2-1.3,1.3-2.3,1.2C535,287.8,536.2,288.4,537.3,288.7z"/>
		<path class="st92" d="M338.7,301.5c-0.1,0.7-0.5,1-1.2,1.1c0-0.5-0.6-1-0.1-1.5c0.4,0,0.8,0.1,1.2,0.1
			C338.6,301.3,338.7,301.4,338.7,301.5z"/>
		<path class="st93" d="M337.1,303.6c-0.8-0.2-1.6-0.4-2.4-0.6c0-0.2,0-0.4,0-0.6c0.8,0.2,1.6,0.5,2.3,0.7
			C337.1,303.2,337.1,303.4,337.1,303.6z"/>
		<path class="st94" d="M373.8,314.7c-0.5,0.6-1.1,1.1-2,0.9C372.4,314.7,373.1,314.7,373.8,314.7z"/>
		<path class="st95" d="M371.2,314.1c0.7,0,1.2-1.2,2.1-0.3C372.7,314,372.1,315,371.2,314.1z"/>
		<path class="st96" d="M471.4,307.8c0,0.3,0,0.5,0,0.8c-0.8,0-1.6-0.3-2.2-0.7C469.9,307.6,470.6,308.3,471.4,307.8z"/>
		<path class="st97" d="M334.4,303.5c0.8,0.6,2.3,0.1,2.7,1.5c-0.9-0.3-1.8-0.6-2.7-0.8C334.3,304,334.4,303.8,334.4,303.5z"/>
	</g>
	<g class="st98">
		<path class="st99" d="M715.3,293.1c0,1.7,0,3.3,0,5c0.4,0.3,0.7,0.6,0.7,1.1c0,2.5,0.3,5.1-0.2,7.6c-0.1,1.2-0.1,2.5,0,3.7
			c0,1,0.6,1.6,1.6,1.6c6,0,11.9,0,17.9,0c0.4,0,0.8-0.1,1.2-0.4c0.5-0.7,0.4-1.6,0.4-2.4c0-10.2,0-20.4,0-30.6c0-5,0-10,0-15
			c0-2.3-0.2-2.5-2.4-2.5c-5.3,0-10.6,0-15.9,0c-0.7,0-1.3-0.1-2,0.3c-0.5,0.5-0.4,1.1-0.4,1.7c0,4.9,0,9.9,0,14.8
			C716.2,283.1,715.9,288.1,715.3,293.1z"/>
		<path class="st99" d="M790.1,289.3c0-0.1,0-0.2,0-0.3c-0.5-0.4-0.5-1-0.5-1.6c0-1.9,0-3.8,0-5.7c0.2-6.2-0.4-12.4-0.3-18.6
			c0-0.7,0-1.4-0.5-1.9c-0.6-0.4-1.2-0.3-1.8-0.3c-5.2,0-10.3,0-15.5,0c-2.2,0-2.4,0.2-2.4,2.4c0,5.4,0,10.7,0,16.1
			c0,0.5,0,1,0.1,1.5c0.3,0.7,0.2,1.5,0.2,2.3c0,8.7,0,17.3,0,26c0,2.7,0.2,2.8,2.9,2.8c4.9,0,9.8,0,14.7,0c2.3,0,2.7-0.5,2.6-2.8
			c-0.1-1.7-0.2-3.4,0-5.1c-0.1,1.4-0.1,2.8,0,4.2c0,0.4,0.1,0.7,0.6,0.7c0.2-6-0.1-12-0.3-18C789.4,290.6,789.4,290,790.1,289.3z"
			/>
		<path class="st99" d="M820.8,296.2c0,2.8,0,5.6,0,8.4c0.5,0.4,0.6,0.9,0.6,1.5c0,1.2,0.1,2.5,0.1,3.7c-0.1,2.1,0.1,2.2,2.1,2.2
			c7,0,14,0,21,0c0.5,0,1,0,1.5,0c0.4,0,0.6-0.1,0.7-0.4c0.3-1.9,0.1-3.9,0.1-5.8c0-3.7,0-7.4,0-11.1c0-3.8,0-7.6,0-11.4
			c0-1.6-0.3-2-1.9-2c-7.2,0-14.3,0-21.5,0c-0.4,0-0.7,0-1.1,0.2c-0.7,0.4-0.7,1.1-0.7,1.8c-0.2,1.9-0.3,3.9-0.2,5.8
			c0,1.8-0.1,3.7-0.1,5.5C821.6,295.1,821.4,295.7,820.8,296.2z"/>
		<path class="st99" d="M912,310.7c0.3-4.9-0.4-9.7-0.3-14.6c-0.8-0.6-0.8-1.5-0.8-2.3c0-0.9,0-1.7,0-2.6c0-1.5,0-3.1,0-4.6
			c0-1.2,0.1-2.4-0.1-3.6c-0.1-0.6-0.2-1.3-0.9-1.7c-0.6-0.2-1.2-0.2-1.8-0.2c-6.3,0-12.7,0-19,0c-2.4,0-2.6,0.2-2.6,2.7
			c0,1.9,0,3.8,0,5.7c0,1.7,0,3.4,0,5.1c0,3.7,0,7.4,0,11c0,1.4-0.1,2.9,0.1,4.3c0.6,2,0.6,2,2.6,2c6.7,0,13.3,0,20,0
			c1.8,0,2-0.2,2.1-2c0-1.3,0.1-2.6,0.1-3.8c0,1.1,0,2.1,0,3.2C911.3,309.8,911.1,310.5,912,310.7z"/>
		<path class="st100" d="M843.3,265.7c-6.9,0-13.7,0-20.6,0c-1.1,0-1.7,0.3-2,1.4c-1.3,3.9-2.7,7.8-4.1,11.7
			c-0.1,0.3-0.2,0.6-0.2,0.9c0.6,0.6,1.3,0.5,2,0.5c8.7,0,17.4,0,26.1,0c0.7,0,1.3,0,1.9-0.4c0.3-0.3,0.4-0.7,0.4-1.1
			c0-4.2,0.2-8.4-0.1-12.6c-0.1-0.3-0.3-0.5-0.5-0.6C845.3,265.4,844.4,266.1,843.3,265.7z"/>
		<path class="st100" d="M916.7,279.3c-1.5-4.3-2.9-8.7-4.4-13c-0.3-0.8-1-0.6-1.6-0.6c-7.2,0-14.4,0-21.6,0c-0.6-0.2-1.3,0.3-1.9,0
			c-0.4-0.2-0.6,0.3-0.7,0.7c-0.1,4,0,8,0,12c0,0.5,0,1,0.4,1.4c0.6,0.4,1.3,0.4,1.9,0.4c8.6,0,17.2,0,25.8,0
			C915.3,280.2,916.4,280.6,916.7,279.3z"/>
		<path class="st100" d="M736.4,248.4c-6.4,0-12.8,0.1-19.2,0c-1.1,0-1.6,0.3-2,1.4c-1,3.4-2.2,6.7-3.4,10c0.1,1,0.9,0.8,1.5,0.9
			c1.5,0.1,3,0,4.5,0c5.5,0,11.1,0,16.6,0c0.6,0,1.2,0.1,1.8-0.1c0.2-0.1,0.4-0.2,0.5-0.3c0.1-0.1,0.1-0.2,0.2-0.3
			c0.4-3.8,0.5-7.6-0.1-11.4C736.8,248.4,736.6,248.3,736.4,248.4z"/>
		<path class="st100" d="M794.4,259.9c-1.2-3.7-2.5-7.4-3.7-11.1c-0.3-0.8-1-0.6-1.6-0.6c-5.9,0-11.9,0-17.8,0c-0.6,0-1.1,0-1.7-0.1
			c-0.2-0.1-0.4,0-0.4,0.2c-0.1,0.2-0.1,0.4,0,0.6c0.1,3,0,6.1,0,9.1c0,0.7-0.1,1.5,0.5,2c0.5,0.4,1.2,0.3,1.8,0.3
			c6.8,0,13.6,0,20.4,0C792.8,260.4,793.7,260.5,794.4,259.9z"/>
		<path class="st99" d="M980.8,306.7c0-9.3,0-18.5,0-27.8c0-1.1-0.4-1.5-1.4-1.4c-0.7,0.1-1.3,0-2,0c-0.6,0.5-1.1,1.2-2.1,1.2
			c-0.3,0-0.4,0.4-0.5,0.7c-0.1,5.5,0,11.1-0.1,16.6c0,1.4,0,2.7,0,4.1c0,2.6,0,5.1,0,7.7c0.2,1.5-0.3,3,0.4,4.4
			c1.5,0.3,3,0.1,4.5,0.1c0.9,0,0.8-0.7,0.9-1.3C980.7,309.7,980.3,308.2,980.8,306.7z"/>
		<path class="st99" d="M942.9,277.5c-0.4,0-0.8,0-1.2,0c-0.9-0.1-1.2,0.3-1.2,1.1c-0.4,10.9-0.3,21.8-0.3,32.7
			c0.5,0,0.4-0.3,0.4-0.6c0-1.6,0-3.3,0-4.1c0,1,0.1,2.8,0,4.6c0,0.4-0.1,0.8,0.3,1.1c1.1,0.1,2.3,0,3.4,0.1
			c1.2,0.1,1.7-0.4,1.7-1.6c0-2.9,0-5.9,0-8.8c0-7.6,0.1-15.3,0-22.9c-0.1-0.4-0.3-1-0.8-0.7C944,278.9,943.6,278,942.9,277.5z"/>
		<path class="st101" d="M886.9,265.8c0.8,0.9,1.5,0.7,2.2,0c0.7-0.8,0.7-1.3-0.3-2c-1.9-1.4-3.8-3-5.6-4.5c-2-2-4.2-3.8-6.5-5.3
			c-3-2.4-6.1-4.7-9.1-7.2c-0.7-0.6-1.1-0.7-1.9,0c-7.3,5.7-14.7,11.4-22.1,17c-1,0.7-0.8,1.2-0.2,1.9c0.9,1.5,1.8,0.3,2.7,0
			c2.4-1.2,4.4-3.1,6.5-4.7c4.3-3.3,8.7-6.6,12.9-10.1c0.9-0.7,1.5-0.4,2.3,0.2c5.8,4.5,11.4,9.1,17.2,13.7c0.5,0.4,0.9,0.8,1.5,1
			C886.6,265.9,886.7,265.9,886.9,265.8z"/>
		<path class="st101" d="M761.6,226.7c-0.7,1.6,0,3.3-0.4,5.2c-1.5-1.1-2.9-2.2-4.3-3.4c-1.2-1-2.4-2.7-3.8-2.7
			c-1.3,0-2.5,1.6-3.7,2.6c-5,3.8-9.9,7.6-14.9,11.5c-0.5,0.4-1.6,0.6-0.7,1.7c0.7,0.9,1.3,1.2,2.2,0.3c0.1-0.1,0.3-0.2,0.5-0.3
			c0.2,0,0.4-0.1,0.6-0.2c4.9-3.6,9.6-7.5,14.5-11.2c1.5-1.1,1.5-1.2,3,0.1c4.8,3.8,9.6,7.7,14.4,11.5c0.3,0.2,0.7,0.3,1,0.4
			c1.1,1,1.3-0.3,1.8-0.8c0.7-0.7,0-1-0.4-1.3c-1.5-1.2-3-2.3-4.5-3.5c-0.9-1.3-2.2-2.2-3.4-3.1c-1.1-0.8-1.5-1.8-1.5-3.2
			C762,229.1,762.3,227.9,761.6,226.7z"/>
		<path class="st101" d="M942.9,277.5c0.7,2,0.8,2,2.6,0.9c0.4,0,0.7-0.2,1-0.4c4.2-3.2,8.3-6.4,12.5-9.7c1-0.8,1.8-0.8,2.8,0
			c4.3,3.4,8.5,6.9,12.8,10.3c0.2,0.1,0.4,0.2,0.6,0.1c1.6,1.1,1.6-0.5,2.1-1.2c-1.6-1.2-3.2-2.5-4.8-3.7c-1.4-1.6-3.1-2.8-4.8-4.1
			c-2.2-1.2-4-2.9-5.8-4.5c-1.2-1.1-2-0.9-3.2,0C953.6,269.4,948.2,273.5,942.9,277.5z"/>
		<path class="st102" d="M912,310.7c-0.6-1.6-0.1-3.3-0.3-4.9c-0.1-0.4,0.3-1.3-0.5-1.2c-0.7,0.1-0.5,0.7-0.5,1.3
			c0.1,1.6,0,3.2,0,4.9c0,0.6-0.3,0.8-1,0.8c-7.1,0-14.3-0.1-21.4,0c-1.4,0-0.9-1.1-1.4-1.6c-0.5,0.2-0.3,1-0.9,1.1
			c-0.2,0-0.3,0-0.5,0c-4.6,0.1-9.2-0.2-13.8,0.1c-2.7,0.4-5.3,0.1-8,0.2c-1.2,0-1.4-0.7-1.4-1.7c0-4.1,0-8.1,0-12.2
			c0-0.8,0.1-1.7-0.5-2.4c-1,0.3-0.8,1.2-0.8,1.9c-0.1,3.9,0,7.7,0,11.6c0,2.4,0,2.4-2.4,2.4c-3,0-6,0-9,0c-1.7,0-1.9-0.1-1.9-1.9
			c0-5,0-10,0-15c0-0.8,0.2-1.7-0.7-2.2c-0.5,0.8-0.1,1.7-0.2,2.6c0,3.7,0,7.3,0,11c-0.1,2,0.2,4-0.2,6c-7.8,0-15.5,0-23.3,0
			c-1.2,0-1.6-0.5-1.4-1.5c0.3-1.6-0.1-3.2,0-4.8c0.1-0.9-0.6-0.8-1.1-0.9c0,0.2,0,0.4,0,0.6c-0.2,2.4-0.3,4.8,0,7.1
			c18,0,35.9,0,53.9,0c11.9,0,23.8,0,35.6,0C911.6,312.3,912.2,312.1,912,310.7z"/>
		<path class="st103" d="M846.5,279.7c-10,0-20.1,0-30.1,0c-0.5,1.2-0.1,1.7,1.2,1.6c1.2-0.1,2.3,0,3.5,0c0.5,0.4,0.9,0.2,1.4,0.1
			c8.1,0,16.2,0,24.3,0c0.8-0.3,0.8-1,0.8-1.7c0.1-4.2,0.1-8.3,0-12.5c0-0.6,0-1.3-0.7-1.5c-0.4,0.5-0.2,1-0.2,1.5c0,3.7,0,7.3,0,11
			C846.7,278.7,846.8,279.2,846.5,279.7z"/>
		<path class="st103" d="M916.7,279.3c-0.5,0.7-1.2,0.4-1.9,0.4c-9.3,0-18.6,0-28,0c-0.5-0.2-0.8-0.1-0.9,0.4
			c-0.1,0.6-0.1,1.1,0.6,1.3c7.9-0.1,15.8-0.1,23.7,0c0.4,0.2,0.8,0.1,1.1-0.2c1.4,0,2.8,0,4.1-0.1
			C917.2,281.3,917.3,281.1,916.7,279.3z"/>
		<path class="st2" d="M790.4,309.2c-0.6-1.6-0.1-3.3-0.3-4.9c-0.1-0.7,0.2-1.4-0.4-2.5c-0.4,2-0.7,3.7-0.5,5.3c0.1,1-0.1,2,0.1,3
			c0.2,0.8-0.3,1.6-1.5,1.5c-5.5-0.1-11-0.1-16.4,0c-1.2,0-1.5-0.4-1.5-1.5c0-9.1,0-18.3,0-27.4c0-0.6,0.2-1.3-0.3-1.8
			c-0.5,0.5-0.4,1.1-0.4,1.7c0,1.8,0,3.6,0,5.4c0,5.1,0,10.2,0,15.3c0,2.1,0,4.2,0,6.3c0,0.6,0.1,1.1-0.5,1.5
			c-1.7,0.4-3.4,0.1-5.1,0.2c-2.1,0.1-4.2-0.2-6.3,0.2c-2,0.4-4.1,0.1-6.1,0.2c-0.6,0-1.4-0.2-1.7,0.6c5.2,0,10.4,0.1,15.6,0.1
			c7.7,0,15.4,0,23.1,0c2.2,0,2.2,0,2.2-2.2C790.4,310,790.4,309.6,790.4,309.2z"/>
		<path d="M876.6,254c2,2,4.2,3.7,6.5,5.3c0-2.7,0-5.5,0-8.2c0-0.9-0.2-1.2-1.1-1.1c-1.4,0.1-2.8,0.1-4.2,0c-1-0.1-1.3,0.3-1.2,1.2
			C876.7,252.1,876.6,253,876.6,254z"/>
		<path class="st5" d="M761.6,226.7c0,1.6,0,3.2,0,4.8c0,0.7,0.1,1.2,0.7,1.6c1.5,1.2,3.1,2.3,4.6,3.5c0-2.9-0.1-5.8-0.1-8.7
			c0-0.9-0.1-1.4-1.2-1.3C764.2,226.7,762.9,226.7,761.6,226.7z"/>
		<path class="st102" d="M749.5,312.5c2-0.5,4-0.1,6.1-0.2c0.6,0,1.2,0.2,1.7-0.4c-0.1-0.1-0.2-0.1-0.2-0.2
			c-2.7-0.5-5.5-0.2-8.2-0.2c-3.1-0.1-6.2,0-9.3,0c-1.8,0-1.9-0.1-2-1.9c0-4,0-7.9,0-11.9c0-0.8,0.2-1.7-0.8-2.2
			c-0.4,0.5-0.2,1-0.2,1.5c0,4.4,0,8.8,0,13.2c0,0.5,0.2,1-0.2,1.5c-6.2,0-12.5,0-18.7,0c-1.1,0-1.5-0.3-1.4-1.4
			c0.1-1.3,0-2.6,0-3.9c0.1-0.8,0.6-1.7-0.9-1.2c0,2.1,0,4.1,0,6.2c0,0.8,0.2,1.2,1.1,1.2C727.4,312.6,738.5,312.5,749.5,312.5z"/>
		<path class="st103" d="M794.4,259.9c-8.3,0-16.5,0-24.8,0c-0.1,0.1-0.1,0.2-0.2,0.2c-0.1,1.2,0.8,1,1.5,1c3.4,0,6.9,0,10.3,0
			c2.4,0,4.8,0,7.2,0c0.2,0,0.4,0.1,0.5,0.1c0.3,0.1,0.5,0.1,0.8-0.1c1.2,0,2.4-0.1,3.6,0C794.5,261.2,794.6,260.7,794.4,259.9z"/>
		<path class="st101" d="M736.4,260.2c-7.6,0-15.2,0-22.8,0c-0.6,0-1.3,0.2-1.7-0.4c-0.7,1.2-0.4,1.7,1,1.7c0.9-0.1,1.8,0,2.7,0
			c0.3,0.2,0.7,0.2,1,0.1c0.2-0.1,0.4-0.1,0.5-0.1c6,0,11.9,0,17.9,0C735.8,261.4,736.9,261.7,736.4,260.2z"/>
		<path d="M967.8,269.8c1.2,1.8,3.1,2.9,4.8,4.1c0-1.9-0.1-3.8,0-5.7c0-1-0.3-1.3-1.2-1.1c-0.2,0-0.5,0-0.8,0
			C967.9,267,967.9,267,967.8,269.8z"/>
		<path class="st0" d="M789.8,261.2c-0.2,0-0.4,0-0.6,0c-0.1,0-0.2,0.1-0.3,0.3c0,3.5-0.2,7,0.1,10.5c0.3,3.3,0.1,6.7,0.2,10
			c0.3,0.3,0.6,0.3,0.9,0c0-5.9,0-11.8,0-17.7C790.1,263.2,789.9,262.2,789.8,261.2z"/>
		<path class="st104" d="M716.6,261.5c-0.3,0-0.6,0-0.9,0c0.2,8.9-0.4,17.7-0.3,26.6c0.8-0.1,0.6-0.7,0.6-1.2
			c0.2-2.2,0.2-4.5,0.2-6.7c0-0.6-0.1-1.2,0.5-1.7c0-5.6,0-11.2,0-16.8C716.7,261.7,716.7,261.6,716.6,261.5L716.6,261.5z"/>
		<path class="st105" d="M945.5,302.1c0,3,0,5.9,0,8.9c0,1-0.2,1.4-1.3,1.3s-2.3,0-3.4,0c-0.3-0.1-0.4,0-0.3,0.3
			c7.9,0,15.7,0,23.6,0c0-0.1,0-0.2,0.1-0.3c-0.1-0.2-0.3-0.3-0.4-0.3c-2.4-0.4-4.7-0.1-7.1-0.1c-2.1-0.1-4.2,0-6.3,0
			c-4.1,0-3.6,0.5-3.7-3.7c0-1.9,0-3.8,0-5.7c0-0.7,0-1.3-0.3-2c-0.4-0.4-0.6-0.2-0.7,0.2C945.6,301.1,945.8,301.6,945.5,302.1z"/>
		<path class="st1" d="M964.2,312.2c0,0.1-0.1,0.3-0.1,0.4c5,0,10.1,0,15.1,0c1.2,0,1.8-0.2,1.7-1.6s0-2.9-0.1-4.3
			c-1,0.3-0.6,1.1-0.6,1.7c-0.1,3.9,0,3.9-3.9,3.9c-0.4,0-0.7,0-1.1,0c-0.4-1.5-0.1-3-0.2-4.4c0-2.5,0-5,0-7.6
			c0-0.3,0.1-0.6-0.2-0.8c-0.9,0.5-0.7,1.3-0.7,2c0,2.8,0,5.6,0,8.4c0,1.7-0.1,1.8-1.8,1.9c-2,0-4,0-6,0
			C965.5,311.8,964.8,311.7,964.2,312.2z"/>
		<path class="st106" d="M716.6,278.5c-0.9-0.1-0.9,0.5-0.9,1.2c0,2.3,0,4.6,0,6.9c0,0.5,0.2,1-0.3,1.5c0,1.7,0,3.3,0,5
			c1.3-3.1,0.8-6.4,1.2-9.7C716.7,281.8,716.6,280.1,716.6,278.5z"/>
		<path class="st104" d="M822.3,281.3c-0.4,0-0.8,0-1.2,0c-0.3,3.9-0.3,7.8-0.3,11.7c1-0.3,0.6-1.1,0.7-1.7c0.1-0.8-0.2-1.6,0.5-2.3
			c-0.1-2.5,0.2-5,0.3-7.4c0.1-0.1,0.2-0.1,0.1-0.2C822.4,281.4,822.4,281.3,822.3,281.3z"/>
		<path class="st107" d="M715.3,305.2c1-0.1,0.9,0.6,0.9,1.2c0.6-2.5,0.2-4.9,0.2-7.4c0-1.1-0.4-1.1-1.1-0.9
			C715.3,300.4,715.3,302.8,715.3,305.2z"/>
		<path class="st108" d="M822,289c-0.9-0.1-0.9,0.5-0.9,1.2c-0.1,0.9,0.3,1.9-0.3,2.8c0,1,0,2.1,0,3.1c0.6,0,1.2,0,1.2-0.9
			C822,293.2,822,291.1,822,289z"/>
		<path class="st0" d="M911.4,281.3c-0.3,0-0.6,0-0.9,0c-0.2,0-0.3,0.1-0.3,0.3c0.3,1.6,0.3,3.3,0.3,4.9c0.6,0.5,0.4,1.2,0.5,1.8
			c0.1,0.6-0.2,1.4,0.7,1.6C911.5,287.1,912,284.2,911.4,281.3z"/>
		<path class="st19" d="M790.1,281.9c-0.3,0-0.6,0-0.9,0c0,2,0,4,0,5.9c0,0.7,0,1.3,0.9,1.2C790.1,286.7,790.1,284.3,790.1,281.9z"
			/>
		<path class="st109" d="M911.7,290c-0.6-0.7-0.2-1.6-0.3-2.4c0-0.7-0.2-1.1-0.9-1c0,1.7,0,3.3,0,5c0.4,0.3,0.5,1,1.2,0.9
			C911.7,291.6,911.7,290.8,911.7,290z"/>
		<path class="st19" d="M911.7,292.4c-0.4-0.4-0.4-1.1-1.2-0.9c0,1.2,0,2.5,0,3.7c0,0.8,0.4,1.1,1.2,0.9
			C911.7,294.9,911.7,293.7,911.7,292.4z"/>
		<path class="st110" d="M940.5,312.6c0.1-0.1,0.2-0.2,0.3-0.3c0-2.3,0-4.5,0-6.8c-0.6,1.9,0.1,3.9-0.6,5.8
			C940.3,311.8,940,312.3,940.5,312.6z"/>
		<path class="st99" d="M820.8,312.3c0-2.4,0-4.8,0-7.1C820.3,307.5,820.3,309.9,820.8,312.3z"/>
		<path class="st111" d="M736.7,241.3c-0.1,0.1-0.2,0.2-0.3,0.3c0,2.3,0,4.6,0,6.8c0.1,0.1,0.2,0.1,0.3,0.1c0.4-0.3,0.5-0.7,0.5-1.1
			C737.1,245.4,737.7,243.2,736.7,241.3z"/>
		<path class="st112" d="M770,242.2c-0.1-0.3-0.4-0.4-0.7-0.5c-0.8,2.2-0.8,4.3,0,6.5c0.1,0,0.2,0,0.3-0.1c0-1.5,0-3,0-4.5
			C769.6,243.1,769.5,242.6,770,242.2z"/>
		<path class="st19" d="M790.1,289.3c-0.7-0.1-0.9,0.3-0.9,1s0.3,0.9,0.9,0.9C790.1,290.6,790.1,290,790.1,289.3z"/>
		<path class="st103" d="M734,278.1c0-1.5,0-3.1-0.1-4.6c-0.5-0.5-1.2-0.5-1.9-0.5c-3.7,0-7.4,0-11.1,0c-0.7,0-1.3,0-1.9,0.5
			c0,1.5-0.1,3.1-0.1,4.6c0.5,0.6,1.2,0.5,1.9,0.5c3.8,0,7.5,0,11.3,0C732.8,278.7,733.5,278.7,734,278.1z"/>
		<path class="st103" d="M734,299.8c0-1.5,0-3.1,0-4.6c-0.5-0.5-1.2-0.5-1.9-0.5c-3.7,0-7.4,0-11.1,0c-0.7,0-1.3,0-1.9,0.5
			c0,1.6,0,3.1-0.1,4.7c0.5,0.5,1.2,0.5,1.9,0.5c3.7,0,7.5,0,11.2,0C732.8,300.4,733.5,300.4,734,299.8z"/>
		<path class="st113" d="M719.1,295.2c5,0,9.9,0,14.9,0c0.3-3.7,0.3-3.7-3.4-3.7c-3.4,0-6.8,0-10.2,0c-1,0-1.4,0.2-1.3,1.3
			C719.1,293.6,719.1,294.4,719.1,295.2z"/>
		<path class="st113" d="M719.1,273.5c4.9,0,9.9,0,14.8,0c0.4-3.8,0.4-3.8-3.3-3.8c-3.3,0-6.6,0.1-9.9,0c-1.5-0.1-1.9,0.5-1.7,1.8
			C719.1,272.2,719.1,272.8,719.1,273.5z"/>
		<path d="M734,278.1c-5,0-10,0-15,0c-1-0.1-0.9,0.5-0.9,1.1c-0.1,0.8,0.4,0.8,1,0.8c5,0,9.9,0,14.9,0c0.5,0,1,0.1,1-0.8
			C734.9,278.6,734.9,278,734,278.1z"/>
		<path class="st5" d="M734,299.8c-5,0-10,0-15,0c-1-0.1-0.9,0.7-0.9,1.3c0,0.8,0.6,0.5,1,0.5c4.9,0,9.9,0,14.8,0c0.4,0,1,0.2,1-0.6
			C735,300.5,735,299.8,734,299.8z"/>
		<path class="st114" d="M716.6,261.5c0,0.1,0,0.2,0,0.2c6.1,0,12.2,0,18.3,0c1.2,0,1.6,0.4,1.6,1.6c-0.1,5.2,0,10.3,0,15.5
			c0.2,0.1,0.4,0,0.5-0.2c0.3-0.5,0.3-1.1,0.3-1.6c0-4.6,0-9.1,0-13.7c0-0.7,0-1.3-0.4-1.9c-3.2-0.2-6.5-0.1-9.7-0.1
			c-3.5,0-7-0.1-10.5,0.1L716.6,261.5z"/>
		<path class="st115" d="M736.7,278.8c-0.1,0-0.2,0-0.3,0c0,11,0,21.9,0,32.9c0.7-0.2,0.3-0.8,0.3-1.2c0-5,0-10,0.1-15
			c0.4-0.4,0.5-1,0.5-1.6c0-4.5,0-9,0-13.6C737.2,279.8,737.2,279.2,736.7,278.8z"/>
		<path class="st103" d="M771.5,273.5c0,1.5-0.1,3.1-0.1,4.6c0.5,0.6,1.2,0.5,1.9,0.5c3.8,0,7.7,0,11.5,0c0.7,0,1.4,0,1.9-0.5
			c0-2.3,0-4.6-0.1-6.9c0-0.5,0.3-1-0.3-1.4c-0.4,0.4-0.5,0.9-0.5,1.4c0.1,1.5-0.7,1.8-2,1.8c-3.4,0-6.8,0-10.2,0
			C773,273,772.2,272.9,771.5,273.5z"/>
		<path class="st103" d="M772.1,295.3c0,1.5,0,3.1,0,4.6c0.4,0.5,1,0.6,1.5,0.6c4,0,7.9,0,11.9,0c0.6,0,1.1,0,1.6-0.5
			c0-1.6,0-3.1-0.1-4.7c-0.5-0.5-1.2-0.5-1.9-0.5c-3.7,0-7.4,0-11.1,0C773.3,294.7,772.6,294.7,772.1,295.3z"/>
		<path class="st113" d="M772.1,295.3c5,0,9.9,0,14.9,0c0.2-3.7,0.2-3.7-3.5-3.7c-3.3,0-6.6,0.1-9.9,0c-1.3,0-1.8,0.3-1.6,1.6
			C772,293.8,771.8,294.6,772.1,295.3z"/>
		<path class="st113" d="M771.5,273.5c4.4,0,8.7,0,13.1,0c1.4,0,1.9-0.3,1.7-1.7c-0.1-0.7,0-1.3,0-2c-4.6,0-9.3,0-13.9-0.1
			c-0.8,0-1,0.3-0.9,1C771.5,271.7,771.5,272.6,771.5,273.5z"/>
		<path d="M786.7,278.2c-5.1,0-10.2,0-15.3,0c-1-0.1-0.9,0.5-0.9,1.2s0.4,0.7,0.9,0.7c5,0,10.1,0,15.1,0c0.5,0,1,0.1,1-0.6
			C787.6,278.8,787.7,278.1,786.7,278.2z"/>
		<path class="st5" d="M787,299.9c-5,0-10,0-15-0.1c-0.9,0-1,0.6-1,1.4c0.1,0.9,0.7,0.6,1.2,0.6c4.9,0,9.8,0,14.7,0
			c0.4,0,1,0.3,1-0.5C787.9,300.6,788,299.8,787,299.9z"/>
		<path class="st116" d="M788.9,261.5c0.1-0.1,0.2-0.2,0.3-0.3v-0.1c-4.8-0.2-9.6-0.1-14.3-0.1c-1.8,0-3.7-0.1-5.5,0.1
			c-0.5,0.5-0.5,1.1-0.5,1.7c0,5.1,0,10.2,0,15.3c0,0.5,0,1,0.3,1.5c0.1,0.2,0.3,0.3,0.5,0.2c0-5.6,0-11.2,0-16.8
			c0-1.2,0.4-1.5,1.5-1.5C777,261.5,782.9,261.4,788.9,261.5z"/>
		<path class="st117" d="M769.6,279.7c-0.1,0-0.2,0-0.3,0c-0.2,0.2-0.4,0.4-0.4,0.6c-0.1,2.5-0.4,5.1,0.2,7.6
			c0.1,0.2,0.3,0.3,0.5,0.2c0-2.4,0-4.8,0-7.1C769.6,280.6,769.6,280.1,769.6,279.7z"/>
		<path class="st2" d="M789.7,300.3c-0.4-0.1-0.4,0.3-0.4,0.5c-0.1,0.3-0.1,0.5,0.2,0.6s0.5-0.1,0.5-0.4
			C790.1,300.7,790.1,300.4,789.7,300.3z"/>
		<path class="st103" d="M825.2,291.2c0,2,0,3.9,0,5.9c0.6,0.6,1.3,0.5,2,0.5c4.7,0,9.5,0,14.2,0c0.7,0,1.5,0.1,2-0.5
			c0-1.9,0-3.7,0-5.6c-0.4-0.4-1-0.5-1.6-0.5c-5.2,0-10.5,0-15.7,0C825.8,291,825.5,291,825.2,291.2z"/>
		<path class="st113" d="M825.2,291.2c0.5,0.4,1.2,0.3,1.8,0.3c5.5,0,10.9,0,16.4,0c0.1-1.5,0.6-3.4-0.2-4.3s-2.7-0.3-4.1-0.3
			c-4.2,0-8.4,0-12.7,0c-1,0-1.4,0.2-1.3,1.3C825.2,289.1,825.2,290.2,825.2,291.2z"/>
		<path class="st5" d="M843.4,297.1c-6.1,0-12.2,0-18.3,0c-1.2,0-1,0.8-1,1.6c0,1,0.8,0.6,1.3,0.6c6,0,11.9,0,17.9,0
			c0.5,0,1.3,0.4,1.4-0.6C844.8,297.7,844.6,297.1,843.4,297.1z"/>
		<path class="st118" d="M822.3,281.3c0,0.1,0,0.2,0,0.3c7.5,0,15,0,22.6,0c1.2,0,1.7,0.3,1.7,1.6c-0.1,3.8,0,7.6,0,11.4
			c0.1,0.1,0.2,0.1,0.3,0c0-0.8,0-1.7,0.1-2.5c0.8-3.6,0.8-7.2,0-10.8C838.7,281.3,830.5,281.3,822.3,281.3z"/>
		<path class="st119" d="M846.8,294.6c-0.1,0-0.2,0-0.3,0c0,3.7,0,7.4,0,11.2c0.1,0.1,0.2,0.1,0.2,0
			C846.8,302.1,846.8,298.4,846.8,294.6z"/>
		<path class="st120" d="M846.8,305.8c-0.1,0-0.2,0-0.2,0c0,2,0,3.9,0,5.9C847.2,309.8,846.7,307.8,846.8,305.8z"/>
		<path class="st103" d="M907.9,297.1c0-2.9,0-5.8,0-8.8c0-0.5,0.3-1-0.3-1.4c-0.6,0.6-0.5,1.4-0.5,2.2c-0.1,1.7-0.2,1.9-1.9,1.9
			c-4.4,0-8.8,0-13.3,0c-0.8,0-1.7-0.1-2.4,0.5c0,1.9,0,3.7,0,5.6c0.6,0.6,1.3,0.5,2,0.5c4.7,0,9.5,0,14.2,0
			C906.6,297.6,907.3,297.7,907.9,297.1z"/>
		<path class="st113" d="M889.7,291.5c5.5,0,10.9,0,16.4,0c1.3,0,1.7-0.4,1.6-1.7c-0.1-1,0-2,0-2.9c-5.7,0-11.5,0-17.2-0.1
			c-0.7,0-0.9,0.3-0.8,0.9C889.6,289,889.7,290.3,889.7,291.5z"/>
		<path class="st5" d="M907.9,297.1c-6.1,0-12.2,0-18.3,0c-1.1,0-1.3,0.6-1.2,1.6c0.1,1.1,0.9,0.6,1.4,0.6c6,0,12,0,18,0
			c0.5,0,1.2,0.2,1.1-0.8C908.9,297.9,909,297.1,907.9,297.1z"/>
		<path class="st121" d="M910.2,281.6c0.1-0.1,0.2-0.2,0.3-0.3c-7.7,0-15.3,0-23,0c-0.4,0-0.8,0-1.2-0.1c-0.5,0.4-0.5,1-0.5,1.6
			c0,4,0,7.9,0,11.9c0,0.5,0.1,0.9,0.3,1.3c0.3,0.3,0.5,0.2,0.6-0.2c0.1-0.4,0-0.8,0-1.2c0.1-1.7-0.2-3.4,0.2-5c0-2.3,0-4.5,0-6.8
			c0-0.9,0.2-1.3,1.2-1.3C895.4,281.6,902.8,281.6,910.2,281.6z"/>
		<path class="st122" d="M886.6,294.6c-0.1,0.5,0.2,1.1-0.3,1.6c-0.6,0.5-0.5,1.2-0.5,1.9c0,3.9,0,7.8,0,11.7c0,0.7,0,1.3,0.5,1.9
			c0.1,0,0.2,0,0.3,0c0.3-1.4,0.1-2.8,0.2-4.2c0-0.5-0.1-1.1,0.1-1.6c0-3.7,0-7.4,0-11.2C886.8,294.5,886.7,294.5,886.6,294.6z"/>
		<path class="st120" d="M886.9,305.8c-0.7,1.9-0.1,3.9-0.3,5.9c0.5-0.4,0.2-1,0.3-1.6C886.9,308.7,886.9,307.2,886.9,305.8z"/>
		<path class="st117" d="M886.6,294.6c0.1,0,0.2,0,0.3,0c0-1.7,0-3.3,0-5C886.2,291.3,886.7,293,886.6,294.6z"/>
		<path class="st123" d="M886.2,311.7c0-5.2,0-10.3,0.1-15.5c0-5,0-9.9,0-14.9c0-0.5,0-1,0-1.5c0.2-0.2,0.2-0.5,0.2-0.7
			c0-4.4,0.1-8.9-0.1-13.3c-3.7-3-7.4-6-11.1-9c-2.7-2.2-5.4-4.3-8.1-6.4c-0.4-0.4-0.7-0.5-1.2-0.1c-6.7,5.2-13.4,10.2-20,15.6
			c0.2,0,0.3,0,0.5,0.1c0.1,0.2,0.2,0.1,0.3,0c0.4,0.1,0.3,0.5,0.3,0.8c0,4.7,0,9.3,0,14c0,0.3,0.1,0.6-0.3,0.8c0,3.6,0,7.2,0,10.8
			c0.4,0.5,0.2,1.1,0.2,1.6c0,5.5,0,10.9,0,16.4c0,1.2,0.3,1.6,1.5,1.6c3.8-0.1,7.6-0.1,11.4,0c1,0,1.3-0.3,1.3-1.3
			c0-4.5,0-9.1,0-13.6c0-0.5-0.3-1.2,0.4-1.5c0.6,0.5,1.3,0.5,2.1,0.5c1.8,0,3.6,0,5.4,0c1.8,0,1.9,0.1,1.9,2c0,3.9,0,7.8,0,11.8
			c0,0.8-0.1,1.6,0.5,2.2C876.5,311.7,881.4,311.7,886.2,311.7z"/>
		<path class="st124" d="M846.8,265.8c-0.1,0-0.2,0-0.3,0c0,4.6,0,9.3,0,13.9c0.5-0.5,0.3-1.1,0.3-1.6
			C846.9,274,846.8,269.9,846.8,265.8z"/>
		<path class="st125" d="M886.5,265.7c-0.4,1.1-0.2,2.2-0.2,3.3c0,3.6,0,7.1,0,10.7c0.2,0.1,0.4,0.3,0.6,0c0-4.7,0-9.3,0-14
			C886.7,265.8,886.6,265.7,886.5,265.7z"/>
		<path class="st123" d="M769.3,288.1c0-2.8,0-5.6,0-8.4c0-6.2,0-12.4,0-18.6c0.3-0.4,0.1-1,0.2-1.4c-0.1-3.8,0.1-7.5-0.1-11.3
			c0-0.1,0-0.2,0-0.3c0-2.2,0-4.3,0-6.5c-5.2-4.2-10.5-8.3-15.6-12.6c-0.9-0.7-1.2-0.1-1.6,0.3c-5.1,4-10.2,7.9-15.3,11.9
			c0,2.4,0,4.8,0,7.2c0,3.9,0,7.8,0,11.7c-0.1,0.4-0.2,0.8,0,1.2c0,5.8,0,11.6,0,17.4c0,5.6,0,11.1,0.1,16.7
			c0.4,0.5,0.2,1.1,0.2,1.6c0,4.4,0.1,8.9,0,13.3c0,1.2,0.3,1.6,1.5,1.6c3.4-0.1,6.9,0,10.3,0c0.5-0.6,0.4-1.4,0.4-2.1
			c0-3,0-6.1,0-9.1c0-1.8,0.1-1.9,1.8-1.9c1.2,0,2.5,0,3.7,0c1.6,0,1.8,0.2,1.8,1.8c0,3,0,6.1,0,9.1c0,0.8-0.1,1.6,0.5,2.2l0.1-0.1
			c4,0,8,0,11.9,0.1c0.5-1.2,0.2-2.4,0.2-3.6c0.1-1.6,0-3.2,0-4.8c0-4.7,0-9.3,0-14C769.4,289.1,769.6,288.6,769.3,288.1z"/>
		<path class="st126" d="M736.7,261.4c0-0.4,0-0.8,0-1.2c-0.1,0-0.2,0-0.3,0c0.1,1.2-0.9,0.9-1.5,0.9c-5.6,0-11.1,0-16.7,0
			c-0.6,0-1.1-0.2-1.6,0.2C723.3,261.4,730,261.4,736.7,261.4z"/>
		<path class="st124" d="M769.3,248.4c-0.3,3.8-0.2,7.6-0.1,11.5c0.1,0.1,0.2,0.1,0.3,0l0,0c0-3.3,0-6.6,0-9.9
			C769.6,249.5,769.8,248.9,769.3,248.4z"/>
		<path class="st116" d="M975.3,278.8c-0.1-0.1-0.2-0.2-0.3-0.3c-0.5,0.5-0.5,1.1-0.5,1.7c0,4.7,0,9.5,0,14.2c0,0.5,0,1,0.3,1.5
			c0.1,0.2,0.3,0.3,0.5,0.2C975.3,290.4,975.3,284.6,975.3,278.8z"/>
		<path class="st119" d="M975,300.2c0,2.6,0,5.2,0,7.8c0.1,0.1,0.2,0.1,0.2,0c0-2.6,0-5.2,0-7.8C975.2,300.1,975.1,300.1,975,300.2z
			"/>
		<path class="st120" d="M975.3,308c-0.1,0-0.2,0-0.2,0c0.1,1.4-0.4,2.9,0.3,4.3C975.3,310.9,975.3,309.4,975.3,308z"/>
		<path class="st117" d="M975,300.2c0.1,0,0.2,0,0.3,0c0-1.3,0-2.7,0-4c-0.1,0-0.2,0-0.3,0c-0.7,1.1-0.7,2.2,0,3.4
			C975,299.8,975,300,975,300.2z"/>
		<path class="st127" d="M945.5,302.1c0.6-0.5,0-1.4,0.6-1.9c0.5-0.5,0.5-1.1,0.5-1.7c0-6.3,0-12.6,0-18.9c0-0.6,0-1.2-0.5-1.7
			c-0.3,0.1-0.5,0.3-0.6,0.5C945.5,286.3,945.5,294.2,945.5,302.1z"/>
		<path class="st123" d="M946.1,277.9c0,7.4,0,14.9-0.1,22.3c0,3.6,0.1,7.2,0,10.8c0,1,0.3,1.3,1.3,1.3c3.1-0.1,6.2,0,9.3,0
			c0.5-0.6,0.5-1.3,0.5-2.1c0-2.6,0-5.1,0-7.7c0-1.6,0.2-1.8,1.8-1.8c1,0,2,0,2.9,0c1.6,0,1.7,0.2,1.7,1.8c0,2.5,0,5,0,7.6
			c0,0.8-0.1,1.6,0.5,2.2l0.1-0.1c3.1,0,6.2,0,9.3,0.1c0.9,0,1.2-0.3,1.2-1.2c0-3.3,0-6.6,0-9.9c0-0.6-0.2-1.1,0.2-1.6
			c0-1.1,0-2.3,0-3.4c0-5.9,0-11.8,0-17.6c-4.6-3.7-9.1-7.4-13.7-11.1c-0.6-0.5-1.1-0.5-1.8,0C955.1,271,950.6,274.4,946.1,277.9z"
			/>
		<path d="M871.7,311.7c0-5.1,0-10.1,0-15.2c0-1-0.2-1.3-1.3-1.3c-2.9,0.1-5.8,0-8.7,0c0,5.3,0,10.5-0.1,15.8c0,0.5-0.1,1,0.7,1
			c3,0,6.1-0.1,9.1-0.1C871.5,311.9,871.6,311.7,871.7,311.7z"/>
		<path class="st119" d="M769.3,288.1c0,5.2,0,10.3,0,15.5c0.1,0.1,0.2,0.1,0.3,0c0-5.2,0-10.3,0-15.5
			C769.5,288.1,769.4,288.1,769.3,288.1z"/>
		<path class="st120" d="M769.6,303.6c-0.1,0-0.2,0-0.3,0c0,2.8-0.1,5.6-0.1,8.4c0.6-0.3,0.4-0.9,0.4-1.4
			C769.6,308.3,769.6,306,769.6,303.6z"/>
		<path d="M757.2,312c0-4.1,0-8.2,0-12.4c0-0.9-0.1-1.4-1.2-1.3c-2,0.1-4,0.1-6,0c-0.9,0-1.1,0.3-1.1,1.1c0,4.2,0,8.3,0,12.5
			C751.7,312,754.4,312,757.2,312z"/>
		<path class="st128" d="M769.6,259.9c-0.1,0-0.2,0-0.3,0c0,0.4,0,0.8,0,1.3c6.6,0,13.2-0.1,19.9-0.1c-0.5-0.4-1.1-0.2-1.6-0.2
			c-5.5,0-11,0-16.5,0C770.3,260.8,769.5,261,769.6,259.9z"/>
		<path d="M964.1,312.3c0-3.7,0-7.3,0-11c0-0.9-0.2-1.2-1.1-1.1c-1.8,0.1-3.5,0.1-5.3,0c-0.9,0-1.1,0.2-1.1,1.1c0,3.7,0,7.3,0,11
			C959.2,312.3,961.6,312.3,964.1,312.3z"/>
		<path class="st129" d="M857.7,269.9c-0.6,0.3-0.3,0.9-0.3,1.4c0,2.9,0,5.9,0,8.8c0.6,0.6,1.3,0.5,2,0.5c4.8,0,9.5,0,14.3,0
			c0.7,0,1.5,0.1,2-0.5c0-1.9-0.1-3.7-0.1-5.6c-0.7-0.6-1.5-0.5-2.3-0.5c-4.3,0-8.6,0-12.9,0c-2,0-2.1-0.1-2.2-2
			C858.2,271.2,858.3,270.4,857.7,269.9z"/>
		<path class="st130" d="M857.7,269.9c0.1,1.5-0.6,3.3,0.3,4.3c0.9,0.9,2.7,0.3,4.2,0.3c4.5,0,9,0,13.4,0c0.1-1.5,0.6-3.4-0.2-4.4
			c-0.8-0.9-2.7-0.3-4.1-0.3C866.8,269.8,862.3,269.8,857.7,269.9z"/>
		<path d="M875.7,280c-6.1,0-12.2,0-18.4,0c-1.2-0.1-0.9,0.8-1,1.4c-0.1,0.9,0.5,0.8,1.1,0.8c6.1,0,12.2,0,18.2,0
			c0.6,0,1.3,0.3,1.2-0.8C877,280.5,876.8,279.9,875.7,280z"/>
		<path class="st129" d="M760.7,285.9c0-1.6-0.1-3.3-0.1-4.9c-0.9-0.4-1.8-0.2-2.8-0.2c-3.2,0-6.4,0-9.6,0c-1.8,0-1.8-0.1-2-1.8
			c-0.1-0.5-0.1-1-0.5-1.4c-0.6,1.4-0.1,2.8-0.2,4.2c-0.1,1.4,0.1,2.8-0.1,4.1c0.5,0.5,1.2,0.5,1.9,0.5c3.8,0,7.7,0,11.5,0
			C759.5,286.4,760.2,286.5,760.7,285.9z"/>
		<path class="st129" d="M760.7,267.6c0-1.6-0.1-3.3-0.1-4.9c-0.9-0.4-1.8-0.2-2.8-0.2c-3.2,0-6.4,0-9.6,0c-1.8,0-1.8,0-2-1.8
			c-0.1-0.5-0.1-1-0.5-1.4c-0.6,1.4-0.1,2.8-0.2,4.2c-0.1,1.4,0.1,2.8-0.1,4.1c0.5,0.5,1.2,0.5,1.9,0.5c3.8,0,7.7,0,11.5,0
			C759.5,268.1,760.2,268.2,760.7,267.6z"/>
		<path class="st129" d="M760.7,249.3c0-1.6-0.1-3.3-0.1-4.9c-0.9-0.4-1.8-0.2-2.7-0.2c-3.2,0-6.5,0-9.7,0c-1.7,0-1.7-0.1-1.9-1.8
			c-0.1-0.5-0.1-1-0.5-1.4c-0.5,1.5-0.1,3-0.2,4.5c-0.1,1.3,0.2,2.6-0.1,3.8c0.5,0.6,1.2,0.5,1.9,0.5c3.8,0,7.7,0,11.5,0
			C759.5,249.8,760.2,249.9,760.7,249.3z"/>
		<path class="st131" d="M745.7,241c0.1,3.7,0.1,3.7,3.9,3.7c3,0,6.1,0,9.1,0c0.6,0,1.2,0.1,1.8-0.3c0.2-3.6,0.2-3.6-3.4-3.6
			c-3.3,0-6.7,0-10,0C746.7,240.8,746.2,240.6,745.7,241z"/>
		<path class="st131" d="M745.7,259.3c0.1,3.7,0.1,3.7,3.7,3.7c3.1,0,6.2,0,9.3,0c0.6,0,1.2,0.1,1.8-0.3c0.2-3.6,0.2-3.6-3.4-3.6
			c-3.3,0-6.6,0-9.9,0C746.7,259.1,746.2,259,745.7,259.3z"/>
		<path class="st130" d="M745.7,277.6c0.1,3.7,0.1,3.7,3.8,3.7c3.1,0,6.2,0,9.3,0c0.6,0,1.2,0.1,1.8-0.3c0.2-3.5,0.2-3.6-3.3-3.5
			C753.4,277.5,749.6,277.2,745.7,277.6z"/>
		<path class="st132" d="M760.7,285.9c-5.1,0-10.2,0-15.3,0c-0.9-0.1-0.8,0.5-0.8,1.1s0.3,0.8,0.9,0.8c5.1,0,10.1,0,15.2,0
			c0.7,0,0.9-0.2,0.9-0.9C761.6,286.2,761.4,285.8,760.7,285.9z"/>
		<path class="st133" d="M760.7,249.3c-5.1,0-10.2,0-15.3,0c-0.9-0.1-0.8,0.5-0.8,1.1c0,0.5,0.3,0.7,0.8,0.7c5.1,0,10.2,0,15.3,0
			c0.6,0,0.8-0.2,0.8-0.8C761.6,249.5,761.4,249.2,760.7,249.3z"/>
		<path class="st134" d="M760.7,267.6c-5.1,0-10.2,0-15.3,0c-0.9-0.1-0.8,0.6-0.8,1.1c0,0.7,0.4,0.7,1,0.7c5,0,10,0,15,0
			c0.6,0,0.9-0.1,1-0.8C761.6,267.9,761.4,267.5,760.7,267.6z"/>
		<path class="st129" d="M967.2,289c0-2,0-4,0-6c0-0.5,0.3-1-0.3-1.4c-0.3,0.3-0.4,0.6-0.4,1c0.1,1.8-0.4,1.9-2.4,1.9
			c-2.7,0-5.4,0-8,0c-0.8,0-1.6-0.1-2.2,0.5c0,1.3,0,2.6-0.1,4c0.4,0.6,1.1,0.6,1.7,0.6c3.3,0,6.7,0,10,0
			C966.1,289.5,966.8,289.5,967.2,289z"/>
		<path class="st130" d="M953.8,285c3.7,0,7.4-0.1,11.2,0c1.5,0,2.1-0.3,1.9-1.9c-0.1-0.5,0-1,0-1.5c-4.1,0-8.2,0-12.2-0.1
			c-0.6,0-1,0.1-0.9,0.8C953.8,283.3,953.8,284.1,953.8,285z"/>
		<path d="M967.2,289c-4.5,0-9,0-13.4-0.1c-0.8,0-0.9,0.4-0.9,1.1c0,0.8,0.6,0.6,1,0.6c4.4,0,8.8,0,13.1,0c0.4,0,0.9,0.1,0.9-0.5
			C967.9,289.6,968.1,289,967.2,289z"/>
		<path class="st83" d="M862.5,303.4c0.1,0.4,0.2,0.7,0.6,0.7c0.5,0.1,0.6-0.3,0.6-0.7c0-0.4-0.2-0.5-0.5-0.5
			C862.7,303,862.6,303.3,862.5,303.4z"/>
		<path class="st94" d="M750.2,305.8c0.1-0.1,0.4-0.3,0.4-0.5c0.1-0.3-0.2-0.5-0.4-0.5c-0.3,0-0.5,0.1-0.5,0.4
			C749.7,305.5,749.9,305.6,750.2,305.8z"/>
		<path class="st135" d="M957.3,306.1c0.2,0.3,0.3,0.6,0.6,0.6s0.3-0.3,0.3-0.4c0-0.3-0.1-0.5-0.4-0.4
			C957.6,305.9,957.5,306,957.3,306.1z"/>
	</g>
</g>
<g id="Layer_2_00000054246775862705349970000015207583620627590064_">
	<g transform="matrix(0.309676,0,0,0.31018,-40.214795,0.883405)">
		<g>
			<path class="st1" d="M1115.4,955.1c10.9,13.9,15.6,29.8,16.4,47c0,2.2-0.3,3.3-2.8,3.1c-0.8,0-1.7,0-2.5,0
				c-251.4,0-502.7,0-754.1,0c-6.1,0-6.1,0-5.6-6.1c1.1-12.8,4.2-25.1,11.1-36.2c1.1,0,1.1,0.6,1.4,1.4c0,1.9-0.8,3.6-1.7,5.3
				c-4.5,8.6-6.7,18.1-7.8,27.6c-0.6,4.2,0.3,5,4.7,5c2.5,0,5.3,0,7.8,0c3.1,0.3,4.7-1.1,5-4.2c0.8-6.1,0.3-12.2,0.6-18.4
				c0-2.2-0.3-4.5,1.1-6.1c0.6-0.3,0.8-0.3,1.4,0c1.9,0.8,2.5,2.2,2.2,4.5c-0.8,6.7-0.3,13.4-0.6,20.3c0,2.8,0.8,4.5,3.9,4.2
				c3.9,0,8.1,0,12,0c2.5,0,3.6-1.1,3.6-3.6c0-1.7,0-3.1,0-4.7c0-2.8-0.8-4.5-3.9-4.5c-0.8,0-1.4-0.3-2.2-0.6
				c-0.8-0.3-1.7-0.8-1.7-1.7c0-1.1,0.8-1.4,1.7-1.7c1.1-0.3,2.2-0.3,3.3-0.6c14.5,0,29,0,43.4,0c0.3,0,0.6,0,0.8,0
				c1.7,0.3,4.2-0.3,4.2,1.9c0.3,2.2-2.2,2.2-3.9,2.2c-3.3,0-4.7,1.7-4.5,4.7c0,1.1,0,2.2,0,3.3c-0.3,3.6,1.4,5,4.7,4.7
				c3.3-0.3,7,0,10.3,0c2.5,0,3.6-1.1,3.6-3.6c0-12,0-23.9,0-35.9c0-1.7-0.6-3.1-2.2-3.6c-2.8-0.6-3.3-2.8-3.6-5.3
				c-0.8-10.3,0.8-12.2,11.4-11.1c3.1,0.3,4.7,1.4,5,4.7c0,2.2,0,4.7,0,7s-0.8,3.9-3.1,4.5c-2.5,0.6-2.8,2.5-2.8,4.7
				c0,11.1,0,22.5,0,33.7c0,1.9-0.3,4.5,2.5,4.7c2.8,0.3,6.1,1.4,8.4-1.9c1.1-1.7,1.9-3.6,3.3-5c3.3-3.3,7.2-5,12-4.7
				c4.5,1.7,8.9,2.2,13.9,1.9c4.7-0.6,8.4,2.5,10.6,6.4c1.7,2.8,3.9,3.9,7,3.9c30.6,0,61.2,0,91.6,0c4.7,0,5-0.6,5-5.3
				c0-39,0-77.9,0-116.9c0-3.1-1.1-5.8-3.1-8.4c-20.6-23.9-41.2-48.4-61.8-72.4c-1.9-2.2-5.3-4.5-4.2-7c1.1-2.2,5-0.8,7.5-0.8
				c20,0,39.8,0,59.9,0c1.7,0,3.1,0.6,4.7-0.6c2.2-20.9,8.1-40.6,18.9-58.7c0.8,0,1.1,0.6,1.4,1.1c0.3,2.5-1.4,4.5-2.2,6.4
				c-7.2,13.9-12,29-14.2,44.5c-0.8,6.4-0.8,6.4,5.3,6.4c9.5,0,18.9,0,28.4,0c3.9,0,7,1.1,9.5,3.9c3.1,3.3,6.4,6.1,9.7,9.2
				c2.5,2.2,5,4.5,6.7,7.2c1.1,2.8,0.8,5.6,0.8,8.6c0,54.6,0,109.1,0,163.7c0,1.4,0,2.5,0,3.9c-0.3,3.3,1.1,3.9,4.5,3.6
				c7.2-0.6,14.5,1.9,22,2.2c2.5,0,4.7,2.2,6.1,4.5c2.2,4.2,5.6,5.3,10,4.7c1.1,0,1.9,0,3.1,0c5.3-0.3,10.6-0.3,15.6,0
				c10.6-0.3,21.2,0,32,0c6.7,0,7-0.3,7-7c0-64.6,0-129.2,0-193.7c0-55.4,0-110.8,0-166.2c0-2.8-0.6-5.6,1.4-7.8c7-0.3,7-0.3,7,6.4
				c0,6.1,0,12,0,18.1c0,2.5,0.8,3.1,3.1,3.1c9.2,0,18.7,0,27.8,0c3.1,0,3.9,0.8,3.3,3.6c-1.7,7.2,1.4,11.7,8.6,13.9
				c2.8,0.8,5.3,2.8,7.8,4.2c0,1.1-0.8,1.4-1.7,1.4c-3.6-0.3-6.1-2.8-9.5-3.9c-2.8-1.1-4.2-0.8-3.9,2.5c0,1.4,0,2.5,0,3.9
				c0,36.5,0,72.9,0,109.4c0,2.5,0.6,5.3-1.1,7.5c-1.9,1.7-4.5,1.1-6.7,1.1c-7,0-7,0-7,7.2c0,10.6,0,20.9,0,31.5
				c0,50.7,0,101.3,0,152.3c0,2.2,0,4.7-0.3,7.2c1.9-2.8,4.5-4.7,7.5-5.6c3.3-1.1,6.4-0.8,9.7,0.6c1.9,0.8,4.2,1.1,6.4,0.8
				c5.8-1.1,10.6,0.8,13.6,5.8c1.9,3.3,4.7,4.5,8.4,4.2c5.3-0.3,10.3-0.3,15.6,0c10-0.3,20,0,30.1,0c8.9,0,8.9,0,8.9-8.6
				c0-47.6,0-95.5,0-143.1c0-22.8,0-45.7,0-68.5c0.3-4.5-1.4-8.6-2.2-13.1c-0.3-1.7-0.8-3.3-0.8-5c0.3-0.8,0.3-1.9,1.7-1.9
				c1.9,5.3,3.1,10.9,4.2,16.1c0.3,1.7,0.6,3.1,2.8,2.8c2.8-0.6,2.5,1.1,2.5,3.1c0,3.3,0.3,6.7,0,10c-0.3,3.1,1.1,3.6,3.6,3.3
				c8.6-0.3,17.3,0.3,25.9-0.3c3.9-0.3,5.3,0.8,5.3,5c-0.3,61.8,0,123.9,0,185.7c0,1.7,0,3.1,0,4.7c2.8-10.3,5.3-20.6,11.4-29.8
				c1.1,0,1.1,0.6,1.4,1.4c0,2.2-1.1,3.9-1.9,5.6c-4.2,8.6-6.4,17.8-7.5,27.3c-0.6,4.2,0.3,5,4.2,5c5.6,0,11.1,0,16.7,0
				c3.6,0,4.7-1.7,5.3-4.7c0.6-5.6,0.3-11.1,0.3-16.7c0-2.2-0.3-4.5,0.8-6.4c0.3-0.3,0.8-0.6,1.4-0.6c2.2,0.8,3.1,2.2,2.5,4.7
				c-0.8,5-0.3,10.3-0.3,16.1c2.8-1.9,5.3-4.2,8.1-4.2c7.2,0.3,14.5,1.7,21.7,2.5c3.1,0.3,5.3,3.1,6.7,5.6c1.4,2.8,3.6,3.6,6.7,3.6
				c3.9,0,8.1-0.3,12,0c3.3,0,4.7-1.1,5-4.7c1.4-13.6,0.6-27.3,0.6-40.9c0-4.7,0.8-9.5,0.3-14.2c-0.3-3.1,0.8-6.1,0.8-9.5
				c0-0.8,0.3-1.4,0.8-1.9c0.6-0.3,0.8-0.3,1.4,0c0.3,0.3,0.6,0.8,0.6,1.4c0.6,3.1,0.3,6.4,0.3,9.5c0,4.5,0,8.9,0,13.4
				c0,1.9,0,3.6,2.8,3.9c2.5,0.3,1.9,1.9,0.6,3.1c-2.5,2.2-2.5,5-2.5,7.8c0,8.6,0,17.5,0,26.2c0,5.8,0,5.8,6.1,5.8
				c0.8,0,1.7,0,2.5,0c3.9,0.6,6.1-0.8,8.1-4.7c3.3-6.7,10.6-9.2,17.5-6.1c1.9,0.8,3.9,1.4,6.1,0.8c6.1-1.4,10.6,1.1,14.2,5.8
				c0.3,0.6,0.6,0.8,0.8,1.4c1.1,1.9,2.8,3.1,5,2.2s1.7-2.8,1.4-4.5c-1.1-10-3.6-19.5-8.1-28.4c-1.9-4.2-5.3-7.8-6.7-12.5
				C1114,955.6,1114.3,955.1,1115.4,955.1z"/>
			<path class="st0" d="M739.6,1003.2c-1.4,0-2.5,0-3.9,0c-4.5,0.6-7.5-0.3-10-5c-2.2-4.7-8.4-6.4-13.4-4.7
				c-1.7,0.6-3.1,0.6-4.5-0.6c-4.2-2.5-8.4-2.8-12.5-0.6c-1.9,1.1-2.5,0.6-2.5-1.4c0-1.1,0-2.2,0-3.3c0-57.1,0-114.1,0-171.2
				c0-1.9,0.3-4.2-0.8-5.8c-0.6-4.2-0.6-8.6-0.6-12.8c0-33.7,0-67.6,0-101.3c0-1.1,0-1.9,0-3.1c0.3-3.1-0.3-5-3.9-3.3
				c-0.3,0.3-0.8,0-1.4,0c-0.6-0.3-0.6-0.8-0.3-1.4c7.2-3.3,7.5-9.5,7-16.4c-0.3-4.7,0.3-9.5-0.3-14.2c-0.3-3.3,1.1-3.9,4.2-3.9
				c27.6,0,55.1,0,82.7,0.3c3.9,0,5-0.8,5-4.7c-0.3-6.7,0-13.1-0.3-19.8c0-2.5,0.6-3.3,3.1-3.1c2.8,0.3,5.6,0,8.1,0.3
				c0,123.3,0,246.6,0,370c0,7,0.6,6.1-6.1,6.1c-11.4,0-22.8,0-34.5,0c-1.4-1.7-1.1-3.9-1.1-5.8c0-6.1,0-12,0-18.1
				c0-2.8-1.1-3.9-4.2-4.2c-8.6-0.3-8.9-0.3-8.9,8.4c0,4.7,0,9.5,0,14.2C740.7,999.9,741,1001.9,739.6,1003.2z"/>
			<path class="st0" d="M629.9,791.1c-1.4,1.7-3.3,0.8-4.7,0.8c-20.9,0-41.8,0-62.4,0c-1.4,0-2.8,0-5,0c3.9,4.7,7.2,8.9,10.6,12.8
				c14.8,17.5,29.5,34.8,44.5,52.3c4.2,5,8.6,10,13.1,14.8c1.7,1.9,2.5,3.9,2.5,6.1c0,40.4,0,80.7,0,121.4c0,3.1-0.8,3.9-3.9,3.9
				c-32.3,0-64.6,0-96.9,0c-2.5,0-3.6-0.8-4.5-3.1c-3.3-6.7-8.4-8.6-15.3-6.7c-3.6,1.1-5.6-2.5-8.6-2.5c-1.4-1.9-1.1-4.2-1.1-6.1
				c0-12,0-23.9,0-35.9c0-3.1,0-6.4-0.8-9.5c0-0.8,0.3-1.7,1.1-1.9c1.7-1.1,0.8-2.8,0.8-4.5c0-23.4,0-46.8,0-70.2
				c0-2.8,0.6-4.7,2.5-7c11.1-13.1,22-26.2,32.8-39.3c3.3-6.1,7.5-11.4,13.1-15.9c5-8.9,12.8-10.3,22.5-10
				c18.4,0.8,36.7,0.3,54.8,0.3C626.6,791.4,628.3,791.1,629.9,791.1z"/>
			<path class="st0" d="M489.6,660.6c-17.5-1.1-31.7-15.6-32-32.8c-0.3-18.1,13.1-33.4,30.6-35.1c17.8-1.7,33.4,10.3,36.7,27.8
				c3.3,18.4-8.4,35.6-26.7,39.5c-1.4,0.3-3.1,1.1-4.5,1.7c-4.2-4.7-4.2-5,0.8-9.7c-3.3,2.8-6.7,6.1-11.7,4.5
				C485.2,658.3,488.5,657.5,489.6,660.6z"/>
			<path class="st0" d="M1063.6,930.9c0,0.6,0,1.1,0,1.7c-4.7,2.2-9.7,1.4-14.8,0.3s-9.5-3.9-13.6-7c-1.1-0.8-2.2-1.7-2.8-2.8
				c-1.4-5.8-3.1-11.4-2.8-17.5c0.8-13.9,10.9-26.2,24.8-30.3c13.6-3.9,28.4,1.1,36.5,12.5c7.2,18.9-5,37.3-19.8,43.4
				c-2.2,0.8-4.5,2.2-7,0.6c0-0.3,0-0.6,0-0.8c-0.8-3.3-0.3-6.7-0.3-10.3c0-3.1,0-5.8,0-8.9c0,2.8,0,5.8,0,8.6
				C1063.9,924.2,1064.5,927.5,1063.6,930.9z"/>
			<path class="st0" d="M979,953.4c-6.1-9.2-4.5-22,4.2-29.2c8.6-7.5,21.4-7.2,29.8,0.6c1.1,1.1,2.2,2.2,3.3,3.3
				c3.3,11.7-2.2,23.7-12.8,28.4c-1.9,0.8-3.9,2.2-5.8-0.3c0-3.6,0-7.5,0-9.7c-0.3,2.2,0,5.8,0,9.5c-0.3,3.1-2.5,2.5-4.5,2.5
				C987.9,958.4,983.2,956.8,979,953.4z"/>
			<path class="st0" d="M370.5,952.6c-6.7-10-3.9-23.9,6.1-30.6c10-7,23.4-4.5,30.9,5.6c3.6,11.7-1.7,23.7-12.5,28.1
				c-1.9,0.8-3.9,2.2-5.8-0.3c0-3.6-0.3-7.5,0.3-11.7c-0.8,4.2-0.3,8.1-0.3,11.7c-0.3,3.1-2.5,2.5-4.5,2.5
				C379.4,957.6,374.7,955.9,370.5,952.6z"/>
			<path class="st1" d="M1064.5,931.7c11.7-0.8,24.2-13.4,26.7-26.2c1.1-5.3,1.4-10.6-0.6-15.6c-0.3-0.8-0.3-1.7,0.3-2.2
				c10,12.8,9.2,29-2.2,43.7c10.3,6.1,19.5,13.4,26.4,23.7c-0.3,0.3-0.6,0.6-0.8,0.8c-1.9,0.3-2.5-1.7-3.6-2.5
				c-6.1-6.4-12-12.5-19.5-17.3c-2.5-1.4-4.2-1.7-6.4,0.3c-4.2,3.3-9.2,5.6-14.5,6.4c-1.9,0.3-3.9,0.8-5.8-0.6
				C1064.5,938.9,1064.5,935.3,1064.5,931.7z"/>
			<path class="st1" d="M389.7,955.9c8.4,0,17.8-10,18.1-20.6c0-2.5,0-5.3-0.3-7.8c1.4,3.1,3.1,3.3,6.4,1.9
				c25.9-11.7,51.5-10.9,76.3,3.3c0,0.8-0.6,1.1-1.1,1.4c-1.9,0.3-3.6-0.8-5.3-1.7c-22-10.3-44-10.9-66.3-1.7
				c-5.6,2.2-5.3,2.8-4.7,7.8c1.4,15.3-11.1,25.3-22.5,25.3c-0.6,0-0.8,0-1.4,0c-3.6,0.3-7-1.9-10.6,0c-0.3-0.3-0.6-0.8-0.8-1.1
				c1.1-1.7,0.8-2.8-1.1-3.9c-2.5-1.4-4.7-3.6-5.8-6.4c3.9,0.6,7.2,3.6,11.1,3.9c2.2,0.3,4.7,1.1,7-0.6
				C389.1,955.6,389.4,955.6,389.7,955.9z"/>
			<path class="st1" d="M998.2,956.8c8.4,0,17.8-10,18.1-20.3c0-2.8-1.1-5.6,0-8.4c5.3-2.5,10.6-3.9,16.1-5c1.1,0,2.2,0.6,2.8,1.7
				c0.3,0.6,0.3,0.8-0.3,1.1c-4.2,0.6-8.4,1.4-12.5,2.8c-2.8,0.8-3.6,2.2-2.5,5c5.6,15.6-6.7,30.6-21.4,30.9c-0.6,0-0.8,0-1.4,0
				c-3.9,0-7.5-0.8-10.6-2.8c-3.1-1.9-5-1.7-7,1.4c-0.3,0.6-0.8,0.6-1.4,0.6c-0.3-0.3-0.6-0.8-0.8-1.1c0.6-1.1,0.8-2.2,1.7-2.8
				c1.9-2.2,1.9-4.5,0-6.7c3.9,0.6,7.2,3.6,11.1,3.9c2.2,0.3,4.7,1.1,7-0.6C997.7,956.5,997.9,956.5,998.2,956.8z"/>
			<path class="st1" d="M547.5,801.1c-4.5,5.3-8.6,10.6-13.1,15.9c0-9.7,0-19.5-0.3-29.2c0-1.9,0.6-2.8,2.5-2.8
				c10.6-0.6,10.6-0.6,10.6,9.7C547.2,797,547.5,798.9,547.5,801.1z"/>
			<path class="st1" d="M922.2,761.9c-0.3,0.6-0.6,1.1-0.8,1.9c-2.2-0.3-2.2-2.5-2.8-3.9c-7-19.8-17.3-37.6-31.5-52.9
				c-9.5-10-19.8-18.7-31.5-25.9c-1.4-0.8-3.3-1.4-3.3-3.6c0.3-0.3,0.6-0.6,1.1-0.8c18.9,10.3,34.2,24.5,46.8,41.5
				C910,731.3,917.5,745.7,922.2,761.9z"/>
			<path class="st136" d="M1013.2,694.8c-5-1.7-9.5-3.3-14.2-5c0-0.6-0.3-0.8-0.3-1.4c7,1.7,11.4-4.2,17.3-5.6
				c0.6,1.4,0,1.7-0.3,1.9C1010.7,689,1010.7,689,1013.2,694.8z"/>
			<path class="st136" d="M578.1,702.3c-1.7,3.3-10.6,4.5-3.9,11.1c-4.7-1.7-9.2-3.3-14.2-5c0.6-0.6,0.6-0.8,0.8-0.8
				c4.2-1.4,9.5,0.3,12.5-4.5C574.2,701.8,576.2,702,578.1,702.3z"/>
			<path class="st136" d="M563.7,632.7c-1.7,4.5-11.4,5-2.5,11.7c-0.6,0-1.1,0-1.4,0.3c-4.7-1.7-9.2-3.3-13.9-5c0-0.6,0-1.1-0.3-1.4
				C552.5,640.2,556.7,633.8,563.7,632.7z"/>
			<path class="st136" d="M896,619.1c-1.9,1.4-3.9,2.8-5.6,4.5c-2.8,2.8,2.8,3.3,1.4,6.1c-4.5-1.7-8.9-3.3-13.6-4.7
				c0-0.6-0.3-0.8-0.3-1.4c7,1.4,11.4-3.9,17.3-5.6C895.8,618.3,896,618.8,896,619.1z"/>
			<path class="st137" d="M489.6,660.6c-3.1-1.4-6.1-2.5-9.2-3.9c0-0.6-0.3-0.8-0.3-1.4c7,1.7,11.4-3.6,17.5-5
				c-2.8,3.3-8.4,5.6-3.9,11.1C492.4,661.1,491,660.8,489.6,660.6z"/>
			<path class="st1" d="M662.8,712.3c5-6.7,10.9-12.5,17.3-18.1c0.8-0.3,1.1,0.3,1.4,0.8c0,1.4-0.8,2.5-1.7,3.3
				c-5.3,4.5-9.5,10-14.5,14.8c-0.6,0.3-0.8,0.6-1.7,0.6C662.8,713.5,662.5,713.2,662.8,712.3z"/>
			<path class="st1" d="M662.8,712.3c0.3,0.3,0.6,0.6,0.8,1.1c-3.3,7.5-8.1,13.9-13.6,20c-0.3-0.3-0.6-0.8-0.8-1.1
				C652.7,725.1,657.5,718.5,662.8,712.3z"/>
			<path class="st1" d="M489.3,933.7c0.3-0.3,0.8-0.6,1.1-0.8c2.8,1.1,5.6,3.1,7.8,5c-0.3,0.3-0.8,0.6-1.1,1.1
				C493.8,938.4,490.7,937,489.3,933.7z"/>
			<path class="st1" d="M680.9,695.1c-0.3-0.3-0.6-0.6-1.1-0.8c1.9-1.7,4.2-3.6,6.1-5.3c0,0.3,0,0.8,0.3,1.1
				C686.2,694,683.9,695.1,680.9,695.1z"/>
			<path class="st0" d="M924.7,780.8c0,72.7,0,145.6,0,218.2c0,3.6-1.1,4.7-4.7,4.5c-12-0.3-24.2-0.3-36.2-0.3
				c-1.4-1.7-1.1-3.9-1.1-5.8c0-6.1,0-12,0-18.1c0-2.8-1.1-3.9-4.2-4.2c-8.6-0.3-8.9-0.3-8.9,8.4c0,4.7,0,9.5,0,14.2
				c0,1.9,0.3,3.6-1.1,5.3c-3.9,0.6-7.2,0.3-9.2-4.5c-2.2-5-8.4-6.7-13.6-5c-1.4,0.6-2.2,0.6-3.6,0c-10-4.2-14.2-2.8-20.3,6.7
				c0-1.7,0-2.8,0-4.2c0-64.6,0-129.2,0-193.7c0-4.2,0.8-6.1,5.3-5.6c3.1,0.3,6.4,0,9.5,0c1.9-1.7,4.7-1.4,7-1.4
				c20.6,0,41.2,0,61.8,0c6.4,0,6.4-0.3,6.4-6.7c0-0.3,0-0.6,0-0.8C912.2,779.4,916.6,776.9,924.7,780.8z"/>
			<path class="st67" d="M924.7,780.8c-3.6,0.3-8.6-1.7-10.6,0.8c-1.7,2.2-0.8,7-0.6,10.3c0.6,4.5-1.4,5.3-5.3,5.3
				c-23.7-0.3-47.6,0-71.3,0c0-42.3,0-84.3,0-126.9c5.6,1.7,10,4.7,15.3,7c13.1,8.1,25.3,17.3,35.6,28.7
				c14.2,15.6,24.8,33.4,31.7,53.2c0.6,1.4,1.1,2.8,1.7,4.5C922.2,769.4,924.7,774.7,924.7,780.8z"/>
			<path class="st67" d="M489.3,933.7c2.5,1.7,5.3,3.3,7.8,5c1.4,1.1,1.9,2.5,1.9,4.5c0,16.1,0,32,0,48.2c-7.2,0-12.2,3.1-14.2,10
				c-0.6,1.4-1.1,1.9-2.5,1.9c-10.3,0.8-10.3,0.8-10.3-9.2c0-10.9,0-21.4,0-32.3c0-2.5,0-4.7,3.6-3.9c1.7,0.3,2.5-0.3,2.2-1.9
				c0-0.3,0-0.6,0-0.8c0.3-11.4-0.3-12-11.7-10.9c-1.7,0.3-2.2,0.6-2.2,2.2c0,2.2,0.3,4.5,0,6.4c-0.3,3.3-0.3,6.1,4.5,5.3
				c1.9-0.3,1.9,1.1,1.9,2.5c0,13.6,0,27,0,40.6c0,2.2-0.8,2.5-2.8,2.5c-5.3,0-10.6,0-15.9,0c-2.2,0-3.1-0.8-2.8-3.1
				c0-0.8,0-1.7,0-2.5c0-3.1-0.8-6.7,0.3-8.9c1.4-2.5,5.3-0.6,8.1-1.1c0.3,0,0.6-0.6,1.7-1.1c-18.7,0-36.2,0-54.6,0
				c1.9,2.2,4.2,1.1,6.1,1.1c1.9,0,2.8,0.6,2.8,2.8c-0.3,3.3,0,7,0,10.3c0,1.9-0.8,2.5-2.5,2.5c-5.8,0-11.4,0-17.3,0
				c-1.9,0-2.5-0.6-2.5-2.5c0-7.2-0.3-14.5-0.3-21.4c0-0.6-0.3-1.1,0-1.4c2.2-1.9,0.6-3.3-0.6-4.7c-1.7-1.4-1.1-3.3-1.4-5
				c0-1.7-0.3-3.6,1.4-5c15-1.4,23.9-12.5,21.2-27.3c-0.6-3.1,1.1-3.6,3.1-4.5c24.2-11.1,48.2-10.6,72.1,1.1
				C487.4,932.8,488.2,933.1,489.3,933.7z"/>
			<path class="st67" d="M680.9,695.1c2.2-1.1,4.2-2.5,5.3-5c2.8,0,3.6-3.9,6.7-3.3c0,1.1,0,2.5,0,3.6c0,38.7,0,77.4,0,115.8
				c0,1.4,0.8,3.1-0.8,4.2c-6.1-6.1-12.2-12-18.4-18.1c-1.4-1.4-3.1-1.1-4.7-1.1c-11.1,0-22,0-33.1,0c-3.3,0-4.2-0.8-3.9-4.2
				c2.5-19.2,8.9-37,17.8-54c4.5-6.7,9.2-13.4,13.6-20C669.5,707.3,675.3,701.2,680.9,695.1z"/>
			<path class="st67" d="M998.2,964c17-0.8,26.4-18.1,19.8-32c-0.6-1.1-1.1-2.2,0.8-2.8c4.2-1.7,8.6-2.8,13.1-3.9
				c1.4-0.3,2.2,0.3,3.1,1.1c0.6,0.3,1.1,0.6,1.4,0.8c6.1,8.4,14.5,12.8,24.5,14.2c0.8,0,1.4,0.6,1.7,1.1c0.3,0.8,0.6,1.9,0.6,2.8
				c-0.3,18.1-0.8,36.2-1.1,54.3c0,3.1-0.8,3.9-3.9,3.9c-5.8-0.3-11.4-0.3-17.3,0c-2.2,0-3.3-0.3-4.5-2.8c-2.5-6.1-8.4-8.6-14.8-6.7
				c-1.1,0.3-2.2,0.6-3.6,0c-8.1-4.2-12.8-3.1-19.2,4.2c0.8-7-2.2-14.2,0.8-21.2c0.6-1.1-2.2-1.1-1.9-2.8c-1.7-1.4-1.1-3.3-1.4-5
				C997.1,967.1,996.5,965.1,998.2,964z"/>
			<path class="st67" d="M1064.5,942.3c7.8-0.3,15-2.8,20.9-7.8c1.9-1.7,3.1-0.8,4.7,0c9.5,5.6,17.3,13.1,24.2,21.7
				c8.1,12,13.6,25.1,15,39.8c0,1.1,0.6,1.9,0.3,3.1c-0.3,1.7,1.7,4.2-1.7,4.5c-2.5,0-5.6,1.7-7-2.5c-2.2-6.1-8.4-8.6-14.8-6.7
				c-1.7,0.6-2.8,0.3-4.5-0.6c-7.8-4.2-15.9-1.1-18.7,7.2c-0.8,2.5-1.9,3.3-4.2,2.8c-1.1-0.3-2.2,0-3.3,0c-10,0-10,0-10.3-10.3
				c0-7-0.3-13.9-0.3-20.6c0-7.5,0-7.5,4.7-12c-1.7-0.8-2.8,1.1-5.3,0.6C1064.5,954.8,1064.5,948.7,1064.5,942.3z"/>
			<path class="st67" d="M978.4,964c0.3-0.3,0.6-0.3,0.6-0.6c3.3-5,3.3-5,8.4-2.2c3.1,1.7,6.4,2.5,9.7,2.5c1.1,1.7,0.3,3.3,0.6,5
				c0,1.7,0.3,3.6-0.3,5.3c-0.3,8.4-0.6,17-0.6,25.3c0,3.3-1.1,3.9-4.2,3.9c-7.2-0.3-14.2-0.3-21.4,0c-2.8,0-3.3-0.8-3.1-3.3
				C968.7,987.1,972.6,975.4,978.4,964z"/>
			<path class="st67" d="M378.6,964c1.1-1.9,2.5-3.1,5-1.9c1.4,0.6,3.3,0.6,5,0.8c1.1,1.7,0.3,3.3,0.6,5c0,1.7,0.3,3.6-0.3,5.3
				c-0.3,8.9-0.6,17.8-0.6,26.7c0,3.1-1.1,3.6-3.6,3.6c-4.5-0.3-8.9-0.3-13.4,0c-2.8,0.3-3.3-1.1-3.1-3.6
				c0.8-11.1,3.3-21.7,8.4-31.7C377.2,966.8,377.7,965.4,378.6,964z"/>
			<path class="st67" d="M430.3,1003.2c-4.2,0-8.6,0-12.8,0c-2.2,0-3.1-0.6-3.1-2.8c-0.6-12.5-0.6-12.5,11.7-12.5
				c5.8,0,11.4,0.3,17.3,0c3.1,0,3.6,0.8,3.3,3.6c-0.3,2.5-0.3,5,0,7.2c0.3,3.3-0.6,5-4.5,4.5C438.4,1003,434.2,1003.2,430.3,1003.2
				z"/>
			<path class="st67" d="M869,1003.2c0-8.9,0-17.8-0.3-26.7c0-1.9,0.6-2.8,2.8-2.8c4.2,0.3,9.5-1.4,12,0.8c2.5,1.9,0.8,7.5,0.8,11.4
				c0,5.8,0,11.4-0.3,17.3C879.1,1003.2,874.1,1003.2,869,1003.2z"/>
			<path class="st67" d="M739.6,1003.2c0-8.9,0-17.8-0.3-26.7c0-1.9,0.6-2.8,2.8-2.8c4.2,0.3,9.5-1.4,12,0.8
				c2.5,1.9,0.8,7.5,0.8,11.4c0,5.8,0,11.4-0.3,17.3C749.9,1003.2,744.9,1003.2,739.6,1003.2z"/>
			<path class="st1" d="M1062.8,942.3c-12-0.8-21.4-5.8-27.6-16.1c0-0.3,0-0.8,0.3-1.1c4.7,2.8,9.2,5.8,14.8,7.2
				c4.5,1.1,9.2,0.3,13.6,0.6C1064.2,935.9,1062.8,939.2,1062.8,942.3z"/>
			<path class="st138" d="M1063.6,930.9c0-3.3,0-7,0-10.3c0.3-0.3,0.6-0.3,0.8,0c0,3.3,0,7,0,10.3h-0.6H1063.6z"/>
			<path class="st1" d="M388.9,973.2c0-1.7,0-3.3,0-5.3c0.3-0.3,0.6-0.6,0.8,0c0.3,1.7,0.6,3.3,0,5.3
				C389.4,973.2,389.1,973.2,388.9,973.2z"/>
			<path class="st1" d="M997.4,974c0-1.7,0-3.3,0-5.3c0.3-0.3,0.6-0.6,0.8,0c0.3,1.7,0.6,3.3,0,5.3C997.9,974,997.7,974,997.4,974z"
				/>
			<path class="st139" d="M770.2,771.4c-7.8,0-7.8,0-7.8-7.8c0-7.8,0-7.8,7.8-7.8s7.8,0,7.8,7.5c0,0.3,0,0.3,0,0.6
				C778,771.4,778,771.4,770.2,771.4z"/>
			<path class="st139" d="M721.2,842.1c-8.1,0-8.1,0-8.1-8.1c0-7.5,0-7.5,7.5-7.5c8.1,0,8.1,0,8.1,8.4
				C728.7,842.1,728.7,842.1,721.2,842.1z"/>
			<path class="st139" d="M753.8,834.3c0,7.8,0,7.8-7.8,7.8s-7.8,0-7.8-7.5c0-8.1,0-8.1,8.1-8.1
				C753.8,826.5,753.8,826.5,753.8,834.3z"/>
			<path class="st139" d="M778.9,834.3c0,7.8,0,7.8-7.8,7.8s-7.8,0-7.8-7.5c0-8.1,0-8.1,8.1-8.1
				C778.9,826.5,778.9,826.5,778.9,834.3z"/>
			<path class="st139" d="M727.9,764.1c0,7.2,0,7.2-7.2,7.2c-8.4,0-8.4,0-8.4-8.6c0-7,0-7,7-7c0.3,0,0.3,0,0.6,0
				C727.9,755.8,727.9,755.8,727.9,764.1z"/>
			<path class="st139" d="M727.1,692.6c0,7.8,0,7.8-7.8,7.8s-7.8,0-7.8-7.8s0-7.8,7.5-7.8c0.3,0,0.3,0,0.6,0
				C727.1,685.1,727.1,685.1,727.1,692.6z"/>
			<path class="st139" d="M744.3,700.4c-7.8,0-7.8,0-7.8-8.1c0-7.5,0-7.5,7.8-7.5c8.1,0,8.1,0,8.1,8.1
				C752.1,700.4,752.1,700.4,744.3,700.4z"/>
			<path class="st139" d="M769.1,700.4c-7.5,0-7.5,0-7.5-7.8s0-7.8,7.8-7.8s7.8,0,7.8,8.1C777.2,700.4,777.2,700.4,769.1,700.4z"/>
			<path class="st139" d="M737.4,763c0-7.2,0-7.2,7.2-7.2c8.4,0,8.4,0,8.4,8.6c0,7,0,7-7,7c-0.3,0-0.3,0-0.6,0
				C737.4,771.4,737.4,771.4,737.4,763z"/>
			<path class="st139" d="M771.9,912.8c-7.8,0-7.8,0-7.8-7.8s0-7.8,7.8-7.8c7.8,0,7.8,0,7.8,7.5c0,0.3,0,0.3,0,0.6
				C779.7,912.8,779.7,912.8,771.9,912.8z"/>
			<path class="st139" d="M746.8,897.2c7.8,0,7.8,0,7.8,7.8s0,7.8-7.5,7.8c-8.1,0-8.1,0-8.1-8.1C739,897.2,739,897.2,746.8,897.2z"
				/>
			<path class="st139" d="M729.6,905c0,7.8,0,7.8-7.8,7.8s-7.8,0-7.8-7.8c0-7.5,0-7.5,7.5-7.5c0.3,0,0.3,0,0.6,0
				C729.6,897.2,729.6,897.2,729.6,905z"/>
			<path class="st67" d="M720.1,806.7c-7.5,0-7.5,0-7.5-7.2c0-8.4,0-8.4,8.1-8.4c7.5,0,7.5,0,7.5,7.2
				C728.2,806.7,728.2,806.7,720.1,806.7z"/>
			<path class="st67" d="M719.3,736c-7.5,0-7.5,0-7.5-7.2c0-8.4,0-8.4,8.1-8.4c7.5,0,7.5,0,7.5,7.2C727.4,736,727.4,736,719.3,736z"
				/>
			<path class="st67" d="M752.4,728.2c0,7.5,0,7.5-7.5,7.5c-8.1,0-8.1,0-8.1-8.1c0-7.5,0-7.5,7.5-7.5
				C752.4,720.4,752.4,720.4,752.4,728.2z"/>
			<path class="st67" d="M761.9,727.7c0-7.5,0-7.5,7.2-7.5c8.4,0,8.4,0,8.4,8.1c0,7.5,0,7.5-7.2,7.5
				C761.9,736,761.9,736,761.9,727.7z"/>
			<path class="st67" d="M721.5,861.8c7.8,0,7.8,0,7.8,7.8s0,7.8-7.8,7.8s-7.8,0-7.8-7.8S713.7,861.8,721.5,861.8z"/>
			<path class="st67" d="M770.8,806.7c-8.1,0-8.1,0-8.1-7.8c0-7.5,0-7.5,7.5-7.5c8.1,0,8.1,0,8.1,7.8
				C778.3,806.7,778.3,806.7,770.8,806.7z"/>
			<path class="st67" d="M745.4,806.7c-7.8,0-7.8,0-7.8-7.8s0-7.8,7.8-7.8s7.8,0,7.8,7.8S753.2,806.7,745.4,806.7z"/>
			<path class="st67" d="M772.2,932.8c7.8,0,7.8,0,7.8,7.8s0,7.8-7.8,7.8s-7.8,0-7.8-7.8C764.7,932.8,764.7,932.8,772.2,932.8z"/>
			<path class="st67" d="M747.7,948.1c-8.1,0-8.1,0-8.1-7.8c0-7.5,0-7.5,7.5-7.5c8.1,0,8.1,0,8.1,7.8
				C754.9,948.1,754.9,948.1,747.7,948.1z"/>
			<path class="st67" d="M779.1,869.9c0,7.8,0,7.8-7.8,7.8s-7.8,0-7.8-7.8s0-7.8,7.8-7.8C779.1,861.8,779.1,861.8,779.1,869.9z"/>
			<path class="st67" d="M746,877.4c-7.2,0-7.2,0-7.2-7.2c0-8.4,0-8.4,8.1-8.4c7.2,0,7.2,0,7.2,7.2
				C754.1,877.4,754.1,877.4,746,877.4z"/>
			<path class="st67" d="M730.1,940.6c0,7.5,0,7.5-7.5,7.5c-7.8,0-7.8,0-7.8-8.1c0-7.5,0-7.5,7.5-7.5
				C730.1,932.8,730.1,932.8,730.1,940.6z"/>
			<path class="st67" d="M585.4,942c0.3-3.6-1.9-9.5,0.8-12c2.5-2.2,8.1-0.6,12.5-0.8c3.3,0,7,0,10.3,0c2.2,0,2.8,0.8,2.8,3.1
				c0,7,0,14.2,0,21.2c0,2.2-0.6,3.1-2.8,3.1c-7-0.3-13.6-0.3-20.6,0c-2.5,0-3.3-0.8-3.1-3.1C585.7,949.5,585.4,946.2,585.4,942z"/>
			<path class="st67" d="M575.4,942.8c0,3.3,0,7,0,10.3c0,2.2-0.6,3.1-2.8,3.1c-7,0-14.2,0-21.2,0c-1.9,0-2.5-0.6-2.5-2.5
				c0-7.2,0-14.8,0-22c0-2.2,0.8-2.5,2.8-2.5c7,0,13.9,0,20.6,0c2.2,0,3.1,0.6,3.1,2.8C575.4,935.6,575.4,939.2,575.4,942.8z"/>
			<path class="st67" d="M538.3,942.6c0,4.2,1.7,10-0.6,12.5c-2.5,2.8-8.4,0.8-12.8,0.8c-4.2,0-9.7,1.9-12.2-0.8
				c-2.5-2.5-0.6-7.8-0.8-12c0-3.6,0-7.2,0-10.9c-0.3-2.8,0.8-3.3,3.3-3.3c6.7,0.3,13.4,0,20.3,0c2.2,0,3.1,0.6,3.1,2.8
				C538.6,935.6,538.6,939.2,538.3,942.6C538.6,942.6,538.6,942.6,538.3,942.6z"/>
			<path class="st67" d="M611.8,906.4c-0.3,3.6,1.9,9.7-0.8,12c-2.8,2.2-8.4,0.6-12.8,0.8c-3.3,0-6.7,0-10,0c-2.2,0-3.1-0.8-3.1-3.1
				c0-7,0-14.2,0-21.2c0-2.2,0.6-3.1,2.8-3.1c7,0,13.9,0,21.2,0c2.2,0,2.8,0.8,2.5,2.8C611.8,898.6,611.8,901.9,611.8,906.4z"/>
			<path class="st67" d="M512.2,905.5c0-3.6,0-7.2,0-10.9c0-1.9,0.6-2.5,2.5-2.5c7.2,0,14.8,0,22,0c1.7,0,2.2,0.8,2.2,2.2
				c0,7.5,0,15,0,22.3c0,1.9-0.8,2.5-2.5,2.2c-7,0-13.9,0-21.2,0c-2.2,0-3.1-0.8-2.8-3.1C512.4,912.5,512.2,908.9,512.2,905.5z"/>
			<path class="st67" d="M548.9,905.8c0-3.6,0-7.2,0-10.9c0-1.9,0.3-3.1,2.8-3.1c7,0.3,13.9,0,20.6,0c2.2,0,3.1,0.6,3.1,2.8
				c0,7,0,14.2,0,21.2c0,2.2-0.6,3.1-2.8,3.1c-7,0-14.2,0-21.2,0c-1.9,0-2.5-0.6-2.5-2.5C548.9,913.1,548.9,909.4,548.9,905.8z"/>
			<path class="st140" d="M1064.5,920.6h-0.6h-0.6c0-2.8,0-5.6,0-8.4c0.3,0,0.6,0,0.8,0C1064.5,915,1064.5,917.8,1064.5,920.6z"/>
			<path class="st141" d="M998.2,956.8c-0.3,0-0.6,0-0.8,0c0-3.9,0-7.8,0-12c0.3,0,0.6,0,0.8,0C998.2,949,998.2,952.9,998.2,956.8z"
				/>
			<path class="st1" d="M389.7,955.9c-0.3,0-0.6,0-0.8,0c0-3.9,0-7.8,0-12c0.3,0,0.6,0,0.8,0C389.7,948.1,389.7,952,389.7,955.9z"/>
			<path class="st1" d="M389.7,968.2c-0.3,0-0.6,0-0.8,0c0-1.7-0.3-3.3-0.3-5c0.3,0,0.8,0,1.1,0
				C389.7,964.8,389.7,966.5,389.7,968.2z"/>
			<path class="st1" d="M998.2,969c-0.3,0-0.6,0-0.8,0c0-1.7-0.3-3.3-0.3-5c0.3,0,0.8,0,1.1,0C998.2,965.7,998.2,967.3,998.2,969z"
				/>
			<path class="st139" d="M858.2,834.3c0,7.8,0,7.8-7.5,7.8c-8.1,0-8.1,0-8.1-8.1c0-7.5,0-7.5,7.2-7.5c0.3,0,0.3,0,0.6,0
				C858.2,826.5,858.2,826.5,858.2,834.3z"/>
			<path class="st139" d="M875.4,842.1c-8.1,0-8.1,0-8.1-8.1c0-7.5,0-7.5,7.5-7.5c8.1,0,8.1,0,8.1,8.4
				C883,842.1,883,842.1,875.4,842.1z"/>
			<path class="st139" d="M900.2,826.5c8.1,0,8.1,0,8.1,8.1c0,7.5,0,7.5-7.5,7.5c-8.1,0-8.1,0-8.1-8.4
				C892.4,826.5,892.4,826.5,900.2,826.5z"/>
			<path class="st139" d="M901.1,912.8c-7.5,0-7.5,0-7.5-7.5c0-7.8,0-7.8,7.8-7.8s7.8,0,7.8,7.8
				C908.9,912.8,908.9,912.8,901.1,912.8z"/>
			<path class="st139" d="M884.1,905.5c0,7.5,0,7.5-7.5,7.5c-8.4,0-8.4,0-8.4-8.4c0-7.2,0-7.2,7.2-7.2c0.3,0,0.3,0,0.6,0
				C884.1,897.2,884.1,897.2,884.1,905.5z"/>
			<path class="st139" d="M859,905c0,7.8,0,7.8-7.8,7.8s-7.8,0-7.8-7.5c0-8.1,0-8.1,8.1-8.1C859,897.2,859,897.2,859,905z"/>
			<path class="st67" d="M900.5,877.4c-7.5,0-7.5,0-7.5-7.5c0-7.8,0-7.8,8.1-7.8c7.5,0,7.5,0,7.5,7.5
				C908.6,877.4,908.6,877.4,900.5,877.4z"/>
			<path class="st67" d="M875.7,877.4c-7.8,0-7.8,0-7.8-7.8s0-7.8,7.8-7.8c7.8,0,7.8,0,7.8,7.8S883.5,877.4,875.7,877.4z"/>
			<path class="st67" d="M901.3,948.1c-7.5,0-7.5,0-7.5-7.2c0-8.4,0-8.4,8.1-8.4c7.5,0,7.5,0,7.5,7.2
				C909.4,948.1,909.4,948.1,901.3,948.1z"/>
			<path class="st67" d="M876.8,932.8c7.5,0,7.5,0,7.5,7.5c0,7.8,0,7.8-8.1,7.8c-7.5,0-7.5,0-7.5-7.5
				C868.8,932.8,868.8,932.8,876.8,932.8z"/>
			<path class="st67" d="M851.2,948.1c-7.5,0-7.5,0-7.5-7.5c0-8.1,0-8.1,8.1-8.1c7.5,0,7.5,0,7.5,7.5
				C859.3,948.1,859.3,948.1,851.2,948.1z"/>
			<path class="st67" d="M851,861.8c7.5,0,7.5,0,7.5,7.5c0,8.1,0,8.1-7.8,8.1c-7.5,0-7.5,0-7.5-7.5
				C842.9,861.8,842.9,861.8,851,861.8z"/>
			<path class="st136" d="M886.6,739.1c-1.9,1.4-3.9,2.8-5.6,4.5c-2.8,2.8,2.5,3.3,1.4,6.1c-4.5-1.7-9.2-3.3-13.9-5
				c0-0.6,0-1.1,0-1.7C876,746,880.2,738.8,886.6,739.1z"/>
			<path class="st1" d="M457.6,973.7c-17.8,0-35.4,0-53.2,0c0-0.3,0-0.6,0-0.8c17.8,0,35.4,0,53.2,0
				C457.6,973.2,457.6,973.5,457.6,973.7z"/>
			<path class="st1" d="M404.4,977.1c17.8,0,35.4,0,53.2,0c0,0.3,0,0.6,0,0.8c-17.8,0-35.4,0-53.2,0
				C404.4,977.6,404.4,977.4,404.4,977.1z"/>
			<path class="st1" d="M404.4,981.5c17.8,0,35.4,0,53.2,0c0,0.3,0,0.6,0,0.8c-17.8,0-35.4,0-53.2,0
				C404.4,981.8,404.4,981.5,404.4,981.5z"/>
		</g>
	</g>
</g>
</svg>
