<?xml version="1.0" encoding="utf-8"?>
<!-- Generator: Adobe Illustrator 25.4.1, SVG Export Plug-In . SVG Version: 6.00 Build 0)  -->
<svg version="1.1" id="Layer_1" xmlns="http://www.w3.org/2000/svg" xmlns:xlink="http://www.w3.org/1999/xlink" x="0px" y="0px"
	 viewBox="0 0 500 500" style="enable-background:new 0 0 500 500;" xml:space="preserve">
<style type="text/css">
	.st0{fill:#EE3150;}
	.st1{fill:#EE3350;}
	.st2{fill:#FFFFFF;}
	.st3{fill:#F7ACC0;}
</style>
<g>
	<g>
		<path class="st0" d="M185.8,239.55L68.07,121.81L185.8,4.08l117.74,117.74L185.8,239.55z M77.97,121.81L185.8,229.65
			l107.83-107.84L185.8,13.98L77.97,121.81z"/>
	</g>
	<g>
		<path class="st0" d="M314.2,367.94L196.46,250.21L314.2,132.47l117.74,117.74L314.2,367.94z M206.36,250.21L314.2,358.04
			l107.83-107.83L314.2,142.37L206.36,250.21z"/>
	</g>
	<g>
		<path class="st0" d="M186.22,495.92L68.48,378.19l117.73-117.74l117.74,117.74L186.22,495.92z M78.38,378.19l107.84,107.84
			l107.84-107.84L186.22,270.35L78.38,378.19z"/>
	</g>
	<g>
		<g>
			<g>
				<path class="st0" d="M286.06,261.34c-2.03-1.12-3.63-2.66-4.79-4.62c-1.16-1.96-1.73-4.17-1.73-6.63s0.58-4.66,1.73-6.63
					c1.16-1.96,2.76-3.5,4.8-4.62c2.05-1.12,4.33-1.68,6.86-1.68c1.97,0,3.78,0.33,5.42,0.99c1.64,0.66,3.03,1.64,4.19,2.94
					l-2.35,2.28c-1.9-2-4.27-3-7.11-3c-1.88,0-3.58,0.42-5.09,1.26c-1.52,0.84-2.7,2-3.56,3.49c-0.85,1.48-1.28,3.14-1.28,4.97
					s0.43,3.49,1.28,4.97s2.04,2.64,3.56,3.49c1.52,0.84,3.21,1.26,5.09,1.26c2.82,0,5.19-1.01,7.11-3.03l2.35,2.28
					c-1.16,1.3-2.56,2.29-4.21,2.96c-1.65,0.67-3.46,1.01-5.44,1.01C290.37,263.02,288.09,262.46,286.06,261.34z"/>
			</g>
			<g>
				<path class="st0" d="M308.57,262.24c-0.48-0.47-0.72-1.07-0.72-1.79c0-0.7,0.24-1.28,0.72-1.75c0.48-0.47,1.06-0.7,1.73-0.7
					c0.67,0,1.24,0.23,1.7,0.69c0.46,0.46,0.69,1.05,0.69,1.77c0,0.72-0.23,1.32-0.7,1.79c-0.47,0.47-1.03,0.7-1.68,0.7
					C309.63,262.94,309.05,262.71,308.57,262.24z"/>
			</g>
			<g>
				<path class="st0" d="M340.46,251.84c0.84,1.07,1.26,2.43,1.26,4.06c0,2.19-0.82,3.88-2.47,5.06s-4.05,1.77-7.2,1.77h-12.06
					v-25.28h11.34c2.89,0,5.12,0.58,6.7,1.73c1.58,1.16,2.37,2.76,2.37,4.8c0,1.32-0.31,2.47-0.92,3.43
					c-0.61,0.96-1.44,1.7-2.47,2.2C338.46,250.03,339.62,250.77,340.46,251.84z M323.6,240.37v8.09h7.4c1.85,0,3.28-0.34,4.28-1.03
					c1-0.69,1.5-1.69,1.5-3.02c0-1.32-0.5-2.33-1.5-3.02c-1-0.69-2.43-1.03-4.28-1.03L323.6,240.37L323.6,240.37z M336.52,258.79
					c1.04-0.67,1.55-1.73,1.55-3.18c0-2.82-2.06-4.23-6.18-4.23h-8.31v8.41h8.31C333.95,259.8,335.49,259.46,336.52,258.79z"/>
			</g>
			<g>
				<path class="st0" d="M347.83,262.24c-0.48-0.47-0.72-1.07-0.72-1.79c0-0.7,0.24-1.28,0.72-1.75c0.48-0.47,1.06-0.7,1.73-0.7
					c0.67,0,1.24,0.23,1.7,0.69c0.46,0.46,0.69,1.05,0.69,1.77c0,0.72-0.23,1.32-0.7,1.79c-0.47,0.47-1.03,0.7-1.68,0.7
					C348.89,262.94,348.31,262.71,347.83,262.24z"/>
			</g>
		</g>
	</g>
	<g>
		<g>
			<g>
				<path class="st0" d="M165.99,133.07l-0.04-18.42L156.81,130h-1.66l-9.14-15.24v18.31h-3.47v-25.28h2.96l10.55,17.77l10.4-17.77
					h2.96l0.04,25.28H165.99z"/>
			</g>
			<g>
				<path class="st0" d="M177.43,132.58c-0.48-0.47-0.72-1.07-0.72-1.79c0-0.7,0.24-1.28,0.72-1.75s1.06-0.7,1.73-0.7
					s1.24,0.23,1.7,0.69c0.46,0.46,0.69,1.05,0.69,1.77s-0.23,1.32-0.7,1.79c-0.47,0.47-1.03,0.7-1.68,0.7
					C178.49,133.29,177.92,133.05,177.43,132.58z"/>
			</g>
			<g>
				<path class="st0" d="M192.58,131.68c-2.03-1.12-3.63-2.66-4.79-4.62c-1.16-1.96-1.73-4.17-1.73-6.63c0-2.46,0.58-4.66,1.73-6.63
					s2.76-3.5,4.8-4.62c2.05-1.12,4.33-1.68,6.86-1.68c1.97,0,3.78,0.33,5.42,0.99c1.64,0.66,3.03,1.64,4.19,2.94l-2.35,2.28
					c-1.9-2-4.27-3-7.11-3c-1.88,0-3.58,0.42-5.09,1.26s-2.7,2-3.56,3.49c-0.85,1.48-1.28,3.14-1.28,4.97s0.43,3.49,1.28,4.97
					c0.85,1.48,2.04,2.64,3.56,3.49c1.52,0.84,3.21,1.26,5.09,1.26c2.82,0,5.19-1.01,7.11-3.03l2.35,2.28
					c-1.16,1.3-2.56,2.29-4.21,2.96s-3.46,1.01-5.44,1.01C196.9,133.36,194.62,132.8,192.58,131.68z"/>
			</g>
			<g>
				<path class="st0" d="M215.53,106.27H219v26.8h-3.47V106.27z"/>
			</g>
			<g>
				<path class="st0" d="M226.51,132.58c-0.48-0.47-0.72-1.07-0.72-1.79c0-0.7,0.24-1.28,0.72-1.75s1.06-0.7,1.73-0.7
					c0.67,0,1.24,0.23,1.7,0.69c0.46,0.46,0.69,1.05,0.69,1.77s-0.23,1.32-0.7,1.79c-0.47,0.47-1.03,0.7-1.68,0.7
					C227.57,133.29,226.99,133.05,226.51,132.58z"/>
			</g>
		</g>
	</g>
	<g>
		<g>
			<g>
				<path class="st0" d="M140.58,391.56l-0.04-18.42l-9.14,15.35h-1.66l-9.14-15.24v18.31h-3.47v-25.28h2.96l10.55,17.77l10.4-17.77
					h2.96l0.04,25.28H140.58z"/>
			</g>
			<g>
				<path class="st0" d="M152.02,391.07c-0.48-0.47-0.72-1.07-0.72-1.79c0-0.7,0.24-1.28,0.72-1.75c0.48-0.47,1.06-0.7,1.73-0.7
					s1.24,0.23,1.7,0.69c0.46,0.46,0.69,1.05,0.69,1.77s-0.23,1.32-0.7,1.79c-0.47,0.47-1.03,0.7-1.68,0.7
					C153.08,391.77,152.51,391.54,152.02,391.07z"/>
			</g>
			<g>
				<path class="st0" d="M167.17,390.17c-2.03-1.12-3.63-2.66-4.79-4.62c-1.16-1.96-1.73-4.17-1.73-6.63c0-2.46,0.58-4.66,1.73-6.63
					c1.16-1.96,2.76-3.5,4.8-4.62c2.05-1.12,4.33-1.68,6.86-1.68c1.97,0,3.78,0.33,5.42,0.99c1.64,0.66,3.03,1.64,4.19,2.94
					l-2.35,2.28c-1.9-2-4.27-3-7.11-3c-1.88,0-3.58,0.42-5.09,1.26c-1.52,0.84-2.7,2-3.56,3.49c-0.85,1.48-1.28,3.14-1.28,4.97
					c0,1.83,0.43,3.49,1.28,4.97c0.85,1.48,2.04,2.64,3.56,3.49c1.52,0.84,3.21,1.26,5.09,1.26c2.82,0,5.19-1.01,7.11-3.03
					l2.35,2.28c-1.16,1.3-2.56,2.29-4.21,2.96c-1.65,0.67-3.46,1.01-5.44,1.01C171.49,391.85,169.21,391.29,167.17,390.17z"/>
			</g>
			<g>
				<path class="st0" d="M192.4,390.51c-1.52-0.84-2.7-2-3.56-3.49c-0.85-1.48-1.28-3.16-1.28-5.04c0-1.88,0.43-3.56,1.28-5.04
					c0.85-1.48,2.04-2.64,3.56-3.47c1.52-0.83,3.23-1.25,5.13-1.25c1.9,0,3.61,0.42,5.11,1.25s2.68,1.99,3.54,3.47
					c0.85,1.48,1.28,3.16,1.28,5.04c0,1.88-0.43,3.56-1.28,5.04c-0.85,1.48-2.03,2.64-3.54,3.49c-1.5,0.84-3.21,1.26-5.11,1.26
					C195.63,391.77,193.92,391.35,192.4,390.51z M200.83,387.89c0.98-0.57,1.74-1.36,2.29-2.38c0.55-1.02,0.83-2.2,0.83-3.52
					c0-1.32-0.28-2.5-0.83-3.52c-0.55-1.02-1.32-1.81-2.29-2.37c-0.98-0.55-2.08-0.83-3.3-0.83s-2.33,0.28-3.3,0.83
					c-0.98,0.55-1.75,1.34-2.31,2.37c-0.57,1.02-0.85,2.2-0.85,3.52c0,1.32,0.28,2.5,0.85,3.52c0.57,1.02,1.34,1.82,2.31,2.38
					c0.98,0.57,2.08,0.85,3.3,0.85C198.76,388.74,199.86,388.46,200.83,387.89z"/>
			</g>
			<g>
				<path class="st0" d="M220.06,373.1c1.18-0.58,2.61-0.87,4.3-0.87v3.36c-0.19-0.02-0.46-0.04-0.79-0.04
					c-1.88,0-3.35,0.56-4.42,1.68c-1.07,1.12-1.61,2.72-1.61,4.79v9.53h-3.47v-19.14h3.32v3.21
					C217.99,374.52,218.89,373.68,220.06,373.1z"/>
			</g>
			<g>
				<path class="st0" d="M245.56,373.46c1.47,0.82,2.62,1.96,3.45,3.43s1.25,3.17,1.25,5.09c0,1.93-0.42,3.63-1.25,5.11
					c-0.83,1.48-1.98,2.63-3.45,3.45c-1.47,0.82-3.13,1.23-4.98,1.23c-1.37,0-2.63-0.26-3.77-0.79s-2.11-1.3-2.91-2.31v9.9h-3.47
					v-26.15h3.32v3.03c0.77-1.06,1.75-1.86,2.93-2.4c1.18-0.54,2.48-0.81,3.9-0.81C242.43,372.24,244.09,372.65,245.56,373.46z
					 M243.59,387.89c0.98-0.57,1.75-1.36,2.31-2.38c0.57-1.02,0.85-2.2,0.85-3.52c0-1.32-0.28-2.5-0.85-3.52
					c-0.57-1.02-1.34-1.81-2.31-2.37c-0.98-0.55-2.08-0.83-3.3-0.83c-1.2,0-2.29,0.28-3.27,0.85c-0.98,0.57-1.75,1.35-2.31,2.37
					c-0.57,1.01-0.85,2.18-0.85,3.5c0,1.32,0.28,2.5,0.83,3.52c0.55,1.02,1.32,1.82,2.31,2.38c0.99,0.57,2.08,0.85,3.29,0.85
					C241.51,388.74,242.62,388.46,243.59,387.89z"/>
			</g>
			<g>
				<path class="st0" d="M255.53,391.07c-0.48-0.47-0.72-1.07-0.72-1.79c0-0.7,0.24-1.28,0.72-1.75c0.48-0.47,1.06-0.7,1.73-0.7
					c0.67,0,1.24,0.23,1.7,0.69c0.46,0.46,0.69,1.05,0.69,1.77s-0.23,1.32-0.7,1.79c-0.47,0.47-1.03,0.7-1.68,0.7
					C256.59,391.77,256.01,391.54,255.53,391.07z"/>
			</g>
		</g>
	</g>
</g>
</svg>
