<?xml version="1.0" encoding="utf-8"?>
<!-- Generator: Adobe Illustrator 25.4.1, SVG Export Plug-In . SVG Version: 6.00 Build 0)  -->
<svg version="1.1" id="Layer_1" xmlns="http://www.w3.org/2000/svg" xmlns:xlink="http://www.w3.org/1999/xlink" x="0px" y="0px"
	 viewBox="0 0 500 500" style="enable-background:new 0 0 500 500;" xml:space="preserve">
<style type="text/css">
	.st0{fill:#EE3150;}
	.st1{fill:#EE3350;}
	.st2{fill:#FFFFFF;}
	.st3{fill:#F7ACC0;}
</style>
<g>
	<g>
		<path class="st0" d="M213.6,392.82L63.16,242.4L213.6,91.96l150.42,150.43L213.6,392.82z M73.06,242.4L213.6,382.92l140.52-140.53
			L213.6,101.86L73.06,242.4z"/>
	</g>
	<g>
		<path class="st0" d="M300.41,158.99l-76.94-76.94l76.94-76.94l76.94,76.94L300.41,158.99z M233.37,82.05l67.04,67.04l67.04-67.04
			l-67.04-67.04L233.37,82.05z"/>
	</g>
	<g>
		<path class="st0" d="M374.17,232.42l-62.67-62.67l62.67-62.67l62.67,62.67L374.17,232.42z M321.4,169.75l52.77,52.77l52.77-52.77
			l-52.77-52.77L321.4,169.75z"/>
	</g>
	<g>
		<path class="st0" d="M315.69,494.89l-92.21-92.21l92.21-92.21l92.21,92.21L315.69,494.89z M233.37,402.68l82.31,82.31L398,402.68
			l-82.31-82.31L233.37,402.68z"/>
	</g>
	<g>
		<path class="st0" d="M373.82,347.51l-47.63-47.63l47.63-47.63l47.63,47.63L373.82,347.51z M336.09,299.88l37.73,37.73l37.73-37.73
			l-37.73-37.73L336.09,299.88z"/>
	</g>
</g>
</svg>
