<?xml version="1.0" encoding="iso-8859-1"?>
<!-- Generator: Adobe Illustrator 19.0.0, SVG Export Plug-In . SVG Version: 6.00 Build 0)  -->
<svg version="1.1" id="Capa_1" xmlns="http://www.w3.org/2000/svg" xmlns:xlink="http://www.w3.org/1999/xlink" x="0px" y="0px"
	 viewBox="0 0 480.004 480.004" style="enable-background:new 0 0 480.004 480.004;" xml:space="preserve">
<g>
	<g>
		<path d="M232.006,256.004c-0.001,0-0.003,0-0.004,0h-224c-4.417-0.001-7.999,3.579-8,7.996c0,0.001,0,0.003,0,0.004v208
			c-0.001,4.417,3.579,7.999,7.996,8c0.001,0,0.003,0,0.004,0h224c4.417,0.001,7.999-3.579,8-7.996c0-0.001,0-0.003,0-0.004v-208
			C240.003,259.587,236.423,256.005,232.006,256.004z M224.002,464.004h-208v-24h208V464.004z M224.002,424.004h-208v-24h208
			V424.004z M224.002,384.004h-208v-32h208V384.004z M224.002,336.004h-208v-24h208V336.004z M224.002,296.004h-208v-24h208V296.004
			z"/>
	</g>
</g>
<g>
	<g>
		<path d="M477.658,2.344C476.159,0.843,474.124,0,472.002,0l-464,0.004C3.585,0.003,0.003,3.583,0.002,8c0,0.001,0,0.003,0,0.004
			v224c-0.001,4.417,3.579,7.999,7.996,8c0.001,0,0.003,0,0.004,0h248V472c-0.001,4.417,3.579,7.999,7.996,8
			c0.001,0,0.003,0,0.004,0h208c4.417,0.001,7.999-3.579,8-7.996c0-0.001,0-0.003,0-0.004V8
			C480.002,5.879,479.158,3.844,477.658,2.344z M464.002,464h-192V232.004c0.001-4.417-3.579-7.999-7.996-8
			c-0.001,0-0.003,0-0.004,0h-248v-208h448V464z"/>
	</g>
</g>
<g>
</g>
<g>
</g>
<g>
</g>
<g>
</g>
<g>
</g>
<g>
</g>
<g>
</g>
<g>
</g>
<g>
</g>
<g>
</g>
<g>
</g>
<g>
</g>
<g>
</g>
<g>
</g>
<g>
</g>
</svg>
