<?xml version="1.0"?>
<svg xmlns="http://www.w3.org/2000/svg" viewBox="0 0 64 64" width="512" height="512"><g id="Outline"><g><path d="M22,13a3.909,3.909,0,0,0,1.605-.343,4.968,4.968,0,0,0,7.142-.361A3.99,3.99,0,0,0,37,9a1,1,0,0,0-2,0,2,2,0,0,1-2,2,1.978,1.978,0,0,1-1.613-.832,1,1,0,0,0-1.706.147,2.972,2.972,0,0,1-5.076.47,1,1,0,0,0-.661-.392,1.01,1.01,0,0,0-.744.193A1.975,1.975,0,0,1,22,11a2,2,0,0,1-2-2,1,1,0,0,0-2,0A4,4,0,0,0,22,13Z"/><path d="M5,10a2.979,2.979,0,0,0,1.8-.6A4,4,0,0,0,14,7a1,1,0,0,0-2,0A2,2,0,0,1,8,7,1,1,0,0,0,6,7,1,1,0,0,1,4,7,1,1,0,0,0,2,7,3,3,0,0,0,5,10Z"/><path d="M56,19a1,1,0,0,0-2,0,2,2,0,0,1-4,0,1,1,0,0,0-2,0,1,1,0,0,1-2,0,1,1,0,0,0-2,0,3,3,0,0,0,4.8,2.4A4,4,0,0,0,56,19Z"/><path d="M49,13a3,3,0,0,0,5,2.234A2.987,2.987,0,0,0,56,16a1,1,0,0,0,0-2,1,1,0,0,1-1-1,1,1,0,0,0-2,0,1,1,0,0,1-2,0,1,1,0,0,0-2,0Z"/><path d="M42,15a3,3,0,0,0,3-3,1,1,0,0,0-2,0,1,1,0,0,1-2,0,1,1,0,0,0-2,0A3,3,0,0,0,42,15Z"/><path d="M47,10a3,3,0,0,0,3-3,1,1,0,0,0-2,0,1,1,0,0,1-2,0,1,1,0,0,0-2,0A3,3,0,0,0,47,10Z"/><path d="M54,29a3,3,0,0,0,3-3,1,1,0,0,0-2,0,1,1,0,0,1-2,0,1,1,0,0,0-2,0A3,3,0,0,0,54,29Z"/><path d="M30,55H20.91a6,6,0,1,0,0,2H30a1,1,0,0,0,0-2ZM15,60a4,4,0,1,1,4-4A4,4,0,0,1,15,60Z"/><path d="M27,49v2a1,1,0,0,0,2,0V49a1,1,0,0,0-2,0Z"/><circle cx="15" cy="56" r="1"/><circle cx="39" cy="56" r="1"/><path d="M37.345,46.93a.928.928,0,0,0,.086-.037.884.884,0,0,0,.084-.036l5-3a1,1,0,0,0,.317-1.412l-2-3A1,1,0,0,0,40,39H23a1,1,0,0,0-.832.445l-4,6A1,1,0,0,0,19,47H37A1,1,0,0,0,37.345,46.93ZM36,45H29V41h7Zm4.586-2.318L38,44.234V41h1.465ZM23.535,41H27v4H20.869Z"/><path d="M21,19a3.937,3.937,0,0,0,1.9-.485,4.049,4.049,0,0,0,2.611,1.444,5.931,5.931,0,0,0,7.791,1.029,3.987,3.987,0,0,0,2.659-1.318,4.041,4.041,0,0,0,1.065.882,4.624,4.624,0,0,0,1.452,3.868,4.875,4.875,0,0,0,3.53,1.667h.052a5.01,5.01,0,0,0,2.492-.719,1,1,0,0,0-1.026-1.717,2.963,2.963,0,0,1-1.492.436,2.854,2.854,0,0,1-2.082-1.02,2.572,2.572,0,0,1-.816-2.824A1,1,0,0,0,38.455,19a2.005,2.005,0,0,1-1.38-1.407,1,1,0,0,0-.666-.7l-.149-.041a1.009,1.009,0,0,0-.821.032,1,1,0,0,0-.519.634A2,2,0,0,1,33.031,19a.977.977,0,0,0-.654.2,3.939,3.939,0,0,1-5.557-.8,1,1,0,0,0-.847-.4,2.005,2.005,0,0,1-1.841-1.313,1,1,0,0,0-1.672-.334A1.971,1.971,0,0,1,21,17a2,2,0,0,1-2-1.966c0-.019,0-.037,0-.055a1.131,1.131,0,0,0-.45-.841l-.063-.054a.971.971,0,0,0-1.377.152,1.011,1.011,0,0,0-.095,1.128A4.005,4.005,0,0,0,21,19Z"/><path d="M5,15a2.969,2.969,0,0,0,1.5-.409,3.033,3.033,0,0,0,2.637.185,3.98,3.98,0,0,0,6.2-.568A1,1,0,1,0,13.667,13.1a1.985,1.985,0,0,1-3.408-.145,1,1,0,0,0-.726-.506,1.014,1.014,0,0,0-.843.268.981.981,0,0,1-1.437-.067,1.032,1.032,0,0,0-1.506,0A.991.991,0,0,1,5,13a1,1,0,0,1-1-1,1,1,0,0,0-2,0A3,3,0,0,0,5,15Z"/><path d="M60.985,26.443c.01-.122.015-.24.015-.356a4.927,4.927,0,0,0-1.344-3.395,3.932,3.932,0,0,0,.292-2.242,3.982,3.982,0,0,0-1.116-2.172c.034-.127.064-.256.087-.384A4.007,4.007,0,0,0,62,14a1,1,0,0,0-2,0,2,2,0,0,1-2,2,1,1,0,0,0-1,1,2.966,2.966,0,0,1-.254,1.2,1,1,0,0,0,.356,1.229,2.022,2.022,0,0,1,.872,1.338,1.959,1.959,0,0,1-.388,1.52,1,1,0,0,0,.2,1.405A2.972,2.972,0,0,1,59,26.087a2.93,2.93,0,0,1-.057.542,1,1,0,0,0,.338.94,1.964,1.964,0,0,1,.187,2.863,1,1,0,0,0-.194,1.042,10.346,10.346,0,0,1,.72,3.45,1,1,0,0,0-.054.619,1.944,1.944,0,0,1-.876,2.142,1,1,0,0,0-.334,1.339A1.96,1.96,0,0,1,59,40a1.988,1.988,0,0,1-.532,1.344,1,1,0,0,0,.634,1.671.985.985,0,0,1,.55,1.733,1,1,0,0,0,0,1.5.981.981,0,0,1-.18,1.62,1,1,0,0,0-.143,1.663,1.109,1.109,0,0,1,.407,1.053l-.095.575A4.487,4.487,0,0,1,58.3,53.756,4.387,4.387,0,0,1,55,54.88V52.705l.369-.184a2.92,2.92,0,0,0,.785-.59,1,1,0,0,0,.068-1.317.974.974,0,0,1,.281-1.472,1,1,0,0,0,.5-.865V48a1,1,0,0,0-1-1,1,1,0,0,1-1-.979l.014-.118a1,1,0,0,0-.668-1.026,1.979,1.979,0,0,1,0-3.751,1,1,0,0,0,.67-1.008c0-.026-.013-.093-.017-.118a1.977,1.977,0,0,1,.041-.4,1.222,1.222,0,0,0-.013-.455A.954.954,0,0,1,55,39a.993.993,0,0,1,.563-.892,1,1,0,0,0,.267-1.6l-1.268-1.268a.91.91,0,0,1-.252-.917,2.958,2.958,0,0,0-1.1-3.411,1,1,0,0,0-.984-.091,3,3,0,0,1-1.1.268,2.715,2.715,0,0,1-2-.873c-1.3-1.295-1.214-2.135-1.017-2.884a1,1,0,1,0-1.933-.51c-.319,1.207-.431,2.845,1.536,4.809a4.658,4.658,0,0,0,3.51,1.456,4.914,4.914,0,0,0,1.145-.191.942.942,0,0,1,.056.754,2.9,2.9,0,0,0,.72,3l.5.5A2.958,2.958,0,0,0,53,39a2.261,2.261,0,0,0,.043.421c-.006.038-.011.077-.016.116a3.975,3.975,0,0,0,.01,6.935,3.006,3.006,0,0,0,1.354,2.059A2.956,2.956,0,0,0,54.14,50.9l-.2.1H51V48.806a9.029,9.029,0,0,0-1.972-5.622l-5.647-7.059A2.988,2.988,0,0,0,41.039,35H22a3.014,3.014,0,0,0-2.4,1.2L14.5,43H6.829a2.978,2.978,0,0,0-2.122.879L2.879,45.707A2.978,2.978,0,0,0,2,47.829V56a1,1,0,0,0,1,1H6a1,1,0,0,0,0-2H4V50H7a3,3,0,0,0,3-3V45h5a1,1,0,0,0,.8-.4l5.4-7.2A1,1,0,0,1,22,37H41.039a.994.994,0,0,1,.78.375l5.647,7.058A7.007,7.007,0,0,1,48.931,48H47a1,1,0,0,0,0,2h2v5H44.91a6,6,0,1,0,0,2H54a.965.965,0,0,0,.505-.157,6.314,6.314,0,0,0,5.141-1.605,6.477,6.477,0,0,0,1.967-3.747l.1-.575a3.117,3.117,0,0,0-.366-2.052,2.968,2.968,0,0,0,.249-3.364,2.978,2.978,0,0,0-.9-3.971A3.933,3.933,0,0,0,61,40a3.827,3.827,0,0,0-.182-1.169A3.967,3.967,0,0,0,62,36a3.574,3.574,0,0,0-.031-.469A1.007,1.007,0,0,0,62,35.284a12.331,12.331,0,0,0-.666-4,3.951,3.951,0,0,0-.349-4.839ZM8,47a1,1,0,0,1-1,1H4v-.171a1,1,0,0,1,.293-.708l1.828-1.828A1,1,0,0,1,6.829,45H8ZM39,60a4,4,0,1,1,4-4A4,4,0,0,1,39,60Zm14-5H51V53h2Z"/></g></g></svg>
