<?xml version="1.0" encoding="utf-8"?>
<!-- Generator: Adobe Illustrator 22.0.1, SVG Export Plug-In . SVG Version: 6.00 Build 0)  -->
<svg version="1.1" id="Capa_1" xmlns="http://www.w3.org/2000/svg" xmlns:xlink="http://www.w3.org/1999/xlink" x="0px" y="0px"
	 viewBox="0 0 512 512" style="enable-background:new 0 0 512 512;" xml:space="preserve">
<style type="text/css">
	.st0{stroke:#FFFFFF;stroke-width:14;stroke-miterlimit:10;}
</style>
<g>
	<path class="st0" d="M484,202.2c-13.5-13.7-30.4-23-48.8-27c1.1-5.7,1.6-11.5,1.6-17.3c0-52.6-42.8-95.4-95.4-95.4
		c-16.6,0-32.7,4.3-46.8,12.3C278.9,32.1,237.8,2.2,190.7,2.2c-60.9,0-110.4,49.5-110.4,110.4c0,8.6,1,17.1,2.9,25.3
		c-20.9,6.5-39.8,18.7-54.4,35.5C10.2,194.8,0,222.3,0,250.7c0,44.9,27,86.8,68.8,106.8c11.7,5.6,24,9.2,36.6,10.8v5.1
		c0,26.3,19.7,48.1,45.2,51.3V465c0,24.7,20.1,44.8,44.8,44.8h121.3c24.7,0,44.8-20.1,44.8-44.8v-40.4c25.4-3.2,45.2-25,45.2-51.3
		v-4.7c0,0,6.8,0,7.5,0c54,0,97.9-43.9,97.9-97.9C512,245,502,220.6,484,202.2L484,202.2z M354.9,395h-23.6V465
		c0,8.1-6.6,14.6-14.6,14.6h-15.5v-60.2h-30.1v60.2h-30.1v-60.2h-30.1v60.2h-15.5c-8.1,0-14.6-6.6-14.6-14.6V395h-23.6
		c-11.9,0-21.6-9.7-21.6-21.6v-49.3c0-66.4,54-120.5,120.5-120.5s120.5,54,120.5,120.5l-0.3,15.1l0.3,34.2
		C376.5,385.3,366.8,395,354.9,395L354.9,395z M414.1,338.5c-1,0-7.5,0-7.5,0v-14.5c0-83-67.6-150.6-150.6-150.6
		S105.4,241,105.4,324.1v13.8c-8.1-1.4-16-3.9-23.6-7.5c-31.4-15-51.7-46.2-51.7-79.6c0-43.1,32.1-80.5,74.6-86.9l19-2.9l-7.3-17.8
		c-4-9.7-6-20-6-30.6c0-44.3,36-80.3,80.3-80.3c40.2,0,74.5,30,79.6,69.9l3.9,29.9l21.6-21c12.3-11.9,28.4-18.5,45.5-18.5
		c36,0,65.3,29.3,65.3,65.3c0,8.4-1.6,16.7-4.8,24.5l-8.2,20.3l21.9,0.4c36.6,0.7,66.4,31.1,66.4,67.7
		C481.9,308.1,451.5,338.5,414.1,338.5z"/>
	<path class="st0" d="M180.7,299h30.1v30.1h-30.1V299z"/>
	<path class="st0" d="M301.2,299h30.1v30.1h-30.1V299z"/>
	<path class="st0" d="M240.9,344.1h30.1v45.2h-30.1V344.1z"/>
</g>
</svg>
