<svg id="Layer_5" enable-background="new 0 0 64 64" height="512" viewBox="0 0 64 64" width="512" xmlns="http://www.w3.org/2000/svg"><g><g><g><path d="m27.71 16.29.39-.39c.58-.58.9-1.36.9-2.17 0-.86-.37-1.68-1-2.25v-5.48c0-2.21 1.79-4 4-4h26c2.21 0 4 1.79 4 4v16c0 2.21-1.79 4-4 4h-11-4-11c-1.37 0-2.58-.69-3.28-1.74.18-.38.28-.81.28-1.26 0-.89-.38-1.69-1-2.23v-3.77c0-.28-.11-.52-.29-.71z" fill="#e6e9ed"/></g><g><path d="m47 41v3c0 .55-.22 1.05-.59 1.41-.36.37-.86.59-1.41.59-1.1 0-2-.9-2-2v-3-6-9h4v9z" fill="#b27946"/></g><g><path d="m18 58h10v4h-10z" fill="#69d6f4"/></g><g><path d="m8 58h10v4h-10z" fill="#69d6f4"/></g><g><path d="m18 50h10v4h-10z" fill="#69d6f4"/></g><g><path d="m8 50h10v4h-10z" fill="#69d6f4"/></g><g><path d="m8 54h10v4h-10z" fill="#4fc1e9"/></g><g><path d="m18 54h10v4h-10z" fill="#4fc1e9"/></g><g><path d="m28 41v9h-10v-2l2.4-4.8 4.1-8.2h3.5z" fill="#4fc1e9"/></g><g><path d="m18 48v2h-10v-2-11.76c.65-.27 1.34-.47 2.04-.58l1.65-.28 3.91 7.82z" fill="#4fc1e9"/></g><g><path d="m8 36.24v11.76h-6v-2.85c0-1.61.4-3.17 1.14-4.54.74-1.38 1.8-2.57 3.14-3.47.54-.36 1.12-.66 1.72-.9z" fill="#fcd770"/></g><g><path d="m28 35h6v6h-6z" fill="#fcd770"/></g><g><path d="m18 39 2.4 4.2-2.4 4.8-2.4-4.8z" fill="#fcd770"/></g><g><path d="m24.5 35-4.1 8.2-2.4-4.2 4-4z" fill="#ffc729"/></g><g><path d="m18 39-2.4 4.2-3.91-7.82 2.31-.38z" fill="#ffc729"/></g><g><path d="m8 50v4 4 4h-6v-14h6z" fill="#f0d0b4"/></g><g><path d="m48 35c1.66 0 3 1.34 3 3 0 .83-.34 1.58-.88 2.12s-1.29.88-2.12.88h-1v-6z" fill="#f0d0b4"/></g><g><path d="m34 35h9v6h-9z" fill="#f0d0b4"/></g><g><path d="m28 20.77c.62.54 1 1.34 1 2.23 0 .45-.1.88-.28 1.26-.15.32-.35.61-.6.86-.54.54-1.29.88-2.12.88h-1.07-.01c.06-.33.08-.66.08-1v-3.41c1.76-.78 3-2.54 3-4.59z" fill="#f0d0b4"/></g><g><path d="m21.01 31.32.99 3.68-4 4-4-4 .99-3.68c.91.44 1.93.68 3.01.68s2.1-.24 3.01-.68z" fill="#f0d0b4"/></g><g><path d="m13 22h10c.71 0 1.39-.15 2-.41v3.41c0 .34-.02.67-.08 1-.33 2.36-1.84 4.33-3.91 5.32-.91.44-1.93.68-3.01.68s-2.1-.24-3.01-.68c-.72-.34-1.38-.81-1.94-1.37-1.05-1.05-1.76-2.41-1.97-3.95-.06-.33-.08-.66-.08-1v-3.41c.61.26 1.29.41 2 .41z" fill="#f0d0b4"/></g><g><path d="m11 25c0 .34.02.67.08 1h-.01-1.07c-.83 0-1.58-.34-2.12-.88s-.88-1.29-.88-2.12c0-1.31.83-2.42 2-2.83l.08-.06c.12.15.25.3.38.43.44.44.96.79 1.54 1.05z" fill="#f0d0b4"/></g><g><path d="m28 11.48c-.15-.14-.31-.26-.49-.37l-7.65-4.6c-.56-.33-1.21-.51-1.86-.51s-1.3.18-1.86.51l-7.65 4.6c-.93.55-1.49 1.55-1.49 2.62 0 .81.32 1.59.9 2.17l.39.39c.19-.18.43-.29.71-.29h9 9c.28 0 .52.11.71.29l.39-.39c.58-.58.9-1.36.9-2.17 0-.86-.37-1.68-1-2.25z" fill="#ccd1d9"/></g><g><path d="m27.71 16.29c.18.19.29.43.29.71 0 2.05-1.24 3.81-3 4.59-.61.26-1.29.41-2 .41h-10c-.71 0-1.39-.15-2-.41-.58-.26-1.1-.61-1.54-1.05-.13-.13-.26-.28-.38-.43-.67-.85-1.08-1.93-1.08-3.11 0-.28.11-.52.29-.71.19-.18.43-.29.71-.29h9 9c.28 0 .52.11.71.29z" fill="#aab2bd"/></g><g><circle cx="18" cy="13" fill="#fcd770" r="3"/></g></g><g><path d="m21.789 26.658.105-.211-1.789-.895-.105.212c-.381.762-1.147 1.236-2 1.236s-1.619-.474-2-1.236l-.105-.211-1.789.895.105.211c.722 1.444 2.174 2.341 3.789 2.341s3.067-.897 3.789-2.342z"/><path d="m34 11c.552 0 1 .448 1 1h2c0-1.654-1.346-3-3-3s-3 1.346-3 3 1.346 3 3 3c.552 0 1 .448 1 1s-.448 1-1 1-1-.448-1-1h-2c0 1.654 1.346 3 3 3s3-1.346 3-3-1.346-3-3-3c-.552 0-1-.448-1-1s.448-1 1-1z"/><path d="m38 11h2v8h2v-8h2v-2h-6z"/><path d="m48 9c-1.654 0-3 1.346-3 3v4c0 1.654 1.346 3 3 3s3-1.346 3-3v-4c0-1.654-1.346-3-3-3zm1 7c0 .552-.448 1-1 1s-1-.448-1-1v-4c0-.552.448-1 1-1s1 .448 1 1z"/><path d="m56 9h-3v10h2v-4h1c1.654 0 3-1.346 3-3s-1.346-3-3-3zm0 4h-1v-2h1c.552 0 1 .448 1 1s-.448 1-1 1z"/><path d="m58 1h-26c-2.757 0-5 2.243-5 5v3.633l-6.627-3.976c-1.432-.859-3.315-.859-4.745 0l-7.657 4.594c-1.216.73-1.971 2.064-1.971 3.481 0 1.027.39 1.988 1.08 2.738-.047.17-.08.346-.08.53 0 .993.246 1.928.675 2.754-1.029.739-1.675 1.937-1.675 3.246 0 2.206 1.794 4 4 4h.263c.524 2.026 1.821 3.74 3.561 4.81l-.622 2.309-3.33.556c-1.49.248-2.885.799-4.145 1.638-2.959 1.974-4.727 5.277-4.727 8.833v17.854h28v-21h13v2c0 1.654 1.346 3 3 3s3-1.346 3-3v-2c2.206 0 4-1.794 4-4s-1.794-4-4-4v-7h10c2.757 0 5-2.243 5-5v-16c0-2.757-2.243-5-5-5zm-35.233 33-.59-2.19c1.739-1.071 3.036-2.784 3.56-4.81h.263c1.097 0 2.09-.444 2.813-1.161.886.733 2.007 1.161 3.187 1.161h10v7zm-13.767 17h8v2h-8zm0 8h8v2h-8zm0-2v-2h8v2zm10-2h8v2h-8zm0-2v-2h8v2zm0-4v-.764l6.118-12.236h1.882v13zm-1-7.985 1.266 2.216-1.266 2.533-1.266-2.533zm4.414-5.015h.468l-2.541 5.081-1.094-1.914zm-13.414-19h18c0 2.206-1.794 4-4 4h-10c-2.206 0-4-1.794-4-4zm7-4c0-1.103.897-2 2-2s2 .897 2 2-.897 2-2 2-2-.897-2-2zm11.114 8.356c.539.366.886.972.886 1.644 0 1.103-.897 2-2 2v-2.812c.404-.234.777-.514 1.114-.832zm-18.114-9.39 7.658-4.594c.809-.486 1.874-.486 2.685 0l7.657 4.594c.617.37 1 1.048 1 1.767 0 .498-.184.963-.505 1.337-.159-.041-.323-.07-.495-.07h-5.556c.344-.591.556-1.268.556-2 0-2.206-1.794-4-4-4s-4 1.794-4 4c0 .732.212 1.409.556 2h-5.556c-.172 0-.336.029-.495.07-.321-.374-.505-.839-.505-1.338 0-.718.383-1.396 1-1.766zm-1 11.034c0-.672.347-1.278.886-1.644.337.319.711.598 1.114.833v2.811c-1.103 0-2-.897-2-2zm4 2v-2.09c.326.055.659.09 1 .09h10c.341 0 .674-.035 1-.09v2.09c0 3.309-2.691 6-6 6s-6-2.691-6-6zm6 8c.811 0 1.593-.123 2.331-.349l.553 2.051-2.884 2.884-2.884-2.884.553-2.05c.738.225 1.52.348 2.331.348zm-4.343 3.071 3.096 3.096-1.094 1.914-2.466-4.933zm-3.457.576.928-.155 5.872 11.744v.764h-8v-12.052c.392-.125.79-.232 1.2-.301zm-3.364 1.33c.053-.035.11-.063.164-.097v9.12h-4v-1.854c0-2.886 1.435-5.567 3.836-7.169zm-3.836 11.023h4v12h-4zm16 12v-2h8v2zm10-25h4v4h-4zm6 4v-4h7v4zm15-2c0 1.103-.897 2-2 2v-4c1.103 0 2 .897 2 2zm-4 6c0 .552-.448 1-1 1s-1-.448-1-1v-17h2zm15-22c0 1.654-1.346 3-3 3h-26c-.826 0-1.602-.35-2.162-.934.095-.342.162-.695.162-1.066 0-.99-.375-1.915-1-2.629v-3.998c.637-.737 1-1.657 1-2.641s-.37-1.923-1-2.652v-5.08c0-1.654 1.346-3 3-3h26c1.654 0 3 1.346 3 3z"/></g></g></svg>